<?xml version="1.0" encoding="UTF-8"?>
<svg xmlns="http://www.w3.org/2000/svg"
     width="77.4mm"
     height="46.800000000000004mm"
     viewBox="11 -97 43 26">
<g fill="transparent" stroke="#000" stroke-width="0.02" opacity="1">
  <path d="M 12 -81.5 A 0.5 0.5 0 0 1 12.5 -82 L 13 -82 L 13.5 -82 L 14 -82 L 14.5 -82 L 15 -82 L 15.5 -82 L 16 -82 L 16.5 -82 L 17 -82 L 17.5 -82 L 18 -82 L 18.5 -82 L 19 -82 L 19.5 -82 L 20 -82 L 20.5 -82 L 21 -82 L 21.5 -82 L 22 -82 L 22.5 -82 L 23 -82 L 23.5 -82 L 24 -82 L 24.5 -82 L 25 -82 L 25.5 -82 L 26 -82 L 26.5 -82 L 27 -82 L 27.5 -82 L 28 -82 L 28.5 -82 L 29 -82 L 29.5 -82 L 30 -82 L 30.5 -82 L 31 -82 L 31.5 -82 L 32 -82 L 32.5 -82 L 33 -82 L 33.5 -82 L 34 -82 L 34.5 -82 L 35 -82 L 35.5 -82 L 36 -82 L 36.5 -82 L 37 -82 L 37.5 -82 L 38 -82 L 38.5 -82 L 39 -82 L 39.5 -82 L 40 -82 L 40.5 -82 L 41 -82 L 41.5 -82 L 42 -82 L 42.5 -82 L 43 -82 L 43.5 -82 L 44 -82 L 44.5 -82 L 45 -82 L 45.5 -82 L 46 -82 L 46.5 -82 L 47 -82 L 47.5 -82 L 48 -82 L 48.5 -82 L 49 -82 L 49.5 -82 L 50 -82 L 50.5 -82 L 51 -82 L 51.5 -82 A 0.5 0.5 0 0 1 52 -81.5 L 52 -81 L 52 -80.5 L 52 -80 L 52 -79.5 L 52 -79 L 52 -78.5 L 52 -78 L 52 -77.5 L 52 -77 L 52 -76.5 L 52 -76 L 52 -75.5 L 52 -75 L 52 -74.5 L 52 -74 L 52 -73.5 L 52 -73 L 52 -72.5 A 0.5 0.5 0 0 1 51.5 -72 L 51 -72 L 50.5 -72 L 50 -72 L 49.5 -72 L 49 -72 L 48.5 -72 L 48 -72 L 47.5 -72 L 47 -72 L 46.5 -72 L 46 -72 L 45.5 -72 L 45 -72 L 44.5 -72 L 44 -72 L 43.5 -72 L 43 -72 L 42.5 -72 L 42 -72 L 41.5 -72 L 41 -72 L 40.5 -72 L 40 -72 L 39.5 -72 L 39 -72 L 38.5 -72 L 38 -72 L 37.5 -72 L 37 -72 L 36.5 -72 L 36 -72 L 35.5 -72 L 35 -72 L 34.5 -72 L 34 -72 L 33.5 -72 L 33 -72 L 32.5 -72 L 32 -72 L 31.5 -72 L 31 -72 L 30.5 -72 L 30 -72 L 29.5 -72 L 29 -72 L 28.5 -72 L 28 -72 L 27.5 -72 L 27 -72 L 26.5 -72 L 26 -72 L 25.5 -72 L 25 -72 L 24.5 -72 L 24 -72 L 23.5 -72 L 23 -72 L 22.5 -72 L 22 -72 L 21.5 -72 L 21 -72 L 20.5 -72 L 20 -72 L 19.5 -72 L 19 -72 L 18.5 -72 L 18 -72 L 17.5 -72 L 17 -72 L 16.5 -72 L 16 -72 L 15.5 -72 L 15 -72 L 14.5 -72 L 14 -72 L 13.5 -72 L 13 -72 L 12.5 -72 A 0.5 0.5 0 0 1 12 -72.5 L 12 -73 L 12 -73.5 L 12 -74 L 12 -74.5 L 12 -75 L 12 -75.5 L 12 -76 L 12 -76.5 L 12 -77 L 12 -77.5 L 12 -78 L 12 -78.5 L 12 -79 L 12 -79.5 L 12 -80 L 12 -80.5 L 12 -81 L 12 -81.5 Z" />
  <path d="M 13.5 -80 L 13.5 -79.5 L 13.5 -79 L 13.5 -78.5 L 13.5 -78 L 13.5 -77.5 L 13.5 -77 L 13.5 -76.5 L 13.5 -76 L 13.5 -75.5 L 13.5 -75 L 13.5 -74.5 L 13.5 -74 A 0.5 0.5 0 0 0 14 -73.5 L 14.5 -73.5 L 15 -73.5 A 0.5 0.5 0 0 0 15.5 -74 L 15.5 -74.5 L 15.5 -75 L 15.5 -75.5 L 15.5 -76 L 15.5 -76.5 L 15.5 -77 L 15.5 -77.5 L 15.5 -78 L 15.5 -78.5 L 15.5 -79 L 15.5 -79.5 L 15.5 -80 A 0.5 0.5 0 0 0 15 -80.5 L 14.5 -80.5 L 14 -80.5 A 0.5 0.5 0 0 0 13.5 -80 Z" />
  <path d="M 16.5 -80 L 16.5 -79.5 L 16.5 -79 L 16.5 -78.5 L 16.5 -78 L 16.5 -77.5 L 16.5 -77 L 16.5 -76.5 L 16.5 -76 L 16.5 -75.5 L 16.5 -75 L 16.5 -74.5 L 16.5 -74 A 0.5 0.5 0 0 0 17 -73.5 L 17.5 -73.5 L 18 -73.5 L 18.5 -73.5 L 19 -73.5 L 19.5 -73.5 L 20 -73.5 L 20.5 -73.5 L 21 -73.5 L 21.5 -73.5 L 22 -73.5 L 22.5 -73.5 L 23 -73.5 A 0.5 0.5 0 0 0 23.5 -74 L 23.5 -74.5 L 23.5 -75 L 23.5 -75.5 L 23.5 -76 L 23.5 -76.5 L 23.5 -77 L 23.5 -77.5 L 23.5 -78 L 23.5 -78.5 L 23.5 -79 L 23.5 -79.5 L 23.5 -80 A 0.5 0.5 0 0 0 23 -80.5 L 22.5 -80.5 L 22 -80.5 L 21.5 -80.5 L 21 -80.5 L 20.5 -80.5 L 20 -80.5 L 19.5 -80.5 L 19 -80.5 L 18.5 -80.5 L 18 -80.5 L 17.5 -80.5 L 17 -80.5 A 0.5 0.5 0 0 0 16.5 -80 Z" />
  <path d="M 24.5 -80 L 24.5 -79.5 L 24.5 -79 L 24.5 -78.5 L 24.5 -78 L 24.5 -77.5 L 24.5 -77 L 24.5 -76.5 L 24.5 -76 L 24.5 -75.5 L 24.5 -75 L 24.5 -74.5 L 24.5 -74 A 0.5 0.5 0 0 0 25 -73.5 L 25.5 -73.5 L 26 -73.5 L 26.5 -73.5 L 27 -73.5 L 27.5 -73.5 L 28 -73.5 L 28.5 -73.5 L 29 -73.5 L 29.5 -73.5 L 30 -73.5 L 30.5 -73.5 L 31 -73.5 A 0.5 0.5 0 0 0 31.5 -74 L 31.5 -74.5 L 31.5 -75 L 31.5 -75.5 L 31.5 -76 L 31.5 -76.5 L 31.5 -77 L 31.5 -77.5 L 31.5 -78 L 31.5 -78.5 L 31.5 -79 L 31.5 -79.5 L 31.5 -80 A 0.5 0.5 0 0 0 31 -80.5 L 30.5 -80.5 L 30 -80.5 L 29.5 -80.5 L 29 -80.5 L 28.5 -80.5 L 28 -80.5 L 27.5 -80.5 L 27 -80.5 L 26.5 -80.5 L 26 -80.5 L 25.5 -80.5 L 25 -80.5 A 0.5 0.5 0 0 0 24.5 -80 Z" />
  <path d="M 32.5 -80 L 32.5 -79.5 L 32.5 -79 L 32.5 -78.5 L 32.5 -78 L 32.5 -77.5 L 32.5 -77 L 32.5 -76.5 L 32.5 -76 L 32.5 -75.5 L 32.5 -75 L 32.5 -74.5 L 32.5 -74 A 0.5 0.5 0 0 0 33 -73.5 L 33.5 -73.5 L 34 -73.5 L 34.5 -73.5 L 35 -73.5 L 35.5 -73.5 L 36 -73.5 L 36.5 -73.5 L 37 -73.5 L 37.5 -73.5 L 38 -73.5 L 38.5 -73.5 L 39 -73.5 A 0.5 0.5 0 0 0 39.5 -74 L 39.5 -74.5 L 39.5 -75 L 39.5 -75.5 L 39.5 -76 L 39.5 -76.5 L 39.5 -77 L 39.5 -77.5 L 39.5 -78 L 39.5 -78.5 L 39.5 -79 L 39.5 -79.5 L 39.5 -80 A 0.5 0.5 0 0 0 39 -80.5 L 38.5 -80.5 L 38 -80.5 L 37.5 -80.5 L 37 -80.5 L 36.5 -80.5 L 36 -80.5 L 35.5 -80.5 L 35 -80.5 L 34.5 -80.5 L 34 -80.5 L 33.5 -80.5 L 33 -80.5 A 0.5 0.5 0 0 0 32.5 -80 Z" />
  <path d="M 40.5 -80 L 40.5 -79.5 L 40.5 -79 L 40.5 -78.5 L 40.5 -78 L 40.5 -77.5 L 40.5 -77 L 40.5 -76.5 L 40.5 -76 L 40.5 -75.5 L 40.5 -75 L 40.5 -74.5 L 40.5 -74 A 0.5 0.5 0 0 0 41 -73.5 L 41.5 -73.5 L 42 -73.5 L 42.5 -73.5 L 43 -73.5 L 43.5 -73.5 L 44 -73.5 L 44.5 -73.5 L 45 -73.5 L 45.5 -73.5 L 46 -73.5 L 46.5 -73.5 L 47 -73.5 A 0.5 0.5 0 0 0 47.5 -74 L 47.5 -74.5 L 47.5 -75 L 47.5 -75.5 L 47.5 -76 L 47.5 -76.5 L 47.5 -77 L 47.5 -77.5 L 47.5 -78 L 47.5 -78.5 L 47.5 -79 L 47.5 -79.5 L 47.5 -80 A 0.5 0.5 0 0 0 47 -80.5 L 46.5 -80.5 L 46 -80.5 L 45.5 -80.5 L 45 -80.5 L 44.5 -80.5 L 44 -80.5 L 43.5 -80.5 L 43 -80.5 L 42.5 -80.5 L 42 -80.5 L 41.5 -80.5 L 41 -80.5 A 0.5 0.5 0 0 0 40.5 -80 Z" />
  <path d="M 48.5 -80 L 48.5 -79.5 L 48.5 -79 L 48.5 -78.5 L 48.5 -78 L 48.5 -77.5 L 48.5 -77 L 48.5 -76.5 L 48.5 -76 L 48.5 -75.5 L 48.5 -75 L 48.5 -74.5 L 48.5 -74 A 0.5 0.5 0 0 0 49 -73.5 L 49.5 -73.5 L 50 -73.5 A 0.5 0.5 0 0 0 50.5 -74 L 50.5 -74.5 L 50.5 -75 L 50.5 -75.5 L 50.5 -76 L 50.5 -76.5 L 50.5 -77 L 50.5 -77.5 L 50.5 -78 L 50.5 -78.5 L 50.5 -79 L 50.5 -79.5 L 50.5 -80 A 0.5 0.5 0 0 0 50 -80.5 L 49.5 -80.5 L 49 -80.5 A 0.5 0.5 0 0 0 48.5 -80 Z" />
  <path d="M 13 -95.5 A 0.5 0.5 0 0 1 13.5 -96 L 14 -96 L 14.5 -96 L 15 -96 L 15.5 -96 L 16 -96 L 16.5 -96 L 17 -96 L 17.5 -96 L 18 -96 L 18.5 -96 L 19 -96 L 19.5 -96 L 20 -96 L 20.5 -96 L 21 -96 L 21.5 -96 L 22 -96 L 22.5 -96 L 23 -96 L 23.5 -96 L 24 -96 L 24.5 -96 L 25 -96 L 25.5 -96 L 26 -96 L 26.5 -96 L 27 -96 L 27.5 -96 L 28 -96 L 28.5 -96 L 29 -96 L 29.5 -96 L 30 -96 L 30.5 -96 L 31 -96 L 31.5 -96 L 32 -96 L 32.5 -96 L 33 -96 L 33.5 -96 L 34 -96 L 34.5 -96 L 35 -96 L 35.5 -96 L 36 -96 L 36.5 -96 L 37 -96 L 37.5 -96 L 38 -96 L 38.5 -96 L 39 -96 L 39.5 -96 L 40 -96 L 40.5 -96 L 41 -96 L 41.5 -96 L 42 -96 L 42.5 -96 L 43 -96 L 43.5 -96 L 44 -96 L 44.5 -96 L 45 -96 L 45.5 -96 L 46 -96 L 46.5 -96 L 47 -96 L 47.5 -96 L 48 -96 L 48.5 -96 L 49 -96 L 49.5 -96 L 50 -96 L 50.5 -96 L 51 -96 L 51.5 -96 L 52 -96 L 52.5 -96 A 0.5 0.5 0 0 1 53 -95.5 L 53 -95 L 53 -94.5 L 53 -94 L 53 -93.5 L 53 -93 L 53 -92.5 L 53 -92 L 53 -91.5 L 53 -91 L 53 -90.5 L 53 -90 L 53 -89.5 L 53 -89 L 53 -88.5 L 53 -88 L 53 -87.5 L 53 -87 L 53 -86.5 A 0.5 0.5 0 0 1 52.5 -86 L 52 -86 L 51.5 -86 L 51 -86 L 50.5 -86 L 50 -86 L 49.5 -86 L 49 -86 L 48.5 -86 L 48 -86 L 47.5 -86 L 47 -86 L 46.5 -86 L 46 -86 L 45.5 -86 L 45 -86 L 44.5 -86 L 44 -86 L 43.5 -86 L 43 -86 L 42.5 -86 L 42 -86 L 41.5 -86 L 41 -86 L 40.5 -86 L 40 -86 L 39.5 -86 L 39 -86 L 38.5 -86 L 38 -86 L 37.5 -86 L 37 -86 L 36.5 -86 L 36 -86 L 35.5 -86 L 35 -86 L 34.5 -86 L 34 -86 L 33.5 -86 L 33 -86 L 32.5 -86 L 32 -86 L 31.5 -86 L 31 -86 L 30.5 -86 L 30 -86 L 29.5 -86 L 29 -86 L 28.5 -86 L 28 -86 L 27.5 -86 L 27 -86 L 26.5 -86 L 26 -86 L 25.5 -86 L 25 -86 L 24.5 -86 L 24 -86 L 23.5 -86 L 23 -86 L 22.5 -86 L 22 -86 L 21.5 -86 L 21 -86 L 20.5 -86 L 20 -86 L 19.5 -86 L 19 -86 L 18.5 -86 L 18 -86 L 17.5 -86 L 17 -86 L 16.5 -86 L 16 -86 L 15.5 -86 L 15 -86 L 14.5 -86 L 14 -86 L 13.5 -86 A 0.5 0.5 0 0 1 13 -86.5 L 13 -87 L 13 -87.5 L 13 -88 L 13 -88.5 L 13 -89 L 13 -89.5 L 13 -90 L 13 -90.5 L 13 -91 L 13 -91.5 L 13 -92 L 13 -92.5 L 13 -93 L 13 -93.5 L 13 -94 L 13 -94.5 L 13 -95 L 13 -95.5 Z" />
  <path d="M 14.5 -94 L 14.5 -93.5 L 14.5 -93 L 14.5 -92.5 L 14.5 -92 L 14.5 -91.5 L 14.5 -91 L 14.5 -90.5 L 14.5 -90 L 14.5 -89.5 L 14.5 -89 L 14.5 -88.5 L 14.5 -88 A 0.5 0.5 0 0 0 15 -87.5 L 15.5 -87.5 L 16 -87.5 A 0.5 0.5 0 0 0 16.5 -88 L 16.5 -88.5 L 16.5 -89 L 16.5 -89.5 L 16.5 -90 L 16.5 -90.5 L 16.5 -91 L 16.5 -91.5 L 16.5 -92 L 16.5 -92.5 L 16.5 -93 L 16.5 -93.5 L 16.5 -94 A 0.5 0.5 0 0 0 16 -94.5 L 15.5 -94.5 L 15 -94.5 A 0.5 0.5 0 0 0 14.5 -94 Z" />
  <path d="M 17.5 -94 L 17.5 -93.5 L 17.5 -93 L 17.5 -92.5 L 17.5 -92 L 17.5 -91.5 L 17.5 -91 L 17.5 -90.5 L 17.5 -90 L 17.5 -89.5 L 17.5 -89 L 17.5 -88.5 L 17.5 -88 A 0.5 0.5 0 0 0 18 -87.5 L 18.5 -87.5 L 19 -87.5 L 19.5 -87.5 L 20 -87.5 L 20.5 -87.5 L 21 -87.5 L 21.5 -87.5 L 22 -87.5 L 22.5 -87.5 L 23 -87.5 L 23.5 -87.5 L 24 -87.5 A 0.5 0.5 0 0 0 24.5 -88 L 24.5 -88.5 L 24.5 -89 L 24.5 -89.5 L 24.5 -90 L 24.5 -90.5 L 24.5 -91 L 24.5 -91.5 L 24.5 -92 L 24.5 -92.5 L 24.5 -93 L 24.5 -93.5 L 24.5 -94 A 0.5 0.5 0 0 0 24 -94.5 L 23.5 -94.5 L 23 -94.5 L 22.5 -94.5 L 22 -94.5 L 21.5 -94.5 L 21 -94.5 L 20.5 -94.5 L 20 -94.5 L 19.5 -94.5 L 19 -94.5 L 18.5 -94.5 L 18 -94.5 A 0.5 0.5 0 0 0 17.5 -94 Z" />
  <path d="M 25.5 -94 L 25.5 -93.5 L 25.5 -93 L 25.5 -92.5 L 25.5 -92 L 25.5 -91.5 L 25.5 -91 L 25.5 -90.5 L 25.5 -90 L 25.5 -89.5 L 25.5 -89 L 25.5 -88.5 L 25.5 -88 A 0.5 0.5 0 0 0 26 -87.5 L 26.5 -87.5 L 27 -87.5 L 27.5 -87.5 L 28 -87.5 L 28.5 -87.5 L 29 -87.5 L 29.5 -87.5 L 30 -87.5 L 30.5 -87.5 L 31 -87.5 L 31.5 -87.5 L 32 -87.5 A 0.5 0.5 0 0 0 32.5 -88 L 32.5 -88.5 L 32.5 -89 L 32.5 -89.5 L 32.5 -90 L 32.5 -90.5 L 32.5 -91 L 32.5 -91.5 L 32.5 -92 L 32.5 -92.5 L 32.5 -93 L 32.5 -93.5 L 32.5 -94 A 0.5 0.5 0 0 0 32 -94.5 L 31.5 -94.5 L 31 -94.5 L 30.5 -94.5 L 30 -94.5 L 29.5 -94.5 L 29 -94.5 L 28.5 -94.5 L 28 -94.5 L 27.5 -94.5 L 27 -94.5 L 26.5 -94.5 L 26 -94.5 A 0.5 0.5 0 0 0 25.5 -94 Z" />
  <path d="M 33.5 -94 L 33.5 -93.5 L 33.5 -93 L 33.5 -92.5 L 33.5 -92 L 33.5 -91.5 L 33.5 -91 L 33.5 -90.5 L 33.5 -90 L 33.5 -89.5 L 33.5 -89 L 33.5 -88.5 L 33.5 -88 A 0.5 0.5 0 0 0 34 -87.5 L 34.5 -87.5 L 35 -87.5 L 35.5 -87.5 L 36 -87.5 L 36.5 -87.5 L 37 -87.5 L 37.5 -87.5 L 38 -87.5 L 38.5 -87.5 L 39 -87.5 L 39.5 -87.5 L 40 -87.5 A 0.5 0.5 0 0 0 40.5 -88 L 40.5 -88.5 L 40.5 -89 L 40.5 -89.5 L 40.5 -90 L 40.5 -90.5 L 40.5 -91 L 40.5 -91.5 L 40.5 -92 L 40.5 -92.5 L 40.5 -93 L 40.5 -93.5 L 40.5 -94 A 0.5 0.5 0 0 0 40 -94.5 L 39.5 -94.5 L 39 -94.5 L 38.5 -94.5 L 38 -94.5 L 37.5 -94.5 L 37 -94.5 L 36.5 -94.5 L 36 -94.5 L 35.5 -94.5 L 35 -94.5 L 34.5 -94.5 L 34 -94.5 A 0.5 0.5 0 0 0 33.5 -94 Z" />
  <path d="M 41.5 -94 L 41.5 -93.5 L 41.5 -93 L 41.5 -92.5 L 41.5 -92 L 41.5 -91.5 L 41.5 -91 L 41.5 -90.5 L 41.5 -90 L 41.5 -89.5 L 41.5 -89 L 41.5 -88.5 L 41.5 -88 A 0.5 0.5 0 0 0 42 -87.5 L 42.5 -87.5 L 43 -87.5 L 43.5 -87.5 L 44 -87.5 L 44.5 -87.5 L 45 -87.5 L 45.5 -87.5 L 46 -87.5 L 46.5 -87.5 L 47 -87.5 L 47.5 -87.5 L 48 -87.5 A 0.5 0.5 0 0 0 48.5 -88 L 48.5 -88.5 L 48.5 -89 L 48.5 -89.5 L 48.5 -90 L 48.5 -90.5 L 48.5 -91 L 48.5 -91.5 L 48.5 -92 L 48.5 -92.5 L 48.5 -93 L 48.5 -93.5 L 48.5 -94 A 0.5 0.5 0 0 0 48 -94.5 L 47.5 -94.5 L 47 -94.5 L 46.5 -94.5 L 46 -94.5 L 45.5 -94.5 L 45 -94.5 L 44.5 -94.5 L 44 -94.5 L 43.5 -94.5 L 43 -94.5 L 42.5 -94.5 L 42 -94.5 A 0.5 0.5 0 0 0 41.5 -94 Z" />
  <path d="M 49.5 -94 L 49.5 -93.5 L 49.5 -93 L 49.5 -92.5 L 49.5 -92 L 49.5 -91.5 L 49.5 -91 L 49.5 -90.5 L 49.5 -90 L 49.5 -89.5 L 49.5 -89 L 49.5 -88.5 L 49.5 -88 A 0.5 0.5 0 0 0 50 -87.5 L 50.5 -87.5 L 51 -87.5 A 0.5 0.5 0 0 0 51.5 -88 L 51.5 -88.5 L 51.5 -89 L 51.5 -89.5 L 51.5 -90 L 51.5 -90.5 L 51.5 -91 L 51.5 -91.5 L 51.5 -92 L 51.5 -92.5 L 51.5 -93 L 51.5 -93.5 L 51.5 -94 A 0.5 0.5 0 0 0 51 -94.5 L 50.5 -94.5 L 50 -94.5 A 0.5 0.5 0 0 0 49.5 -94 Z" />
  <path d="M 24.292 -72.5 A 0.292 0.292 0 0 0 23.708 -72.5 A 0.292 0.292 0 0 0 24.292 -72.5 Z" />
  <path d="M 48.292 -72.5 A 0.292 0.292 0 0 0 47.708 -72.5 A 0.292 0.292 0 0 0 48.292 -72.5 Z" />
  <path d="M 25.311 -86.5 A 0.311 0.311 0 0 0 24.689 -86.5 A 0.311 0.311 0 0 0 25.311 -86.5 Z" />
  <path d="M 49.311 -86.5 A 0.311 0.311 0 0 0 48.689 -86.5 A 0.311 0.311 0 0 0 49.311 -86.5 Z" />
  <path d="M 14.061 -91 A 0.311 0.311 0 0 0 13.439 -91 A 0.311 0.311 0 0 0 14.061 -91 Z" />
  <path d="M 25.311 -95.5 A 0.311 0.311 0 0 0 24.689 -95.5 A 0.311 0.311 0 0 0 25.311 -95.5 Z" />
  <path d="M 49.311 -95.5 A 0.311 0.311 0 0 0 48.689 -95.5 A 0.311 0.311 0 0 0 49.311 -95.5 Z" />
  <path d="M 24.292 -81.5 A 0.292 0.292 0 0 0 23.708 -81.5 A 0.292 0.292 0 0 0 24.292 -81.5 Z" />
  <path d="M 48.292 -81.5 A 0.292 0.292 0 0 0 47.708 -81.5 A 0.292 0.292 0 0 0 48.292 -81.5 Z" />
  <path d="M 13.092 -77 A 0.292 0.292 0 0 0 12.508 -77 A 0.292 0.292 0 0 0 13.092 -77 Z" />
</g>
</svg>