<?xml version="1.0" encoding="UTF-8"?>
<svg xmlns="http://www.w3.org/2000/svg"
     width="95.4mm"
     height="79.2mm"
     viewBox="-173 -101 53 44">
<g fill="transparent" stroke="#000" stroke-width="0.02" opacity="1">
  <path d="M -162.5 -98.5 L -163 -98.5 L -163.5 -98.5 L -163.5 -99 A 0.5 0.5 0 0 1 -163 -99.5 A 0.5 0.5 0 0 0 -162.5 -100 A 0.5 0.5 0 0 1 -162 -100.5 L -161.5 -100.5 L -161 -100.5 L -160.5 -100.5 L -160 -100.5 L -159.5 -100.5 L -159 -100.5 L -158.5 -100.5 L -158 -100.5 A 0.5 0.5 0 0 1 -157.5 -100 A 0.5 0.5 0 0 0 -157 -99.5 L -156.5 -99.5 L -156 -99.5 L -155.5 -99.5 L -155 -99.5 A 0.5 0.5 0 0 0 -154.5 -100 A 0.5 0.5 0 0 1 -154 -100.5 L -153.5 -100.5 L -153 -100.5 L -152.5 -100.5 L -152 -100.5 L -151.5 -100.5 L -151 -100.5 L -150.5 -100.5 L -150 -100.5 A 0.5 0.5 0 0 1 -149.5 -100 A 0.5 0.5 0 0 0 -149 -99.5 L -148.5 -99.5 L -148 -99.5 L -147.5 -99.5 L -147 -99.5 A 0.5 0.5 0 0 0 -146.5 -100 A 0.5 0.5 0 0 1 -146 -100.5 L -145.5 -100.5 L -145 -100.5 L -144.5 -100.5 L -144 -100.5 L -143.5 -100.5 L -143 -100.5 L -142.5 -100.5 L -142 -100.5 A 0.5 0.5 0 0 1 -141.5 -100 A 0.5 0.5 0 0 0 -141 -99.5 L -140.5 -99.5 L -140 -99.5 L -139.5 -99.5 L -139 -99.5 A 0.5 0.5 0 0 0 -138.5 -100 A 0.5 0.5 0 0 1 -138 -100.5 L -137.5 -100.5 L -137 -100.5 L -136.5 -100.5 L -136 -100.5 L -135.5 -100.5 L -135 -100.5 L -134.5 -100.5 L -134 -100.5 A 0.5 0.5 0 0 1 -133.5 -100 A 0.5 0.5 0 0 0 -133 -99.5 L -132.5 -99.5 L -132 -99.5 L -131.5 -99.5 L -131 -99.5 A 0.5 0.5 0 0 0 -130.5 -100 A 0.5 0.5 0 0 1 -130 -100.5 L -129.5 -100.5 L -129 -100.5 L -128.5 -100.5 L -128 -100.5 L -127.5 -100.5 L -127 -100.5 L -126.5 -100.5 L -126 -100.5 A 0.5 0.5 0 0 1 -125.5 -100 A 0.5 0.5 0 0 0 -125 -99.5 A 0.5 0.5 0 0 1 -124.5 -99 L -124.5 -98.5 L -124.5 -98 A 0.5 0.5 0 0 0 -124 -97.5 A 0.5 0.5 0 0 1 -123.5 -97 L -123.5 -96.5 L -123.5 -96 L -123.5 -95.5 L -123.5 -95 L -123.5 -94.5 L -123.5 -94 L -123.5 -93.5 L -123.5 -93 L -123.5 -92.5 L -123.5 -92 L -123.5 -91.5 L -123.5 -91 A 0.5 0.5 0 0 1 -124 -90.5 A 0.5 0.5 0 0 0 -124.5 -90 L -124.5 -89.5 L -124.5 -89 A 0.5 0.5 0 0 1 -125 -88.5 A 0.5 0.5 0 0 0 -125.5 -88 A 0.5 0.5 0 0 1 -126 -87.5 L -126.5 -87.5 L -127 -87.5 L -127.5 -87.5 L -128 -87.5 L -128.5 -87.5 L -129 -87.5 L -129.5 -87.5 L -130 -87.5 A 0.5 0.5 0 0 1 -130.5 -88 A 0.5 0.5 0 0 0 -131 -88.5 L -131.5 -88.5 L -132 -88.5 L -132.5 -88.5 L -133 -88.5 A 0.5 0.5 0 0 0 -133.5 -88 A 0.5 0.5 0 0 1 -134 -87.5 L -134.5 -87.5 L -135 -87.5 L -135.5 -87.5 L -136 -87.5 L -136.5 -87.5 L -137 -87.5 L -137.5 -87.5 L -138 -87.5 A 0.5 0.5 0 0 1 -138.5 -88 A 0.5 0.5 0 0 0 -139 -88.5 L -139.5 -88.5 L -140 -88.5 L -140.5 -88.5 L -141 -88.5 A 0.5 0.5 0 0 0 -141.5 -88 A 0.5 0.5 0 0 1 -142 -87.5 L -142.5 -87.5 L -143 -87.5 L -143.5 -87.5 L -144 -87.5 L -144.5 -87.5 L -145 -87.5 L -145.5 -87.5 L -146 -87.5 A 0.5 0.5 0 0 1 -146.5 -88 A 0.5 0.5 0 0 0 -147 -88.5 L -147.5 -88.5 L -148 -88.5 L -148.5 -88.5 L -149 -88.5 A 0.5 0.5 0 0 0 -149.5 -88 A 0.5 0.5 0 0 1 -150 -87.5 L -150.5 -87.5 L -151 -87.5 L -151.5 -87.5 L -152 -87.5 L -152.5 -87.5 L -153 -87.5 L -153.5 -87.5 L -154 -87.5 A 0.5 0.5 0 0 1 -154.5 -88 A 0.5 0.5 0 0 0 -155 -88.5 L -155.5 -88.5 L -156 -88.5 L -156.5 -88.5 L -157 -88.5 A 0.5 0.5 0 0 0 -157.5 -88 A 0.5 0.5 0 0 1 -158 -87.5 L -158.5 -87.5 L -159 -87.5 L -159.5 -87.5 L -160 -87.5 L -160.5 -87.5 L -161 -87.5 L -161.5 -87.5 L -162 -87.5 A 0.5 0.5 0 0 1 -162.5 -88 A 0.5 0.5 0 0 0 -163 -88.5 A 0.5 0.5 0 0 1 -163.5 -89 L -163.5 -89.5 L -163 -89.5 L -162.5 -89.5 L -162 -89.5 L -161.5 -89.5 L -161 -89.5 L -160.5 -89.5 L -160 -89.5 A 0.5 0.5 0 0 0 -159.5 -90 L -159 -90 L -158.5 -90 L -158 -90 L -157.5 -90 L -157 -90 L -156.5 -90 L -156 -90 L -155.5 -90 L -155 -90 L -154.5 -90 L -154 -90 L -153.5 -90 L -153 -90 L -152.5 -90 L -152 -90 L -151.5 -90 L -151 -90 L -150.5 -90 L -150 -90 L -149.5 -90 L -149 -90 L -148.5 -90 L -148 -90 L -147.5 -90 L -147 -90 L -146.5 -90 L -146 -90 L -145.5 -90 L -145 -90 L -144.5 -90 L -144 -90 L -143.5 -90 L -143 -90 L -142.5 -90 L -142 -90 L -141.5 -90 L -141 -90 L -140.5 -90 L -140 -90 L -139.5 -90 L -139 -90 L -138.5 -90 L -138 -90 L -137.5 -90 L -137 -90 L -136.5 -90 L -136 -90 L -135.5 -90 L -135 -90 L -134.5 -90 L -134 -90 L -133.5 -90 L -133 -90 L -132.5 -90 L -132 -90 L -131.5 -90 L -131 -90 L -130.5 -90 L -130 -90 L -129.5 -90 L -129 -90 L -128.5 -90 L -128 -90 L -128 -90.5 L -128 -91 L -128 -91.5 L -128 -92 L -128 -92.5 L -128 -93 L -128 -93.5 L -128 -94 L -128 -94.5 L -128 -95 L -128 -95.5 L -128 -96 L -128 -96.5 L -128 -97 L -128 -97.5 L -128 -98 L -128.5 -98 L -129 -98 L -129.5 -98 L -130 -98 L -130.5 -98 L -131 -98 L -131.5 -98 L -132 -98 L -132.5 -98 L -133 -98 L -133.5 -98 L -134 -98 L -134.5 -98 L -135 -98 L -135.5 -98 L -136 -98 L -136.5 -98 L -137 -98 L -137.5 -98 L -138 -98 L -138.5 -98 L -139 -98 L -139.5 -98 L -140 -98 L -140.5 -98 L -141 -98 L -141.5 -98 L -142 -98 L -142.5 -98 L -143 -98 L -143.5 -98 L -144 -98 L -144.5 -98 L -145 -98 L -145.5 -98 L -146 -98 L -146.5 -98 L -147 -98 L -147.5 -98 L -148 -98 L -148.5 -98 L -149 -98 L -149.5 -98 L -150 -98 L -150.5 -98 L -151 -98 L -151.5 -98 L -152 -98 L -152.5 -98 L -153 -98 L -153.5 -98 L -154 -98 L -154.5 -98 L -155 -98 L -155.5 -98 L -156 -98 L -156.5 -98 L -157 -98 L -157.5 -98 L -158 -98 L -158.5 -98 L -159 -98 L -159.5 -98 A 0.5 0.5 0 0 0 -160 -98.5 L -160.5 -98.5 L -161 -98.5 L -161.5 -98.5 L -162 -98.5 L -162.5 -98.5 Z" />
  <path d="M -129 -97.5 A 0.5 0.5 0 0 1 -128.5 -97 L -128.5 -97.5 L -129 -97.5 Z" />
  <path d="M -128.5 -91 A 0.5 0.5 0 0 1 -129 -90.5 L -128.5 -90.5 L -128.5 -91 Z" />
  <path d="M -127.5 -97 L -127.5 -96.5 L -127.5 -96 L -127.5 -95.5 L -127.5 -95 L -127.5 -94.5 L -127.5 -94 L -127.5 -93.5 L -127.5 -93 L -127.5 -92.5 L -127.5 -92 L -127.5 -91.5 L -127.5 -91 A 0.5 0.5 0 0 0 -127 -90.5 A 0.5 0.5 0 0 0 -126.5 -91 L -126.5 -91.5 L -126.5 -92 A 0.5 0.5 0 0 1 -126 -92.5 A 0.5 0.5 0 0 0 -125.5 -93 L -125.5 -93.5 L -125.5 -94 L -125.5 -94.5 L -125.5 -95 A 0.5 0.5 0 0 0 -126 -95.5 A 0.5 0.5 0 0 1 -126.5 -96 L -126.5 -96.5 L -126.5 -97 A 0.5 0.5 0 0 0 -127 -97.5 A 0.5 0.5 0 0 0 -127.5 -97 Z" />
  <path d="M -168 -98 L -168 -97.5 L -168 -97 L -168 -96.5 L -168 -96 L -168 -95.5 L -168 -95 L -168 -94.5 L -168 -94 L -168 -93.5 L -168 -93 L -168 -92.5 L -168 -92 L -168 -91.5 L -168 -91 L -168 -90.5 L -168 -90 L -167.5 -90 A 0.5 0.5 0 0 1 -168 -89.5 L -168.5 -89.5 L -169 -89.5 L -169.5 -89.5 L -170 -89.5 L -170.5 -89.5 L -171 -89.5 L -171.5 -89.5 L -171.5 -90 A 0.5 0.5 0 0 0 -172 -90.5 A 0.5 0.5 0 0 1 -172.5 -91 L -172.5 -91.5 L -172.5 -92 L -172.5 -92.5 L -172.5 -93 L -172.5 -93.5 L -172.5 -94 L -172.5 -94.5 L -172.5 -95 L -172.5 -95.5 L -172.5 -96 L -172.5 -96.5 L -172.5 -97 A 0.5 0.5 0 0 1 -172 -97.5 A 0.5 0.5 0 0 0 -171.5 -98 L -171.5 -98.5 L -171 -98.5 L -170.5 -98.5 L -170 -98.5 L -169.5 -98.5 L -169 -98.5 L -168.5 -98.5 L -168 -98.5 A 0.5 0.5 0 0 1 -167.5 -98 L -168 -98 Z" />
  <path d="M -169.5 -97 A 0.5 0.5 0 0 1 -169 -97.5 A 0.5 0.5 0 0 1 -168.5 -97 L -168.5 -96.5 L -168.5 -96 L -168.5 -95.5 L -168.5 -95 L -168.5 -94.5 L -168.5 -94 L -168.5 -93.5 L -168.5 -93 L -168.5 -92.5 L -168.5 -92 L -168.5 -91.5 L -168.5 -91 A 0.5 0.5 0 0 1 -169 -90.5 A 0.5 0.5 0 0 1 -169.5 -91 L -169.5 -91.5 L -169.5 -92 A 0.5 0.5 0 0 0 -170 -92.5 A 0.5 0.5 0 0 1 -170.5 -93 L -170.5 -93.5 L -170.5 -94 L -170.5 -94.5 L -170.5 -95 A 0.5 0.5 0 0 1 -170 -95.5 A 0.5 0.5 0 0 0 -169.5 -96 L -169.5 -96.5 L -169.5 -97 Z" />
  <path d="M -169.5 -66.5 L -169.5 -67 A 0.5 0.5 0 0 1 -169 -67.5 A 0.5 0.5 0 0 0 -168.5 -68 L -168.5 -68.5 L -168 -68.5 L -167.5 -68.5 L -167 -68.5 L -166.5 -68.5 L -166 -68.5 L -165.5 -68.5 L -165 -68.5 A 0.5 0.5 0 0 1 -164.5 -68 L -165 -68 L -165 -67.5 L -165 -67 L -165 -66.5 L -165 -66 L -165 -65.5 L -165 -65 L -165 -64.5 L -165 -64 L -165 -63.5 L -165 -63 L -165 -62.5 L -165 -62 L -165 -61.5 L -165 -61 L -165 -60.5 L -165 -60 L -164.5 -60 A 0.5 0.5 0 0 1 -165 -59.5 L -165.5 -59.5 L -166 -59.5 L -166.5 -59.5 L -167 -59.5 L -167.5 -59.5 L -168 -59.5 L -168.5 -59.5 L -168.5 -60 A 0.5 0.5 0 0 0 -169 -60.5 A 0.5 0.5 0 0 1 -169.5 -61 L -169.5 -61.5 L -169.5 -62 L -169.5 -62.5 L -169.5 -63 L -169.5 -63.5 L -169.5 -64 L -169.5 -64.5 L -169.5 -65 L -169.5 -65.5 L -169.5 -66 L -169.5 -66.5 Z" />
  <path d="M -167.5 -65 L -167.5 -64.5 L -167.5 -64 L -167.5 -63.5 L -167.5 -63 A 0.5 0.5 0 0 0 -167 -62.5 A 0.5 0.5 0 0 1 -166.5 -62 L -166.5 -61.5 L -166.5 -61 A 0.5 0.5 0 0 0 -166 -60.5 A 0.5 0.5 0 0 0 -165.5 -61 L -165.5 -61.5 L -165.5 -62 L -165.5 -62.5 L -165.5 -63 L -165.5 -63.5 L -165.5 -64 L -165.5 -64.5 L -165.5 -65 L -165.5 -65.5 L -165.5 -66 L -165.5 -66.5 L -165.5 -67 A 0.5 0.5 0 0 0 -166 -67.5 A 0.5 0.5 0 0 0 -166.5 -67 L -166.5 -66.5 L -166.5 -66 A 0.5 0.5 0 0 1 -167 -65.5 A 0.5 0.5 0 0 0 -167.5 -65 Z" />
  <path d="M -159.5 -68.5 L -160 -68.5 L -160.5 -68.5 L -160.5 -69 A 0.5 0.5 0 0 1 -160 -69.5 A 0.5 0.5 0 0 0 -159.5 -70 A 0.5 0.5 0 0 1 -159 -70.5 L -158.5 -70.5 L -158 -70.5 L -157.5 -70.5 L -157 -70.5 L -156.5 -70.5 L -156 -70.5 L -155.5 -70.5 L -155 -70.5 A 0.5 0.5 0 0 1 -154.5 -70 A 0.5 0.5 0 0 0 -154 -69.5 L -153.5 -69.5 L -153 -69.5 L -152.5 -69.5 L -152 -69.5 A 0.5 0.5 0 0 0 -151.5 -70 A 0.5 0.5 0 0 1 -151 -70.5 L -150.5 -70.5 L -150 -70.5 L -149.5 -70.5 L -149 -70.5 L -148.5 -70.5 L -148 -70.5 L -147.5 -70.5 L -147 -70.5 A 0.5 0.5 0 0 1 -146.5 -70 A 0.5 0.5 0 0 0 -146 -69.5 L -145.5 -69.5 L -145 -69.5 L -144.5 -69.5 L -144 -69.5 A 0.5 0.5 0 0 0 -143.5 -70 A 0.5 0.5 0 0 1 -143 -70.5 L -142.5 -70.5 L -142 -70.5 L -141.5 -70.5 L -141 -70.5 L -140.5 -70.5 L -140 -70.5 L -139.5 -70.5 L -139 -70.5 A 0.5 0.5 0 0 1 -138.5 -70 A 0.5 0.5 0 0 0 -138 -69.5 L -137.5 -69.5 L -137 -69.5 L -136.5 -69.5 L -136 -69.5 A 0.5 0.5 0 0 0 -135.5 -70 A 0.5 0.5 0 0 1 -135 -70.5 L -134.5 -70.5 L -134 -70.5 L -133.5 -70.5 L -133 -70.5 L -132.5 -70.5 L -132 -70.5 L -131.5 -70.5 L -131 -70.5 A 0.5 0.5 0 0 1 -130.5 -70 A 0.5 0.5 0 0 0 -130 -69.5 L -129.5 -69.5 L -129 -69.5 L -128.5 -69.5 L -128 -69.5 A 0.5 0.5 0 0 0 -127.5 -70 A 0.5 0.5 0 0 1 -127 -70.5 L -126.5 -70.5 L -126 -70.5 L -125.5 -70.5 L -125 -70.5 L -124.5 -70.5 L -124 -70.5 L -123.5 -70.5 L -123 -70.5 A 0.5 0.5 0 0 1 -122.5 -70 A 0.5 0.5 0 0 0 -122 -69.5 A 0.5 0.5 0 0 1 -121.5 -69 L -121.5 -68.5 L -121.5 -68 A 0.5 0.5 0 0 0 -121 -67.5 A 0.5 0.5 0 0 1 -120.5 -67 L -120.5 -66.5 L -120.5 -66 L -120.5 -65.5 L -120.5 -65 L -120.5 -64.5 L -120.5 -64 L -120.5 -63.5 L -120.5 -63 L -120.5 -62.5 L -120.5 -62 L -120.5 -61.5 L -120.5 -61 A 0.5 0.5 0 0 1 -121 -60.5 A 0.5 0.5 0 0 0 -121.5 -60 L -121.5 -59.5 L -121.5 -59 A 0.5 0.5 0 0 1 -122 -58.5 A 0.5 0.5 0 0 0 -122.5 -58 A 0.5 0.5 0 0 1 -123 -57.5 L -123.5 -57.5 L -124 -57.5 L -124.5 -57.5 L -125 -57.5 L -125.5 -57.5 L -126 -57.5 L -126.5 -57.5 L -127 -57.5 A 0.5 0.5 0 0 1 -127.5 -58 A 0.5 0.5 0 0 0 -128 -58.5 L -128.5 -58.5 L -129 -58.5 L -129.5 -58.5 L -130 -58.5 A 0.5 0.5 0 0 0 -130.5 -58 A 0.5 0.5 0 0 1 -131 -57.5 L -131.5 -57.5 L -132 -57.5 L -132.5 -57.5 L -133 -57.5 L -133.5 -57.5 L -134 -57.5 L -134.5 -57.5 L -135 -57.5 A 0.5 0.5 0 0 1 -135.5 -58 A 0.5 0.5 0 0 0 -136 -58.5 L -136.5 -58.5 L -137 -58.5 L -137.5 -58.5 L -138 -58.5 A 0.5 0.5 0 0 0 -138.5 -58 A 0.5 0.5 0 0 1 -139 -57.5 L -139.5 -57.5 L -140 -57.5 L -140.5 -57.5 L -141 -57.5 L -141.5 -57.5 L -142 -57.5 L -142.5 -57.5 L -143 -57.5 A 0.5 0.5 0 0 1 -143.5 -58 A 0.5 0.5 0 0 0 -144 -58.5 L -144.5 -58.5 L -145 -58.5 L -145.5 -58.5 L -146 -58.5 A 0.5 0.5 0 0 0 -146.5 -58 A 0.5 0.5 0 0 1 -147 -57.5 L -147.5 -57.5 L -148 -57.5 L -148.5 -57.5 L -149 -57.5 L -149.5 -57.5 L -150 -57.5 L -150.5 -57.5 L -151 -57.5 A 0.5 0.5 0 0 1 -151.5 -58 A 0.5 0.5 0 0 0 -152 -58.5 L -152.5 -58.5 L -153 -58.5 L -153.5 -58.5 L -154 -58.5 A 0.5 0.5 0 0 0 -154.5 -58 A 0.5 0.5 0 0 1 -155 -57.5 L -155.5 -57.5 L -156 -57.5 L -156.5 -57.5 L -157 -57.5 L -157.5 -57.5 L -158 -57.5 L -158.5 -57.5 L -159 -57.5 A 0.5 0.5 0 0 1 -159.5 -58 A 0.5 0.5 0 0 0 -160 -58.5 A 0.5 0.5 0 0 1 -160.5 -59 L -160.5 -59.5 L -160 -59.5 L -159.5 -59.5 L -159 -59.5 L -158.5 -59.5 L -158 -59.5 L -157.5 -59.5 L -157 -59.5 A 0.5 0.5 0 0 0 -156.5 -60 L -156 -60 L -155.5 -60 L -155 -60 L -154.5 -60 L -154 -60 L -153.5 -60 L -153 -60 L -152.5 -60 L -152 -60 L -151.5 -60 L -151 -60 L -150.5 -60 L -150 -60 L -149.5 -60 L -149 -60 L -148.5 -60 L -148 -60 L -147.5 -60 L -147 -60 L -146.5 -60 L -146 -60 L -145.5 -60 L -145 -60 L -144.5 -60 L -144 -60 L -143.5 -60 L -143 -60 L -142.5 -60 L -142 -60 L -141.5 -60 L -141 -60 L -140.5 -60 L -140 -60 L -139.5 -60 L -139 -60 L -138.5 -60 L -138 -60 L -137.5 -60 L -137 -60 L -136.5 -60 L -136 -60 L -135.5 -60 L -135 -60 L -134.5 -60 L -134 -60 L -133.5 -60 L -133 -60 L -132.5 -60 L -132 -60 L -131.5 -60 L -131 -60 L -130.5 -60 L -130 -60 L -129.5 -60 L -129 -60 L -128.5 -60 L -128 -60 L -127.5 -60 L -127 -60 L -126.5 -60 L -126 -60 L -125.5 -60 L -125 -60 L -125 -60.5 L -125 -61 L -125 -61.5 L -125 -62 L -125 -62.5 L -125 -63 L -125 -63.5 L -125 -64 L -125 -64.5 L -125 -65 L -125 -65.5 L -125 -66 L -125 -66.5 L -125 -67 L -125 -67.5 L -125 -68 L -125.5 -68 L -126 -68 L -126.5 -68 L -127 -68 L -127.5 -68 L -128 -68 L -128.5 -68 L -129 -68 L -129.5 -68 L -130 -68 L -130.5 -68 L -131 -68 L -131.5 -68 L -132 -68 L -132.5 -68 L -133 -68 L -133.5 -68 L -134 -68 L -134.5 -68 L -135 -68 L -135.5 -68 L -136 -68 L -136.5 -68 L -137 -68 L -137.5 -68 L -138 -68 L -138.5 -68 L -139 -68 L -139.5 -68 L -140 -68 L -140.5 -68 L -141 -68 L -141.5 -68 L -142 -68 L -142.5 -68 L -143 -68 L -143.5 -68 L -144 -68 L -144.5 -68 L -145 -68 L -145.5 -68 L -146 -68 L -146.5 -68 L -147 -68 L -147.5 -68 L -148 -68 L -148.5 -68 L -149 -68 L -149.5 -68 L -150 -68 L -150.5 -68 L -151 -68 L -151.5 -68 L -152 -68 L -152.5 -68 L -153 -68 L -153.5 -68 L -154 -68 L -154.5 -68 L -155 -68 L -155.5 -68 L -156 -68 L -156.5 -68 A 0.5 0.5 0 0 0 -157 -68.5 L -157.5 -68.5 L -158 -68.5 L -158.5 -68.5 L -159 -68.5 L -159.5 -68.5 Z" />
  <path d="M -126 -67.5 A 0.5 0.5 0 0 1 -125.5 -67 L -125.5 -67.5 L -126 -67.5 Z" />
  <path d="M -125.5 -61 A 0.5 0.5 0 0 1 -126 -60.5 L -125.5 -60.5 L -125.5 -61 Z" />
  <path d="M -124.5 -67 L -124.5 -66.5 L -124.5 -66 L -124.5 -65.5 L -124.5 -65 L -124.5 -64.5 L -124.5 -64 L -124.5 -63.5 L -124.5 -63 L -124.5 -62.5 L -124.5 -62 L -124.5 -61.5 L -124.5 -61 A 0.5 0.5 0 0 0 -124 -60.5 A 0.5 0.5 0 0 0 -123.5 -61 L -123.5 -61.5 L -123.5 -62 A 0.5 0.5 0 0 1 -123 -62.5 A 0.5 0.5 0 0 0 -122.5 -63 L -122.5 -63.5 L -122.5 -64 L -122.5 -64.5 L -122.5 -65 A 0.5 0.5 0 0 0 -123 -65.5 A 0.5 0.5 0 0 1 -123.5 -66 L -123.5 -66.5 L -123.5 -67 A 0.5 0.5 0 0 0 -124 -67.5 A 0.5 0.5 0 0 0 -124.5 -67 Z" />
  <path d="M -127.75 -89.6 A 0.25 0.25 0 0 0 -128.25 -89.6 A 0.25 0.25 0 0 0 -127.75 -89.6 Z" />
  <path d="M -151.75 -89.6 A 0.25 0.25 0 0 0 -152.25 -89.6 A 0.25 0.25 0 0 0 -151.75 -89.6 Z" />
  <path d="M -170.75 -94 A 0.25 0.25 0 0 0 -171.25 -94 A 0.25 0.25 0 0 0 -170.75 -94 Z" />
  <path d="M -151.75 -98.6 A 0.25 0.25 0 0 0 -152.25 -98.6 A 0.25 0.25 0 0 0 -151.75 -98.6 Z" />
  <path d="M -127.75 -98.6 A 0.25 0.25 0 0 0 -128.25 -98.6 A 0.25 0.25 0 0 0 -127.75 -98.6 Z" />
  <path d="M -148.778 -59.6 A 0.222 0.222 0 0 0 -149.222 -59.6 A 0.222 0.222 0 0 0 -148.778 -59.6 Z" />
  <path d="M -124.778 -59.6 A 0.222 0.222 0 0 0 -125.222 -59.6 A 0.222 0.222 0 0 0 -124.778 -59.6 Z" />
  <path d="M -167.778 -64 A 0.222 0.222 0 0 0 -168.222 -64 A 0.222 0.222 0 0 0 -167.778 -64 Z" />
  <path d="M -148.778 -68.6 A 0.222 0.222 0 0 0 -149.222 -68.6 A 0.222 0.222 0 0 0 -148.778 -68.6 Z" />
  <path d="M -124.778 -68.6 A 0.222 0.222 0 0 0 -125.222 -68.6 A 0.222 0.222 0 0 0 -124.778 -68.6 Z" />
</g>
</svg>