<?xml version="1.0" encoding="UTF-8"?>
<svg xmlns="http://www.w3.org/2000/svg"
     width="21.6mm"
     height="37.800000000000004mm"
     viewBox="-40 -30 12 21">
<g fill="transparent" stroke="#000" stroke-width="0.02" opacity="1">
  <path d="M -39 -17.5 A 0.5 0.5 0 0 1 -38.5 -18 L -38 -18 L -37.5 -18 L -37 -18 L -36.5 -18 L -36 -18 L -35.5 -18 L -35 -18 L -34.5 -18 L -34 -18 L -33.5 -18 L -33 -18 L -32.5 -18 L -32 -18 L -31.5 -18 A 0.5 0.5 0 0 1 -31 -17.5 L -31 -17 L -31 -16.5 L -31 -16 L -31 -15.5 L -31 -15 L -31 -14.5 L -31 -14 L -31 -13.5 L -31 -13 L -31 -12.5 L -31 -12 L -31 -11.5 L -31 -11 L -31 -10.5 A 0.5 0.5 0 0 1 -31.5 -10 L -32 -10 L -32.5 -10 L -33 -10 L -33.5 -10 L -34 -10 L -34.5 -10 L -35 -10 L -35.5 -10 L -36 -10 L -36.5 -10 L -37 -10 L -37.5 -10 L -38 -10 L -38.5 -10 A 0.5 0.5 0 0 1 -39 -10.5 L -39 -11 L -39 -11.5 L -39 -12 L -39 -12.5 L -39 -13 L -39 -13.5 L -39 -14 L -39 -14.5 L -39 -15 L -39 -15.5 L -39 -16 L -39 -16.5 L -39 -17 L -39 -17.5 Z" />
  <path d="M -37 -28.5 A 0.5 0.5 0 0 1 -36.5 -29 L -36 -29 L -35.5 -29 L -35 -29 L -34.5 -29 L -34 -29 L -33.5 -29 L -33 -29 L -32.5 -29 L -32 -29 L -31.5 -29 L -31 -29 L -30.5 -29 L -30 -29 L -29.5 -29 A 0.5 0.5 0 0 1 -29 -28.5 L -29 -28 L -29 -27.5 L -29 -27 L -29 -26.5 L -29 -26 L -29 -25.5 L -29 -25 L -29 -24.5 L -29 -24 L -29 -23.5 L -29 -23 L -29 -22.5 L -29 -22 L -29 -21.5 A 0.5 0.5 0 0 1 -29.5 -21 L -30 -21 L -30.5 -21 L -31 -21 L -31.5 -21 L -32 -21 L -32.5 -21 L -33 -21 L -33.5 -21 L -34 -21 L -34.5 -21 L -35 -21 L -35.5 -21 L -36 -21 L -36.5 -21 A 0.5 0.5 0 0 1 -37 -21.5 L -37 -22 L -37 -22.5 L -37 -23 L -37 -23.5 L -37 -24 L -37 -24.5 L -37 -25 L -37 -25.5 L -37 -26 L -37 -26.5 L -37 -27 L -37 -27.5 L -37 -28 L -37 -28.5 Z" />
  <path d="M -36.667 -16 A 0.333 0.333 0 0 0 -37.333 -16 A 0.333 0.333 0 0 0 -36.667 -16 Z" />
  <path d="M -36.667 -12 A 0.333 0.333 0 0 0 -37.333 -12 A 0.333 0.333 0 0 0 -36.667 -12 Z" />
  <path d="M -32.667 -16 A 0.333 0.333 0 0 0 -33.333 -16 A 0.333 0.333 0 0 0 -32.667 -16 Z" />
  <path d="M -32.667 -12 A 0.333 0.333 0 0 0 -33.333 -12 A 0.333 0.333 0 0 0 -32.667 -12 Z" />
  <path d="M -30.667 -18 A 0.333 0.333 0 0 0 -31.333 -18 A 0.333 0.333 0 0 0 -30.667 -18 Z" />
  <path d="M -30.667 -18 A 0.333 0.333 0 0 0 -31.333 -18 A 0.333 0.333 0 0 0 -30.667 -18 Z" />
  <path d="M -36.167 -28.5 A 0.333 0.333 0 0 0 -36.833 -28.5 A 0.333 0.333 0 0 0 -36.167 -28.5 Z" />
  <path d="M -36.167 -21.5 A 0.333 0.333 0 0 0 -36.833 -21.5 A 0.333 0.333 0 0 0 -36.167 -21.5 Z" />
  <path d="M -34.667 -27 A 0.333 0.333 0 0 0 -35.333 -27 A 0.333 0.333 0 0 0 -34.667 -27 Z" />
  <path d="M -34.667 -23 A 0.333 0.333 0 0 0 -35.333 -23 A 0.333 0.333 0 0 0 -34.667 -23 Z" />
  <path d="M -30.667 -27 A 0.333 0.333 0 0 0 -31.333 -27 A 0.333 0.333 0 0 0 -30.667 -27 Z" />
  <path d="M -30.667 -23 A 0.333 0.333 0 0 0 -31.333 -23 A 0.333 0.333 0 0 0 -30.667 -23 Z" />
  <path d="M -29.167 -28.5 A 0.333 0.333 0 0 0 -29.833 -28.5 A 0.333 0.333 0 0 0 -29.167 -28.5 Z" />
  <path d="M -28.667 -29 A 0.333 0.333 0 0 0 -29.333 -29 A 0.333 0.333 0 0 0 -28.667 -29 Z" />
  <path d="M -28.667 -29 A 0.333 0.333 0 0 0 -29.333 -29 A 0.333 0.333 0 0 0 -28.667 -29 Z" />
  <path d="M -29.167 -21.5 A 0.333 0.333 0 0 0 -29.833 -21.5 A 0.333 0.333 0 0 0 -29.167 -21.5 Z" />
</g>
</svg>