<?xml version="1.0" encoding="UTF-8"?>
<svg xmlns="http://www.w3.org/2000/svg"
     width="77.4mm"
     height="75.60000000000001mm"
     viewBox="-164 -100 43 42">
<g fill="transparent" stroke="#000" stroke-width="0.02" opacity="1">
  <path d="M -163.5 -95.5 L -163.5 -96 A 0.5 0.5 0 0 1 -163 -96.5 A 0.5 0.5 0 0 0 -162.5 -97 L -162.5 -97.5 L -162.5 -98 A 0.5 0.5 0 0 1 -162 -98.5 A 0.5 0.5 0 0 0 -161.5 -99 A 0.5 0.5 0 0 1 -161 -99.5 L -160.5 -99.5 L -160 -99.5 L -159.5 -99.5 L -159 -99.5 A 0.5 0.5 0 0 1 -158.5 -99 A 0.5 0.5 0 0 0 -158 -98.5 L -157.5 -98.5 L -157 -98.5 L -156.5 -98.5 L -156 -98.5 L -155.5 -98.5 L -155 -98.5 L -154.5 -98.5 L -154 -98.5 A 0.5 0.5 0 0 0 -153.5 -99 A 0.5 0.5 0 0 1 -153 -99.5 L -152.5 -99.5 L -152 -99.5 L -151.5 -99.5 L -151 -99.5 A 0.5 0.5 0 0 1 -150.5 -99 A 0.5 0.5 0 0 0 -150 -98.5 L -149.5 -98.5 L -149 -98.5 L -148.5 -98.5 L -148 -98.5 L -147.5 -98.5 L -147 -98.5 L -146.5 -98.5 L -146 -98.5 A 0.5 0.5 0 0 0 -145.5 -99 A 0.5 0.5 0 0 1 -145 -99.5 L -144.5 -99.5 L -144 -99.5 L -143.5 -99.5 L -143 -99.5 A 0.5 0.5 0 0 1 -142.5 -99 A 0.5 0.5 0 0 0 -142 -98.5 L -141.5 -98.5 L -141 -98.5 L -140.5 -98.5 L -140 -98.5 L -139.5 -98.5 L -139 -98.5 L -138.5 -98.5 L -138 -98.5 A 0.5 0.5 0 0 0 -137.5 -99 A 0.5 0.5 0 0 1 -137 -99.5 L -136.5 -99.5 L -136 -99.5 L -135.5 -99.5 L -135 -99.5 A 0.5 0.5 0 0 1 -134.5 -99 A 0.5 0.5 0 0 0 -134 -98.5 L -133.5 -98.5 L -133 -98.5 L -132.5 -98.5 L -132 -98.5 L -131.5 -98.5 L -131 -98.5 L -130.5 -98.5 L -130 -98.5 A 0.5 0.5 0 0 0 -129.5 -99 A 0.5 0.5 0 0 1 -129 -99.5 L -128.5 -99.5 L -128 -99.5 L -127.5 -99.5 L -127 -99.5 A 0.5 0.5 0 0 1 -126.5 -99 A 0.5 0.5 0 0 0 -126 -98.5 A 0.5 0.5 0 0 1 -125.5 -98 L -125.5 -97.5 L -125.5 -97 A 0.5 0.5 0 0 0 -125 -96.5 A 0.5 0.5 0 0 1 -124.5 -96 L -124.5 -95.5 L -124.5 -95 L -124.5 -94.5 L -124.5 -94 L -124.5 -93.5 L -124.5 -93 L -124.5 -92.5 L -124.5 -92 A 0.5 0.5 0 0 1 -125 -91.5 A 0.5 0.5 0 0 0 -125.5 -91 L -125.5 -90.5 L -125.5 -90 A 0.5 0.5 0 0 1 -126 -89.5 A 0.5 0.5 0 0 0 -126.5 -89 A 0.5 0.5 0 0 1 -127 -88.5 L -127.5 -88.5 L -128 -88.5 L -128.5 -88.5 L -129 -88.5 A 0.5 0.5 0 0 1 -129.5 -89 A 0.5 0.5 0 0 0 -130 -89.5 L -130.5 -89.5 L -131 -89.5 L -131.5 -89.5 L -132 -89.5 L -132.5 -89.5 L -133 -89.5 L -133.5 -89.5 L -134 -89.5 A 0.5 0.5 0 0 0 -134.5 -89 A 0.5 0.5 0 0 1 -135 -88.5 L -135.5 -88.5 L -136 -88.5 L -136.5 -88.5 L -137 -88.5 A 0.5 0.5 0 0 1 -137.5 -89 A 0.5 0.5 0 0 0 -138 -89.5 L -138.5 -89.5 L -139 -89.5 L -139.5 -89.5 L -140 -89.5 L -140.5 -89.5 L -141 -89.5 L -141.5 -89.5 L -142 -89.5 A 0.5 0.5 0 0 0 -142.5 -89 A 0.5 0.5 0 0 1 -143 -88.5 L -143.5 -88.5 L -144 -88.5 L -144.5 -88.5 L -145 -88.5 A 0.5 0.5 0 0 1 -145.5 -89 A 0.5 0.5 0 0 0 -146 -89.5 L -146.5 -89.5 L -147 -89.5 L -147.5 -89.5 L -148 -89.5 L -148.5 -89.5 L -149 -89.5 L -149.5 -89.5 L -150 -89.5 A 0.5 0.5 0 0 0 -150.5 -89 A 0.5 0.5 0 0 1 -151 -88.5 L -151.5 -88.5 L -152 -88.5 L -152.5 -88.5 L -153 -88.5 A 0.5 0.5 0 0 1 -153.5 -89 A 0.5 0.5 0 0 0 -154 -89.5 L -154.5 -89.5 L -155 -89.5 L -155.5 -89.5 L -156 -89.5 L -156.5 -89.5 L -157 -89.5 L -157.5 -89.5 L -158 -89.5 A 0.5 0.5 0 0 0 -158.5 -89 A 0.5 0.5 0 0 1 -159 -88.5 L -159.5 -88.5 L -160 -88.5 L -160.5 -88.5 L -161 -88.5 A 0.5 0.5 0 0 1 -161.5 -89 A 0.5 0.5 0 0 0 -162 -89.5 A 0.5 0.5 0 0 1 -162.5 -90 L -162.5 -90.5 L -162.5 -91 A 0.5 0.5 0 0 0 -163 -91.5 A 0.5 0.5 0 0 1 -163.5 -92 L -163.5 -92.5 L -163.5 -93 L -163.5 -93.5 L -163.5 -94 L -163.5 -94.5 L -163.5 -95 L -163.5 -95.5 Z" />
  <path d="M -162.5 -95 L -162.5 -94.5 L -162.5 -94 L -162.5 -93.5 L -162.5 -93 A 0.5 0.5 0 0 0 -162 -92.5 A 0.5 0.5 0 0 1 -161.5 -92 L -161.5 -91.5 L -161.5 -91 A 0.5 0.5 0 0 0 -161 -90.5 A 0.5 0.5 0 0 0 -160.5 -91 L -160.5 -91.5 L -160.5 -92 L -160.5 -92.5 L -160.5 -93 L -160.5 -93.5 L -160.5 -94 L -160.5 -94.5 L -160.5 -95 L -160.5 -95.5 L -160.5 -96 L -160.5 -96.5 L -160.5 -97 A 0.5 0.5 0 0 0 -161 -97.5 A 0.5 0.5 0 0 0 -161.5 -97 L -161.5 -96.5 L -161.5 -96 A 0.5 0.5 0 0 1 -162 -95.5 A 0.5 0.5 0 0 0 -162.5 -95 Z" />
  <path d="M -159.5 -97 L -159.5 -96.5 L -159.5 -96 L -159.5 -95.5 L -159.5 -95 L -159.5 -94.5 L -159.5 -94 L -159.5 -93.5 L -159.5 -93 L -159.5 -92.5 L -159.5 -92 L -159.5 -91.5 L -159.5 -91 A 0.5 0.5 0 0 0 -159 -90.5 L -158.5 -90.5 L -158 -90.5 L -157.5 -90.5 L -157 -90.5 L -156.5 -90.5 L -156 -90.5 L -155.5 -90.5 L -155 -90.5 L -154.5 -90.5 L -154 -90.5 L -153.5 -90.5 L -153 -90.5 A 0.5 0.5 0 0 0 -152.5 -91 L -152.5 -91.5 L -152.5 -92 L -152.5 -92.5 L -152.5 -93 L -152.5 -93.5 L -152.5 -94 L -152.5 -94.5 L -152.5 -95 L -152.5 -95.5 L -152.5 -96 L -152.5 -96.5 L -152.5 -97 A 0.5 0.5 0 0 0 -153 -97.5 L -153.5 -97.5 L -154 -97.5 L -154.5 -97.5 L -155 -97.5 L -155.5 -97.5 L -156 -97.5 L -156.5 -97.5 L -157 -97.5 L -157.5 -97.5 L -158 -97.5 L -158.5 -97.5 L -159 -97.5 A 0.5 0.5 0 0 0 -159.5 -97 Z" />
  <path d="M -151.5 -97 L -151.5 -96.5 L -151.5 -96 L -151.5 -95.5 L -151.5 -95 L -151.5 -94.5 L -151.5 -94 L -151.5 -93.5 L -151.5 -93 L -151.5 -92.5 L -151.5 -92 L -151.5 -91.5 L -151.5 -91 A 0.5 0.5 0 0 0 -151 -90.5 L -150.5 -90.5 L -150 -90.5 L -149.5 -90.5 L -149 -90.5 L -148.5 -90.5 L -148 -90.5 L -147.5 -90.5 L -147 -90.5 L -146.5 -90.5 L -146 -90.5 L -145.5 -90.5 L -145 -90.5 A 0.5 0.5 0 0 0 -144.5 -91 L -144.5 -91.5 L -144.5 -92 L -144.5 -92.5 L -144.5 -93 L -144.5 -93.5 L -144.5 -94 L -144.5 -94.5 L -144.5 -95 L -144.5 -95.5 L -144.5 -96 L -144.5 -96.5 L -144.5 -97 A 0.5 0.5 0 0 0 -145 -97.5 L -145.5 -97.5 L -146 -97.5 L -146.5 -97.5 L -147 -97.5 L -147.5 -97.5 L -148 -97.5 L -148.5 -97.5 L -149 -97.5 L -149.5 -97.5 L -150 -97.5 L -150.5 -97.5 L -151 -97.5 A 0.5 0.5 0 0 0 -151.5 -97 Z" />
  <path d="M -143.5 -97 L -143.5 -96.5 L -143.5 -96 L -143.5 -95.5 L -143.5 -95 L -143.5 -94.5 L -143.5 -94 L -143.5 -93.5 L -143.5 -93 L -143.5 -92.5 L -143.5 -92 L -143.5 -91.5 L -143.5 -91 A 0.5 0.5 0 0 0 -143 -90.5 L -142.5 -90.5 L -142 -90.5 L -141.5 -90.5 L -141 -90.5 L -140.5 -90.5 L -140 -90.5 L -139.5 -90.5 L -139 -90.5 L -138.5 -90.5 L -138 -90.5 L -137.5 -90.5 L -137 -90.5 A 0.5 0.5 0 0 0 -136.5 -91 L -136.5 -91.5 L -136.5 -92 L -136.5 -92.5 L -136.5 -93 L -136.5 -93.5 L -136.5 -94 L -136.5 -94.5 L -136.5 -95 L -136.5 -95.5 L -136.5 -96 L -136.5 -96.5 L -136.5 -97 A 0.5 0.5 0 0 0 -137 -97.5 L -137.5 -97.5 L -138 -97.5 L -138.5 -97.5 L -139 -97.5 L -139.5 -97.5 L -140 -97.5 L -140.5 -97.5 L -141 -97.5 L -141.5 -97.5 L -142 -97.5 L -142.5 -97.5 L -143 -97.5 A 0.5 0.5 0 0 0 -143.5 -97 Z" />
  <path d="M -135.5 -97 L -135.5 -96.5 L -135.5 -96 L -135.5 -95.5 L -135.5 -95 L -135.5 -94.5 L -135.5 -94 L -135.5 -93.5 L -135.5 -93 L -135.5 -92.5 L -135.5 -92 L -135.5 -91.5 L -135.5 -91 A 0.5 0.5 0 0 0 -135 -90.5 L -134.5 -90.5 L -134 -90.5 L -133.5 -90.5 L -133 -90.5 L -132.5 -90.5 L -132 -90.5 L -131.5 -90.5 L -131 -90.5 L -130.5 -90.5 L -130 -90.5 L -129.5 -90.5 L -129 -90.5 A 0.5 0.5 0 0 0 -128.5 -91 L -128.5 -91.5 L -128.5 -92 L -128.5 -92.5 L -128.5 -93 L -128.5 -93.5 L -128.5 -94 L -128.5 -94.5 L -128.5 -95 L -128.5 -95.5 L -128.5 -96 L -128.5 -96.5 L -128.5 -97 A 0.5 0.5 0 0 0 -129 -97.5 L -129.5 -97.5 L -130 -97.5 L -130.5 -97.5 L -131 -97.5 L -131.5 -97.5 L -132 -97.5 L -132.5 -97.5 L -133 -97.5 L -133.5 -97.5 L -134 -97.5 L -134.5 -97.5 L -135 -97.5 A 0.5 0.5 0 0 0 -135.5 -97 Z" />
  <path d="M -127.5 -97 L -127.5 -96.5 L -127.5 -96 L -127.5 -95.5 L -127.5 -95 L -127.5 -94.5 L -127.5 -94 L -127.5 -93.5 L -127.5 -93 L -127.5 -92.5 L -127.5 -92 L -127.5 -91.5 L -127.5 -91 A 0.5 0.5 0 0 0 -127 -90.5 A 0.5 0.5 0 0 0 -126.5 -91 L -126.5 -91.5 L -126.5 -92 A 0.5 0.5 0 0 1 -126 -92.5 A 0.5 0.5 0 0 0 -125.5 -93 L -125.5 -93.5 L -125.5 -94 L -125.5 -94.5 L -125.5 -95 A 0.5 0.5 0 0 0 -126 -95.5 A 0.5 0.5 0 0 1 -126.5 -96 L -126.5 -96.5 L -126.5 -97 A 0.5 0.5 0 0 0 -127 -97.5 A 0.5 0.5 0 0 0 -127.5 -97 Z" />
  <path d="M -160.5 -65.5 L -160.5 -66 A 0.5 0.5 0 0 1 -160 -66.5 A 0.5 0.5 0 0 0 -159.5 -67 L -159.5 -67.5 L -159.5 -68 A 0.5 0.5 0 0 1 -159 -68.5 A 0.5 0.5 0 0 0 -158.5 -69 A 0.5 0.5 0 0 1 -158 -69.5 L -157.5 -69.5 L -157 -69.5 L -156.5 -69.5 L -156 -69.5 A 0.5 0.5 0 0 1 -155.5 -69 A 0.5 0.5 0 0 0 -155 -68.5 L -154.5 -68.5 L -154 -68.5 L -153.5 -68.5 L -153 -68.5 L -152.5 -68.5 L -152 -68.5 L -151.5 -68.5 L -151 -68.5 A 0.5 0.5 0 0 0 -150.5 -69 A 0.5 0.5 0 0 1 -150 -69.5 L -149.5 -69.5 L -149 -69.5 L -148.5 -69.5 L -148 -69.5 A 0.5 0.5 0 0 1 -147.5 -69 A 0.5 0.5 0 0 0 -147 -68.5 L -146.5 -68.5 L -146 -68.5 L -145.5 -68.5 L -145 -68.5 L -144.5 -68.5 L -144 -68.5 L -143.5 -68.5 L -143 -68.5 A 0.5 0.5 0 0 0 -142.5 -69 A 0.5 0.5 0 0 1 -142 -69.5 L -141.5 -69.5 L -141 -69.5 L -140.5 -69.5 L -140 -69.5 A 0.5 0.5 0 0 1 -139.5 -69 A 0.5 0.5 0 0 0 -139 -68.5 L -138.5 -68.5 L -138 -68.5 L -137.5 -68.5 L -137 -68.5 L -136.5 -68.5 L -136 -68.5 L -135.5 -68.5 L -135 -68.5 A 0.5 0.5 0 0 0 -134.5 -69 A 0.5 0.5 0 0 1 -134 -69.5 L -133.5 -69.5 L -133 -69.5 L -132.5 -69.5 L -132 -69.5 A 0.5 0.5 0 0 1 -131.5 -69 A 0.5 0.5 0 0 0 -131 -68.5 L -130.5 -68.5 L -130 -68.5 L -129.5 -68.5 L -129 -68.5 L -128.5 -68.5 L -128 -68.5 L -127.5 -68.5 L -127 -68.5 A 0.5 0.5 0 0 0 -126.5 -69 A 0.5 0.5 0 0 1 -126 -69.5 L -125.5 -69.5 L -125 -69.5 L -124.5 -69.5 L -124 -69.5 A 0.5 0.5 0 0 1 -123.5 -69 A 0.5 0.5 0 0 0 -123 -68.5 A 0.5 0.5 0 0 1 -122.5 -68 L -122.5 -67.5 L -122.5 -67 A 0.5 0.5 0 0 0 -122 -66.5 A 0.5 0.5 0 0 1 -121.5 -66 L -121.5 -65.5 L -121.5 -65 L -121.5 -64.5 L -121.5 -64 L -121.5 -63.5 L -121.5 -63 L -121.5 -62.5 L -121.5 -62 A 0.5 0.5 0 0 1 -122 -61.5 A 0.5 0.5 0 0 0 -122.5 -61 L -122.5 -60.5 L -122.5 -60 A 0.5 0.5 0 0 1 -123 -59.5 A 0.5 0.5 0 0 0 -123.5 -59 A 0.5 0.5 0 0 1 -124 -58.5 L -124.5 -58.5 L -125 -58.5 L -125.5 -58.5 L -126 -58.5 A 0.5 0.5 0 0 1 -126.5 -59 A 0.5 0.5 0 0 0 -127 -59.5 L -127.5 -59.5 L -128 -59.5 L -128.5 -59.5 L -129 -59.5 L -129.5 -59.5 L -130 -59.5 L -130.5 -59.5 L -131 -59.5 A 0.5 0.5 0 0 0 -131.5 -59 A 0.5 0.5 0 0 1 -132 -58.5 L -132.5 -58.5 L -133 -58.5 L -133.5 -58.5 L -134 -58.5 A 0.5 0.5 0 0 1 -134.5 -59 A 0.5 0.5 0 0 0 -135 -59.5 L -135.5 -59.5 L -136 -59.5 L -136.5 -59.5 L -137 -59.5 L -137.5 -59.5 L -138 -59.5 L -138.5 -59.5 L -139 -59.5 A 0.5 0.5 0 0 0 -139.5 -59 A 0.5 0.5 0 0 1 -140 -58.5 L -140.5 -58.5 L -141 -58.5 L -141.5 -58.5 L -142 -58.5 A 0.5 0.5 0 0 1 -142.5 -59 A 0.5 0.5 0 0 0 -143 -59.5 L -143.5 -59.5 L -144 -59.5 L -144.5 -59.5 L -145 -59.5 L -145.5 -59.5 L -146 -59.5 L -146.5 -59.5 L -147 -59.5 A 0.5 0.5 0 0 0 -147.5 -59 A 0.5 0.5 0 0 1 -148 -58.5 L -148.5 -58.5 L -149 -58.5 L -149.5 -58.5 L -150 -58.5 A 0.5 0.5 0 0 1 -150.5 -59 A 0.5 0.5 0 0 0 -151 -59.5 L -151.5 -59.5 L -152 -59.5 L -152.5 -59.5 L -153 -59.5 L -153.5 -59.5 L -154 -59.5 L -154.5 -59.5 L -155 -59.5 A 0.5 0.5 0 0 0 -155.5 -59 A 0.5 0.5 0 0 1 -156 -58.5 L -156.5 -58.5 L -157 -58.5 L -157.5 -58.5 L -158 -58.5 A 0.5 0.5 0 0 1 -158.5 -59 A 0.5 0.5 0 0 0 -159 -59.5 A 0.5 0.5 0 0 1 -159.5 -60 L -159.5 -60.5 L -159.5 -61 A 0.5 0.5 0 0 0 -160 -61.5 A 0.5 0.5 0 0 1 -160.5 -62 L -160.5 -62.5 L -160.5 -63 L -160.5 -63.5 L -160.5 -64 L -160.5 -64.5 L -160.5 -65 L -160.5 -65.5 Z" />
  <path d="M -159.5 -65 L -159.5 -64.5 L -159.5 -64 L -159.5 -63.5 L -159.5 -63 A 0.5 0.5 0 0 0 -159 -62.5 A 0.5 0.5 0 0 1 -158.5 -62 L -158.5 -61.5 L -158.5 -61 A 0.5 0.5 0 0 0 -158 -60.5 A 0.5 0.5 0 0 0 -157.5 -61 L -157.5 -61.5 L -157.5 -62 L -157.5 -62.5 L -157.5 -63 L -157.5 -63.5 L -157.5 -64 L -157.5 -64.5 L -157.5 -65 L -157.5 -65.5 L -157.5 -66 L -157.5 -66.5 L -157.5 -67 A 0.5 0.5 0 0 0 -158 -67.5 A 0.5 0.5 0 0 0 -158.5 -67 L -158.5 -66.5 L -158.5 -66 A 0.5 0.5 0 0 1 -159 -65.5 A 0.5 0.5 0 0 0 -159.5 -65 Z" />
  <path d="M -156.5 -67 L -156.5 -66.5 L -156.5 -66 L -156.5 -65.5 L -156.5 -65 L -156.5 -64.5 L -156.5 -64 L -156.5 -63.5 L -156.5 -63 L -156.5 -62.5 L -156.5 -62 L -156.5 -61.5 L -156.5 -61 A 0.5 0.5 0 0 0 -156 -60.5 L -155.5 -60.5 L -155 -60.5 L -154.5 -60.5 L -154 -60.5 L -153.5 -60.5 L -153 -60.5 L -152.5 -60.5 L -152 -60.5 L -151.5 -60.5 L -151 -60.5 L -150.5 -60.5 L -150 -60.5 A 0.5 0.5 0 0 0 -149.5 -61 L -149.5 -61.5 L -149.5 -62 L -149.5 -62.5 L -149.5 -63 L -149.5 -63.5 L -149.5 -64 L -149.5 -64.5 L -149.5 -65 L -149.5 -65.5 L -149.5 -66 L -149.5 -66.5 L -149.5 -67 A 0.5 0.5 0 0 0 -150 -67.5 L -150.5 -67.5 L -151 -67.5 L -151.5 -67.5 L -152 -67.5 L -152.5 -67.5 L -153 -67.5 L -153.5 -67.5 L -154 -67.5 L -154.5 -67.5 L -155 -67.5 L -155.5 -67.5 L -156 -67.5 A 0.5 0.5 0 0 0 -156.5 -67 Z" />
  <path d="M -148.5 -67 L -148.5 -66.5 L -148.5 -66 L -148.5 -65.5 L -148.5 -65 L -148.5 -64.5 L -148.5 -64 L -148.5 -63.5 L -148.5 -63 L -148.5 -62.5 L -148.5 -62 L -148.5 -61.5 L -148.5 -61 A 0.5 0.5 0 0 0 -148 -60.5 L -147.5 -60.5 L -147 -60.5 L -146.5 -60.5 L -146 -60.5 L -145.5 -60.5 L -145 -60.5 L -144.5 -60.5 L -144 -60.5 L -143.5 -60.5 L -143 -60.5 L -142.5 -60.5 L -142 -60.5 A 0.5 0.5 0 0 0 -141.5 -61 L -141.5 -61.5 L -141.5 -62 L -141.5 -62.5 L -141.5 -63 L -141.5 -63.5 L -141.5 -64 L -141.5 -64.5 L -141.5 -65 L -141.5 -65.5 L -141.5 -66 L -141.5 -66.5 L -141.5 -67 A 0.5 0.5 0 0 0 -142 -67.5 L -142.5 -67.5 L -143 -67.5 L -143.5 -67.5 L -144 -67.5 L -144.5 -67.5 L -145 -67.5 L -145.5 -67.5 L -146 -67.5 L -146.5 -67.5 L -147 -67.5 L -147.5 -67.5 L -148 -67.5 A 0.5 0.5 0 0 0 -148.5 -67 Z" />
  <path d="M -140.5 -67 L -140.5 -66.5 L -140.5 -66 L -140.5 -65.5 L -140.5 -65 L -140.5 -64.5 L -140.5 -64 L -140.5 -63.5 L -140.5 -63 L -140.5 -62.5 L -140.5 -62 L -140.5 -61.5 L -140.5 -61 A 0.5 0.5 0 0 0 -140 -60.5 L -139.5 -60.5 L -139 -60.5 L -138.5 -60.5 L -138 -60.5 L -137.5 -60.5 L -137 -60.5 L -136.5 -60.5 L -136 -60.5 L -135.5 -60.5 L -135 -60.5 L -134.5 -60.5 L -134 -60.5 A 0.5 0.5 0 0 0 -133.5 -61 L -133.5 -61.5 L -133.5 -62 L -133.5 -62.5 L -133.5 -63 L -133.5 -63.5 L -133.5 -64 L -133.5 -64.5 L -133.5 -65 L -133.5 -65.5 L -133.5 -66 L -133.5 -66.5 L -133.5 -67 A 0.5 0.5 0 0 0 -134 -67.5 L -134.5 -67.5 L -135 -67.5 L -135.5 -67.5 L -136 -67.5 L -136.5 -67.5 L -137 -67.5 L -137.5 -67.5 L -138 -67.5 L -138.5 -67.5 L -139 -67.5 L -139.5 -67.5 L -140 -67.5 A 0.5 0.5 0 0 0 -140.5 -67 Z" />
  <path d="M -132.5 -67 L -132.5 -66.5 L -132.5 -66 L -132.5 -65.5 L -132.5 -65 L -132.5 -64.5 L -132.5 -64 L -132.5 -63.5 L -132.5 -63 L -132.5 -62.5 L -132.5 -62 L -132.5 -61.5 L -132.5 -61 A 0.5 0.5 0 0 0 -132 -60.5 L -131.5 -60.5 L -131 -60.5 L -130.5 -60.5 L -130 -60.5 L -129.5 -60.5 L -129 -60.5 L -128.5 -60.5 L -128 -60.5 L -127.5 -60.5 L -127 -60.5 L -126.5 -60.5 L -126 -60.5 A 0.5 0.5 0 0 0 -125.5 -61 L -125.5 -61.5 L -125.5 -62 L -125.5 -62.5 L -125.5 -63 L -125.5 -63.5 L -125.5 -64 L -125.5 -64.5 L -125.5 -65 L -125.5 -65.5 L -125.5 -66 L -125.5 -66.5 L -125.5 -67 A 0.5 0.5 0 0 0 -126 -67.5 L -126.5 -67.5 L -127 -67.5 L -127.5 -67.5 L -128 -67.5 L -128.5 -67.5 L -129 -67.5 L -129.5 -67.5 L -130 -67.5 L -130.5 -67.5 L -131 -67.5 L -131.5 -67.5 L -132 -67.5 A 0.5 0.5 0 0 0 -132.5 -67 Z" />
  <path d="M -124.5 -67 L -124.5 -66.5 L -124.5 -66 L -124.5 -65.5 L -124.5 -65 L -124.5 -64.5 L -124.5 -64 L -124.5 -63.5 L -124.5 -63 L -124.5 -62.5 L -124.5 -62 L -124.5 -61.5 L -124.5 -61 A 0.5 0.5 0 0 0 -124 -60.5 A 0.5 0.5 0 0 0 -123.5 -61 L -123.5 -61.5 L -123.5 -62 A 0.5 0.5 0 0 1 -123 -62.5 A 0.5 0.5 0 0 0 -122.5 -63 L -122.5 -63.5 L -122.5 -64 L -122.5 -64.5 L -122.5 -65 A 0.5 0.5 0 0 0 -123 -65.5 A 0.5 0.5 0 0 1 -123.5 -66 L -123.5 -66.5 L -123.5 -67 A 0.5 0.5 0 0 0 -124 -67.5 A 0.5 0.5 0 0 0 -124.5 -67 Z" />
  <path d="M -151.667 -89.6 A 0.333 0.333 0 0 0 -152.333 -89.6 A 0.333 0.333 0 0 0 -151.667 -89.6 Z" />
  <path d="M -151.667 -98.6 A 0.333 0.333 0 0 0 -152.333 -98.6 A 0.333 0.333 0 0 0 -151.667 -98.6 Z" />
  <path d="M -127.667 -98.6 A 0.333 0.333 0 0 0 -128.333 -98.6 A 0.333 0.333 0 0 0 -127.667 -98.6 Z" />
  <path d="M -127.667 -89.6 A 0.333 0.333 0 0 0 -128.333 -89.6 A 0.333 0.333 0 0 0 -127.667 -89.6 Z" />
  <path d="M -162.667 -94 A 0.333 0.333 0 0 0 -163.333 -94 A 0.333 0.333 0 0 0 -162.667 -94 Z" />
  <path d="M -148.689 -68.6 A 0.311 0.311 0 0 0 -149.311 -68.6 A 0.311 0.311 0 0 0 -148.689 -68.6 Z" />
  <path d="M -148.689 -59.6 A 0.311 0.311 0 0 0 -149.311 -59.6 A 0.311 0.311 0 0 0 -148.689 -59.6 Z" />
  <path d="M -124.689 -68.6 A 0.311 0.311 0 0 0 -125.311 -68.6 A 0.311 0.311 0 0 0 -124.689 -68.6 Z" />
  <path d="M -124.689 -59.6 A 0.311 0.311 0 0 0 -125.311 -59.6 A 0.311 0.311 0 0 0 -124.689 -59.6 Z" />
  <path d="M -159.689 -64 A 0.311 0.311 0 0 0 -160.311 -64 A 0.311 0.311 0 0 0 -159.689 -64 Z" />
</g>
</svg>