<?xml version="1.0" encoding="UTF-8"?>
<svg xmlns="http://www.w3.org/2000/svg"
     width="95.4mm"
     height="46.800000000000004mm"
     viewBox="1 -97 53 26">
<g fill="transparent" stroke="#000" stroke-width="0.02" opacity="1">
  <path d="M 2 -81.5 L 2 -82 A 0.5 0.5 0 0 1 2.5 -82.5 L 3 -82.5 L 3.5 -82.5 L 4 -82.5 L 4.5 -82.5 L 5 -82.5 L 5.5 -82.5 L 6 -82.5 A 0.5 0.5 0 0 1 6.5 -82 L 6 -82 L 6 -81.5 L 6 -81 L 6 -80.5 L 6 -80 L 6 -79.5 L 6 -79 L 6 -78.5 L 6 -78 L 6 -77.5 L 6 -77 L 6 -76.5 L 6 -76 L 6 -75.5 L 6 -75 L 6 -74.5 L 6 -74 L 6.5 -74 A 0.5 0.5 0 0 1 6 -73.5 L 5.5 -73.5 L 5 -73.5 L 4.5 -73.5 L 4 -73.5 L 3.5 -73.5 L 3 -73.5 L 2.5 -73.5 A 0.5 0.5 0 0 1 2 -74 L 2 -74.5 L 2 -75 L 2 -75.5 L 2 -76 L 2 -76.5 L 2 -77 L 2 -77.5 L 2 -78 L 2 -78.5 L 2 -79 L 2 -79.5 L 2 -80 L 2 -80.5 L 2 -81 L 2 -81.5 Z" />
  <path d="M 3.5 -81 L 3.5 -80.5 L 3.5 -80 L 3.5 -79.5 L 3.5 -79 L 3.5 -78.5 L 3.5 -78 L 3.5 -77.5 L 3.5 -77 L 3.5 -76.5 L 3.5 -76 L 3.5 -75.5 L 3.5 -75 A 0.5 0.5 0 0 0 4 -74.5 L 4.5 -74.5 L 5 -74.5 A 0.5 0.5 0 0 0 5.5 -75 L 5.5 -75.5 L 5.5 -76 L 5.5 -76.5 L 5.5 -77 L 5.5 -77.5 L 5.5 -78 L 5.5 -78.5 L 5.5 -79 L 5.5 -79.5 L 5.5 -80 L 5.5 -80.5 L 5.5 -81 A 0.5 0.5 0 0 0 5 -81.5 L 4.5 -81.5 L 4 -81.5 A 0.5 0.5 0 0 0 3.5 -81 Z" />
  <path d="M 12.5 -81.5 L 12 -81.5 A 0.5 0.5 0 0 1 12.5 -82 L 13 -82 L 13.5 -82 L 14 -82 L 14.5 -82 L 15 -82 L 15.5 -82 L 16 -82 L 16.5 -82 L 17 -82 L 17.5 -82 L 18 -82 L 18.5 -82 L 19 -82 L 19.5 -82 L 20 -82 L 20.5 -82 L 21 -82 L 21.5 -82 L 22 -82 L 22.5 -82 L 23 -82 L 23.5 -82 L 24 -82 L 24.5 -82 L 25 -82 L 25.5 -82 L 26 -82 L 26.5 -82 L 27 -82 L 27.5 -82 L 28 -82 L 28.5 -82 L 29 -82 L 29.5 -82 L 30 -82 L 30.5 -82 L 31 -82 L 31.5 -82 L 32 -82 L 32.5 -82 L 33 -82 L 33.5 -82 L 34 -82 L 34.5 -82 L 35 -82 L 35.5 -82 L 36 -82 L 36.5 -82 L 37 -82 L 37.5 -82 L 38 -82 L 38.5 -82 L 39 -82 L 39.5 -82 L 40 -82 L 40.5 -82 L 41 -82 L 41.5 -82 L 42 -82 L 42.5 -82 L 43 -82 L 43.5 -82 L 44 -82 L 44.5 -82 L 45 -82 L 45.5 -82 L 46 -82 L 46.5 -82 L 47 -82 L 47.5 -82 L 48 -82 L 48.5 -82 L 49 -82 L 49.5 -82 L 50 -82 L 50.5 -82 L 51 -82 L 51.5 -82 A 0.5 0.5 0 0 1 52 -81.5 L 52 -81 L 52 -80.5 L 52 -80 L 52 -79.5 L 52 -79 L 52 -78.5 L 52 -78 L 52 -77.5 L 52 -77 L 52 -76.5 L 52 -76 L 52 -75.5 L 52 -75 L 52 -74.5 L 52 -74 L 52 -73.5 L 52 -73 L 52 -72.5 A 0.5 0.5 0 0 1 51.5 -72 L 51 -72 L 50.5 -72 L 50 -72 L 49.5 -72 L 49 -72 L 48.5 -72 L 48 -72 L 47.5 -72 L 47 -72 L 46.5 -72 L 46 -72 L 45.5 -72 L 45 -72 L 44.5 -72 L 44 -72 L 43.5 -72 L 43 -72 L 42.5 -72 L 42 -72 L 41.5 -72 L 41 -72 L 40.5 -72 L 40 -72 L 39.5 -72 L 39 -72 L 38.5 -72 L 38 -72 L 37.5 -72 L 37 -72 L 36.5 -72 L 36 -72 L 35.5 -72 L 35 -72 L 34.5 -72 L 34 -72 L 33.5 -72 L 33 -72 L 32.5 -72 L 32 -72 L 31.5 -72 L 31 -72 L 30.5 -72 L 30 -72 L 29.5 -72 L 29 -72 L 28.5 -72 L 28 -72 L 27.5 -72 L 27 -72 L 26.5 -72 L 26 -72 L 25.5 -72 L 25 -72 L 24.5 -72 L 24 -72 L 23.5 -72 L 23 -72 L 22.5 -72 L 22 -72 L 21.5 -72 L 21 -72 L 20.5 -72 L 20 -72 L 19.5 -72 L 19 -72 L 18.5 -72 L 18 -72 L 17.5 -72 L 17 -72 L 16.5 -72 L 16 -72 L 15.5 -72 L 15 -72 L 14.5 -72 L 14 -72 L 13.5 -72 L 13 -72 L 12.5 -72 A 0.5 0.5 0 0 1 12 -72.5 L 12.5 -72.5 L 13 -72.5 L 13.5 -72.5 L 14 -72.5 L 14.5 -72.5 L 15 -72.5 L 15.5 -72.5 L 16 -72.5 A 0.5 0.5 0 0 0 16.5 -73 L 17 -73 L 17.5 -73 L 18 -73 L 18.5 -73 L 19 -73 L 19.5 -73 L 20 -73 L 20.5 -73 L 21 -73 L 21.5 -73 L 22 -73 L 22.5 -73 L 23 -73 L 23.5 -73 L 24 -73 L 24.5 -73 L 25 -73 L 25.5 -73 L 26 -73 L 26.5 -73 L 27 -73 L 27.5 -73 L 28 -73 L 28.5 -73 L 29 -73 L 29.5 -73 L 30 -73 L 30.5 -73 L 31 -73 L 31.5 -73 L 32 -73 L 32.5 -73 L 33 -73 L 33.5 -73 L 34 -73 L 34.5 -73 L 35 -73 L 35.5 -73 L 36 -73 L 36.5 -73 L 37 -73 L 37.5 -73 L 38 -73 L 38.5 -73 L 39 -73 L 39.5 -73 L 40 -73 L 40.5 -73 L 41 -73 L 41.5 -73 L 42 -73 L 42.5 -73 L 43 -73 L 43.5 -73 L 44 -73 L 44.5 -73 L 45 -73 L 45.5 -73 L 46 -73 L 46.5 -73 L 47 -73 L 47.5 -73 A 0.5 0.5 0 0 0 48 -73.5 L 48 -74 L 48 -74.5 L 48 -75 L 48 -75.5 L 48 -76 L 48 -76.5 L 48 -77 L 48 -77.5 L 48 -78 L 48 -78.5 L 48 -79 L 48 -79.5 L 48 -80 L 48 -80.5 A 0.5 0.5 0 0 0 47.5 -81 L 47 -81 L 46.5 -81 L 46 -81 L 45.5 -81 L 45 -81 L 44.5 -81 L 44 -81 L 43.5 -81 L 43 -81 L 42.5 -81 L 42 -81 L 41.5 -81 L 41 -81 L 40.5 -81 L 40 -81 L 39.5 -81 L 39 -81 L 38.5 -81 L 38 -81 L 37.5 -81 L 37 -81 L 36.5 -81 L 36 -81 L 35.5 -81 L 35 -81 L 34.5 -81 L 34 -81 L 33.5 -81 L 33 -81 L 32.5 -81 L 32 -81 L 31.5 -81 L 31 -81 L 30.5 -81 L 30 -81 L 29.5 -81 L 29 -81 L 28.5 -81 L 28 -81 L 27.5 -81 L 27 -81 L 26.5 -81 L 26 -81 L 25.5 -81 L 25 -81 L 24.5 -81 L 24 -81 L 23.5 -81 L 23 -81 L 22.5 -81 L 22 -81 L 21.5 -81 L 21 -81 L 20.5 -81 L 20 -81 L 19.5 -81 L 19 -81 L 18.5 -81 L 18 -81 L 17.5 -81 L 17 -81 L 16.5 -81 A 0.5 0.5 0 0 0 16 -81.5 L 15.5 -81.5 L 15 -81.5 L 14.5 -81.5 L 14 -81.5 L 13.5 -81.5 L 13 -81.5 L 12.5 -81.5 Z" />
  <path d="M 47 -80.5 A 0.5 0.5 0 0 1 47.5 -80 L 47.5 -80.5 L 47 -80.5 Z" />
  <path d="M 47.5 -74 A 0.5 0.5 0 0 1 47 -73.5 L 47.5 -73.5 L 47.5 -74 Z" />
  <path d="M 48.5 -80 L 48.5 -79.5 L 48.5 -79 L 48.5 -78.5 L 48.5 -78 L 48.5 -77.5 L 48.5 -77 L 48.5 -76.5 L 48.5 -76 L 48.5 -75.5 L 48.5 -75 L 48.5 -74.5 L 48.5 -74 A 0.5 0.5 0 0 0 49 -73.5 L 49.5 -73.5 L 50 -73.5 A 0.5 0.5 0 0 0 50.5 -74 L 50.5 -74.5 L 50.5 -75 L 50.5 -75.5 L 50.5 -76 L 50.5 -76.5 L 50.5 -77 L 50.5 -77.5 L 50.5 -78 L 50.5 -78.5 L 50.5 -79 L 50.5 -79.5 L 50.5 -80 A 0.5 0.5 0 0 0 50 -80.5 L 49.5 -80.5 L 49 -80.5 A 0.5 0.5 0 0 0 48.5 -80 Z" />
  <path d="M 3 -95.5 L 3 -96 A 0.5 0.5 0 0 1 3.5 -96.5 L 4 -96.5 L 4.5 -96.5 L 5 -96.5 L 5.5 -96.5 L 6 -96.5 L 6.5 -96.5 L 7 -96.5 A 0.5 0.5 0 0 1 7.5 -96 L 7 -96 L 7 -95.5 L 7 -95 L 7 -94.5 L 7 -94 L 7 -93.5 L 7 -93 L 7 -92.5 L 7 -92 L 7 -91.5 L 7 -91 L 7 -90.5 L 7 -90 L 7 -89.5 L 7 -89 L 7 -88.5 L 7 -88 L 7.5 -88 A 0.5 0.5 0 0 1 7 -87.5 L 6.5 -87.5 L 6 -87.5 L 5.5 -87.5 L 5 -87.5 L 4.5 -87.5 L 4 -87.5 L 3.5 -87.5 A 0.5 0.5 0 0 1 3 -88 L 3 -88.5 L 3 -89 L 3 -89.5 L 3 -90 L 3 -90.5 L 3 -91 L 3 -91.5 L 3 -92 L 3 -92.5 L 3 -93 L 3 -93.5 L 3 -94 L 3 -94.5 L 3 -95 L 3 -95.5 Z" />
  <path d="M 4.5 -95 L 4.5 -94.5 L 4.5 -94 L 4.5 -93.5 L 4.5 -93 L 4.5 -92.5 L 4.5 -92 L 4.5 -91.5 L 4.5 -91 L 4.5 -90.5 L 4.5 -90 L 4.5 -89.5 L 4.5 -89 A 0.5 0.5 0 0 0 5 -88.5 L 5.5 -88.5 L 6 -88.5 A 0.5 0.5 0 0 0 6.5 -89 L 6.5 -89.5 L 6.5 -90 L 6.5 -90.5 L 6.5 -91 L 6.5 -91.5 L 6.5 -92 L 6.5 -92.5 L 6.5 -93 L 6.5 -93.5 L 6.5 -94 L 6.5 -94.5 L 6.5 -95 A 0.5 0.5 0 0 0 6 -95.5 L 5.5 -95.5 L 5 -95.5 A 0.5 0.5 0 0 0 4.5 -95 Z" />
  <path d="M 13.5 -95.5 L 13 -95.5 A 0.5 0.5 0 0 1 13.5 -96 L 14 -96 L 14.5 -96 L 15 -96 L 15.5 -96 L 16 -96 L 16.5 -96 L 17 -96 L 17.5 -96 L 18 -96 L 18.5 -96 L 19 -96 L 19.5 -96 L 20 -96 L 20.5 -96 L 21 -96 L 21.5 -96 L 22 -96 L 22.5 -96 L 23 -96 L 23.5 -96 L 24 -96 L 24.5 -96 L 25 -96 L 25.5 -96 L 26 -96 L 26.5 -96 L 27 -96 L 27.5 -96 L 28 -96 L 28.5 -96 L 29 -96 L 29.5 -96 L 30 -96 L 30.5 -96 L 31 -96 L 31.5 -96 L 32 -96 L 32.5 -96 L 33 -96 L 33.5 -96 L 34 -96 L 34.5 -96 L 35 -96 L 35.5 -96 L 36 -96 L 36.5 -96 L 37 -96 L 37.5 -96 L 38 -96 L 38.5 -96 L 39 -96 L 39.5 -96 L 40 -96 L 40.5 -96 L 41 -96 L 41.5 -96 L 42 -96 L 42.5 -96 L 43 -96 L 43.5 -96 L 44 -96 L 44.5 -96 L 45 -96 L 45.5 -96 L 46 -96 L 46.5 -96 L 47 -96 L 47.5 -96 L 48 -96 L 48.5 -96 L 49 -96 L 49.5 -96 L 50 -96 L 50.5 -96 L 51 -96 L 51.5 -96 L 52 -96 L 52.5 -96 A 0.5 0.5 0 0 1 53 -95.5 L 53 -95 L 53 -94.5 L 53 -94 L 53 -93.5 L 53 -93 L 53 -92.5 L 53 -92 L 53 -91.5 L 53 -91 L 53 -90.5 L 53 -90 L 53 -89.5 L 53 -89 L 53 -88.5 L 53 -88 L 53 -87.5 L 53 -87 L 53 -86.5 A 0.5 0.5 0 0 1 52.5 -86 L 52 -86 L 51.5 -86 L 51 -86 L 50.5 -86 L 50 -86 L 49.5 -86 L 49 -86 L 48.5 -86 L 48 -86 L 47.5 -86 L 47 -86 L 46.5 -86 L 46 -86 L 45.5 -86 L 45 -86 L 44.5 -86 L 44 -86 L 43.5 -86 L 43 -86 L 42.5 -86 L 42 -86 L 41.5 -86 L 41 -86 L 40.5 -86 L 40 -86 L 39.5 -86 L 39 -86 L 38.5 -86 L 38 -86 L 37.5 -86 L 37 -86 L 36.5 -86 L 36 -86 L 35.5 -86 L 35 -86 L 34.5 -86 L 34 -86 L 33.5 -86 L 33 -86 L 32.5 -86 L 32 -86 L 31.5 -86 L 31 -86 L 30.5 -86 L 30 -86 L 29.5 -86 L 29 -86 L 28.5 -86 L 28 -86 L 27.5 -86 L 27 -86 L 26.5 -86 L 26 -86 L 25.5 -86 L 25 -86 L 24.5 -86 L 24 -86 L 23.5 -86 L 23 -86 L 22.5 -86 L 22 -86 L 21.5 -86 L 21 -86 L 20.5 -86 L 20 -86 L 19.5 -86 L 19 -86 L 18.5 -86 L 18 -86 L 17.5 -86 L 17 -86 L 16.5 -86 L 16 -86 L 15.5 -86 L 15 -86 L 14.5 -86 L 14 -86 L 13.5 -86 A 0.5 0.5 0 0 1 13 -86.5 L 13.5 -86.5 L 14 -86.5 L 14.5 -86.5 L 15 -86.5 L 15.5 -86.5 L 16 -86.5 L 16.5 -86.5 L 17 -86.5 A 0.5 0.5 0 0 0 17.5 -87 L 18 -87 L 18.5 -87 L 19 -87 L 19.5 -87 L 20 -87 L 20.5 -87 L 21 -87 L 21.5 -87 L 22 -87 L 22.5 -87 L 23 -87 L 23.5 -87 L 24 -87 L 24.5 -87 L 25 -87 L 25.5 -87 L 26 -87 L 26.5 -87 L 27 -87 L 27.5 -87 L 28 -87 L 28.5 -87 L 29 -87 L 29.5 -87 L 30 -87 L 30.5 -87 L 31 -87 L 31.5 -87 L 32 -87 L 32.5 -87 L 33 -87 L 33.5 -87 L 34 -87 L 34.5 -87 L 35 -87 L 35.5 -87 L 36 -87 L 36.5 -87 L 37 -87 L 37.5 -87 L 38 -87 L 38.5 -87 L 39 -87 L 39.5 -87 L 40 -87 L 40.5 -87 L 41 -87 L 41.5 -87 L 42 -87 L 42.5 -87 L 43 -87 L 43.5 -87 L 44 -87 L 44.5 -87 L 45 -87 L 45.5 -87 L 46 -87 L 46.5 -87 L 47 -87 L 47.5 -87 L 48 -87 L 48.5 -87 A 0.5 0.5 0 0 0 49 -87.5 L 49 -88 L 49 -88.5 L 49 -89 L 49 -89.5 L 49 -90 L 49 -90.5 L 49 -91 L 49 -91.5 L 49 -92 L 49 -92.5 L 49 -93 L 49 -93.5 L 49 -94 L 49 -94.5 A 0.5 0.5 0 0 0 48.5 -95 L 48 -95 L 47.5 -95 L 47 -95 L 46.5 -95 L 46 -95 L 45.5 -95 L 45 -95 L 44.5 -95 L 44 -95 L 43.5 -95 L 43 -95 L 42.5 -95 L 42 -95 L 41.5 -95 L 41 -95 L 40.5 -95 L 40 -95 L 39.5 -95 L 39 -95 L 38.5 -95 L 38 -95 L 37.5 -95 L 37 -95 L 36.5 -95 L 36 -95 L 35.5 -95 L 35 -95 L 34.5 -95 L 34 -95 L 33.5 -95 L 33 -95 L 32.5 -95 L 32 -95 L 31.5 -95 L 31 -95 L 30.5 -95 L 30 -95 L 29.5 -95 L 29 -95 L 28.5 -95 L 28 -95 L 27.5 -95 L 27 -95 L 26.5 -95 L 26 -95 L 25.5 -95 L 25 -95 L 24.5 -95 L 24 -95 L 23.5 -95 L 23 -95 L 22.5 -95 L 22 -95 L 21.5 -95 L 21 -95 L 20.5 -95 L 20 -95 L 19.5 -95 L 19 -95 L 18.5 -95 L 18 -95 L 17.5 -95 A 0.5 0.5 0 0 0 17 -95.5 L 16.5 -95.5 L 16 -95.5 L 15.5 -95.5 L 15 -95.5 L 14.5 -95.5 L 14 -95.5 L 13.5 -95.5 Z" />
  <path d="M 48 -94.5 A 0.5 0.5 0 0 1 48.5 -94 L 48.5 -94.5 L 48 -94.5 Z" />
  <path d="M 48.5 -88 A 0.5 0.5 0 0 1 48 -87.5 L 48.5 -87.5 L 48.5 -88 Z" />
  <path d="M 49.5 -94 L 49.5 -93.5 L 49.5 -93 L 49.5 -92.5 L 49.5 -92 L 49.5 -91.5 L 49.5 -91 L 49.5 -90.5 L 49.5 -90 L 49.5 -89.5 L 49.5 -89 L 49.5 -88.5 L 49.5 -88 A 0.5 0.5 0 0 0 50 -87.5 L 50.5 -87.5 L 51 -87.5 A 0.5 0.5 0 0 0 51.5 -88 L 51.5 -88.5 L 51.5 -89 L 51.5 -89.5 L 51.5 -90 L 51.5 -90.5 L 51.5 -91 L 51.5 -91.5 L 51.5 -92 L 51.5 -92.5 L 51.5 -93 L 51.5 -93.5 L 51.5 -94 A 0.5 0.5 0 0 0 51 -94.5 L 50.5 -94.5 L 50 -94.5 A 0.5 0.5 0 0 0 49.5 -94 Z" />
  <path d="M 4.208 -72 A 0.208 0.208 0 0 0 3.792 -72 A 0.208 0.208 0 0 0 4.208 -72 Z" />
  <path d="M 16.278 -81 A 0.278 0.278 0 0 0 15.722 -81 A 0.278 0.278 0 0 0 16.278 -81 Z" />
  <path d="M 16.278 -81 A 0.278 0.278 0 0 0 15.722 -81 A 0.278 0.278 0 0 0 16.278 -81 Z" />
  <path d="M 24.208 -81.5 A 0.208 0.208 0 0 0 23.792 -81.5 A 0.208 0.208 0 0 0 24.208 -81.5 Z" />
  <path d="M 24.208 -72.5 A 0.208 0.208 0 0 0 23.792 -72.5 A 0.208 0.208 0 0 0 24.208 -72.5 Z" />
  <path d="M 48.208 -81.5 A 0.208 0.208 0 0 0 47.792 -81.5 A 0.208 0.208 0 0 0 48.208 -81.5 Z" />
  <path d="M 48.208 -72.5 A 0.208 0.208 0 0 0 47.792 -72.5 A 0.208 0.208 0 0 0 48.208 -72.5 Z" />
  <path d="M 5.208 -86 A 0.208 0.208 0 0 0 4.792 -86 A 0.208 0.208 0 0 0 5.208 -86 Z" />
  <path d="M 17.278 -95 A 0.278 0.278 0 0 0 16.722 -95 A 0.278 0.278 0 0 0 17.278 -95 Z" />
  <path d="M 17.278 -95 A 0.278 0.278 0 0 0 16.722 -95 A 0.278 0.278 0 0 0 17.278 -95 Z" />
  <path d="M 25.222 -95.5 A 0.222 0.222 0 0 0 24.778 -95.5 A 0.222 0.222 0 0 0 25.222 -95.5 Z" />
  <path d="M 25.222 -86.5 A 0.222 0.222 0 0 0 24.778 -86.5 A 0.222 0.222 0 0 0 25.222 -86.5 Z" />
  <path d="M 49.222 -95.5 A 0.222 0.222 0 0 0 48.778 -95.5 A 0.222 0.222 0 0 0 49.222 -95.5 Z" />
  <path d="M 49.222 -86.5 A 0.222 0.222 0 0 0 48.778 -86.5 A 0.222 0.222 0 0 0 49.222 -86.5 Z" />
  <path d="M 3.972 -92 A 0.222 0.222 0 0 0 3.528 -92 A 0.222 0.222 0 0 0 3.972 -92 Z" />
  <path d="M 3.008 -78 A 0.208 0.208 0 0 0 2.592 -78 A 0.208 0.208 0 0 0 3.008 -78 Z" />
</g>
</svg>