<?xml version="1.0" encoding="UTF-8"?>
<svg xmlns="http://www.w3.org/2000/svg"
     width="54mm"
     height="37.800000000000004mm"
     viewBox="-49 9 30 21">
<g fill="transparent" stroke="#000" stroke-width="0.02" opacity="1">
  <path d="M -47.5 11.5 L -48 11.5 A 0.5 0.5 0 0 1 -48.5 11 L -48.5 10.5 L -48.5 10 L -48.5 9.5 L -48 9.5 L -47.5 9.5 L -47 9.5 L -46.5 9.5 L -46 9.5 A 0.5 0.5 0 0 1 -45.5 10 A 0.5 0.5 0 0 0 -45 10.5 A 0.5 0.5 0 0 1 -44.5 11 L -44.5 11.5 L -44.5 12 A 0.5 0.5 0 0 0 -44 12.5 L -43.5 12.5 L -43.5 13 L -43.5 13.5 L -43.5 14 L -43.5 14.5 L -44 14.5 L -44.5 14.5 L -45 14.5 L -45.5 14.5 L -46 14.5 L -46.5 14.5 L -47 14.5 L -47.5 14.5 L -48 14.5 L -48.5 14.5 L -48.5 14 L -48.5 13.5 L -48.5 13 L -48.5 12.5 L -48 12.5 L -47.5 12.5 L -47 12.5 L -46.5 12.5 L -46 12.5 A 0.5 0.5 0 0 0 -45.5 12 A 0.5 0.5 0 0 0 -46 11.5 L -46.5 11.5 L -47 11.5 L -47.5 11.5 Z" />
  <path d="M -40.5 10.5 L -40.5 10 L -40.5 9.5 L -40 9.5 L -39.5 9.5 L -39 9.5 L -38.5 9.5 L -38 9.5 L -37.5 9.5 L -37 9.5 L -36.5 9.5 L -36 9.5 A 0.5 0.5 0 0 1 -35.5 10 L -35.5 10.5 L -35.5 11 A 0.5 0.5 0 0 1 -36 11.5 A 0.5 0.5 0 0 0 -36.5 12 A 0.5 0.5 0 0 0 -36 12.5 A 0.5 0.5 0 0 1 -35.5 13 L -35.5 13.5 L -35.5 14 A 0.5 0.5 0 0 1 -36 14.5 L -36.5 14.5 L -37 14.5 L -37.5 14.5 L -37.5 14 A 0.5 0.5 0 0 1 -37 13.5 A 0.5 0.5 0 0 0 -36.5 13 A 0.5 0.5 0 0 0 -37 12.5 A 0.5 0.5 0 0 1 -37.5 12 A 0.5 0.5 0 0 0 -38 11.5 L -38.5 11.5 L -39 11.5 L -39.5 11.5 L -40 11.5 A 0.5 0.5 0 0 1 -40.5 11 L -40.5 10.5 Z" />
  <path d="M -40.5 13.5 L -40.5 13 A 0.5 0.5 0 0 1 -40 12.5 L -39.5 12.5 L -39 12.5 L -38.5 12.5 L -38.5 13 A 0.5 0.5 0 0 1 -39 13.5 A 0.5 0.5 0 0 0 -39.5 14 A 0.5 0.5 0 0 1 -40 14.5 A 0.5 0.5 0 0 1 -40.5 14 L -40.5 13.5 Z" />
  <path d="M -32.5 10.5 L -32.5 10 A 0.5 0.5 0 0 1 -32 9.5 L -31.5 9.5 L -31 9.5 L -30.5 9.5 L -30.5 10 A 0.5 0.5 0 0 0 -30 10.5 A 0.5 0.5 0 0 1 -29.5 11 A 0.5 0.5 0 0 0 -29 11.5 A 0.5 0.5 0 0 0 -28.5 11 L -28.5 10.5 L -28.5 10 L -28.5 9.5 L -28 9.5 A 0.5 0.5 0 0 1 -27.5 10 L -27.5 10.5 L -27.5 11 A 0.5 0.5 0 0 1 -28 11.5 A 0.5 0.5 0 0 0 -28.5 12 A 0.5 0.5 0 0 0 -28 12.5 A 0.5 0.5 0 0 1 -27.5 13 L -27.5 13.5 L -27.5 14 L -27.5 14.5 L -28 14.5 L -28.5 14.5 L -29 14.5 L -29.5 14.5 L -29.5 14 A 0.5 0.5 0 0 0 -30 13.5 A 0.5 0.5 0 0 1 -30.5 13 A 0.5 0.5 0 0 0 -31 12.5 A 0.5 0.5 0 0 0 -31.5 13 A 0.5 0.5 0 0 0 -31 13.5 A 0.5 0.5 0 0 1 -30.5 14 A 0.5 0.5 0 0 1 -31 14.5 L -31.5 14.5 L -32 14.5 L -32.5 14.5 L -32.5 14 L -32.5 13.5 L -32.5 13 A 0.5 0.5 0 0 1 -32 12.5 A 0.5 0.5 0 0 0 -31.5 12 A 0.5 0.5 0 0 0 -32 11.5 A 0.5 0.5 0 0 1 -32.5 11 L -32.5 10.5 Z" />
  <path d="M -40.5 25.5 L -40.5 25 L -40.5 24.5 L -40 24.5 L -39.5 24.5 L -39 24.5 L -38.5 24.5 L -38 24.5 A 0.5 0.5 0 0 1 -37.5 25 A 0.5 0.5 0 0 0 -37 25.5 A 0.5 0.5 0 0 1 -36.5 26 L -36.5 26.5 L -36.5 27 A 0.5 0.5 0 0 0 -36 27.5 L -35.5 27.5 L -35.5 28 L -35.5 28.5 L -35.5 29 L -35.5 29.5 L -36 29.5 L -36.5 29.5 L -37 29.5 L -37.5 29.5 L -38 29.5 L -38.5 29.5 L -39 29.5 L -39.5 29.5 L -40 29.5 L -40.5 29.5 L -40.5 29 L -40.5 28.5 L -40.5 28 L -40.5 27.5 L -40 27.5 L -39.5 27.5 L -39 27.5 L -38.5 27.5 L -38 27.5 A 0.5 0.5 0 0 0 -37.5 27 A 0.5 0.5 0 0 0 -38 26.5 L -38.5 26.5 L -39 26.5 L -39.5 26.5 L -40 26.5 A 0.5 0.5 0 0 1 -40.5 26 L -40.5 25.5 Z" />
  <path d="M -32.5 25.5 L -32.5 25 L -32.5 24.5 L -32 24.5 L -31.5 24.5 L -31 24.5 L -30.5 24.5 L -30 24.5 L -29.5 24.5 L -29 24.5 L -28.5 24.5 L -28 24.5 A 0.5 0.5 0 0 1 -27.5 25 L -27.5 25.5 L -27.5 26 A 0.5 0.5 0 0 1 -28 26.5 A 0.5 0.5 0 0 0 -28.5 27 A 0.5 0.5 0 0 0 -28 27.5 A 0.5 0.5 0 0 1 -27.5 28 L -27.5 28.5 L -27.5 29 A 0.5 0.5 0 0 1 -28 29.5 L -28.5 29.5 L -29 29.5 L -29.5 29.5 L -29.5 29 A 0.5 0.5 0 0 1 -29 28.5 A 0.5 0.5 0 0 0 -28.5 28 A 0.5 0.5 0 0 0 -29 27.5 A 0.5 0.5 0 0 1 -29.5 27 A 0.5 0.5 0 0 0 -30 26.5 L -30.5 26.5 L -31 26.5 L -31.5 26.5 L -32 26.5 A 0.5 0.5 0 0 1 -32.5 26 L -32.5 25.5 Z" />
  <path d="M -32.5 28.5 L -32.5 28 A 0.5 0.5 0 0 1 -32 27.5 L -31.5 27.5 L -31 27.5 L -30.5 27.5 L -30.5 28 A 0.5 0.5 0 0 1 -31 28.5 A 0.5 0.5 0 0 0 -31.5 29 A 0.5 0.5 0 0 1 -32 29.5 A 0.5 0.5 0 0 1 -32.5 29 L -32.5 28.5 Z" />
  <path d="M -24.5 25.5 L -24.5 25 A 0.5 0.5 0 0 1 -24 24.5 L -23.5 24.5 L -23 24.5 L -22.5 24.5 L -22.5 25 A 0.5 0.5 0 0 0 -22 25.5 A 0.5 0.5 0 0 1 -21.5 26 A 0.5 0.5 0 0 0 -21 26.5 A 0.5 0.5 0 0 0 -20.5 26 L -20.5 25.5 L -20.5 25 L -20.5 24.5 L -20 24.5 A 0.5 0.5 0 0 1 -19.5 25 L -19.5 25.5 L -19.5 26 A 0.5 0.5 0 0 1 -20 26.5 A 0.5 0.5 0 0 0 -20.5 27 A 0.5 0.5 0 0 0 -20 27.5 A 0.5 0.5 0 0 1 -19.5 28 L -19.5 28.5 L -19.5 29 L -19.5 29.5 L -20 29.5 L -20.5 29.5 L -21 29.5 L -21.5 29.5 L -21.5 29 A 0.5 0.5 0 0 0 -22 28.5 A 0.5 0.5 0 0 1 -22.5 28 A 0.5 0.5 0 0 0 -23 27.5 A 0.5 0.5 0 0 0 -23.5 28 A 0.5 0.5 0 0 0 -23 28.5 A 0.5 0.5 0 0 1 -22.5 29 A 0.5 0.5 0 0 1 -23 29.5 L -23.5 29.5 L -24 29.5 L -24.5 29.5 L -24.5 29 L -24.5 28.5 L -24.5 28 A 0.5 0.5 0 0 1 -24 27.5 A 0.5 0.5 0 0 0 -23.5 27 A 0.5 0.5 0 0 0 -24 26.5 A 0.5 0.5 0 0 1 -24.5 26 L -24.5 25.5 Z" />
  <path d="M -43.667 14 A 0.333 0.333 0 0 0 -44.333 14 A 0.333 0.333 0 0 0 -43.667 14 Z" />
  <path d="M -39.667 10 A 0.333 0.333 0 0 0 -40.333 10 A 0.333 0.333 0 0 0 -39.667 10 Z" />
  <path d="M -31.667 10 A 0.333 0.333 0 0 0 -32.333 10 A 0.333 0.333 0 0 0 -31.667 10 Z" />
  <path d="M -27.667 14 A 0.333 0.333 0 0 0 -28.333 14 A 0.333 0.333 0 0 0 -27.667 14 Z" />
  <path d="M -39.667 14 A 0.333 0.333 0 0 0 -40.333 14 A 0.333 0.333 0 0 0 -39.667 14 Z" />
  <path d="M -35.667 14 A 0.333 0.333 0 0 0 -36.333 14 A 0.333 0.333 0 0 0 -35.667 14 Z" />
  <path d="M -39.689 25 A 0.311 0.311 0 0 0 -40.311 25 A 0.311 0.311 0 0 0 -39.689 25 Z" />
  <path d="M -35.689 29 A 0.311 0.311 0 0 0 -36.311 29 A 0.311 0.311 0 0 0 -35.689 29 Z" />
  <path d="M -31.689 25 A 0.311 0.311 0 0 0 -32.311 25 A 0.311 0.311 0 0 0 -31.689 25 Z" />
  <path d="M -23.689 25 A 0.311 0.311 0 0 0 -24.311 25 A 0.311 0.311 0 0 0 -23.689 25 Z" />
  <path d="M -19.689 29 A 0.311 0.311 0 0 0 -20.311 29 A 0.311 0.311 0 0 0 -19.689 29 Z" />
  <path d="M -27.689 29 A 0.311 0.311 0 0 0 -28.311 29 A 0.311 0.311 0 0 0 -27.689 29 Z" />
  <path d="M -31.689 29 A 0.311 0.311 0 0 0 -32.311 29 A 0.311 0.311 0 0 0 -31.689 29 Z" />
  <path d="M -47.667 10 A 0.333 0.333 0 0 0 -48.333 10 A 0.333 0.333 0 0 0 -47.667 10 Z" />
</g>
</svg>