<?xml version="1.0" encoding="UTF-8"?>
<svg xmlns="http://www.w3.org/2000/svg"
     width="57.6mm"
     height="41.4mm"
     viewBox="-50 8 32 23">
<g fill="transparent" stroke="#000" stroke-width="0.02" opacity="1">
  <path d="M -49 9 L -48.5 9 L -48 9 L -47.5 9 L -47 9 L -46.5 9 L -46 9 L -45.5 9 A 0.5 0.5 0 0 1 -45 9.5 A 0.5 0.5 0 0 0 -44.5 10 A 0.5 0.5 0 0 1 -44 10.5 L -44 11 L -44 11.5 A 0.5 0.5 0 0 0 -43.5 12 L -43 12 L -43 12.5 L -43 13 L -43 13.5 L -43 14 L -43 14.5 L -43 15 L -43.5 15 L -44 15 L -44.5 15 L -45 15 L -45.5 15 L -46 15 L -46.5 15 L -47 15 L -47.5 15 L -48 15 L -48.5 15 L -49 15 L -49 14.5 L -49 14 L -49 13.5 L -49 13 L -49 12.5 L -49 12 L -48.5 12 A 0.5 0.5 0 0 1 -49 11.5 L -49 11 L -49 10.5 L -49 10 L -49 9.5 L -49 9 Z" />
  <path d="M -41 9 L -40.5 9 L -40 9 L -39.5 9 L -39 9 L -38.5 9 L -38 9 L -37.5 9 L -37 9 L -36.5 9 L -36 9 L -35.5 9 A 0.5 0.5 0 0 1 -35 9.5 L -35 10 L -35 10.5 L -35 11 L -35 11.5 A 0.5 0.5 0 0 1 -35.5 12 A 0.5 0.5 0 0 1 -35 12.5 L -35 13 L -35 13.5 L -35 14 L -35 14.5 A 0.5 0.5 0 0 1 -35.5 15 L -36 15 L -36.5 15 L -37 15 L -37.5 15 L -38 15 L -38 14.5 L -38 14 L -38 13.5 A 0.5 0.5 0 0 1 -37.5 13 A 0.5 0.5 0 0 1 -38 12.5 L -38 13 L -38 13.5 A 0.5 0.5 0 0 1 -38.5 14 A 0.5 0.5 0 0 0 -39 14.5 A 0.5 0.5 0 0 1 -39.5 15 L -40 15 L -40.5 15 A 0.5 0.5 0 0 1 -41 14.5 L -41 14 L -41 13.5 L -41 13 L -41 12.5 L -41 12 L -41 11.5 L -41 11 L -41 10.5 L -41 10 L -41 9.5 L -41 9 Z" />
  <path d="M -33 9.5 A 0.5 0.5 0 0 1 -32.5 9 L -32 9 L -31.5 9 L -31 9 L -30.5 9 L -30 9 L -30 9.5 A 0.5 0.5 0 0 0 -29.5 10 A 0.5 0.5 0 0 1 -29 10.5 L -29 10 L -29 9.5 A 0.5 0.5 0 0 1 -28.5 9 L -28 9 L -27.5 9 A 0.5 0.5 0 0 1 -27 9.5 L -27 10 L -27 10.5 L -27 11 L -27 11.5 A 0.5 0.5 0 0 1 -27.5 12 A 0.5 0.5 0 0 1 -27 12.5 L -27 13 L -27 13.5 L -27 14 L -27 14.5 L -27 15 L -27.5 15 L -28 15 L -28.5 15 L -29 15 L -29.5 15 A 0.5 0.5 0 0 1 -30 14.5 A 0.5 0.5 0 0 1 -30.5 15 L -31 15 L -31.5 15 L -32 15 L -32.5 15 L -33 15 L -33 14.5 L -33 14 L -33 13.5 L -33 13 L -33 12.5 A 0.5 0.5 0 0 1 -32.5 12 A 0.5 0.5 0 0 1 -33 11.5 L -33 11 L -33 10.5 L -33 10 L -33 9.5 Z" />
  <path d="M -41 24 L -40.5 24 L -40 24 L -39.5 24 L -39 24 L -38.5 24 L -38 24 L -37.5 24 A 0.5 0.5 0 0 1 -37 24.5 A 0.5 0.5 0 0 0 -36.5 25 A 0.5 0.5 0 0 1 -36 25.5 L -36 26 L -36 26.5 A 0.5 0.5 0 0 0 -35.5 27 L -35 27 L -35 27.5 L -35 28 L -35 28.5 L -35 29 L -35 29.5 L -35 30 L -35.5 30 L -36 30 L -36.5 30 L -37 30 L -37.5 30 L -38 30 L -38.5 30 L -39 30 L -39.5 30 L -40 30 L -40.5 30 L -41 30 L -41 29.5 L -41 29 L -41 28.5 L -41 28 L -41 27.5 L -41 27 L -40.5 27 A 0.5 0.5 0 0 1 -41 26.5 L -41 26 L -41 25.5 L -41 25 L -41 24.5 L -41 24 Z" />
  <path d="M -33 24 L -32.5 24 L -32 24 L -31.5 24 L -31 24 L -30.5 24 L -30 24 L -29.5 24 L -29 24 L -28.5 24 L -28 24 L -27.5 24 A 0.5 0.5 0 0 1 -27 24.5 L -27 25 L -27 25.5 L -27 26 L -27 26.5 A 0.5 0.5 0 0 1 -27.5 27 A 0.5 0.5 0 0 1 -27 27.5 L -27 28 L -27 28.5 L -27 29 L -27 29.5 A 0.5 0.5 0 0 1 -27.5 30 L -28 30 L -28.5 30 L -29 30 L -29.5 30 L -30 30 L -30 29.5 L -30 29 L -30 28.5 A 0.5 0.5 0 0 1 -29.5 28 A 0.5 0.5 0 0 1 -30 27.5 L -30 28 L -30 28.5 A 0.5 0.5 0 0 1 -30.5 29 A 0.5 0.5 0 0 0 -31 29.5 A 0.5 0.5 0 0 1 -31.5 30 L -32 30 L -32.5 30 A 0.5 0.5 0 0 1 -33 29.5 L -33 29 L -33 28.5 L -33 28 L -33 27.5 L -33 27 L -33 26.5 L -33 26 L -33 25.5 L -33 25 L -33 24.5 L -33 24 Z" />
  <path d="M -25 24.5 A 0.5 0.5 0 0 1 -24.5 24 L -24 24 L -23.5 24 L -23 24 L -22.5 24 L -22 24 L -22 24.5 A 0.5 0.5 0 0 0 -21.5 25 A 0.5 0.5 0 0 1 -21 25.5 L -21 25 L -21 24.5 A 0.5 0.5 0 0 1 -20.5 24 L -20 24 L -19.5 24 A 0.5 0.5 0 0 1 -19 24.5 L -19 25 L -19 25.5 L -19 26 L -19 26.5 A 0.5 0.5 0 0 1 -19.5 27 A 0.5 0.5 0 0 1 -19 27.5 L -19 28 L -19 28.5 L -19 29 L -19 29.5 L -19 30 L -19.5 30 L -20 30 L -20.5 30 L -21 30 L -21.5 30 A 0.5 0.5 0 0 1 -22 29.5 A 0.5 0.5 0 0 1 -22.5 30 L -23 30 L -23.5 30 L -24 30 L -24.5 30 L -25 30 L -25 29.5 L -25 29 L -25 28.5 L -25 28 L -25 27.5 A 0.5 0.5 0 0 1 -24.5 27 A 0.5 0.5 0 0 1 -25 26.5 L -25 26 L -25 25.5 L -25 25 L -25 24.5 Z" />
  <path d="M -27.75 14 A 0.25 0.25 0 0 0 -28.25 14 A 0.25 0.25 0 0 0 -27.75 14 Z" />
  <path d="M -43.75 14 A 0.25 0.25 0 0 0 -44.25 14 A 0.25 0.25 0 0 0 -43.75 14 Z" />
  <path d="M -47.75 10 A 0.25 0.25 0 0 0 -48.25 10 A 0.25 0.25 0 0 0 -47.75 10 Z" />
  <path d="M -39.75 10 A 0.25 0.25 0 0 0 -40.25 10 A 0.25 0.25 0 0 0 -39.75 10 Z" />
  <path d="M -39.75 14 A 0.25 0.25 0 0 0 -40.25 14 A 0.25 0.25 0 0 0 -39.75 14 Z" />
  <path d="M -35.75 14 A 0.25 0.25 0 0 0 -36.25 14 A 0.25 0.25 0 0 0 -35.75 14 Z" />
  <path d="M -31.75 10 A 0.25 0.25 0 0 0 -32.25 10 A 0.25 0.25 0 0 0 -31.75 10 Z" />
  <path d="M -19.769 29 A 0.231 0.231 0 0 0 -20.231 29 A 0.231 0.231 0 0 0 -19.769 29 Z" />
  <path d="M -39.769 25 A 0.231 0.231 0 0 0 -40.231 25 A 0.231 0.231 0 0 0 -39.769 25 Z" />
  <path d="M -35.769 29 A 0.231 0.231 0 0 0 -36.231 29 A 0.231 0.231 0 0 0 -35.769 29 Z" />
  <path d="M -31.769 29 A 0.231 0.231 0 0 0 -32.231 29 A 0.231 0.231 0 0 0 -31.769 29 Z" />
  <path d="M -31.769 25 A 0.231 0.231 0 0 0 -32.231 25 A 0.231 0.231 0 0 0 -31.769 25 Z" />
  <path d="M -27.769 29 A 0.231 0.231 0 0 0 -28.231 29 A 0.231 0.231 0 0 0 -27.769 29 Z" />
  <path d="M -23.769 25 A 0.231 0.231 0 0 0 -24.231 25 A 0.231 0.231 0 0 0 -23.769 25 Z" />
</g>
</svg>