<?xml version="1.0" encoding="UTF-8"?>
<svg xmlns="http://www.w3.org/2000/svg"
     width="81mm"
     height="79.2mm"
     viewBox="-165 -101 45 44">
<g fill="transparent" stroke="#000" stroke-width="0.02" opacity="1">
  <path d="M -162.5 -100 A 0.5 0.5 0 0 1 -162 -100.5 L -161.5 -100.5 L -161 -100.5 L -160.5 -100.5 L -160 -100.5 L -159.5 -100.5 L -159 -100.5 L -158.5 -100.5 L -158 -100.5 A 0.5 0.5 0 0 1 -157.5 -100 A 0.5 0.5 0 0 0 -157 -99.5 L -156.5 -99.5 L -156 -99.5 L -155.5 -99.5 L -155 -99.5 A 0.5 0.5 0 0 0 -154.5 -100 A 0.5 0.5 0 0 1 -154 -100.5 L -153.5 -100.5 L -153 -100.5 L -152.5 -100.5 L -152 -100.5 L -151.5 -100.5 L -151 -100.5 L -150.5 -100.5 L -150 -100.5 A 0.5 0.5 0 0 1 -149.5 -100 A 0.5 0.5 0 0 0 -149 -99.5 L -148.5 -99.5 L -148 -99.5 L -147.5 -99.5 L -147 -99.5 A 0.5 0.5 0 0 0 -146.5 -100 A 0.5 0.5 0 0 1 -146 -100.5 L -145.5 -100.5 L -145 -100.5 L -144.5 -100.5 L -144 -100.5 L -143.5 -100.5 L -143 -100.5 L -142.5 -100.5 L -142 -100.5 A 0.5 0.5 0 0 1 -141.5 -100 A 0.5 0.5 0 0 0 -141 -99.5 L -140.5 -99.5 L -140 -99.5 L -139.5 -99.5 L -139 -99.5 A 0.5 0.5 0 0 0 -138.5 -100 A 0.5 0.5 0 0 1 -138 -100.5 L -137.5 -100.5 L -137 -100.5 L -136.5 -100.5 L -136 -100.5 L -135.5 -100.5 L -135 -100.5 L -134.5 -100.5 L -134 -100.5 A 0.5 0.5 0 0 1 -133.5 -100 A 0.5 0.5 0 0 0 -133 -99.5 L -132.5 -99.5 L -132 -99.5 L -131.5 -99.5 L -131 -99.5 A 0.5 0.5 0 0 0 -130.5 -100 A 0.5 0.5 0 0 1 -130 -100.5 L -129.5 -100.5 L -129 -100.5 L -128.5 -100.5 L -128 -100.5 L -127.5 -100.5 L -127 -100.5 L -126.5 -100.5 L -126 -100.5 A 0.5 0.5 0 0 1 -125.5 -100 A 0.5 0.5 0 0 0 -125 -99.5 A 0.5 0.5 0 0 1 -124.5 -99 L -124.5 -98.5 L -124.5 -98 A 0.5 0.5 0 0 0 -124 -97.5 A 0.5 0.5 0 0 1 -123.5 -97 L -123.5 -96.5 L -123.5 -96 L -123.5 -95.5 L -123.5 -95 L -123.5 -94.5 L -123.5 -94 L -123.5 -93.5 L -123.5 -93 L -123.5 -92.5 L -123.5 -92 L -123.5 -91.5 L -123.5 -91 A 0.5 0.5 0 0 1 -124 -90.5 A 0.5 0.5 0 0 0 -124.5 -90 L -124.5 -89.5 L -124.5 -89 A 0.5 0.5 0 0 1 -125 -88.5 A 0.5 0.5 0 0 0 -125.5 -88 A 0.5 0.5 0 0 1 -126 -87.5 L -126.5 -87.5 L -127 -87.5 L -127.5 -87.5 L -128 -87.5 L -128.5 -87.5 L -129 -87.5 L -129.5 -87.5 L -130 -87.5 A 0.5 0.5 0 0 1 -130.5 -88 A 0.5 0.5 0 0 0 -131 -88.5 L -131.5 -88.5 L -132 -88.5 L -132.5 -88.5 L -133 -88.5 A 0.5 0.5 0 0 0 -133.5 -88 A 0.5 0.5 0 0 1 -134 -87.5 L -134.5 -87.5 L -135 -87.5 L -135.5 -87.5 L -136 -87.5 L -136.5 -87.5 L -137 -87.5 L -137.5 -87.5 L -138 -87.5 A 0.5 0.5 0 0 1 -138.5 -88 A 0.5 0.5 0 0 0 -139 -88.5 L -139.5 -88.5 L -140 -88.5 L -140.5 -88.5 L -141 -88.5 A 0.5 0.5 0 0 0 -141.5 -88 A 0.5 0.5 0 0 1 -142 -87.5 L -142.5 -87.5 L -143 -87.5 L -143.5 -87.5 L -144 -87.5 L -144.5 -87.5 L -145 -87.5 L -145.5 -87.5 L -146 -87.5 A 0.5 0.5 0 0 1 -146.5 -88 A 0.5 0.5 0 0 0 -147 -88.5 L -147.5 -88.5 L -148 -88.5 L -148.5 -88.5 L -149 -88.5 A 0.5 0.5 0 0 0 -149.5 -88 A 0.5 0.5 0 0 1 -150 -87.5 L -150.5 -87.5 L -151 -87.5 L -151.5 -87.5 L -152 -87.5 L -152.5 -87.5 L -153 -87.5 L -153.5 -87.5 L -154 -87.5 A 0.5 0.5 0 0 1 -154.5 -88 A 0.5 0.5 0 0 0 -155 -88.5 L -155.5 -88.5 L -156 -88.5 L -156.5 -88.5 L -157 -88.5 A 0.5 0.5 0 0 0 -157.5 -88 A 0.5 0.5 0 0 1 -158 -87.5 L -158.5 -87.5 L -159 -87.5 L -159.5 -87.5 L -160 -87.5 L -160.5 -87.5 L -161 -87.5 L -161.5 -87.5 L -162 -87.5 A 0.5 0.5 0 0 1 -162.5 -88 A 0.5 0.5 0 0 0 -163 -88.5 A 0.5 0.5 0 0 1 -163.5 -89 L -163.5 -89.5 L -163.5 -90 A 0.5 0.5 0 0 0 -164 -90.5 A 0.5 0.5 0 0 1 -164.5 -91 L -164.5 -91.5 L -164.5 -92 L -164.5 -92.5 L -164.5 -93 L -164.5 -93.5 L -164.5 -94 L -164.5 -94.5 L -164.5 -95 L -164.5 -95.5 L -164.5 -96 L -164.5 -96.5 L -164.5 -97 A 0.5 0.5 0 0 1 -164 -97.5 A 0.5 0.5 0 0 0 -163.5 -98 L -163.5 -98.5 L -163.5 -99 A 0.5 0.5 0 0 1 -163 -99.5 A 0.5 0.5 0 0 0 -162.5 -100 Z" />
  <path d="M -127.5 -97 A 0.5 0.5 0 0 1 -127 -97.5 A 0.5 0.5 0 0 1 -126.5 -97 L -126.5 -96.5 L -126.5 -96 A 0.5 0.5 0 0 0 -126 -95.5 A 0.5 0.5 0 0 1 -125.5 -95 L -125.5 -94.5 L -125.5 -94 L -125.5 -93.5 L -125.5 -93 A 0.5 0.5 0 0 1 -126 -92.5 A 0.5 0.5 0 0 0 -126.5 -92 L -126.5 -91.5 L -126.5 -91 A 0.5 0.5 0 0 1 -127 -90.5 A 0.5 0.5 0 0 1 -127.5 -91 L -127.5 -91.5 L -127.5 -92 L -127.5 -92.5 L -127.5 -93 L -127.5 -93.5 L -127.5 -94 L -127.5 -94.5 L -127.5 -95 L -127.5 -95.5 L -127.5 -96 L -127.5 -96.5 L -127.5 -97 Z" />
  <path d="M -160.5 -91 L -160.5 -91.5 L -160.5 -92 L -160.5 -92.5 L -160.5 -93 L -160.5 -93.5 L -160.5 -94 L -160.5 -94.5 L -160.5 -95 L -160.5 -95.5 L -160.5 -96 L -160.5 -96.5 L -160.5 -97 A 0.5 0.5 0 0 0 -161 -97.5 A 0.5 0.5 0 0 0 -161.5 -97 L -161.5 -96.5 L -161.5 -96 A 0.5 0.5 0 0 1 -162 -95.5 A 0.5 0.5 0 0 0 -162.5 -95 L -162.5 -94.5 L -162.5 -94 L -162.5 -93.5 L -162.5 -93 A 0.5 0.5 0 0 0 -162 -92.5 A 0.5 0.5 0 0 1 -161.5 -92 L -161.5 -91.5 L -161.5 -91 A 0.5 0.5 0 0 0 -161 -90.5 A 0.5 0.5 0 0 0 -160.5 -91 Z" />
  <path d="M -161.5 -66.5 L -161.5 -67 A 0.5 0.5 0 0 1 -161 -67.5 A 0.5 0.5 0 0 0 -160.5 -68 L -160.5 -68.5 L -160.5 -69 A 0.5 0.5 0 0 1 -160 -69.5 A 0.5 0.5 0 0 0 -159.5 -70 A 0.5 0.5 0 0 1 -159 -70.5 L -158.5 -70.5 L -158 -70.5 L -157.5 -70.5 L -157 -70.5 L -156.5 -70.5 L -156 -70.5 L -155.5 -70.5 L -155 -70.5 A 0.5 0.5 0 0 1 -154.5 -70 A 0.5 0.5 0 0 0 -154 -69.5 L -153.5 -69.5 L -153 -69.5 L -152.5 -69.5 L -152 -69.5 A 0.5 0.5 0 0 0 -151.5 -70 A 0.5 0.5 0 0 1 -151 -70.5 L -150.5 -70.5 L -150 -70.5 L -149.5 -70.5 L -149 -70.5 L -148.5 -70.5 L -148 -70.5 L -147.5 -70.5 L -147 -70.5 A 0.5 0.5 0 0 1 -146.5 -70 A 0.5 0.5 0 0 0 -146 -69.5 L -145.5 -69.5 L -145 -69.5 L -144.5 -69.5 L -144 -69.5 A 0.5 0.5 0 0 0 -143.5 -70 A 0.5 0.5 0 0 1 -143 -70.5 L -142.5 -70.5 L -142 -70.5 L -141.5 -70.5 L -141 -70.5 L -140.5 -70.5 L -140 -70.5 L -139.5 -70.5 L -139 -70.5 A 0.5 0.5 0 0 1 -138.5 -70 A 0.5 0.5 0 0 0 -138 -69.5 L -137.5 -69.5 L -137 -69.5 L -136.5 -69.5 L -136 -69.5 A 0.5 0.5 0 0 0 -135.5 -70 A 0.5 0.5 0 0 1 -135 -70.5 L -134.5 -70.5 L -134 -70.5 L -133.5 -70.5 L -133 -70.5 L -132.5 -70.5 L -132 -70.5 L -131.5 -70.5 L -131 -70.5 A 0.5 0.5 0 0 1 -130.5 -70 A 0.5 0.5 0 0 0 -130 -69.5 L -129.5 -69.5 L -129 -69.5 L -128.5 -69.5 L -128 -69.5 A 0.5 0.5 0 0 0 -127.5 -70 A 0.5 0.5 0 0 1 -127 -70.5 L -126.5 -70.5 L -126 -70.5 L -125.5 -70.5 L -125 -70.5 L -124.5 -70.5 L -124 -70.5 L -123.5 -70.5 L -123 -70.5 A 0.5 0.5 0 0 1 -122.5 -70 A 0.5 0.5 0 0 0 -122 -69.5 A 0.5 0.5 0 0 1 -121.5 -69 L -121.5 -68.5 L -121.5 -68 A 0.5 0.5 0 0 0 -121 -67.5 A 0.5 0.5 0 0 1 -120.5 -67 L -120.5 -66.5 L -120.5 -66 L -120.5 -65.5 L -120.5 -65 L -120.5 -64.5 L -120.5 -64 L -120.5 -63.5 L -120.5 -63 L -120.5 -62.5 L -120.5 -62 L -120.5 -61.5 L -120.5 -61 A 0.5 0.5 0 0 1 -121 -60.5 A 0.5 0.5 0 0 0 -121.5 -60 L -121.5 -59.5 L -121.5 -59 A 0.5 0.5 0 0 1 -122 -58.5 A 0.5 0.5 0 0 0 -122.5 -58 A 0.5 0.5 0 0 1 -123 -57.5 L -123.5 -57.5 L -124 -57.5 L -124.5 -57.5 L -125 -57.5 L -125.5 -57.5 L -126 -57.5 L -126.5 -57.5 L -127 -57.5 A 0.5 0.5 0 0 1 -127.5 -58 A 0.5 0.5 0 0 0 -128 -58.5 L -128.5 -58.5 L -129 -58.5 L -129.5 -58.5 L -130 -58.5 A 0.5 0.5 0 0 0 -130.5 -58 A 0.5 0.5 0 0 1 -131 -57.5 L -131.5 -57.5 L -132 -57.5 L -132.5 -57.5 L -133 -57.5 L -133.5 -57.5 L -134 -57.5 L -134.5 -57.5 L -135 -57.5 A 0.5 0.5 0 0 1 -135.5 -58 A 0.5 0.5 0 0 0 -136 -58.5 L -136.5 -58.5 L -137 -58.5 L -137.5 -58.5 L -138 -58.5 A 0.5 0.5 0 0 0 -138.5 -58 A 0.5 0.5 0 0 1 -139 -57.5 L -139.5 -57.5 L -140 -57.5 L -140.5 -57.5 L -141 -57.5 L -141.5 -57.5 L -142 -57.5 L -142.5 -57.5 L -143 -57.5 A 0.5 0.5 0 0 1 -143.5 -58 A 0.5 0.5 0 0 0 -144 -58.5 L -144.5 -58.5 L -145 -58.5 L -145.5 -58.5 L -146 -58.5 A 0.5 0.5 0 0 0 -146.5 -58 A 0.5 0.5 0 0 1 -147 -57.5 L -147.5 -57.5 L -148 -57.5 L -148.5 -57.5 L -149 -57.5 L -149.5 -57.5 L -150 -57.5 L -150.5 -57.5 L -151 -57.5 A 0.5 0.5 0 0 1 -151.5 -58 A 0.5 0.5 0 0 0 -152 -58.5 L -152.5 -58.5 L -153 -58.5 L -153.5 -58.5 L -154 -58.5 A 0.5 0.5 0 0 0 -154.5 -58 A 0.5 0.5 0 0 1 -155 -57.5 L -155.5 -57.5 L -156 -57.5 L -156.5 -57.5 L -157 -57.5 L -157.5 -57.5 L -158 -57.5 L -158.5 -57.5 L -159 -57.5 A 0.5 0.5 0 0 1 -159.5 -58 A 0.5 0.5 0 0 0 -160 -58.5 A 0.5 0.5 0 0 1 -160.5 -59 L -160.5 -59.5 L -160.5 -60 A 0.5 0.5 0 0 0 -161 -60.5 A 0.5 0.5 0 0 1 -161.5 -61 L -161.5 -61.5 L -161.5 -62 L -161.5 -62.5 L -161.5 -63 L -161.5 -63.5 L -161.5 -64 L -161.5 -64.5 L -161.5 -65 L -161.5 -65.5 L -161.5 -66 L -161.5 -66.5 Z" />
  <path d="M -159.5 -65 L -159.5 -64.5 L -159.5 -64 L -159.5 -63.5 L -159.5 -63 A 0.5 0.5 0 0 0 -159 -62.5 A 0.5 0.5 0 0 1 -158.5 -62 L -158.5 -61.5 L -158.5 -61 A 0.5 0.5 0 0 0 -158 -60.5 A 0.5 0.5 0 0 0 -157.5 -61 L -157.5 -61.5 L -157.5 -62 L -157.5 -62.5 L -157.5 -63 L -157.5 -63.5 L -157.5 -64 L -157.5 -64.5 L -157.5 -65 L -157.5 -65.5 L -157.5 -66 L -157.5 -66.5 L -157.5 -67 A 0.5 0.5 0 0 0 -158 -67.5 A 0.5 0.5 0 0 0 -158.5 -67 L -158.5 -66.5 L -158.5 -66 A 0.5 0.5 0 0 1 -159 -65.5 A 0.5 0.5 0 0 0 -159.5 -65 Z" />
  <path d="M -124.5 -67 L -124.5 -66.5 L -124.5 -66 L -124.5 -65.5 L -124.5 -65 L -124.5 -64.5 L -124.5 -64 L -124.5 -63.5 L -124.5 -63 L -124.5 -62.5 L -124.5 -62 L -124.5 -61.5 L -124.5 -61 A 0.5 0.5 0 0 0 -124 -60.5 A 0.5 0.5 0 0 0 -123.5 -61 L -123.5 -61.5 L -123.5 -62 A 0.5 0.5 0 0 1 -123 -62.5 A 0.5 0.5 0 0 0 -122.5 -63 L -122.5 -63.5 L -122.5 -64 L -122.5 -64.5 L -122.5 -65 A 0.5 0.5 0 0 0 -123 -65.5 A 0.5 0.5 0 0 1 -123.5 -66 L -123.5 -66.5 L -123.5 -67 A 0.5 0.5 0 0 0 -124 -67.5 A 0.5 0.5 0 0 0 -124.5 -67 Z" />
  <path d="M -127.667 -98.6 A 0.333 0.333 0 0 0 -128.333 -98.6 A 0.333 0.333 0 0 0 -127.667 -98.6 Z" />
  <path d="M -127.667 -89.6 A 0.333 0.333 0 0 0 -128.333 -89.6 A 0.333 0.333 0 0 0 -127.667 -89.6 Z" />
  <path d="M -151.667 -89.6 A 0.333 0.333 0 0 0 -152.333 -89.6 A 0.333 0.333 0 0 0 -151.667 -89.6 Z" />
  <path d="M -151.667 -98.6 A 0.333 0.333 0 0 0 -152.333 -98.6 A 0.333 0.333 0 0 0 -151.667 -98.6 Z" />
  <path d="M -162.667 -94 A 0.333 0.333 0 0 0 -163.333 -94 A 0.333 0.333 0 0 0 -162.667 -94 Z" />
  <path d="M -124.689 -59.6 A 0.311 0.311 0 0 0 -125.311 -59.6 A 0.311 0.311 0 0 0 -124.689 -59.6 Z" />
  <path d="M -124.689 -68.6 A 0.311 0.311 0 0 0 -125.311 -68.6 A 0.311 0.311 0 0 0 -124.689 -68.6 Z" />
  <path d="M -148.689 -68.6 A 0.311 0.311 0 0 0 -149.311 -68.6 A 0.311 0.311 0 0 0 -148.689 -68.6 Z" />
  <path d="M -148.689 -59.6 A 0.311 0.311 0 0 0 -149.311 -59.6 A 0.311 0.311 0 0 0 -148.689 -59.6 Z" />
  <path d="M -159.689 -64 A 0.311 0.311 0 0 0 -160.311 -64 A 0.311 0.311 0 0 0 -159.689 -64 Z" />
</g>
</svg>