<?xml version="1.0" encoding="UTF-8"?>
<svg xmlns="http://www.w3.org/2000/svg"
     width="21.6mm"
     height="37.800000000000004mm"
     viewBox="-40 -30 12 21">
<g fill="transparent" stroke="#000" stroke-width="0.02" opacity="1">
  <path d="M -39 -17.5 A 0.5 0.5 0 0 1 -38.5 -18 L -38 -18 L -37.5 -18 L -37 -18 L -36.5 -18 L -36 -18 L -35.5 -18 L -35 -18 L -34.5 -18 L -34 -18 L -33.5 -18 L -33 -18 L -32.5 -18 L -32 -18 L -31.5 -18 A 0.5 0.5 0 0 1 -31 -17.5 L -31 -17 L -31 -16.5 L -31 -16 L -31 -15.5 L -31 -15 L -31 -14.5 L -31 -14 L -31 -13.5 L -31 -13 L -31 -12.5 L -31 -12 L -31 -11.5 L -31 -11 L -31 -10.5 A 0.5 0.5 0 0 1 -31.5 -10 L -32 -10 L -32.5 -10 L -33 -10 L -33.5 -10 L -34 -10 L -34.5 -10 L -35 -10 L -35.5 -10 L -36 -10 L -36.5 -10 L -37 -10 L -37.5 -10 L -38 -10 L -38.5 -10 A 0.5 0.5 0 0 1 -39 -10.5 L -39 -11 L -39 -11.5 L -39 -12 L -39 -12.5 L -39 -13 L -39 -13.5 L -39 -14 L -39 -14.5 L -39 -15 L -39 -15.5 L -39 -16 L -39 -16.5 L -39 -17 L -39 -17.5 Z" />
  <path d="M -38.5 -17 L -38.5 -16.5 L -38.5 -16 L -38.5 -15.5 L -38.5 -15 L -38.5 -14.5 L -38.5 -14 L -38.5 -13.5 L -38.5 -13 L -38.5 -12.5 L -38.5 -12 L -38.5 -11.5 L -38.5 -11 A 0.5 0.5 0 0 0 -38 -10.5 L -37.5 -10.5 L -37 -10.5 L -36.5 -10.5 L -36 -10.5 L -35.5 -10.5 L -35 -10.5 L -34.5 -10.5 L -34 -10.5 L -33.5 -10.5 L -33 -10.5 L -32.5 -10.5 L -32 -10.5 A 0.5 0.5 0 0 0 -31.5 -11 L -31.5 -11.5 L -31.5 -12 L -31.5 -12.5 L -31.5 -13 L -31.5 -13.5 L -31.5 -14 L -31.5 -14.5 L -31.5 -15 L -31.5 -15.5 L -31.5 -16 L -31.5 -16.5 L -31.5 -17 A 0.5 0.5 0 0 0 -32 -17.5 L -32.5 -17.5 L -33 -17.5 L -33.5 -17.5 L -34 -17.5 L -34.5 -17.5 L -35 -17.5 L -35.5 -17.5 L -36 -17.5 L -36.5 -17.5 L -37 -17.5 L -37.5 -17.5 L -38 -17.5 A 0.5 0.5 0 0 0 -38.5 -17 Z" />
  <path d="M -37 -28.5 A 0.5 0.5 0 0 1 -36.5 -29 L -36 -29 L -35.5 -29 L -35 -29 L -34.5 -29 L -34 -29 L -33.5 -29 L -33 -29 L -32.5 -29 L -32 -29 L -31.5 -29 L -31 -29 L -30.5 -29 L -30 -29 L -29.5 -29 A 0.5 0.5 0 0 1 -29 -28.5 L -29 -28 L -29 -27.5 L -29 -27 L -29 -26.5 L -29 -26 L -29 -25.5 L -29 -25 L -29 -24.5 L -29 -24 L -29 -23.5 L -29 -23 L -29 -22.5 L -29 -22 L -29 -21.5 A 0.5 0.5 0 0 1 -29.5 -21 L -30 -21 L -30.5 -21 L -31 -21 L -31.5 -21 L -32 -21 L -32.5 -21 L -33 -21 L -33.5 -21 L -34 -21 L -34.5 -21 L -35 -21 L -35.5 -21 L -36 -21 L -36.5 -21 A 0.5 0.5 0 0 1 -37 -21.5 L -37 -22 L -37 -22.5 L -37 -23 L -37 -23.5 L -37 -24 L -37 -24.5 L -37 -25 L -37 -25.5 L -37 -26 L -37 -26.5 L -37 -27 L -37 -27.5 L -37 -28 L -37 -28.5 Z" />
  <path d="M -36.5 -28 L -36.5 -27.5 L -36.5 -27 L -36.5 -26.5 L -36.5 -26 L -36.5 -25.5 L -36.5 -25 L -36.5 -24.5 L -36.5 -24 L -36.5 -23.5 L -36.5 -23 L -36.5 -22.5 L -36.5 -22 A 0.5 0.5 0 0 1 -36 -21.5 L -35.5 -21.5 L -35 -21.5 L -34.5 -21.5 L -34 -21.5 L -33.5 -21.5 L -33 -21.5 L -32.5 -21.5 L -32 -21.5 L -31.5 -21.5 L -31 -21.5 L -30.5 -21.5 L -30 -21.5 A 0.5 0.5 0 0 1 -29.5 -22 L -29.5 -22.5 L -29.5 -23 L -29.5 -23.5 L -29.5 -24 L -29.5 -24.5 L -29.5 -25 L -29.5 -25.5 L -29.5 -26 L -29.5 -26.5 L -29.5 -27 L -29.5 -27.5 L -29.5 -28 A 0.5 0.5 0 0 1 -30 -28.5 L -30.5 -28.5 L -31 -28.5 L -31.5 -28.5 L -32 -28.5 L -32.5 -28.5 L -33 -28.5 L -33.5 -28.5 L -34 -28.5 L -34.5 -28.5 L -35 -28.5 L -35.5 -28.5 L -36 -28.5 A 0.5 0.5 0 0 1 -36.5 -28 Z" />
  <path d="M -36.167 -28.5 A 0.333 0.333 0 0 0 -36.833 -28.5 A 0.333 0.333 0 0 0 -36.167 -28.5 Z" />
  <path d="M -36.167 -21.5 A 0.333 0.333 0 0 0 -36.833 -21.5 A 0.333 0.333 0 0 0 -36.167 -21.5 Z" />
  <path d="M -29.167 -28.5 A 0.333 0.333 0 0 0 -29.833 -28.5 A 0.333 0.333 0 0 0 -29.167 -28.5 Z" />
  <path d="M -29.167 -21.5 A 0.333 0.333 0 0 0 -29.833 -21.5 A 0.333 0.333 0 0 0 -29.167 -21.5 Z" />
</g>
</svg>