0
SECTION
2
HEADER
9
$ACADVER
1
AC1009
9
$INSUNITS
70
4
9
$MEASUREMENT
70
1
9
$EXTMIN
10
-1
20
-1
30
0
9
$EXTMAX
10
22.6
20
29.8
30
0
0
ENDSEC
0
SECTION
2
TABLES
0
TABLE
2
LAYER
70
1
0
LAYER
2
layer1
70
0
62
7
6
CONTINUOUS
0
ENDTAB
0
ENDSEC
0
SECTION
2
ENTITIES
0
POLYLINE
8
layer1
66
1
70
1
10
0
20
0
30
0
0
VERTEX
8
layer1
10
0
20
12.6
30
0
42
0
0
VERTEX
8
layer1
10
-0.3512
20
12.6346
30
0
42
0
0
VERTEX
8
layer1
10
-0.6888
20
12.737
30
0
42
0
0
VERTEX
8
layer1
10
-1
20
12.9034
30
0
42
0
0
VERTEX
8
layer1
10
-1.2728
20
13.1272
30
0
42
0
0
VERTEX
8
layer1
10
-1.4966
20
13.4
30
0
42
0
0
VERTEX
8
layer1
10
-1.663
20
13.7112
30
0
42
0
0
VERTEX
8
layer1
10
-1.7654
20
14.0488
30
0
42
0
0
VERTEX
8
layer1
10
-1.8
20
14.4
30
0
42
0
0
VERTEX
8
layer1
10
-1.7654
20
14.7512
30
0
42
0
0
VERTEX
8
layer1
10
-1.663
20
15.0888
30
0
42
0
0
VERTEX
8
layer1
10
-1.4966
20
15.4
30
0
42
0
0
VERTEX
8
layer1
10
-1.2728
20
15.6728
30
0
42
0
0
VERTEX
8
layer1
10
-1
20
15.8966
30
0
42
0
0
VERTEX
8
layer1
10
-0.6888
20
16.063
30
0
42
0
0
VERTEX
8
layer1
10
-0.3512
20
16.1654
30
0
42
0
0
VERTEX
8
layer1
10
0
20
16.2
30
0
42
0
0
VERTEX
8
layer1
10
-0.3512
20
16.2346
30
0
42
0
0
VERTEX
8
layer1
10
-0.6888
20
16.337
30
0
42
0
0
VERTEX
8
layer1
10
-1
20
16.5034
30
0
42
0
0
VERTEX
8
layer1
10
-1.2728
20
16.7272
30
0
42
0
0
VERTEX
8
layer1
10
-1.4966
20
17
30
0
42
0
0
VERTEX
8
layer1
10
-1.663
20
17.3112
30
0
42
0
0
VERTEX
8
layer1
10
-1.7654
20
17.6488
30
0
42
0
0
VERTEX
8
layer1
10
-1.8
20
18
30
0
42
0
0
VERTEX
8
layer1
10
-1.7654
20
18.3512
30
0
42
0
0
VERTEX
8
layer1
10
-1.663
20
18.6888
30
0
42
0
0
VERTEX
8
layer1
10
-1.4966
20
19
30
0
42
0
0
VERTEX
8
layer1
10
-1.2728
20
19.2728
30
0
42
0
0
VERTEX
8
layer1
10
-1
20
19.4966
30
0
42
0
0
VERTEX
8
layer1
10
-0.6888
20
19.663
30
0
42
0
0
VERTEX
8
layer1
10
-0.3512
20
19.7654
30
0
42
0
0
VERTEX
8
layer1
10
0
20
19.8
30
0
42
0
0
VERTEX
8
layer1
10
0.3512
20
19.7654
30
0
42
0
0
VERTEX
8
layer1
10
0.6888
20
19.663
30
0
42
0
0
VERTEX
8
layer1
10
1
20
19.4966
30
0
42
0
0
VERTEX
8
layer1
10
1.2728
20
19.2728
30
0
42
0
0
VERTEX
8
layer1
10
1.4966
20
19
30
0
42
0
0
VERTEX
8
layer1
10
1.663
20
18.6888
30
0
42
0
0
VERTEX
8
layer1
10
1.7654
20
18.3512
30
0
42
0
0
VERTEX
8
layer1
10
1.8
20
18
30
0
42
0
0
VERTEX
8
layer1
10
1.8346
20
18.3512
30
0
42
0
0
VERTEX
8
layer1
10
1.937
20
18.6888
30
0
42
0
0
VERTEX
8
layer1
10
2.1034
20
19
30
0
42
0
0
VERTEX
8
layer1
10
2.3272
20
19.2728
30
0
42
0
0
VERTEX
8
layer1
10
2.6
20
19.4966
30
0
42
0
0
VERTEX
8
layer1
10
2.9112
20
19.663
30
0
42
0
0
VERTEX
8
layer1
10
3.2488
20
19.7654
30
0
42
0
0
VERTEX
8
layer1
10
3.6
20
19.8
30
0
42
0
0
VERTEX
8
layer1
10
3.2488
20
19.8346
30
0
42
0
0
VERTEX
8
layer1
10
2.9112
20
19.937
30
0
42
0
0
VERTEX
8
layer1
10
2.6
20
20.1034
30
0
42
0
0
VERTEX
8
layer1
10
2.3272
20
20.3272
30
0
42
0
0
VERTEX
8
layer1
10
2.1034
20
20.6
30
0
42
0
0
VERTEX
8
layer1
10
1.937
20
20.9112
30
0
42
0
0
VERTEX
8
layer1
10
1.8346
20
21.2488
30
0
42
0
0
VERTEX
8
layer1
10
1.8
20
21.6
30
0
42
0
0
VERTEX
8
layer1
10
1.8346
20
21.9512
30
0
42
0
0
VERTEX
8
layer1
10
1.937
20
22.2888
30
0
42
0
0
VERTEX
8
layer1
10
2.1034
20
22.6
30
0
42
0
0
VERTEX
8
layer1
10
2.3272
20
22.8728
30
0
42
0
0
VERTEX
8
layer1
10
2.6
20
23.0966
30
0
42
0
0
VERTEX
8
layer1
10
2.9112
20
23.263
30
0
42
0
0
VERTEX
8
layer1
10
3.2488
20
23.3654
30
0
42
0
0
VERTEX
8
layer1
10
3.6
20
23.4
30
0
42
0
0
VERTEX
8
layer1
10
3.9512
20
23.3654
30
0
42
0
0
VERTEX
8
layer1
10
4.2888
20
23.263
30
0
42
0
0
VERTEX
8
layer1
10
4.6
20
23.0966
30
0
42
0
0
VERTEX
8
layer1
10
4.8728
20
22.8728
30
0
42
0
0
VERTEX
8
layer1
10
5.0966
20
22.6
30
0
42
0
0
VERTEX
8
layer1
10
5.263
20
22.2888
30
0
42
0
0
VERTEX
8
layer1
10
5.3654
20
21.9512
30
0
42
0
0
VERTEX
8
layer1
10
5.4
20
21.6
30
0
42
0
0
VERTEX
8
layer1
10
5.4
20
23.4
30
0
42
0
0
VERTEX
8
layer1
10
5.4
20
25.2
30
0
42
0
0
VERTEX
8
layer1
10
5.4346
20
25.5512
30
0
42
0
0
VERTEX
8
layer1
10
5.537
20
25.8888
30
0
42
0
0
VERTEX
8
layer1
10
5.7034
20
26.2
30
0
42
0
0
VERTEX
8
layer1
10
5.9272
20
26.4728
30
0
42
0
0
VERTEX
8
layer1
10
6.2
20
26.6966
30
0
42
0
0
VERTEX
8
layer1
10
6.5112
20
26.863
30
0
42
0
0
VERTEX
8
layer1
10
6.8488
20
26.9654
30
0
42
0
0
VERTEX
8
layer1
10
7.2
20
27
30
0
42
0
0
VERTEX
8
layer1
10
7.5512
20
27.0346
30
0
42
0
0
VERTEX
8
layer1
10
7.8888
20
27.137
30
0
42
0
0
VERTEX
8
layer1
10
8.2
20
27.3034
30
0
42
0
0
VERTEX
8
layer1
10
8.4728
20
27.5272
30
0
42
0
0
VERTEX
8
layer1
10
8.6966
20
27.8
30
0
42
0
0
VERTEX
8
layer1
10
8.863
20
28.1112
30
0
42
0
0
VERTEX
8
layer1
10
8.9654
20
28.4488
30
0
42
0
0
VERTEX
8
layer1
10
9
20
28.8
30
0
42
0
0
VERTEX
8
layer1
10
9.0346
20
29.1512
30
0
42
0
0
VERTEX
8
layer1
10
9.137
20
29.4888
30
0
42
0
0
VERTEX
8
layer1
10
9.3034
20
29.8
30
0
42
0
0
VERTEX
8
layer1
10
9.5272
20
30.0728
30
0
42
0
0
VERTEX
8
layer1
10
9.8
20
30.2966
30
0
42
0
0
VERTEX
8
layer1
10
10.1112
20
30.463
30
0
42
0
0
VERTEX
8
layer1
10
10.4488
20
30.5654
30
0
42
0
0
VERTEX
8
layer1
10
10.8
20
30.6
30
0
42
0
0
VERTEX
8
layer1
10
11.1512
20
30.5654
30
0
42
0
0
VERTEX
8
layer1
10
11.4888
20
30.463
30
0
42
0
0
VERTEX
8
layer1
10
11.8
20
30.2966
30
0
42
0
0
VERTEX
8
layer1
10
12.0728
20
30.0728
30
0
42
0
0
VERTEX
8
layer1
10
12.2966
20
29.8
30
0
42
0
0
VERTEX
8
layer1
10
12.463
20
29.4888
30
0
42
0
0
VERTEX
8
layer1
10
12.5654
20
29.1512
30
0
42
0
0
VERTEX
8
layer1
10
12.6
20
28.8
30
0
42
0
0
VERTEX
8
layer1
10
12.6346
20
28.4488
30
0
42
0
0
VERTEX
8
layer1
10
12.737
20
28.1112
30
0
42
0
0
VERTEX
8
layer1
10
12.9034
20
27.8
30
0
42
0
0
VERTEX
8
layer1
10
13.1272
20
27.5272
30
0
42
0
0
VERTEX
8
layer1
10
13.4
20
27.3034
30
0
42
0
0
VERTEX
8
layer1
10
13.7112
20
27.137
30
0
42
0
0
VERTEX
8
layer1
10
14.0488
20
27.0346
30
0
42
0
0
VERTEX
8
layer1
10
14.4
20
27
30
0
42
0
0
VERTEX
8
layer1
10
14.7512
20
26.9654
30
0
42
0
0
VERTEX
8
layer1
10
15.0888
20
26.863
30
0
42
0
0
VERTEX
8
layer1
10
15.4
20
26.6966
30
0
42
0
0
VERTEX
8
layer1
10
15.6728
20
26.4728
30
0
42
0
0
VERTEX
8
layer1
10
15.8966
20
26.2
30
0
42
0
0
VERTEX
8
layer1
10
16.063
20
25.8888
30
0
42
0
0
VERTEX
8
layer1
10
16.1654
20
25.5512
30
0
42
0
0
VERTEX
8
layer1
10
16.2
20
25.2
30
0
42
0
0
VERTEX
8
layer1
10
16.2
20
23.4
30
0
42
0
0
VERTEX
8
layer1
10
16.2
20
21.6
30
0
42
0
0
VERTEX
8
layer1
10
16.2346
20
21.9512
30
0
42
0
0
VERTEX
8
layer1
10
16.337
20
22.2888
30
0
42
0
0
VERTEX
8
layer1
10
16.5034
20
22.6
30
0
42
0
0
VERTEX
8
layer1
10
16.7272
20
22.8728
30
0
42
0
0
VERTEX
8
layer1
10
17
20
23.0966
30
0
42
0
0
VERTEX
8
layer1
10
17.3112
20
23.263
30
0
42
0
0
VERTEX
8
layer1
10
17.6488
20
23.3654
30
0
42
0
0
VERTEX
8
layer1
10
18
20
23.4
30
0
42
0
0
VERTEX
8
layer1
10
18.3512
20
23.3654
30
0
42
0
0
VERTEX
8
layer1
10
18.6888
20
23.263
30
0
42
0
0
VERTEX
8
layer1
10
19
20
23.0966
30
0
42
0
0
VERTEX
8
layer1
10
19.2728
20
22.8728
30
0
42
0
0
VERTEX
8
layer1
10
19.4966
20
22.6
30
0
42
0
0
VERTEX
8
layer1
10
19.663
20
22.2888
30
0
42
0
0
VERTEX
8
layer1
10
19.7654
20
21.9512
30
0
42
0
0
VERTEX
8
layer1
10
19.8
20
21.6
30
0
42
0
0
VERTEX
8
layer1
10
19.7654
20
21.2488
30
0
42
0
0
VERTEX
8
layer1
10
19.663
20
20.9112
30
0
42
0
0
VERTEX
8
layer1
10
19.4966
20
20.6
30
0
42
0
0
VERTEX
8
layer1
10
19.2728
20
20.3272
30
0
42
0
0
VERTEX
8
layer1
10
19
20
20.1034
30
0
42
0
0
VERTEX
8
layer1
10
18.6888
20
19.937
30
0
42
0
0
VERTEX
8
layer1
10
18.3512
20
19.8346
30
0
42
0
0
VERTEX
8
layer1
10
18
20
19.8
30
0
42
0
0
VERTEX
8
layer1
10
18.3512
20
19.7654
30
0
42
0
0
VERTEX
8
layer1
10
18.6888
20
19.663
30
0
42
0
0
VERTEX
8
layer1
10
19
20
19.4966
30
0
42
0
0
VERTEX
8
layer1
10
19.2728
20
19.2728
30
0
42
0
0
VERTEX
8
layer1
10
19.4966
20
19
30
0
42
0
0
VERTEX
8
layer1
10
19.663
20
18.6888
30
0
42
0
0
VERTEX
8
layer1
10
19.7654
20
18.3512
30
0
42
0
0
VERTEX
8
layer1
10
19.8
20
18
30
0
42
0
0
VERTEX
8
layer1
10
19.8346
20
18.3512
30
0
42
0
0
VERTEX
8
layer1
10
19.937
20
18.6888
30
0
42
0
0
VERTEX
8
layer1
10
20.1034
20
19
30
0
42
0
0
VERTEX
8
layer1
10
20.3272
20
19.2728
30
0
42
0
0
VERTEX
8
layer1
10
20.6
20
19.4966
30
0
42
0
0
VERTEX
8
layer1
10
20.9112
20
19.663
30
0
42
0
0
VERTEX
8
layer1
10
21.2488
20
19.7654
30
0
42
0
0
VERTEX
8
layer1
10
21.6
20
19.8
30
0
42
0
0
VERTEX
8
layer1
10
21.9512
20
19.7654
30
0
42
0
0
VERTEX
8
layer1
10
22.2888
20
19.663
30
0
42
0
0
VERTEX
8
layer1
10
22.6
20
19.4966
30
0
42
0
0
VERTEX
8
layer1
10
22.8728
20
19.2728
30
0
42
0
0
VERTEX
8
layer1
10
23.0966
20
19
30
0
42
0
0
VERTEX
8
layer1
10
23.263
20
18.6888
30
0
42
0
0
VERTEX
8
layer1
10
23.3654
20
18.3512
30
0
42
0
0
VERTEX
8
layer1
10
23.4
20
18
30
0
42
0
0
VERTEX
8
layer1
10
23.3654
20
17.6488
30
0
42
0
0
VERTEX
8
layer1
10
23.263
20
17.3112
30
0
42
0
0
VERTEX
8
layer1
10
23.0966
20
17
30
0
42
0
0
VERTEX
8
layer1
10
22.8728
20
16.7272
30
0
42
0
0
VERTEX
8
layer1
10
22.6
20
16.5034
30
0
42
0
0
VERTEX
8
layer1
10
22.2888
20
16.337
30
0
42
0
0
VERTEX
8
layer1
10
21.9512
20
16.2346
30
0
42
0
0
VERTEX
8
layer1
10
21.6
20
16.2
30
0
42
0
0
VERTEX
8
layer1
10
21.9512
20
16.1654
30
0
42
0
0
VERTEX
8
layer1
10
22.2888
20
16.063
30
0
42
0
0
VERTEX
8
layer1
10
22.6
20
15.8966
30
0
42
0
0
VERTEX
8
layer1
10
22.8728
20
15.6728
30
0
42
0
0
VERTEX
8
layer1
10
23.0966
20
15.4
30
0
42
0
0
VERTEX
8
layer1
10
23.263
20
15.0888
30
0
42
0
0
VERTEX
8
layer1
10
23.3654
20
14.7512
30
0
42
0
0
VERTEX
8
layer1
10
23.4
20
14.4
30
0
42
0
0
VERTEX
8
layer1
10
23.3654
20
14.0488
30
0
42
0
0
VERTEX
8
layer1
10
23.263
20
13.7112
30
0
42
0
0
VERTEX
8
layer1
10
23.0966
20
13.4
30
0
42
0
0
VERTEX
8
layer1
10
22.8728
20
13.1272
30
0
42
0
0
VERTEX
8
layer1
10
22.6
20
12.9034
30
0
42
0
0
VERTEX
8
layer1
10
22.2888
20
12.737
30
0
42
0
0
VERTEX
8
layer1
10
21.9512
20
12.6346
30
0
42
0
0
VERTEX
8
layer1
10
21.6
20
12.6
30
0
42
0
0
VERTEX
8
layer1
10
21.9512
20
12.5654
30
0
42
0
0
VERTEX
8
layer1
10
22.2888
20
12.463
30
0
42
0
0
VERTEX
8
layer1
10
22.6
20
12.2966
30
0
42
0
0
VERTEX
8
layer1
10
22.8728
20
12.0728
30
0
42
0
0
VERTEX
8
layer1
10
23.0966
20
11.8
30
0
42
0
0
VERTEX
8
layer1
10
23.263
20
11.4888
30
0
42
0
0
VERTEX
8
layer1
10
23.3654
20
11.1512
30
0
42
0
0
VERTEX
8
layer1
10
23.4
20
10.8
30
0
42
0
0
VERTEX
8
layer1
10
23.3654
20
10.4488
30
0
42
0
0
VERTEX
8
layer1
10
23.263
20
10.1112
30
0
42
0
0
VERTEX
8
layer1
10
23.0966
20
9.8
30
0
42
0
0
VERTEX
8
layer1
10
22.8728
20
9.5272
30
0
42
0
0
VERTEX
8
layer1
10
22.6
20
9.3034
30
0
42
0
0
VERTEX
8
layer1
10
22.2888
20
9.137
30
0
42
0
0
VERTEX
8
layer1
10
21.9512
20
9.0346
30
0
42
0
0
VERTEX
8
layer1
10
21.6
20
9
30
0
42
0
0
VERTEX
8
layer1
10
21.2488
20
9.0346
30
0
42
0
0
VERTEX
8
layer1
10
20.9112
20
9.137
30
0
42
0
0
VERTEX
8
layer1
10
20.6
20
9.3034
30
0
42
0
0
VERTEX
8
layer1
10
20.3272
20
9.5272
30
0
42
0
0
VERTEX
8
layer1
10
20.1034
20
9.8
30
0
42
0
0
VERTEX
8
layer1
10
19.937
20
10.1112
30
0
42
0
0
VERTEX
8
layer1
10
19.8346
20
10.4488
30
0
42
0
0
VERTEX
8
layer1
10
19.8
20
10.8
30
0
42
0
0
VERTEX
8
layer1
10
19.7654
20
10.4488
30
0
42
0
0
VERTEX
8
layer1
10
19.663
20
10.1112
30
0
42
0
0
VERTEX
8
layer1
10
19.4966
20
9.8
30
0
42
0
0
VERTEX
8
layer1
10
19.2728
20
9.5272
30
0
42
0
0
VERTEX
8
layer1
10
19
20
9.3034
30
0
42
0
0
VERTEX
8
layer1
10
18.6888
20
9.137
30
0
42
0
0
VERTEX
8
layer1
10
18.3512
20
9.0346
30
0
42
0
0
VERTEX
8
layer1
10
18
20
9
30
0
42
0
0
VERTEX
8
layer1
10
18.3512
20
8.9654
30
0
42
0
0
VERTEX
8
layer1
10
18.6888
20
8.863
30
0
42
0
0
VERTEX
8
layer1
10
19
20
8.6966
30
0
42
0
0
VERTEX
8
layer1
10
19.2728
20
8.4728
30
0
42
0
0
VERTEX
8
layer1
10
19.4966
20
8.2
30
0
42
0
0
VERTEX
8
layer1
10
19.663
20
7.8888
30
0
42
0
0
VERTEX
8
layer1
10
19.7654
20
7.5512
30
0
42
0
0
VERTEX
8
layer1
10
19.8
20
7.2
30
0
42
0
0
VERTEX
8
layer1
10
19.7654
20
6.8488
30
0
42
0
0
VERTEX
8
layer1
10
19.663
20
6.5112
30
0
42
0
0
VERTEX
8
layer1
10
19.4966
20
6.2
30
0
42
0
0
VERTEX
8
layer1
10
19.2728
20
5.9272
30
0
42
0
0
VERTEX
8
layer1
10
19
20
5.7034
30
0
42
0
0
VERTEX
8
layer1
10
18.6888
20
5.537
30
0
42
0
0
VERTEX
8
layer1
10
18.3512
20
5.4346
30
0
42
0
0
VERTEX
8
layer1
10
18
20
5.4
30
0
42
0
0
VERTEX
8
layer1
10
17.6488
20
5.4346
30
0
42
0
0
VERTEX
8
layer1
10
17.3112
20
5.537
30
0
42
0
0
VERTEX
8
layer1
10
17
20
5.7034
30
0
42
0
0
VERTEX
8
layer1
10
16.7272
20
5.9272
30
0
42
0
0
VERTEX
8
layer1
10
16.5034
20
6.2
30
0
42
0
0
VERTEX
8
layer1
10
16.337
20
6.5112
30
0
42
0
0
VERTEX
8
layer1
10
16.2346
20
6.8488
30
0
42
0
0
VERTEX
8
layer1
10
16.2
20
7.2
30
0
42
0
0
VERTEX
8
layer1
10
16.2
20
5.4
30
0
42
0
0
VERTEX
8
layer1
10
16.2
20
3.6
30
0
42
0
0
VERTEX
8
layer1
10
16.1654
20
3.2488
30
0
42
0
0
VERTEX
8
layer1
10
16.063
20
2.9112
30
0
42
0
0
VERTEX
8
layer1
10
15.8966
20
2.6
30
0
42
0
0
VERTEX
8
layer1
10
15.6728
20
2.3272
30
0
42
0
0
VERTEX
8
layer1
10
15.4
20
2.1034
30
0
42
0
0
VERTEX
8
layer1
10
15.0888
20
1.937
30
0
42
0
0
VERTEX
8
layer1
10
14.7512
20
1.8346
30
0
42
0
0
VERTEX
8
layer1
10
14.4
20
1.8
30
0
42
0
0
VERTEX
8
layer1
10
14.0488
20
1.8346
30
0
42
0
0
VERTEX
8
layer1
10
13.7112
20
1.937
30
0
42
0
0
VERTEX
8
layer1
10
13.4
20
2.1034
30
0
42
0
0
VERTEX
8
layer1
10
13.1272
20
2.3272
30
0
42
0
0
VERTEX
8
layer1
10
12.9034
20
2.6
30
0
42
0
0
VERTEX
8
layer1
10
12.737
20
2.9112
30
0
42
0
0
VERTEX
8
layer1
10
12.6346
20
3.2488
30
0
42
0
0
VERTEX
8
layer1
10
12.6
20
3.6
30
0
42
0
0
VERTEX
8
layer1
10
12.6
20
1.8
30
0
42
0
0
VERTEX
8
layer1
10
12.6
20
0
30
0
42
0
0
VERTEX
8
layer1
10
12.5654
20
-0.3512
30
0
42
0
0
VERTEX
8
layer1
10
12.463
20
-0.6888
30
0
42
0
0
VERTEX
8
layer1
10
12.2966
20
-1
30
0
42
0
0
VERTEX
8
layer1
10
12.0728
20
-1.2728
30
0
42
0
0
VERTEX
8
layer1
10
11.8
20
-1.4966
30
0
42
0
0
VERTEX
8
layer1
10
11.4888
20
-1.663
30
0
42
0
0
VERTEX
8
layer1
10
11.1512
20
-1.7654
30
0
42
0
0
VERTEX
8
layer1
10
10.8
20
-1.8
30
0
42
0
0
VERTEX
8
layer1
10
10.4488
20
-1.7654
30
0
42
0
0
VERTEX
8
layer1
10
10.1112
20
-1.663
30
0
42
0
0
VERTEX
8
layer1
10
9.8
20
-1.4966
30
0
42
0
0
VERTEX
8
layer1
10
9.5272
20
-1.2728
30
0
42
0
0
VERTEX
8
layer1
10
9.3034
20
-1
30
0
42
0
0
VERTEX
8
layer1
10
9.137
20
-0.6888
30
0
42
0
0
VERTEX
8
layer1
10
9.0346
20
-0.3512
30
0
42
0
0
VERTEX
8
layer1
10
9
20
0
30
0
42
0
0
VERTEX
8
layer1
10
9
20
1.8
30
0
42
0
0
VERTEX
8
layer1
10
9
20
3.6
30
0
42
0
0
VERTEX
8
layer1
10
8.9654
20
3.2488
30
0
42
0
0
VERTEX
8
layer1
10
8.863
20
2.9112
30
0
42
0
0
VERTEX
8
layer1
10
8.6966
20
2.6
30
0
42
0
0
VERTEX
8
layer1
10
8.4728
20
2.3272
30
0
42
0
0
VERTEX
8
layer1
10
8.2
20
2.1034
30
0
42
0
0
VERTEX
8
layer1
10
7.8888
20
1.937
30
0
42
0
0
VERTEX
8
layer1
10
7.5512
20
1.8346
30
0
42
0
0
VERTEX
8
layer1
10
7.2
20
1.8
30
0
42
0
0
VERTEX
8
layer1
10
6.8488
20
1.8346
30
0
42
0
0
VERTEX
8
layer1
10
6.5112
20
1.937
30
0
42
0
0
VERTEX
8
layer1
10
6.2
20
2.1034
30
0
42
0
0
VERTEX
8
layer1
10
5.9272
20
2.3272
30
0
42
0
0
VERTEX
8
layer1
10
5.7034
20
2.6
30
0
42
0
0
VERTEX
8
layer1
10
5.537
20
2.9112
30
0
42
0
0
VERTEX
8
layer1
10
5.4346
20
3.2488
30
0
42
0
0
VERTEX
8
layer1
10
5.4
20
3.6
30
0
42
0
0
VERTEX
8
layer1
10
5.4
20
5.4
30
0
42
0
0
VERTEX
8
layer1
10
5.4
20
7.2
30
0
42
0
0
VERTEX
8
layer1
10
5.3654
20
6.8488
30
0
42
0
0
VERTEX
8
layer1
10
5.263
20
6.5112
30
0
42
0
0
VERTEX
8
layer1
10
5.0966
20
6.2
30
0
42
0
0
VERTEX
8
layer1
10
4.8728
20
5.9272
30
0
42
0
0
VERTEX
8
layer1
10
4.6
20
5.7034
30
0
42
0
0
VERTEX
8
layer1
10
4.2888
20
5.537
30
0
42
0
0
VERTEX
8
layer1
10
3.9512
20
5.4346
30
0
42
0
0
VERTEX
8
layer1
10
3.6
20
5.4
30
0
42
0
0
VERTEX
8
layer1
10
3.2488
20
5.4346
30
0
42
0
0
VERTEX
8
layer1
10
2.9112
20
5.537
30
0
42
0
0
VERTEX
8
layer1
10
2.6
20
5.7034
30
0
42
0
0
VERTEX
8
layer1
10
2.3272
20
5.9272
30
0
42
0
0
VERTEX
8
layer1
10
2.1034
20
6.2
30
0
42
0
0
VERTEX
8
layer1
10
1.937
20
6.5112
30
0
42
0
0
VERTEX
8
layer1
10
1.8346
20
6.8488
30
0
42
0
0
VERTEX
8
layer1
10
1.8
20
7.2
30
0
42
0
0
VERTEX
8
layer1
10
1.8346
20
7.5512
30
0
42
0
0
VERTEX
8
layer1
10
1.937
20
7.8888
30
0
42
0
0
VERTEX
8
layer1
10
2.1034
20
8.2
30
0
42
0
0
VERTEX
8
layer1
10
2.3272
20
8.4728
30
0
42
0
0
VERTEX
8
layer1
10
2.6
20
8.6966
30
0
42
0
0
VERTEX
8
layer1
10
2.9112
20
8.863
30
0
42
0
0
VERTEX
8
layer1
10
3.2488
20
8.9654
30
0
42
0
0
VERTEX
8
layer1
10
3.6
20
9
30
0
42
0
0
VERTEX
8
layer1
10
3.2488
20
9.0346
30
0
42
0
0
VERTEX
8
layer1
10
2.9112
20
9.137
30
0
42
0
0
VERTEX
8
layer1
10
2.6
20
9.3034
30
0
42
0
0
VERTEX
8
layer1
10
2.3272
20
9.5272
30
0
42
0
0
VERTEX
8
layer1
10
2.1034
20
9.8
30
0
42
0
0
VERTEX
8
layer1
10
1.937
20
10.1112
30
0
42
0
0
VERTEX
8
layer1
10
1.8346
20
10.4488
30
0
42
0
0
VERTEX
8
layer1
10
1.8
20
10.8
30
0
42
0
0
VERTEX
8
layer1
10
1.7654
20
10.4488
30
0
42
0
0
VERTEX
8
layer1
10
1.663
20
10.1112
30
0
42
0
0
VERTEX
8
layer1
10
1.4966
20
9.8
30
0
42
0
0
VERTEX
8
layer1
10
1.2728
20
9.5272
30
0
42
0
0
VERTEX
8
layer1
10
1
20
9.3034
30
0
42
0
0
VERTEX
8
layer1
10
0.6888
20
9.137
30
0
42
0
0
VERTEX
8
layer1
10
0.3512
20
9.0346
30
0
42
0
0
VERTEX
8
layer1
10
0
20
9
30
0
42
0
0
VERTEX
8
layer1
10
-0.3512
20
9.0346
30
0
42
0
0
VERTEX
8
layer1
10
-0.6888
20
9.137
30
0
42
0
0
VERTEX
8
layer1
10
-1
20
9.3034
30
0
42
0
0
VERTEX
8
layer1
10
-1.2728
20
9.5272
30
0
42
0
0
VERTEX
8
layer1
10
-1.4966
20
9.8
30
0
42
0
0
VERTEX
8
layer1
10
-1.663
20
10.1112
30
0
42
0
0
VERTEX
8
layer1
10
-1.7654
20
10.4488
30
0
42
0
0
VERTEX
8
layer1
10
-1.8
20
10.8
30
0
42
0
0
VERTEX
8
layer1
10
-1.7654
20
11.1512
30
0
42
0
0
VERTEX
8
layer1
10
-1.663
20
11.4888
30
0
42
0
0
VERTEX
8
layer1
10
-1.4966
20
11.8
30
0
42
0
0
VERTEX
8
layer1
10
-1.2728
20
12.0728
30
0
42
0
0
VERTEX
8
layer1
10
-1
20
12.2966
30
0
42
0
0
VERTEX
8
layer1
10
-0.6888
20
12.463
30
0
42
0
0
VERTEX
8
layer1
10
-0.3512
20
12.5654
30
0
42
0
0
VERTEX
8
layer1
10
0
20
12.6
30
0
42
0
0
SEQEND
8
layer1
0
ENDSEC
0
EOF