  0
SECTION
  2
HEADER
  9
$ACADVER
  1
AC1024
  9
$ACADMAINTVER
 70
6
  9
$DWGCODEPAGE
  3
ANSI_1252
  9
$LASTSAVEDBY
  1
ezdxf
  9
$INSBASE
 10
0.0
 20
0.0
 30
0.0
  9
$EXTMIN
 10
1e+20
 20
1e+20
 30
1e+20
  9
$EXTMAX
 10
-1e+20
 20
-1e+20
 30
-1e+20
  9
$LIMMIN
 10
0.0
 20
0.0
  9
$LIMMAX
 10
420.0
 20
297.0
  9
$ORTHOMODE
 70
0
  9
$REGENMODE
 70
1
  9
$FILLMODE
 70
1
  9
$QTEXTMODE
 70
0
  9
$MIRRTEXT
 70
1
  9
$LTSCALE
 40
1.0
  9
$ATTMODE
 70
1
  9
$TEXTSIZE
 40
2.5
  9
$TRACEWID
 40
1.0
  9
$TEXTSTYLE
  7
Standard
  9
$CLAYER
  8
0
  9
$CELTYPE
  6
ByLayer
  9
$CECOLOR
 62
256
  9
$CELTSCALE
 40
1.0
  9
$DISPSILH
 70
0
  9
$DIMSCALE
 40
1.0
  9
$DIMASZ
 40
2.5
  9
$DIMEXO
 40
0.625
  9
$DIMDLI
 40
3.75
  9
$DIMRND
 40
0.0
  9
$DIMDLE
 40
0.0
  9
$DIMEXE
 40
1.25
  9
$DIMTP
 40
0.0
  9
$DIMTM
 40
0.0
  9
$DIMTXT
 40
2.5
  9
$DIMCEN
 40
2.5
  9
$DIMTSZ
 40
0.0
  9
$DIMTOL
 70
0
  9
$DIMLIM
 70
0
  9
$DIMTIH
 70
0
  9
$DIMTOH
 70
0
  9
$DIMSE1
 70
0
  9
$DIMSE2
 70
0
  9
$DIMTAD
 70
1
  9
$DIMZIN
 70
8
  9
$DIMBLK
  1

  9
$DIMASO
 70
1
  9
$DIMSHO
 70
1
  9
$DIMPOST
  1

  9
$DIMAPOST
  1

  9
$DIMALT
 70
0
  9
$DIMALTD
 70
3
  9
$DIMALTF
 40
0.03937007874
  9
$DIMLFAC
 40
1.0
  9
$DIMTOFL
 70
1
  9
$DIMTVP
 40
0.0
  9
$DIMTIX
 70
0
  9
$DIMSOXD
 70
0
  9
$DIMSAH
 70
0
  9
$DIMBLK1
  1

  9
$DIMBLK2
  1

  9
$DIMSTYLE
  2
ISO-25
  9
$DIMCLRD
 70
0
  9
$DIMCLRE
 70
0
  9
$DIMCLRT
 70
0
  9
$DIMTFAC
 40
1.0
  9
$DIMGAP
 40
0.625
  9
$DIMJUST
 70
0
  9
$DIMSD1
 70
0
  9
$DIMSD2
 70
0
  9
$DIMTOLJ
 70
0
  9
$DIMTZIN
 70
8
  9
$DIMALTZ
 70
0
  9
$DIMALTTZ
 70
0
  9
$DIMUPT
 70
0
  9
$DIMDEC
 70
2
  9
$DIMTDEC
 70
2
  9
$DIMALTU
 70
2
  9
$DIMALTTD
 70
3
  9
$DIMTXSTY
  7
Standard
  9
$DIMAUNIT
 70
0
  9
$DIMADEC
 70
0
  9
$DIMALTRND
 40
0.0
  9
$DIMAZIN
 70
0
  9
$DIMDSEP
 70
44
  9
$DIMATFIT
 70
3
  9
$DIMFRAC
 70
0
  9
$DIMLDRBLK
  1

  9
$DIMLUNIT
 70
2
  9
$DIMLWD
 70
-2
  9
$DIMLWE
 70
-2
  9
$DIMTMOVE
 70
0
  9
$DIMFXL
 40
1.0
  9
$DIMFXLON
 70
0
  9
$DIMJOGANG
 40
0.785398163397
  9
$DIMTFILL
 70
0
  9
$DIMTFILLCLR
 70
0
  9
$DIMARCSYM
 70
0
  9
$DIMLTYPE
  6

  9
$DIMLTEX1
  6

  9
$DIMLTEX2
  6

  9
$DIMTXTDIRECTION
 70
0
  9
$LUNITS
 70
2
  9
$LUPREC
 70
4
  9
$SKETCHINC
 40
1.0
  9
$FILLETRAD
 40
10.0
  9
$AUNITS
 70
0
  9
$AUPREC
 70
2
  9
$MENU
  1
.
  9
$ELEVATION
 40
0.0
  9
$PELEVATION
 40
0.0
  9
$THICKNESS
 40
0.0
  9
$LIMCHECK
 70
0
  9
$CHAMFERA
 40
0.0
  9
$CHAMFERB
 40
0.0
  9
$CHAMFERC
 40
0.0
  9
$CHAMFERD
 40
0.0
  9
$SKPOLY
 70
0
  9
$TDCREATE
 40
2461095.822048611
  9
$TDUCREATE
 40
2458532.153996898
  9
$TDUPDATE
 40
2461095.822048611
  9
$TDUUPDATE
 40
2458532.1544311
  9
$TDINDWG
 40
0.0
  9
$TDUSRTIMER
 40
0.0
  9
$USRTIMER
 70
1
  9
$ANGBASE
 50
0.0
  9
$ANGDIR
 70
0
  9
$PDMODE
 70
0
  9
$PDSIZE
 40
0.0
  9
$PLINEWID
 40
0.0
  9
$SPLFRAME
 70
0
  9
$SPLINETYPE
 70
6
  9
$SPLINESEGS
 70
8
  9
$HANDSEED
  5
3A
  9
$SURFTAB1
 70
6
  9
$SURFTAB2
 70
6
  9
$SURFTYPE
 70
6
  9
$SURFU
 70
6
  9
$SURFV
 70
6
  9
$UCSBASE
  2

  9
$UCSNAME
  2

  9
$UCSORG
 10
0.0
 20
0.0
 30
0.0
  9
$UCSXDIR
 10
1.0
 20
0.0
 30
0.0
  9
$UCSYDIR
 10
0.0
 20
1.0
 30
0.0
  9
$UCSORTHOREF
  2

  9
$UCSORTHOVIEW
 70
0
  9
$UCSORGTOP
 10
0.0
 20
0.0
 30
0.0
  9
$UCSORGBOTTOM
 10
0.0
 20
0.0
 30
0.0
  9
$UCSORGLEFT
 10
0.0
 20
0.0
 30
0.0
  9
$UCSORGRIGHT
 10
0.0
 20
0.0
 30
0.0
  9
$UCSORGFRONT
 10
0.0
 20
0.0
 30
0.0
  9
$UCSORGBACK
 10
0.0
 20
0.0
 30
0.0
  9
$PUCSBASE
  2

  9
$PUCSNAME
  2

  9
$PUCSORG
 10
0.0
 20
0.0
 30
0.0
  9
$PUCSXDIR
 10
1.0
 20
0.0
 30
0.0
  9
$PUCSYDIR
 10
0.0
 20
1.0
 30
0.0
  9
$PUCSORTHOREF
  2

  9
$PUCSORTHOVIEW
 70
0
  9
$PUCSORGTOP
 10
0.0
 20
0.0
 30
0.0
  9
$PUCSORGBOTTOM
 10
0.0
 20
0.0
 30
0.0
  9
$PUCSORGLEFT
 10
0.0
 20
0.0
 30
0.0
  9
$PUCSORGRIGHT
 10
0.0
 20
0.0
 30
0.0
  9
$PUCSORGFRONT
 10
0.0
 20
0.0
 30
0.0
  9
$PUCSORGBACK
 10
0.0
 20
0.0
 30
0.0
  9
$USERI1
 70
0
  9
$USERI2
 70
0
  9
$USERI3
 70
0
  9
$USERI4
 70
0
  9
$USERI5
 70
0
  9
$USERR1
 40
0.0
  9
$USERR2
 40
0.0
  9
$USERR3
 40
0.0
  9
$USERR4
 40
0.0
  9
$USERR5
 40
0.0
  9
$WORLDVIEW
 70
1
  9
$SHADEDGE
 70
3
  9
$SHADEDIF
 70
70
  9
$TILEMODE
 70
1
  9
$MAXACTVP
 70
64
  9
$PINSBASE
 10
0.0
 20
0.0
 30
0.0
  9
$PLIMCHECK
 70
0
  9
$PEXTMIN
 10
1e+20
 20
1e+20
 30
1e+20
  9
$PEXTMAX
 10
-1e+20
 20
-1e+20
 30
-1e+20
  9
$PLIMMIN
 10
0.0
 20
0.0
  9
$PLIMMAX
 10
420.0
 20
297.0
  9
$UNITMODE
 70
0
  9
$VISRETAIN
 70
1
  9
$PLINEGEN
 70
0
  9
$PSLTSCALE
 70
1
  9
$TREEDEPTH
 70
3020
  9
$CMLSTYLE
  2
Standard
  9
$CMLJUST
 70
0
  9
$CMLSCALE
 40
20.0
  9
$PROXYGRAPHICS
 70
1
  9
$MEASUREMENT
 70
1
  9
$CELWEIGHT
370
-1
  9
$ENDCAPS
280
0
  9
$JOINSTYLE
280
0
  9
$LWDISPLAY
290
0
  9
$INSUNITS
 70
4
  9
$HYPERLINKBASE
  1

  9
$STYLESHEET
  1

  9
$XEDIT
290
1
  9
$CEPSNTYPE
380
0
  9
$PSTYLEMODE
290
1
  9
$FINGERPRINTGUID
  2
{81706F4F-7052-45A6-87B0-85C0A3FEA86F}
  9
$VERSIONGUID
  2
{8FCEB5A4-C28B-4058-8FDE-1FCD5C6458F3}
  9
$EXTNAMES
290
1
  9
$PSVPSCALE
 40
0.0
  9
$OLESTARTUP
290
0
  9
$SORTENTS
280
127
  9
$INDEXCTL
280
0
  9
$HIDETEXT
280
1
  9
$XCLIPFRAME
280
0
  9
$HALOGAP
280
0
  9
$OBSCOLOR
 70
257
  9
$OBSLTYPE
280
0
  9
$INTERSECTIONDISPLAY
280
0
  9
$INTERSECTIONCOLOR
 70
257
  9
$DIMASSOC
280
2
  9
$PROJECTNAME
  1

  9
$CAMERADISPLAY
290
0
  9
$LENSLENGTH
 40
50.0
  9
$CAMERAHEIGHT
 40
0.0
  9
$STEPSPERSEC
 40
24.0
  9
$STEPSIZE
 40
100.0
  9
$3DDWFPREC
 40
2.0
  9
$PSOLWIDTH
 40
0.005
  9
$PSOLHEIGHT
 40
0.08
  9
$LOFTANG1
 40
1.570796326795
  9
$LOFTANG2
 40
1.570796326795
  9
$LOFTMAG1
 40
0.0
  9
$LOFTMAG2
 40
0.0
  9
$LOFTPARAM
 70
7
  9
$LOFTNORMALS
280
1
  9
$LATITUDE
 40
37.795
  9
$LONGITUDE
 40
-122.394
  9
$NORTHDIRECTION
 40
0.0
  9
$TIMEZONE
 70
-8000
  9
$LIGHTGLYPHDISPLAY
280
1
  9
$TILEMODELIGHTSYNCH
280
1
  9
$CMATERIAL
347
20
  9
$SOLIDHIST
280
0
  9
$SHOWHIST
280
1
  9
$DWFFRAME
280
2
  9
$DGNFRAME
280
2
  9
$REALWORLDSCALE
290
1
  9
$INTERFERECOLOR
 62
256
  9
$CSHADOW
280
0
  9
$SHADOWPLANELOCATION
 40
0.0
  0
ENDSEC
  0
SECTION
  2
CLASSES
  0
CLASS
  1
ACDBDICTIONARYWDFLT
  2
AcDbDictionaryWithDefault
  3
ObjectDBX Classes
 90
0
 91
0
280
0
281
0
  0
CLASS
  1
SUN
  2
AcDbSun
  3
SCENEOE
 90
1153
 91
0
280
0
281
0
  0
CLASS
  1
VISUALSTYLE
  2
AcDbVisualStyle
  3
ObjectDBX Classes
 90
4095
 91
0
280
0
281
0
  0
CLASS
  1
MATERIAL
  2
AcDbMaterial
  3
ObjectDBX Classes
 90
1153
 91
0
280
0
281
0
  0
CLASS
  1
SCALE
  2
AcDbScale
  3
ObjectDBX Classes
 90
1153
 91
0
280
0
281
0
  0
CLASS
  1
TABLESTYLE
  2
AcDbTableStyle
  3
ObjectDBX Classes
 90
4095
 91
0
280
0
281
0
  0
CLASS
  1
MLEADERSTYLE
  2
AcDbMLeaderStyle
  3
ACDB_MLEADERSTYLE_CLASS
 90
4095
 91
0
280
0
281
0
  0
CLASS
  1
DICTIONARYVAR
  2
AcDbDictionaryVar
  3
ObjectDBX Classes
 90
0
 91
0
280
0
281
0
  0
CLASS
  1
CELLSTYLEMAP
  2
AcDbCellStyleMap
  3
ObjectDBX Classes
 90
1152
 91
0
280
0
281
0
  0
CLASS
  1
MENTALRAYRENDERSETTINGS
  2
AcDbMentalRayRenderSettings
  3
SCENEOE
 90
1024
 91
0
280
0
281
0
  0
CLASS
  1
ACDBDETAILVIEWSTYLE
  2
AcDbDetailViewStyle
  3
ObjectDBX Classes
 90
1025
 91
0
280
0
281
0
  0
CLASS
  1
ACDBSECTIONVIEWSTYLE
  2
AcDbSectionViewStyle
  3
ObjectDBX Classes
 90
1025
 91
0
280
0
281
0
  0
CLASS
  1
RASTERVARIABLES
  2
AcDbRasterVariables
  3
ISM
 90
0
 91
0
280
0
281
0
  0
CLASS
  1
LAYOUT
  2
AcDbLayout
  3
ObjectDBX Classes
 90
0
 91
0
280
0
281
0
  0
CLASS
  1
ACDBPLACEHOLDER
  2
AcDbPlaceHolder
  3
ObjectDBX Classes
 90
0
 91
0
280
0
281
0
  0
ENDSEC
  0
SECTION
  2
TABLES
  0
TABLE
  2
VPORT
  5
8
330
0
100
AcDbSymbolTable
 70
1
  0
VPORT
  5
23
330
8
100
AcDbSymbolTableRecord
100
AcDbViewportTableRecord
  2
*Active
 70
0
 10
0.0
 20
0.0
 11
1.0
 21
1.0
 12
0.0
 22
0.0
 13
0.0
 23
0.0
 14
0.5
 24
0.5
 15
0.5
 25
0.5
 16
0.0
 26
0.0
 36
1.0
 17
0.0
 27
0.0
 37
0.0
 40
1000.0
 41
1.34
 42
50.0
 43
0.0
 44
0.0
 50
0.0
 51
0.0
 71
0
 72
1000
 73
1
 74
3
 75
0
 76
0
 77
0
 78
0
281
0
 65
0
146
0.0
  0
ENDTAB
  0
TABLE
  2
LTYPE
  5
2
330
0
100
AcDbSymbolTable
 70
3
  0
LTYPE
  5
24
330
2
100
AcDbSymbolTableRecord
100
AcDbLinetypeTableRecord
  2
ByBlock
 70
0
  3

 72
65
 73
0
 40
0.0
  0
LTYPE
  5
25
330
2
100
AcDbSymbolTableRecord
100
AcDbLinetypeTableRecord
  2
ByLayer
 70
0
  3

 72
65
 73
0
 40
0.0
  0
LTYPE
  5
26
330
2
100
AcDbSymbolTableRecord
100
AcDbLinetypeTableRecord
  2
Continuous
 70
0
  3

 72
65
 73
0
 40
0.0
  0
ENDTAB
  0
TABLE
  2
LAYER
  5
1
330
0
100
AcDbSymbolTable
 70
2
  0
LAYER
  5
27
330
1
100
AcDbSymbolTableRecord
100
AcDbLayerTableRecord
  2
0
 70
0
 62
7
  6
Continuous
370
-3
390
13
347
21
  0
LAYER
  5
28
330
1
100
AcDbSymbolTableRecord
100
AcDbLayerTableRecord
  2
Defpoints
 70
0
 62
7
  6
Continuous
290
0
370
-3
390
13
347
21
  0
ENDTAB
  0
TABLE
  2
STYLE
  5
5
330
0
100
AcDbSymbolTable
 70
1
  0
STYLE
  5
29
330
5
100
AcDbSymbolTableRecord
100
AcDbTextStyleTableRecord
  2
Standard
 70
0
 40
0.0
 41
1.0
 50
0.0
 71
0
 42
2.5
  3
txt
  4

  0
ENDTAB
  0
TABLE
  2
VIEW
  5
7
330
0
100
AcDbSymbolTable
 70
0
  0
ENDTAB
  0
TABLE
  2
UCS
  5
6
330
0
100
AcDbSymbolTable
 70
0
  0
ENDTAB
  0
TABLE
  2
APPID
  5
3
330
0
100
AcDbSymbolTable
 70
3
  0
APPID
  5
2A
330
3
100
AcDbSymbolTableRecord
100
AcDbRegAppTableRecord
  2
ACAD
 70
0
  0
APPID
  5
37
330
3
100
AcDbSymbolTableRecord
100
AcDbRegAppTableRecord
  2
HATCHBACKGROUNDCOLOR
 70
0
  0
APPID
  5
38
330
3
100
AcDbSymbolTableRecord
100
AcDbRegAppTableRecord
  2
EZDXF
 70
0
  0
ENDTAB
  0
TABLE
  2
DIMSTYLE
  5
4
330
0
100
AcDbSymbolTable
 70
1
100
AcDbDimStyleTable
  0
DIMSTYLE
105
2B
330
4
100
AcDbSymbolTableRecord
100
AcDbDimStyleTableRecord
  2
Standard
 70
0
 40
1.0
 41
2.5
 42
0.625
 43
3.75
 44
1.25
 45
0.0
 46
0.0
 47
0.0
 48
0.0
 49
2.5
140
2.5
141
2.5
142
0.0
143
0.03937007874
144
1.0
145
0.0
146
1.0
147
0.625
148
0.0
 69
0
 70
0
 71
0
 72
0
 73
0
 74
0
 75
0
 76
0
 77
1
 78
8
 79
3
170
0
171
3
172
1
173
0
174
0
175
0
176
0
177
0
178
0
179
2
271
2
272
2
273
2
274
3
275
0
276
0
277
2
278
44
279
0
280
0
281
0
282
0
283
0
284
8
285
0
286
0
288
0
289
3
290
0
371
-2
372
-2
  0
ENDTAB
  0
TABLE
  2
BLOCK_RECORD
  5
9
330
0
100
AcDbSymbolTable
 70
2
  0
BLOCK_RECORD
  5
17
330
9
100
AcDbSymbolTableRecord
100
AcDbBlockTableRecord
  2
*Model_Space
340
1A
 70
0
280
1
281
0
  0
BLOCK_RECORD
  5
1B
330
9
100
AcDbSymbolTableRecord
100
AcDbBlockTableRecord
  2
*Paper_Space
340
1E
 70
0
280
1
281
0
  0
ENDTAB
  0
ENDSEC
  0
SECTION
  2
BLOCKS
  0
BLOCK
  5
18
330
17
100
AcDbEntity
  8
0
100
AcDbBlockBegin
  2
*Model_Space
 70
0
 10
0.0
 20
0.0
 30
0.0
  3
*Model_Space
  1

  0
ENDBLK
  5
19
330
17
100
AcDbEntity
  8
0
100
AcDbBlockEnd
  0
BLOCK
  5
1C
330
1B
100
AcDbEntity
  8
0
100
AcDbBlockBegin
  2
*Paper_Space
 70
0
 10
0.0
 20
0.0
 30
0.0
  3
*Paper_Space
  1

  0
ENDBLK
  5
1D
330
1B
100
AcDbEntity
  8
0
100
AcDbBlockEnd
  0
ENDSEC
  0
SECTION
  2
ENTITIES
  0
LWPOLYLINE
  5
2F
330
17
100
AcDbEntity
  8
0
100
AcDbPolyline
 90
561
 70
0
 10
-70.2
 20
-31.5
 10
-70.19443928850566
 20
-31.59989173728342
 10
-70.17782586849445
 20
-31.69854909871861
 10
-70.15036503426775
 20
-31.79475296180839
 10
-70.11239612310673
 20
-31.887314522269893
 10
-70.06438832203521
 20
-31.975089984251596
 10
-70.00693487001152
 20
-32.05699469437491
 10
-69.94074572719354
 20
-32.132016544944214
 10
-69.8666388018641
 20
-32.19922848069999
 10
-69.7855298434265
 20
-32.257799954567325
 10
-69.69842112636405
 20
-32.30700719083959
 10
-69.60638906499722
 20
-32.34624212897381
 10
-69.5105709120849
 20
-32.375019937477845
 10
-69.41215070563659
 20
-32.3929850050394
 10
-69.31234463759284
 20
-32.39991533486362
 10
-69.21224704831734
 20
-32.4
 10
-69.11214907193079
 20
-32.4
 10
-69.01205109554425
 20
-32.4
 10
-68.91195311915772
 20
-32.4
 10
-68.81185514277118
 20
-32.4
 10
-68.71175716638464
 20
-32.4
 10
-68.6116591899981
 20
-32.4
 10
-68.51156121361156
 20
-32.4
 10
-68.41146323722502
 20
-32.4
 10
-68.31136526083849
 20
-32.4
 10
-68.21126728445195
 20
-32.4
 10
-68.1111693080654
 20
-32.4
 10
-68.01107133167886
 20
-32.4
 10
-67.91097335529233
 20
-32.4
 10
-67.81087537890579
 20
-32.4
 10
-67.71077740251924
 20
-32.4
 10
-67.6106794261327
 20
-32.4
 10
-67.51058144974618
 20
-32.4
 10
-67.41048347335963
 20
-32.4
 10
-67.3103854969731
 20
-32.4
 10
-67.21028752058655
 20
-32.4
 10
-67.11018954420003
 20
-32.4
 10
-67.01009156781348
 20
-32.4
 10
-66.90999359142694
 20
-32.4
 10
-66.8098956150404
 20
-32.4
 10
-66.70979763865387
 20
-32.4
 10
-66.60969966226733
 20
-32.4
 10
-66.50960168588078
 20
-32.4
 10
-66.40950370949425
 20
-32.4
 10
-66.30940573310771
 20
-32.4
 10
-66.20930775672117
 20
-32.4
 10
-66.10920978033464
 20
-32.4
 10
-66.00911180394809
 20
-32.4
 10
-65.90901382756157
 20
-32.4
 10
-65.80891585117502
 20
-32.4
 10
-65.70881787478848
 20
-32.4
 10
-65.60871989840193
 20
-32.4
 10
-65.50862192201541
 20
-32.4
 10
-65.40852394562887
 20
-32.4
 10
-65.30842596924232
 20
-32.4
 10
-65.20832799285579
 20
-32.4
 10
-65.10823001646925
 20
-32.4
 10
-65.00813204008271
 20
-32.4
 10
-64.90803406369616
 20
-32.4
 10
-64.80793608730963
 20
-32.4
 10
-64.70783811092309
 20
-32.4
 10
-64.60774013453656
 20
-32.4
 10
-64.50764215815002
 20
-32.4
 10
-64.40754418176347
 20
-32.4
 10
-64.30744620537693
 20
-32.4
 10
-64.2073482289904
 20
-32.4
 10
-64.10725025260386
 20
-32.4
 10
-64.00715227621733
 20
-32.4
 10
-63.90705429983078
 20
-32.4
 10
-63.80695632344425
 20
-32.4
 10
-63.706858347057704
 20
-32.4
 10
-63.60676037067117
 20
-32.4
 10
-63.506662394284625
 20
-32.4
 10
-63.40656441789809
 20
-32.4
 10
-63.306466441511546
 20
-32.4
 10
-63.20636846512501
 20
-32.4
 10
-63.10627048873848
 20
-32.4
 10
-63.00617251235193
 20
-32.4
 10
-62.9060745359654
 20
-32.4
 10
-62.80597655957885
 20
-32.4
 10
-62.70587858319232
 20
-32.4
 10
-62.60578060680577
 20
-32.4
 10
-62.505682630419244
 20
-32.4
 10
-62.40558465403271
 20
-32.4
 10
-62.305486677646165
 20
-32.4
 10
-62.20538870125963
 20
-32.4
 10
-62.105290724873086
 20
-32.4
 10
-62.00519274848655
 20
-32.4
 10
-61.90509477210001
 20
-32.4
 10
-61.80499679571347
 20
-32.4
 10
-61.70489881932693
 20
-32.4
 10
-61.60480084294039
 20
-32.4
 10
-61.504702866553856
 20
-32.4
 10
-61.40460489016731
 20
-32.4
 10
-61.30450691378078
 20
-32.4
 10
-61.204408937394234
 20
-32.4
 10
-61.1043109610077
 20
-32.4
 10
-61.004212984621155
 20
-32.4
 10
-60.90411500823462
 20
-32.4
 10
-60.80401703184809
 20
-32.4
 10
-60.70391905546154
 20
-32.4
 10
-60.60382107907501
 20
-32.4
 10
-60.50372310268846
 20
-32.4
 10
-60.40362512630193
 20
-32.4
 10
-60.30352714991538
 20
-32.4
 10
-60.20342917352885
 20
-32.4
 10
-60.10333119714232
 20
-32.4
 10
-60.003233220755774
 20
-32.4
 10
-59.90313524436924
 20
-32.4
 10
-59.803037267982695
 20
-32.4
 10
-59.70293929159616
 20
-32.4
 10
-59.602841315209616
 20
-32.4
 10
-59.50274333882308
 20
-32.4
 10
-59.40264536243654
 20
-32.4
 10
-59.30254738605
 20
-32.4
 10
-59.20244940966347
 20
-32.4
 10
-59.10235143327692
 20
-32.4
 10
-59.002253456890394
 20
-32.4
 10
-58.90215548050384
 20
-32.4
 10
-58.802057504117315
 20
-32.4
 10
-58.701959527730764
 20
-32.4
 10
-58.601861551344236
 20
-32.4
 10
-58.501763574957685
 20
-32.4
 10
-58.40166559857116
 20
-32.4
 10
-58.30156762218462
 20
-32.4
 10
-58.20146964579808
 20
-32.4
 10
-58.10137166941154
 20
-32.4
 10
-58.001273693025
 20
-32.4
 10
-57.90117571663846
 20
-32.4
 10
-57.80107774025192
 20
-32.4
 10
-57.700979763865384
 20
-32.4
 10
-57.60088178747885
 20
-32.4
 10
-57.500783811092305
 20
-32.4
 10
-57.40068583470576
 20
-32.4
 10
-57.300587858319226
 20
-32.4
 10
-57.20048988193269
 20
-32.4
 10
-57.100391905546154
 20
-32.4
 10
-57.00029392915961
 20
-32.4
 10
-56.900195952773075
 20
-32.4
 10
-56.80009797638653
 20
-32.4
 10
-56.699999999999996
 20
-32.4
 10
-56.60010826271658
 20
-32.39443928850565
 10
-56.50145090128139
 20
-32.37782586849444
 10
-56.40524703819162
 20
-32.350365034267746
 10
-56.3126854777301
 20
-32.31239612310673
 10
-56.22491001574841
 20
-32.26438832203522
 10
-56.14300530562509
 20
-32.206934870011516
 10
-56.06798345505579
 20
-32.14074572719354
 10
-56.0007715193
 20
-32.066638801864094
 10
-55.94220004543268
 20
-31.985529843426498
 10
-55.89299280916041
 20
-31.89842112636404
 10
-55.85375787102619
 20
-31.806389064997223
 10
-55.82498006252216
 20
-31.710570912084904
 10
-55.8070149949606
 20
-31.612150705636576
 10
-55.80008466513638
 20
-31.51234463759284
 10
-55.800000000000004
 20
-31.412247048317322
 10
-55.800000000000004
 20
-31.312149071930783
 10
-55.800000000000004
 20
-31.21205109554425
 10
-55.800000000000004
 20
-31.11195311915771
 10
-55.800000000000004
 20
-31.01185514277117
 10
-55.800000000000004
 20
-30.911757166384632
 10
-55.800000000000004
 20
-30.811659189998093
 10
-55.800000000000004
 20
-30.711561213611553
 10
-55.800000000000004
 20
-30.611463237225014
 10
-55.800000000000004
 20
-30.51136526083848
 10
-55.800000000000004
 20
-30.41126728445194
 10
-55.800000000000004
 20
-30.311169308065402
 10
-55.800000000000004
 20
-30.211071331678863
 10
-55.800000000000004
 20
-30.110973355292323
 10
-55.800000000000004
 20
-30.01087537890579
 10
-55.800000000000004
 20
-29.91077740251925
 10
-55.800000000000004
 20
-29.81067942613271
 10
-55.800000000000004
 20
-29.710581449746172
 10
-55.800000000000004
 20
-29.610483473359633
 10
-55.800000000000004
 20
-29.510385496973093
 10
-55.800000000000004
 20
-29.410287520586554
 10
-55.800000000000004
 20
-29.310189544200018
 10
-55.800000000000004
 20
-29.21009156781348
 10
-55.800000000000004
 20
-29.10999359142694
 10
-55.800000000000004
 20
-29.0098956150404
 10
-55.800000000000004
 20
-28.90979763865386
 10
-55.800000000000004
 20
-28.80969966226732
 10
-55.800000000000004
 20
-28.709601685880784
 10
-55.800000000000004
 20
-28.609503709494245
 10
-55.800000000000004
 20
-28.50940573310771
 10
-55.800000000000004
 20
-28.40930775672117
 10
-55.800000000000004
 20
-28.30920978033463
 10
-55.800000000000004
 20
-28.209111803948094
 10
-55.800000000000004
 20
-28.109013827561554
 10
-55.800000000000004
 20
-28.008915851175015
 10
-55.800000000000004
 20
-27.908817874788475
 10
-55.800000000000004
 20
-27.808719898401936
 10
-55.800000000000004
 20
-27.7086219220154
 10
-55.800000000000004
 20
-27.60852394562886
 10
-55.800000000000004
 20
-27.508425969242325
 10
-55.800000000000004
 20
-27.408327992855785
 10
-55.800000000000004
 20
-27.30823001646925
 10
-55.800000000000004
 20
-27.208132040082706
 10
-55.800000000000004
 20
-27.108034063696167
 10
-55.800000000000004
 20
-27.00793608730963
 10
-55.800000000000004
 20
-26.90783811092309
 10
-55.800000000000004
 20
-26.807740134536555
 10
-55.800000000000004
 20
-26.707642158150016
 10
-55.800000000000004
 20
-26.60754418176348
 10
-55.800000000000004
 20
-26.50744620537694
 10
-55.800000000000004
 20
-26.4073482289904
 10
-55.800000000000004
 20
-26.30725025260386
 10
-55.800000000000004
 20
-26.20715227621732
 10
-55.800000000000004
 20
-26.107054299830782
 10
-55.800000000000004
 20
-26.006956323444243
 10
-55.800000000000004
 20
-25.906858347057703
 10
-55.800000000000004
 20
-25.806760370671167
 10
-55.800000000000004
 20
-25.706662394284628
 10
-55.800000000000004
 20
-25.606564417898092
 10
-55.800000000000004
 20
-25.506466441511552
 10
-55.800000000000004
 20
-25.406368465125013
 10
-55.800000000000004
 20
-25.306270488738473
 10
-55.800000000000004
 20
-25.206172512351934
 10
-55.800000000000004
 20
-25.106074535965398
 10
-55.800000000000004
 20
-25.00597655957886
 10
-55.800000000000004
 20
-24.905878583192322
 10
-55.800000000000004
 20
-24.805780606805783
 10
-55.800000000000004
 20
-24.705682630419247
 10
-55.800000000000004
 20
-24.605584654032707
 10
-55.800000000000004
 20
-24.505486677646164
 10
-55.800000000000004
 20
-24.40538870125963
 10
-55.800000000000004
 20
-24.30529072487309
 10
-55.800000000000004
 20
-24.205192748486553
 10
-55.800000000000004
 20
-24.105094772100014
 10
-55.800000000000004
 20
-24.004996795713474
 10
-55.800000000000004
 20
-23.904898819326938
 10
-55.800000000000004
 20
-23.8048008429404
 10
-55.800000000000004
 20
-23.70470286655386
 10
-55.800000000000004
 20
-23.60460489016732
 10
-55.800000000000004
 20
-23.504506913780784
 10
-55.800000000000004
 20
-23.404408937394244
 10
-55.800000000000004
 20
-23.304310961007705
 10
-55.800000000000004
 20
-23.20421298462117
 10
-55.800000000000004
 20
-23.10411500823463
 10
-55.800000000000004
 20
-23.00401703184809
 10
-55.800000000000004
 20
-22.90391905546155
 10
-55.800000000000004
 20
-22.80382107907501
 10
-55.800000000000004
 20
-22.70372310268847
 10
-55.800000000000004
 20
-22.60362512630193
 10
-55.800000000000004
 20
-22.503527149915396
 10
-55.800000000000004
 20
-22.403429173528856
 10
-55.800000000000004
 20
-22.30333119714232
 10
-55.800000000000004
 20
-22.20323322075578
 10
-55.800000000000004
 20
-22.10313524436924
 10
-55.800000000000004
 20
-22.003037267982705
 10
-55.800000000000004
 20
-21.902939291596162
 10
-55.800000000000004
 20
-21.802841315209626
 10
-55.800000000000004
 20
-21.702743338823087
 10
-55.800000000000004
 20
-21.60264536243655
 10
-55.800000000000004
 20
-21.50254738605001
 10
-55.800000000000004
 20
-21.402449409663472
 10
-55.800000000000004
 20
-21.302351433276936
 10
-55.800000000000004
 20
-21.202253456890396
 10
-55.800000000000004
 20
-21.10215548050386
 10
-55.800000000000004
 20
-21.002057504117317
 10
-55.800000000000004
 20
-20.901959527730778
 10
-55.800000000000004
 20
-20.801861551344242
 10
-55.800000000000004
 20
-20.701763574957702
 10
-55.800000000000004
 20
-20.601665598571167
 10
-55.800000000000004
 20
-20.501567622184627
 10
-55.800000000000004
 20
-20.40146964579809
 10
-55.800000000000004
 20
-20.30137166941155
 10
-55.800000000000004
 20
-20.20127369302501
 10
-55.800000000000004
 20
-20.101175716638473
 10
-55.800000000000004
 20
-20.001077740251933
 10
-55.800000000000004
 20
-19.900979763865397
 10
-55.800000000000004
 20
-19.800881787478858
 10
-55.800000000000004
 20
-19.700783811092318
 10
-55.800000000000004
 20
-19.60068583470578
 10
-55.800000000000004
 20
-19.50058785831924
 10
-55.800000000000004
 20
-19.4004898819327
 10
-55.800000000000004
 20
-19.30039190554616
 10
-55.800000000000004
 20
-19.20029392915962
 10
-55.800000000000004
 20
-19.10019595277308
 10
-55.800000000000004
 20
-19.000097976386545
 10
-55.800000000000004
 20
-18.900000000000006
 10
-55.805560711494344
 20
-18.80010826271659
 10
-55.822174131505555
 20
-18.701450901281397
 10
-55.84963496573226
 20
-18.605247038191624
 10
-55.88760387689327
 20
-18.512685477730116
 10
-55.93561167796478
 20
-18.424910015748413
 10
-55.99306512998848
 20
-18.343005305625105
 10
-56.05925427280645
 20
-18.267983455055795
 10
-56.133361198135894
 20
-18.200771519300016
 10
-56.2144701565735
 20
-18.14220004543268
 10
-56.301578873635954
 20
-18.09299280916041
 10
-56.393610935002776
 20
-18.053757871026193
 10
-56.48942908791509
 20
-18.024980062522157
 10
-56.587849294363416
 20
-18.0070149949606
 10
-56.68765536240715
 20
-18.00008466513638
 10
-56.78775295168266
 20
-18.0
 10
-56.887850928069206
 20
-18.0
 10
-56.98794890445574
 20
-18.0
 10
-57.088046880842285
 20
-18.0
 10
-57.18814485722882
 20
-18.0
 10
-57.28824283361536
 20
-18.0
 10
-57.3883408100019
 20
-18.0
 10
-57.488438786388436
 20
-18.0
 10
-57.58853676277498
 20
-18.0
 10
-57.68863473916151
 20
-18.0
 10
-57.78873271554806
 20
-18.0
 10
-57.88883069193459
 20
-18.0
 10
-57.98892866832114
 20
-18.0
 10
-58.089026644707666
 20
-18.0
 10
-58.189124621094216
 20
-18.0
 10
-58.289222597480745
 20
-18.0
 10
-58.38932057386728
 20
-18.0
 10
-58.48941855025382
 20
-18.0
 10
-58.58951652664036
 20
-18.0
 10
-58.6896145030269
 20
-18.0
 10
-58.78971247941344
 20
-18.0
 10
-58.88981045579997
 20
-18.0
 10
-58.98990843218652
 20
-18.0
 10
-59.090006408573046
 20
-18.0
 10
-59.1901043849596
 20
-18.0
 10
-59.290202361346125
 20
-18.0
 10
-59.39030033773266
 20
-18.0
 10
-59.490398314119204
 20
-18.0
 10
-59.59049629050574
 20
-18.0
 10
-59.69059426689228
 20
-18.0
 10
-59.79069224327883
 20
-18.0
 10
-59.89079021966536
 20
-18.0
 10
-59.9908881960519
 20
-18.0
 10
-60.09098617243844
 20
-18.0
 10
-60.19108414882498
 20
-18.0
 10
-60.29118212521151
 20
-18.0
 10
-60.391280101598056
 20
-18.0
 10
-60.49137807798459
 20
-18.0
 10
-60.591476054371135
 20
-18.0
 10
-60.69157403075767
 20
-18.0
 10
-60.7916720071442
 20
-18.0
 10
-60.89176998353075
 20
-18.0
 10
-60.99186795991728
 20
-18.0
 10
-61.09196593630383
 20
-18.0
 10
-61.19206391269036
 20
-18.0
 10
-61.292161889076894
 20
-18.0
 10
-61.39225986546344
 20
-18.0
 10
-61.49235784184999
 20
-18.0
 10
-61.592455818236516
 20
-18.0
 10
-61.692553794623066
 20
-18.0
 10
-61.792651771009595
 20
-18.0
 10
-61.89274974739613
 20
-18.0
 10
-61.992847723782674
 20
-18.0
 10
-62.09294570016921
 20
-18.0
 10
-62.19304367655575
 20
-18.0
 10
-62.29314165294229
 20
-18.0
 10
-62.39323962932882
 20
-18.0
 10
-62.49333760571537
 20
-18.0
 10
-62.5934355821019
 20
-18.0
 10
-62.69353355848843
 20
-18.0
 10
-62.793631534874976
 20
-18.0
 10
-62.89372951126151
 20
-18.0
 10
-62.993827487648055
 20
-18.0
 10
-63.09392546403459
 20
-18.0
 10
-63.194023440421134
 20
-18.0
 10
-63.29412141680767
 20
-18.0
 10
-63.39421939319421
 20
-18.0
 10
-63.49431736958075
 20
-18.0
 10
-63.59441534596729
 20
-18.0
 10
-63.69451332235383
 20
-18.0
 10
-63.794611298740364
 20
-18.0
 10
-63.89470927512691
 20
-18.0
 10
-63.99480725151344
 20
-18.0
 10
-64.09490522789999
 20
-18.0
 10
-64.19500320428652
 20
-18.0
 10
-64.29510118067306
 20
-18.0
 10
-64.3951991570596
 20
-18.0
 10
-64.49529713344613
 20
-18.0
 10
-64.59539510983267
 20
-18.0
 10
-64.69549308621922
 20
-18.0
 10
-64.79559106260574
 20
-18.0
 10
-64.89568903899229
 20
-18.0
 10
-64.99578701537884
 20
-18.0
 10
-65.09588499176537
 20
-18.0
 10
-65.1959829681519
 20
-18.0
 10
-65.29608094453845
 20
-18.0
 10
-65.39617892092498
 20
-18.0
 10
-65.49627689731153
 20
-18.0
 10
-65.59637487369805
 20
-18.0
 10
-65.69647285008459
 20
-18.0
 10
-65.79657082647114
 20
-18.0
 10
-65.89666880285768
 20
-18.0
 10
-65.99676677924421
 20
-18.0
 10
-66.09686475563075
 20
-18.0
 10
-66.19696273201728
 20
-18.0
 10
-66.29706070840383
 20
-18.0
 10
-66.39715868479037
 20
-18.0
 10
-66.49725666117689
 20
-18.0
 10
-66.59735463756344
 20
-18.0
 10
-66.69745261394999
 20
-18.0
 10
-66.79755059033653
 20
-18.0
 10
-66.89764856672306
 20
-18.0
 10
-66.9977465431096
 20
-18.0
 10
-67.09784451949614
 20
-18.0
 10
-67.19794249588269
 20
-18.0
 10
-67.29804047226921
 20
-18.0
 10
-67.39813844865576
 20
-18.0
 10
-67.4982364250423
 20
-18.0
 10
-67.59833440142883
 20
-18.0
 10
-67.69843237781537
 20
-18.0
 10
-67.7985303542019
 20
-18.0
 10
-67.89862833058845
 20
-18.0
 10
-67.99872630697499
 20
-18.0
 10
-68.09882428336151
 20
-18.0
 10
-68.19892225974806
 20
-18.0
 10
-68.2990202361346
 20
-18.0
 10
-68.39911821252113
 20
-18.0
 10
-68.49921618890767
 20
-18.0
 10
-68.59931416529422
 20
-18.0
 10
-68.69941214168075
 20
-18.0
 10
-68.7995101180673
 20
-18.0
 10
-68.89960809445382
 20
-18.0
 10
-68.99970607084036
 20
-18.0
 10
-69.09980404722691
 20
-18.0
 10
-69.19990202361345
 20
-18.0
 10
-69.29999999999998
 20
-18.0
 10
-69.3998917372834
 20
-18.005560711494343
 10
-69.4985490987186
 20
-18.02217413150555
 10
-69.59475296180837
 20
-18.04963496573225
 10
-69.68731452226989
 20
-18.08760387689326
 10
-69.77508998425158
 20
-18.135611677964768
 10
-69.85699469437489
 20
-18.193065129988465
 10
-69.9320165449442
 20
-18.259254272806444
 10
-69.99922848069998
 20
-18.333361198135886
 10
-70.05779995456732
 20
-18.414470156573483
 10
-70.10700719083958
 20
-18.501578873635943
 10
-70.14624212897381
 20
-18.593610935002765
 10
-70.17501993747784
 20
-18.689429087915077
 10
-70.1929850050394
 20
-18.787849294363404
 10
-70.19991533486362
 20
-18.887655362407138
 10
-70.2
 20
-18.987752951682655
 10
-70.2
 20
-19.08785092806919
 10
-70.2
 20
-19.18794890445573
 10
-70.2
 20
-19.28804688084227
 10
-70.2
 20
-19.388144857228806
 10
-70.2
 20
-19.488242833615345
 10
-70.2
 20
-19.588340810001885
 10
-70.2
 20
-19.688438786388424
 10
-70.2
 20
-19.788536762774964
 10
-70.2
 20
-19.8886347391615
 10
-70.2
 20
-19.98873271554804
 10
-70.2
 20
-20.088830691934575
 10
-70.2
 20
-20.18892866832112
 10
-70.2
 20
-20.289026644707658
 10
-70.2
 20
-20.389124621094197
 10
-70.2
 20
-20.489222597480737
 10
-70.2
 20
-20.589320573867273
 10
-70.2
 20
-20.689418550253812
 10
-70.2
 20
-20.789516526640348
 10
-70.2
 20
-20.889614503026888
 10
-70.2
 20
-20.989712479413424
 10
-70.2
 20
-21.089810455799963
 10
-70.2
 20
-21.189908432186503
 10
-70.2
 20
-21.29000640857304
 10
-70.2
 20
-21.390104384959578
 10
-70.2
 20
-21.490202361346114
 10
-70.2
 20
-21.590300337732653
 10
-70.2
 20
-21.690398314119193
 10
-70.2
 20
-21.79049629050573
 10
-70.2
 20
-21.890594266892275
 10
-70.2
 20
-21.99069224327881
 10
-70.2
 20
-22.09079021966535
 10
-70.2
 20
-22.190888196051887
 10
-70.2
 20
-22.290986172438426
 10
-70.2
 20
-22.391084148824966
 10
-70.2
 20
-22.491182125211502
 10
-70.2
 20
-22.59128010159804
 10
-70.2
 20
-22.691378077984577
 10
-70.2
 20
-22.791476054371117
 10
-70.2
 20
-22.891574030757656
 10
-70.2
 20
-22.991672007144196
 10
-70.2
 20
-23.091769983530735
 10
-70.2
 20
-23.19186795991727
 10
-70.2
 20
-23.29196593630381
 10
-70.2
 20
-23.392063912690347
 10
-70.2
 20
-23.492161889076886
 10
-70.2
 20
-23.592259865463426
 10
-70.2
 20
-23.69235784184997
 10
-70.2
 20
-23.79245581823651
 10
-70.2
 20
-23.892553794623044
 10
-70.2
 20
-23.992651771009584
 10
-70.2
 20
-24.09274974739612
 10
-70.2
 20
-24.19284772378266
 10
-70.2
 20
-24.2929457001692
 10
-70.2
 20
-24.393043676555735
 10
-70.2
 20
-24.493141652942274
 10
-70.2
 20
-24.59323962932881
 10
-70.2
 20
-24.69333760571535
 10
-70.2
 20
-24.793435582101885
 10
-70.2
 20
-24.893533558488425
 10
-70.2
 20
-24.993631534874964
 10
-70.2
 20
-25.0937295112615
 10
-70.2
 20
-25.19382748764804
 10
-70.2
 20
-25.293925464034576
 10
-70.2
 20
-25.394023440421122
 10
-70.2
 20
-25.49412141680766
 10
-70.2
 20
-25.594219393194198
 10
-70.2
 20
-25.694317369580737
 10
-70.2
 20
-25.794415345967273
 10
-70.2
 20
-25.894513322353813
 10
-70.2
 20
-25.99461129874035
 10
-70.2
 20
-26.09470927512689
 10
-70.2
 20
-26.194807251513428
 10
-70.2
 20
-26.294905227899967
 10
-70.2
 20
-26.395003204286507
 10
-70.2
 20
-26.495101180673043
 10
-70.2
 20
-26.595199157059582
 10
-70.2
 20
-26.695297133446118
 10
-70.2
 20
-26.795395109832658
 10
-70.2
 20
-26.895493086219197
 10
-70.2
 20
-26.995591062605733
 10
-70.2
 20
-27.095689038992273
 10
-70.2
 20
-27.195787015378816
 10
-70.2
 20
-27.295884991765355
 10
-70.2
 20
-27.395982968151895
 10
-70.2
 20
-27.49608094453843
 10
-70.2
 20
-27.59617892092497
 10
-70.2
 20
-27.696276897311506
 10
-70.2
 20
-27.796374873698046
 10
-70.2
 20
-27.89647285008458
 10
-70.2
 20
-27.99657082647112
 10
-70.2
 20
-28.09666880285766
 10
-70.2
 20
-28.196766779244196
 10
-70.2
 20
-28.296864755630736
 10
-70.2
 20
-28.396962732017272
 10
-70.2
 20
-28.49706070840381
 10
-70.2
 20
-28.597158684790347
 10
-70.2
 20
-28.697256661176887
 10
-70.2
 20
-28.797354637563426
 10
-70.2
 20
-28.897452613949973
 10
-70.2
 20
-28.997550590336505
 10
-70.2
 20
-29.097648566723045
 10
-70.2
 20
-29.197746543109584
 10
-70.2
 20
-29.297844519496124
 10
-70.2
 20
-29.397942495882663
 10
-70.2
 20
-29.4980404722692
 10
-70.2
 20
-29.59813844865574
 10
-70.2
 20
-29.69823642504228
 10
-70.2
 20
-29.798334401428818
 10
-70.2
 20
-29.898432377815357
 10
-70.2
 20
-29.99853035420189
 10
-70.2
 20
-30.09862833058843
 10
-70.2
 20
-30.19872630697497
 10
-70.2
 20
-30.29882428336151
 10
-70.2
 20
-30.39892225974804
 10
-70.2
 20
-30.49902023613458
 10
-70.2
 20
-30.59911821252112
 10
-70.2
 20
-30.699216188907666
 10
-70.2
 20
-30.799314165294206
 10
-70.2
 20
-30.899412141680745
 10
-70.2
 20
-30.999510118067285
 10
-70.2
 20
-31.099608094453824
 10
-70.2
 20
-31.199706070840357
 10
-70.2
 20
-31.299804047226896
 10
-70.2
 20
-31.399902023613436
 10
-70.2
 20
-31.5
  0
LWPOLYLINE
  5
30
330
17
100
AcDbEntity
  8
0
100
AcDbPolyline
 90
489
 70
0
 10
-69.3
 20
-30.6
 10
-69.3
 20
-30.49988756808102
 10
-69.3
 20
-30.399775136162045
 10
-69.3
 20
-30.29966270424307
 10
-69.3
 20
-30.199550272324082
 10
-69.3
 20
-30.099437840405106
 10
-69.3
 20
-29.99932540848613
 10
-69.3
 20
-29.89921297656715
 10
-69.3
 20
-29.799100544648173
 10
-69.3
 20
-29.698988112729193
 10
-69.3
 20
-29.59887568081021
 10
-69.3
 20
-29.498763248891233
 10
-69.3
 20
-29.398650816972253
 10
-69.3
 20
-29.298538385053277
 10
-69.3
 20
-29.1984259531343
 10
-69.3
 20
-29.09831352121532
 10
-69.3
 20
-28.998201089296344
 10
-69.3
 20
-28.89808865737736
 10
-69.3
 20
-28.79797622545838
 10
-69.3
 20
-28.697863793539405
 10
-69.3
 20
-28.597751361620425
 10
-69.3
 20
-28.49763892970145
 10
-69.3
 20
-28.39752649778247
 10
-69.3
 20
-28.29741406586349
 10
-69.3
 20
-28.197301633944512
 10
-69.3
 20
-28.097189202025532
 10
-69.3
 20
-27.997076770106553
 10
-69.3
 20
-27.896964338187576
 10
-69.3
 20
-27.796851906268593
 10
-69.3
 20
-27.696739474349616
 10
-69.3
 20
-27.59662704243064
 10
-69.3
 20
-27.496514610511657
 10
-69.3
 20
-27.39640217859268
 10
-69.3
 20
-27.296289746673704
 10
-69.3
 20
-27.196177314754724
 10
-69.3
 20
-27.096064882835744
 10
-69.3
 20
-26.995952450916764
 10
-69.3
 20
-26.895840018997788
 10
-69.3
 20
-26.795727587078808
 10
-69.3
 20
-26.695615155159828
 10
-69.3
 20
-26.595502723240852
 10
-69.3
 20
-26.495390291321872
 10
-69.3
 20
-26.395277859402892
 10
-69.3
 20
-26.295165427483916
 10
-69.3
 20
-26.195052995564936
 10
-69.3
 20
-26.094940563645956
 10
-69.3
 20
-25.99482813172698
 10
-69.3
 20
-25.894715699808
 10
-69.3
 20
-25.79460326788902
 10
-69.3
 20
-25.694490835970043
 10
-69.3
 20
-25.59437840405106
 10
-69.3
 20
-25.494265972132084
 10
-69.3
 20
-25.394153540213107
 10
-69.3
 20
-25.294041108294127
 10
-69.3
 20
-25.193928676375148
 10
-69.3
 20
-25.093816244456168
 10
-69.3
 20
-24.99370381253719
 10
-69.3
 20
-24.89359138061821
 10
-69.3
 20
-24.79347894869923
 10
-69.3
 20
-24.693366516780255
 10
-69.3
 20
-24.593254084861275
 10
-69.3
 20
-24.493141652942295
 10
-69.3
 20
-24.39302922102332
 10
-69.3
 20
-24.29291678910434
 10
-69.3
 20
-24.19280435718536
 10
-69.3
 20
-24.092691925266383
 10
-69.3
 20
-23.9925794933474
 10
-69.3
 20
-23.892467061428423
 10
-69.3
 20
-23.792354629509447
 10
-69.3
 20
-23.692242197590467
 10
-69.3
 20
-23.592129765671487
 10
-69.3
 20
-23.49201733375251
 10
-69.3
 20
-23.39190490183353
 10
-69.3
 20
-23.29179246991455
 10
-69.3
 20
-23.19168003799557
 10
-69.3
 20
-23.091567606076595
 10
-69.3
 20
-22.991455174157615
 10
-69.3
 20
-22.891342742238635
 10
-69.3
 20
-22.79123031031966
 10
-69.3
 20
-22.69111787840068
 10
-69.3
 20
-22.5910054464817
 10
-69.3
 20
-22.490893014562722
 10
-69.3
 20
-22.390780582643742
 10
-69.3
 20
-22.290668150724763
 10
-69.3
 20
-22.190555718805786
 10
-69.3
 20
-22.090443286886806
 10
-69.3
 20
-21.990330854967826
 10
-69.3
 20
-21.89021842304885
 10
-69.3
 20
-21.79010599112987
 10
-69.3
 20
-21.68999355921089
 10
-69.3
 20
-21.589881127291914
 10
-69.3
 20
-21.489768695372934
 10
-69.3
 20
-21.389656263453958
 10
-69.3
 20
-21.289543831534974
 10
-69.3
 20
-21.189431399615998
 10
-69.3
 20
-21.08931896769702
 10
-69.3
 20
-20.989206535778038
 10
-69.3
 20
-20.889094103859062
 10
-69.3
 20
-20.788981671940086
 10
-69.3
 20
-20.688869240021102
 10
-69.3
 20
-20.588756808102126
 10
-69.3
 20
-20.488644376183146
 10
-69.3
 20
-20.388531944264166
 10
-69.3
 20
-20.28841951234519
 10
-69.3
 20
-20.18830708042621
 10
-69.3
 20
-20.088194648507233
 10
-69.3
 20
-19.988082216588253
 10
-69.3
 20
-19.887969784669274
 10
-69.29991808797465
 20
-19.78785772113358
 10
-69.29300840287972
 20
-19.688035753982653
 10
-69.27506050675326
 20
-19.589597743546513
 10
-69.24629624819649
 20
-19.493760452768495
 10
-69.20707117364665
 20
-19.40170849787045
 10
-69.15787013257352
 20
-19.31457970566425
 10
-69.09930128439929
 20
-19.2334510492133
 10
-69.0320885812211
 20
-19.159325335689097
 10
-68.95706281925465
 20
-19.09311881097028
 10
-68.87515136960941
 20
-19.03564983420012
 10
-68.78736671533056
 20
-18.987628762292747
 10
-68.69479393639732
 20
-18.949649169422777
 10
-68.59857729737243
 20
-18.92218051003167
 10
-68.49990610348847
 20
-18.90556231604111
 10
-68.4
 20
-18.900000000000002
 10
-68.29988756808102
 20
-18.900000000000002
 10
-68.19977513616205
 20
-18.900000000000002
 10
-68.09966270424306
 20
-18.900000000000002
 10
-67.99955027232409
 20
-18.900000000000002
 10
-67.89943784040511
 20
-18.900000000000002
 10
-67.79932540848613
 20
-18.900000000000002
 10
-67.69921297656715
 20
-18.900000000000002
 10
-67.59910054464817
 20
-18.900000000000002
 10
-67.4989881127292
 20
-18.900000000000002
 10
-67.3988756808102
 20
-18.900000000000002
 10
-67.29876324889123
 20
-18.900000000000002
 10
-67.19865081697226
 20
-18.900000000000002
 10
-67.09853838505327
 20
-18.900000000000002
 10
-66.9984259531343
 20
-18.900000000000002
 10
-66.89831352121531
 20
-18.900000000000002
 10
-66.79820108929634
 20
-18.900000000000002
 10
-66.69808865737735
 20
-18.900000000000002
 10
-66.59797622545838
 20
-18.900000000000002
 10
-66.49786379353941
 20
-18.900000000000002
 10
-66.39775136162042
 20
-18.900000000000002
 10
-66.29763892970145
 20
-18.900000000000002
 10
-66.19752649778246
 20
-18.900000000000002
 10
-66.09741406586348
 20
-18.900000000000002
 10
-65.99730163394452
 20
-18.900000000000002
 10
-65.89718920202554
 20
-18.900000000000002
 10
-65.79707677010656
 20
-18.900000000000002
 10
-65.69696433818757
 20
-18.900000000000002
 10
-65.5968519062686
 20
-18.900000000000002
 10
-65.49673947434961
 20
-18.900000000000002
 10
-65.39662704243064
 20
-18.900000000000002
 10
-65.29651461051166
 20
-18.900000000000002
 10
-65.19640217859268
 20
-18.900000000000002
 10
-65.0962897466737
 20
-18.900000000000002
 10
-64.99617731475472
 20
-18.900000000000002
 10
-64.89606488283574
 20
-18.900000000000002
 10
-64.79595245091676
 20
-18.900000000000002
 10
-64.6958400189978
 20
-18.900000000000002
 10
-64.59572758707881
 20
-18.900000000000002
 10
-64.49561515515983
 20
-18.900000000000002
 10
-64.39550272324085
 20
-18.900000000000002
 10
-64.29539029132187
 20
-18.900000000000002
 10
-64.19527785940289
 20
-18.900000000000002
 10
-64.09516542748392
 20
-18.900000000000002
 10
-63.99505299556494
 20
-18.900000000000002
 10
-63.89494056364596
 20
-18.900000000000002
 10
-63.79482813172699
 20
-18.900000000000002
 10
-63.694715699808
 20
-18.900000000000002
 10
-63.59460326788902
 20
-18.900000000000002
 10
-63.49449083597005
 20
-18.900000000000002
 10
-63.39437840405106
 20
-18.900000000000002
 10
-63.29426597213209
 20
-18.900000000000002
 10
-63.19415354021311
 20
-18.900000000000002
 10
-63.094041108294135
 20
-18.900000000000002
 10
-62.99392867637515
 20
-18.900000000000002
 10
-62.89381624445618
 20
-18.900000000000002
 10
-62.793703812537196
 20
-18.900000000000002
 10
-62.69359138061821
 20
-18.900000000000002
 10
-62.59347894869924
 20
-18.900000000000002
 10
-62.493366516780256
 20
-18.900000000000002
 10
-62.39325408486128
 20
-18.900000000000002
 10
-62.2931416529423
 20
-18.900000000000002
 10
-62.19302922102333
 20
-18.900000000000002
 10
-62.09291678910434
 20
-18.900000000000002
 10
-61.99280435718536
 20
-18.900000000000002
 10
-61.89269192526639
 20
-18.900000000000002
 10
-61.792579493347404
 20
-18.900000000000002
 10
-61.69246706142843
 20
-18.900000000000002
 10
-61.59235462950945
 20
-18.900000000000002
 10
-61.492242197590464
 20
-18.900000000000002
 10
-61.39212976567149
 20
-18.900000000000002
 10
-61.29201733375251
 20
-18.900000000000002
 10
-61.19190490183354
 20
-18.900000000000002
 10
-61.09179246991455
 20
-18.900000000000002
 10
-60.991680037995586
 20
-18.900000000000002
 10
-60.8915676060766
 20
-18.900000000000002
 10
-60.791455174157626
 20
-18.900000000000002
 10
-60.691342742238646
 20
-18.900000000000002
 10
-60.59123031031966
 20
-18.900000000000002
 10
-60.491117878400686
 20
-18.900000000000002
 10
-60.39100544648171
 20
-18.900000000000002
 10
-60.290893014562734
 20
-18.900000000000002
 10
-60.19078058264375
 20
-18.900000000000002
 10
-60.090668150724774
 20
-18.900000000000002
 10
-59.990555718805794
 20
-18.900000000000002
 10
-59.89044328688682
 20
-18.900000000000002
 10
-59.790330854967834
 20
-18.900000000000002
 10
-59.690218423048854
 20
-18.900000000000002
 10
-59.59010599112988
 20
-18.900000000000002
 10
-59.489993559210895
 20
-18.900000000000002
 10
-59.38988112729193
 20
-18.900000000000002
 10
-59.28976869537294
 20
-18.900000000000002
 10
-59.18965626345397
 20
-18.900000000000002
 10
-59.08954383153499
 20
-18.900000000000002
 10
-58.989431399616
 20
-18.900000000000002
 10
-58.88931896769703
 20
-18.900000000000002
 10
-58.78920653577805
 20
-18.900000000000002
 10
-58.68909410385908
 20
-18.900000000000002
 10
-58.58898167194009
 20
-18.900000000000002
 10
-58.48886924002112
 20
-18.900000000000002
 10
-58.38875680810214
 20
-18.900000000000002
 10
-58.288644376183164
 20
-18.900000000000002
 10
-58.18853194426418
 20
-18.900000000000002
 10
-58.0884195123452
 20
-18.900000000000002
 10
-57.988307080426225
 20
-18.900000000000002
 10
-57.88819464850724
 20
-18.900000000000002
 10
-57.78808221658827
 20
-18.900000000000002
 10
-57.687969784669285
 20
-18.900000000000002
 10
-57.58785772113359
 20
-18.90008191202536
 10
-57.488035753982665
 20
-18.906991597120292
 10
-57.389597743546524
 20
-18.924939493246733
 10
-57.29376045276851
 20
-18.953703751803513
 10
-57.20170849787046
 20
-18.992928826353342
 10
-57.11457970566426
 20
-19.042129867426482
 10
-57.03345104921331
 20
-19.100698715600707
 10
-56.9593253356891
 20
-19.16791141877889
 10
-56.893118810970286
 20
-19.24293718074535
 10
-56.83564983420013
 20
-19.324848630390576
 10
-56.787628762292755
 20
-19.412633284669432
 10
-56.74964916942278
 20
-19.505206063602675
 10
-56.72218051003167
 20
-19.601422702627563
 10
-56.70556231604111
 20
-19.700093896511515
 10
-56.7
 20
-19.79999999999999
 10
-56.7
 20
-19.900112431918966
 10
-56.7
 20
-20.000224863837943
 10
-56.7
 20
-20.100337295756926
 10
-56.7
 20
-20.200449727675906
 10
-56.7
 20
-20.300562159594882
 10
-56.7
 20
-20.400674591513862
 10
-56.7
 20
-20.500787023432842
 10
-56.7
 20
-20.60089945535182
 10
-56.7
 20
-20.7010118872708
 10
-56.7
 20
-20.801124319189775
 10
-56.7
 20
-20.901236751108755
 10
-56.7
 20
-21.001349183027735
 10
-56.7
 20
-21.10146161494671
 10
-56.7
 20
-21.20157404686569
 10
-56.7
 20
-21.301686478784667
 10
-56.7
 20
-21.401798910703647
 10
-56.7
 20
-21.501911342622627
 10
-56.7
 20
-21.602023774541603
 10
-56.7
 20
-21.70213620646058
 10
-56.7
 20
-21.802248638379567
 10
-56.7
 20
-21.90236107029854
 10
-56.7
 20
-22.00247350221752
 10
-56.7
 20
-22.102585934136496
 10
-56.7
 20
-22.20269836605548
 10
-56.7
 20
-22.30281079797446
 10
-56.7
 20
-22.40292322989343
 10
-56.7
 20
-22.503035661812408
 10
-56.7
 20
-22.603148093731388
 10
-56.7
 20
-22.70326052565037
 10
-56.7
 20
-22.803372957569348
 10
-56.7
 20
-22.903485389488328
 10
-56.7
 20
-23.0035978214073
 10
-56.7
 20
-23.103710253326287
 10
-56.7
 20
-23.203822685245264
 10
-56.7
 20
-23.30393511716424
 10
-56.7
 20
-23.40404754908322
 10
-56.7
 20
-23.504159981002193
 10
-56.7
 20
-23.604272412921176
 10
-56.7
 20
-23.704384844840156
 10
-56.7
 20
-23.804497276759133
 10
-56.7
 20
-23.904609708678112
 10
-56.7
 20
-24.004722140597092
 10
-56.7
 20
-24.10483457251607
 10
-56.7
 20
-24.20494700443505
 10
-56.7
 20
-24.305059436354025
 10
-56.7
 20
-24.405171868273005
 10
-56.7
 20
-24.505284300191985
 10
-56.7
 20
-24.60539673211096
 10
-56.7
 20
-24.70550916402994
 10
-56.7
 20
-24.805621595948917
 10
-56.7
 20
-24.905734027867897
 10
-56.7
 20
-25.005846459786877
 10
-56.7
 20
-25.105958891705853
 10
-56.7
 20
-25.206071323624833
 10
-56.7
 20
-25.306183755543817
 10
-56.7
 20
-25.406296187462793
 10
-56.7
 20
-25.50640861938177
 10
-56.7
 20
-25.606521051300746
 10
-56.7
 20
-25.70663348321973
 10
-56.7
 20
-25.80674591513871
 10
-56.7
 20
-25.906858347057685
 10
-56.7
 20
-26.00697077897666
 10
-56.7
 20
-26.107083210895638
 10
-56.7
 20
-26.20719564281462
 10
-56.7
 20
-26.3073080747336
 10
-56.7
 20
-26.407420506652578
 10
-56.7
 20
-26.507532938571554
 10
-56.7
 20
-26.607645370490538
 10
-56.7
 20
-26.707757802409514
 10
-56.7
 20
-26.80787023432849
 10
-56.7
 20
-26.90798266624747
 10
-56.7
 20
-27.00809509816645
 10
-56.7
 20
-27.10820753008543
 10
-56.7
 20
-27.208319962004406
 10
-56.7
 20
-27.308432393923383
 10
-56.7
 20
-27.408544825842363
 10
-56.7
 20
-27.508657257761342
 10
-56.7
 20
-27.60876968968032
 10
-56.7
 20
-27.7088821215993
 10
-56.7
 20
-27.808994553518275
 10
-56.7
 20
-27.90910698543726
 10
-56.7
 20
-28.009219417356235
 10
-56.7
 20
-28.10933184927521
 10
-56.7
 20
-28.20944428119419
 10
-56.7
 20
-28.309556713113174
 10
-56.7
 20
-28.40966914503215
 10
-56.7
 20
-28.509781576951127
 10
-56.7
 20
-28.609894008870103
 10
-56.7
 20
-28.710006440789083
 10
-56.7
 20
-28.810118872708063
 10
-56.7
 20
-28.91023130462704
 10
-56.7
 20
-29.01034373654602
 10
-56.7
 20
-29.110456168464996
 10
-56.7
 20
-29.21056860038398
 10
-56.7
 20
-29.31068103230296
 10
-56.7
 20
-29.410793464221936
 10
-56.7
 20
-29.510905896140915
 10
-56.7
 20
-29.61101832805989
 10
-56.7
 20
-29.711130759978875
 10
-56.7
 20
-29.811243191897848
 10
-56.7
 20
-29.911355623816824
 10
-56.7
 20
-30.011468055735804
 10
-56.7
 20
-30.111580487654788
 10
-56.7
 20
-30.211692919573764
 10
-56.7
 20
-30.311805351492744
 10
-56.7
 20
-30.41191778341172
 10
-56.7
 20
-30.512030215330704
 10
-56.70008191202536
 20
-30.612142278866393
 10
-56.706991597120286
 20
-30.71196424601732
 10
-56.72493949324673
 20
-30.81040225645346
 10
-56.753703751803506
 20
-30.906239547231475
 10
-56.79292882635334
 20
-30.998291502129533
 10
-56.84212986742647
 20
-31.085420294335727
 10
-56.90069871560069
 20
-31.166548950786677
 10
-56.967911418778876
 20
-31.240674664310887
 10
-57.04293718074534
 20
-31.306881189029703
 10
-57.12484863039057
 20
-31.364350165799863
 10
-57.21263328466942
 20
-31.412371237707244
 10
-57.30520606360266
 20
-31.450350830577214
 10
-57.401422702627556
 20
-31.477819489968326
 10
-57.5000938965115
 20
-31.494437683958893
 10
-57.59999999999997
 20
-31.5
 10
-57.700112431918946
 20
-31.5
 10
-57.80022486383793
 20
-31.5
 10
-57.90033729575691
 20
-31.5
 10
-58.000449727675885
 20
-31.5
 10
-58.10056215959487
 20
-31.5
 10
-58.200674591513845
 20
-31.5
 10
-58.300787023432825
 20
-31.5
 10
-58.4008994553518
 20
-31.5
 10
-58.501011887270785
 20
-31.5
 10
-58.60112431918975
 20
-31.5
 10
-58.70123675110874
 20
-31.5
 10
-58.801349183027725
 20
-31.5
 10
-58.90146161494669
 20
-31.5
 10
-59.00157404686568
 20
-31.5
 10
-59.10168647878465
 20
-31.5
 10
-59.20179891070363
 20
-31.5
 10
-59.30191134262262
 20
-31.5
 10
-59.40202377454159
 20
-31.5
 10
-59.50213620646056
 20
-31.5
 10
-59.60224863837954
 20
-31.5
 10
-59.70236107029853
 20
-31.5
 10
-59.8024735022175
 20
-31.5
 10
-59.90258593413648
 20
-31.5
 10
-60.00269836605547
 20
-31.5
 10
-60.10281079797444
 20
-31.5
 10
-60.20292322989342
 20
-31.5
 10
-60.303035661812395
 20
-31.5
 10
-60.40314809373138
 20
-31.5
 10
-60.50326052565035
 20
-31.5
 10
-60.603372957569334
 20
-31.5
 10
-60.70348538948831
 20
-31.5
 10
-60.80359782140729
 20
-31.5
 10
-60.903710253326274
 20
-31.5
 10
-61.00382268524525
 20
-31.5
 10
-61.10393511716423
 20
-31.5
 10
-61.2040475490832
 20
-31.5
 10
-61.304159981002186
 20
-31.5
 10
-61.40427241292116
 20
-31.5
 10
-61.50438484484014
 20
-31.5
 10
-61.60449727675911
 20
-31.5
 10
-61.7046097086781
 20
-31.5
 10
-61.80472214059708
 20
-31.5
 10
-61.90483457251605
 20
-31.5
 10
-62.00494700443504
 20
-31.5
 10
-62.105059436354004
 20
-31.5
 10
-62.20517186827299
 20
-31.5
 10
-62.30528430019198
 20
-31.5
 10
-62.405396732110944
 20
-31.5
 10
-62.50550916402992
 20
-31.5
 10
-62.605621595948904
 20
-31.5
 10
-62.705734027867884
 20
-31.5
 10
-62.805846459786856
 20
-31.5
 10
-62.90595889170584
 20
-31.5
 10
-63.006071323624816
 20
-31.5
 10
-63.106183755543796
 20
-31.5
 10
-63.20629618746278
 20
-31.5
 10
-63.306408619381756
 20
-31.5
 10
-63.406521051300736
 20
-31.5
 10
-63.50663348321971
 20
-31.5
 10
-63.606745915138696
 20
-31.5
 10
-63.70685834705766
 20
-31.5
 10
-63.80697077897665
 20
-31.5
 10
-63.90708321089562
 20
-31.5
 10
-64.00719564281461
 20
-31.5
 10
-64.1073080747336
 20
-31.5
 10
-64.20742050665255
 20
-31.5
 10
-64.30753293857154
 20
-31.5
 10
-64.40764537049051
 20
-31.5
 10
-64.5077578024095
 20
-31.5
 10
-64.60787023432847
 20
-31.5
 10
-64.70798266624746
 20
-31.5
 10
-64.80809509816643
 20
-31.5
 10
-64.9082075300854
 20
-31.5
 10
-65.00831996200439
 20
-31.5
 10
-65.10843239392337
 20
-31.5
 10
-65.20854482584235
 20
-31.5
 10
-65.30865725776134
 20
-31.5
 10
-65.40876968968031
 20
-31.5
 10
-65.50888212159929
 20
-31.5
 10
-65.60899455351826
 20
-31.5
 10
-65.70910698543724
 20
-31.5
 10
-65.80921941735622
 20
-31.5
 10
-65.9093318492752
 20
-31.5
 10
-66.00944428119418
 20
-31.5
 10
-66.10955671311315
 20
-31.5
 10
-66.20966914503214
 20
-31.5
 10
-66.30978157695111
 20
-31.5
 10
-66.4098940088701
 20
-31.5
 10
-66.51000644078907
 20
-31.5
 10
-66.61011887270806
 20
-31.5
 10
-66.71023130462703
 20
-31.5
 10
-66.810343736546
 20
-31.5
 10
-66.91045616846498
 20
-31.5
 10
-67.01056860038396
 20
-31.5
 10
-67.11068103230295
 20
-31.5
 10
-67.21079346422192
 20
-31.5
 10
-67.31090589614091
 20
-31.5
 10
-67.41101832805987
 20
-31.5
 10
-67.51113075997885
 20
-31.5
 10
-67.61124319189783
 20
-31.5
 10
-67.71135562381681
 20
-31.5
 10
-67.81146805573579
 20
-31.5
 10
-67.91158048765477
 20
-31.5
 10
-68.01169291957375
 20
-31.5
 10
-68.11180535149272
 20
-31.5
 10
-68.2119177834117
 20
-31.5
 10
-68.3120302153307
 20
-31.5
 10
-68.41214227886637
 20
-31.49991808797464
 10
-68.51196424601731
 20
-31.493008402879713
 10
-68.61040225645344
 20
-31.475060506753277
 10
-68.70623954723146
 20
-31.4462962481965
 10
-68.79829150212952
 20
-31.40707117364667
 10
-68.88542029433572
 20
-31.35787013257354
 10
-68.96654895078666
 20
-31.299301284399316
 10
-69.04067466431087
 20
-31.232088581221138
 10
-69.10688118902969
 20
-31.157062819254676
 10
-69.16435016579985
 20
-31.07515136960945
 10
-69.21237123770725
 20
-30.9873667153306
 10
-69.2503508305772
 20
-30.894793936397363
 10
-69.27781948996832
 20
-30.798577297372464
 10
-69.29443768395889
 20
-30.699906103488523
 10
-69.3
 20
-30.6
  0
LWPOLYLINE
  5
31
330
17
100
AcDbEntity
  8
0
100
AcDbPolyline
 90
561
 70
0
 10
-66.60000000000001
 20
-51.300000000000004
 10
-66.59443928850567
 20
-51.39989173728342
 10
-66.57782586849446
 20
-51.49854909871861
 10
-66.55036503426774
 20
-51.59475296180839
 10
-66.51239612310674
 20
-51.687314522269894
 10
-66.46438832203522
 20
-51.7750899842516
 10
-66.40693487001153
 20
-51.856994694374904
 10
-66.34074572719355
 20
-51.93201654494422
 10
-66.2666388018641
 20
-51.99922848069999
 10
-66.18552984342651
 20
-52.05779995456732
 10
-66.09842112636404
 20
-52.107007190839596
 10
-66.00638906499722
 20
-52.14624212897381
 10
-65.9105709120849
 20
-52.17501993747784
 10
-65.81215070563658
 20
-52.192985005039404
 10
-65.71234463759285
 20
-52.19991533486362
 10
-65.61224704831733
 20
-52.2
 10
-65.51214907193078
 20
-52.2
 10
-65.41205109554426
 20
-52.2
 10
-65.31195311915772
 20
-52.2
 10
-65.21185514277117
 20
-52.2
 10
-65.11175716638463
 20
-52.2
 10
-65.0116591899981
 20
-52.2
 10
-64.91156121361156
 20
-52.2
 10
-64.81146323722501
 20
-52.2
 10
-64.71136526083848
 20
-52.2
 10
-64.61126728445196
 20
-52.2
 10
-64.5111693080654
 20
-52.2
 10
-64.41107133167887
 20
-52.2
 10
-64.31097335529232
 20
-52.2
 10
-64.2108753789058
 20
-52.2
 10
-64.11077740251925
 20
-52.2
 10
-64.01067942613271
 20
-52.2
 10
-63.910581449746175
 20
-52.2
 10
-63.81048347335963
 20
-52.2
 10
-63.710385496973096
 20
-52.2
 10
-63.61028752058655
 20
-52.2
 10
-63.51018954420002
 20
-52.2
 10
-63.410091567813474
 20
-52.2
 10
-63.30999359142694
 20
-52.2
 10
-63.20989561504041
 20
-52.2
 10
-63.10979763865386
 20
-52.2
 10
-63.00969966226733
 20
-52.2
 10
-62.90960168588078
 20
-52.2
 10
-62.80950370949425
 20
-52.2
 10
-62.7094057331077
 20
-52.2
 10
-62.60930775672117
 20
-52.2
 10
-62.509209780334636
 20
-52.2
 10
-62.40911180394809
 20
-52.2
 10
-62.30901382756156
 20
-52.2
 10
-62.208915851175014
 20
-52.2
 10
-62.10881787478848
 20
-52.2
 10
-62.008719898401935
 20
-52.2
 10
-61.9086219220154
 20
-52.2
 10
-61.80852394562887
 20
-52.2
 10
-61.70842596924232
 20
-52.2
 10
-61.60832799285579
 20
-52.2
 10
-61.50823001646924
 20
-52.2
 10
-61.40813204008271
 20
-52.2
 10
-61.30803406369616
 20
-52.2
 10
-61.20793608730963
 20
-52.2
 10
-61.1078381109231
 20
-52.2
 10
-61.007740134536554
 20
-52.2
 10
-60.90764215815002
 20
-52.2
 10
-60.807544181763475
 20
-52.2
 10
-60.70744620537694
 20
-52.2
 10
-60.607348228990396
 20
-52.2
 10
-60.50725025260386
 20
-52.2
 10
-60.407152276217325
 20
-52.2
 10
-60.30705429983078
 20
-52.2
 10
-60.206956323444246
 20
-52.2
 10
-60.1068583470577
 20
-52.2
 10
-60.00676037067117
 20
-52.2
 10
-59.90666239428462
 20
-52.2
 10
-59.80656441789809
 20
-52.2
 10
-59.706466441511544
 20
-52.2
 10
-59.60636846512501
 20
-52.2
 10
-59.50627048873848
 20
-52.2
 10
-59.40617251235193
 20
-52.2
 10
-59.3060745359654
 20
-52.2
 10
-59.20597655957885
 20
-52.2
 10
-59.10587858319232
 20
-52.2
 10
-59.00578060680577
 20
-52.2
 10
-58.90568263041924
 20
-52.2
 10
-58.80558465403271
 20
-52.2
 10
-58.705486677646164
 20
-52.2
 10
-58.60538870125963
 20
-52.2
 10
-58.505290724873085
 20
-52.2
 10
-58.40519274848655
 20
-52.2
 10
-58.305094772100006
 20
-52.2
 10
-58.20499679571347
 20
-52.2
 10
-58.10489881932693
 20
-52.2
 10
-58.00480084294039
 20
-52.2
 10
-57.90470286655386
 20
-52.2
 10
-57.80460489016731
 20
-52.2
 10
-57.70450691378078
 20
-52.2
 10
-57.60440893739423
 20
-52.2
 10
-57.504310961007704
 20
-52.2
 10
-57.40421298462116
 20
-52.2
 10
-57.304115008234625
 20
-52.2
 10
-57.20401703184808
 20
-52.2
 10
-57.103919055461546
 20
-52.2
 10
-57.003821079075
 20
-52.2
 10
-56.90372310268847
 20
-52.2
 10
-56.803625126301924
 20
-52.2
 10
-56.70352714991539
 20
-52.2
 10
-56.60342917352885
 20
-52.2
 10
-56.50333119714231
 20
-52.2
 10
-56.40323322075577
 20
-52.2
 10
-56.30313524436923
 20
-52.2
 10
-56.203037267982694
 20
-52.2
 10
-56.10293929159616
 20
-52.2
 10
-56.00284131520962
 20
-52.2
 10
-55.90274333882308
 20
-52.2
 10
-55.80264536243654
 20
-52.2
 10
-55.70254738605
 20
-52.2
 10
-55.602449409663464
 20
-52.2
 10
-55.50235143327692
 20
-52.2
 10
-55.402253456890385
 20
-52.2
 10
-55.30215548050384
 20
-52.2
 10
-55.20205750411731
 20
-52.2
 10
-55.10195952773077
 20
-52.2
 10
-55.001861551344234
 20
-52.2
 10
-54.90176357495769
 20
-52.2
 10
-54.801665598571155
 20
-52.2
 10
-54.70156762218461
 20
-52.2
 10
-54.601469645798076
 20
-52.2
 10
-54.50137166941153
 20
-52.2
 10
-54.401273693025004
 20
-52.2
 10
-54.30117571663846
 20
-52.2
 10
-54.201077740251925
 20
-52.2
 10
-54.10097976386538
 20
-52.2
 10
-54.000881787478846
 20
-52.2
 10
-53.9007838110923
 20
-52.2
 10
-53.80068583470577
 20
-52.2
 10
-53.700587858319224
 20
-52.2
 10
-53.600489881932695
 20
-52.2
 10
-53.50039190554615
 20
-52.2
 10
-53.400293929159616
 20
-52.2
 10
-53.30019595277307
 20
-52.2
 10
-53.20009797638654
 20
-52.2
 10
-53.099999999999994
 20
-52.2
 10
-53.00010826271658
 20
-52.194439288505656
 10
-52.901450901281386
 20
-52.177825868494445
 10
-52.80524703819162
 20
-52.15036503426775
 10
-52.712685477730105
 20
-52.112396123106734
 10
-52.624910015748405
 20
-52.06438832203522
 10
-52.543005305625094
 20
-52.00693487001152
 10
-52.46798345505579
 20
-51.94074572719354
 10
-52.40077151930001
 20
-51.8666388018641
 10
-52.342200045432676
 20
-51.7855298434265
 10
-52.29299280916041
 20
-51.69842112636404
 10
-52.25375787102619
 20
-51.606389064997224
 10
-52.22498006252216
 20
-51.51057091208491
 10
-52.2070149949606
 20
-51.41215070563658
 10
-52.20008466513638
 20
-51.312344637592844
 10
-52.2
 20
-51.21224704831732
 10
-52.2
 20
-51.11214907193079
 10
-52.2
 20
-51.01205109554425
 10
-52.2
 20
-50.91195311915771
 10
-52.2
 20
-50.81185514277117
 10
-52.2
 20
-50.71175716638463
 10
-52.2
 20
-50.61165918999809
 10
-52.2
 20
-50.51156121361155
 10
-52.2
 20
-50.411463237225014
 10
-52.2
 20
-50.31136526083848
 10
-52.2
 20
-50.21126728445194
 10
-52.2
 20
-50.1111693080654
 10
-52.2
 20
-50.01107133167886
 10
-52.2
 20
-49.91097335529232
 10
-52.2
 20
-49.81087537890579
 10
-52.2
 20
-49.71077740251925
 10
-52.2
 20
-49.61067942613271
 10
-52.2
 20
-49.51058144974617
 10
-52.2
 20
-49.41048347335963
 10
-52.2
 20
-49.31038549697309
 10
-52.2
 20
-49.210287520586554
 10
-52.2
 20
-49.11018954420002
 10
-52.2
 20
-49.01009156781348
 10
-52.2
 20
-48.90999359142694
 10
-52.2
 20
-48.8098956150404
 10
-52.2
 20
-48.70979763865386
 10
-52.2
 20
-48.609699662267325
 10
-52.2
 20
-48.50960168588078
 10
-52.2
 20
-48.40950370949425
 10
-52.2
 20
-48.30940573310771
 10
-52.2
 20
-48.209307756721174
 10
-52.2
 20
-48.10920978033463
 10
-52.2
 20
-48.009111803948095
 10
-52.2
 20
-47.90901382756156
 10
-52.2
 20
-47.808915851175016
 10
-52.2
 20
-47.70881787478848
 10
-52.2
 20
-47.60871989840194
 10
-52.2
 20
-47.5086219220154
 10
-52.2
 20
-47.40852394562886
 10
-52.2
 20
-47.30842596924232
 10
-52.2
 20
-47.208327992855786
 10
-52.2
 20
-47.10823001646925
 10
-52.2
 20
-47.00813204008271
 10
-52.2
 20
-46.90803406369617
 10
-52.2
 20
-46.80793608730963
 10
-52.2
 20
-46.70783811092309
 10
-52.2
 20
-46.60774013453655
 10
-52.2
 20
-46.50764215815002
 10
-52.2
 20
-46.40754418176348
 10
-52.2
 20
-46.30744620537694
 10
-52.2
 20
-46.2073482289904
 10
-52.2
 20
-46.10725025260386
 10
-52.2
 20
-46.00715227621732
 10
-52.2
 20
-45.90705429983078
 10
-52.2
 20
-45.80695632344425
 10
-52.2
 20
-45.70685834705771
 10
-52.2
 20
-45.60676037067117
 10
-52.2
 20
-45.50666239428463
 10
-52.2
 20
-45.40656441789809
 10
-52.2
 20
-45.30646644151156
 10
-52.2
 20
-45.20636846512501
 10
-52.2
 20
-45.10627048873848
 10
-52.2
 20
-45.00617251235194
 10
-52.2
 20
-44.9060745359654
 10
-52.2
 20
-44.80597655957886
 10
-52.2
 20
-44.70587858319232
 10
-52.2
 20
-44.60578060680579
 10
-52.2
 20
-44.505682630419244
 10
-52.2
 20
-44.40558465403271
 10
-52.2
 20
-44.305486677646165
 10
-52.2
 20
-44.20538870125963
 10
-52.2
 20
-44.105290724873086
 10
-52.2
 20
-44.00519274848655
 10
-52.2
 20
-43.905094772100014
 10
-52.2
 20
-43.80499679571348
 10
-52.2
 20
-43.704898819326935
 10
-52.2
 20
-43.6048008429404
 10
-52.2
 20
-43.504702866553856
 10
-52.2
 20
-43.40460489016732
 10
-52.2
 20
-43.30450691378078
 10
-52.2
 20
-43.20440893739425
 10
-52.2
 20
-43.104310961007705
 10
-52.2
 20
-43.00421298462117
 10
-52.2
 20
-42.904115008234626
 10
-52.2
 20
-42.80401703184809
 10
-52.2
 20
-42.703919055461554
 10
-52.2
 20
-42.60382107907501
 10
-52.2
 20
-42.50372310268847
 10
-52.2
 20
-42.40362512630194
 10
-52.2
 20
-42.303527149915396
 10
-52.2
 20
-42.20342917352886
 10
-52.2
 20
-42.10333119714232
 10
-52.2
 20
-42.00323322075579
 10
-52.2
 20
-41.903135244369246
 10
-52.2
 20
-41.80303726798271
 10
-52.2
 20
-41.70293929159617
 10
-52.2
 20
-41.60284131520963
 10
-52.2
 20
-41.50274333882309
 10
-52.2
 20
-41.40264536243655
 10
-52.2
 20
-41.30254738605001
 10
-52.2
 20
-41.20244940966347
 10
-52.2
 20
-41.10235143327694
 10
-52.2
 20
-41.002253456890394
 10
-52.2
 20
-40.90215548050386
 10
-52.2
 20
-40.802057504117315
 10
-52.2
 20
-40.70195952773078
 10
-52.2
 20
-40.601861551344236
 10
-52.2
 20
-40.50176357495771
 10
-52.2
 20
-40.401665598571164
 10
-52.2
 20
-40.30156762218463
 10
-52.2
 20
-40.201469645798085
 10
-52.2
 20
-40.101371669411556
 10
-52.2
 20
-40.001273693025006
 10
-52.2
 20
-39.90117571663847
 10
-52.2
 20
-39.801077740251934
 10
-52.2
 20
-39.7009797638654
 10
-52.2
 20
-39.600881787478855
 10
-52.2
 20
-39.50078381109232
 10
-52.2
 20
-39.400685834705776
 10
-52.2
 20
-39.30058785831925
 10
-52.2
 20
-39.200489881932704
 10
-52.2
 20
-39.10039190554616
 10
-52.2
 20
-39.000293929159625
 10
-52.2
 20
-38.90019595277309
 10
-52.2
 20
-38.800097976386546
 10
-52.2
 20
-38.70000000000001
 10
-52.20556071149435
 20
-38.60010826271659
 10
-52.222174131505554
 20
-38.5014509012814
 10
-52.249634965732255
 20
-38.40524703819162
 10
-52.28760387689327
 20
-38.31268547773011
 10
-52.33561167796478
 20
-38.224910015748414
 10
-52.39306512998848
 20
-38.1430053056251
 10
-52.459254272806454
 20
-38.067983455055796
 10
-52.53336119813589
 20
-38.00077151930001
 10
-52.614470156573496
 20
-37.942200045432685
 10
-52.70157887363596
 20
-37.89299280916042
 10
-52.793610935002775
 20
-37.85375787102619
 10
-52.88942908791509
 20
-37.82498006252216
 10
-52.98784929436342
 20
-37.8070149949606
 10
-53.08765536240715
 20
-37.80008466513638
 10
-53.18775295168267
 20
-37.800000000000004
 10
-53.287850928069204
 20
-37.800000000000004
 10
-53.38794890445575
 20
-37.800000000000004
 10
-53.48804688084228
 20
-37.800000000000004
 10
-53.588144857228826
 20
-37.800000000000004
 10
-53.688242833615355
 20
-37.800000000000004
 10
-53.7883408100019
 20
-37.800000000000004
 10
-53.888438786388434
 20
-37.800000000000004
 10
-53.98853676277498
 20
-37.800000000000004
 10
-54.088634739161506
 20
-37.800000000000004
 10
-54.18873271554805
 20
-37.800000000000004
 10
-54.288830691934585
 20
-37.800000000000004
 10
-54.388928668321135
 20
-37.800000000000004
 10
-54.48902664470767
 20
-37.800000000000004
 10
-54.58912462109421
 20
-37.800000000000004
 10
-54.68922259748074
 20
-37.800000000000004
 10
-54.789320573867286
 20
-37.800000000000004
 10
-54.88941855025382
 20
-37.800000000000004
 10
-54.989516526640365
 20
-37.800000000000004
 10
-55.089614503026894
 20
-37.800000000000004
 10
-55.18971247941344
 20
-37.800000000000004
 10
-55.28981045579997
 20
-37.800000000000004
 10
-55.389908432186516
 20
-37.800000000000004
 10
-55.49000640857305
 20
-37.800000000000004
 10
-55.59010438495959
 20
-37.800000000000004
 10
-55.69020236134613
 20
-37.800000000000004
 10
-55.79030033773267
 20
-37.800000000000004
 10
-55.89039831411921
 20
-37.800000000000004
 10
-55.99049629050574
 20
-37.800000000000004
 10
-56.09059426689229
 20
-37.800000000000004
 10
-56.190692243278825
 20
-37.800000000000004
 10
-56.29079021966537
 20
-37.800000000000004
 10
-56.390888196051904
 20
-37.800000000000004
 10
-56.49098617243844
 20
-37.800000000000004
 10
-56.591084148824976
 20
-37.800000000000004
 10
-56.69118212521152
 20
-37.800000000000004
 10
-56.791280101598055
 20
-37.800000000000004
 10
-56.8913780779846
 20
-37.800000000000004
 10
-56.99147605437113
 20
-37.800000000000004
 10
-57.09157403075767
 20
-37.800000000000004
 10
-57.191672007144206
 20
-37.800000000000004
 10
-57.29176998353075
 20
-37.800000000000004
 10
-57.391867959917285
 20
-37.800000000000004
 10
-57.49196593630382
 20
-37.800000000000004
 10
-57.59206391269036
 20
-37.800000000000004
 10
-57.69216188907689
 20
-37.800000000000004
 10
-57.792259865463436
 20
-37.800000000000004
 10
-57.892357841849986
 20
-37.800000000000004
 10
-57.992455818236515
 20
-37.800000000000004
 10
-58.092553794623065
 20
-37.800000000000004
 10
-58.192651771009594
 20
-37.800000000000004
 10
-58.29274974739613
 20
-37.800000000000004
 10
-58.39284772378267
 20
-37.800000000000004
 10
-58.49294570016921
 20
-37.800000000000004
 10
-58.59304367655575
 20
-37.800000000000004
 10
-58.69314165294229
 20
-37.800000000000004
 10
-58.79323962932882
 20
-37.800000000000004
 10
-58.89333760571537
 20
-37.800000000000004
 10
-58.9934355821019
 20
-37.800000000000004
 10
-59.09353355848843
 20
-37.800000000000004
 10
-59.19363153487498
 20
-37.800000000000004
 10
-59.29372951126151
 20
-37.800000000000004
 10
-59.39382748764806
 20
-37.800000000000004
 10
-59.49392546403459
 20
-37.800000000000004
 10
-59.59402344042114
 20
-37.800000000000004
 10
-59.69412141680767
 20
-37.800000000000004
 10
-59.79421939319422
 20
-37.800000000000004
 10
-59.89431736958075
 20
-37.800000000000004
 10
-59.9944153459673
 20
-37.800000000000004
 10
-60.094513322353826
 20
-37.800000000000004
 10
-60.19461129874036
 20
-37.800000000000004
 10
-60.294709275126905
 20
-37.800000000000004
 10
-60.39480725151344
 20
-37.800000000000004
 10
-60.494905227899984
 20
-37.800000000000004
 10
-60.59500320428652
 20
-37.800000000000004
 10
-60.69510118067305
 20
-37.800000000000004
 10
-60.7951991570596
 20
-37.800000000000004
 10
-60.89529713344613
 20
-37.800000000000004
 10
-60.995395109832664
 20
-37.800000000000004
 10
-61.09549308621921
 20
-37.800000000000004
 10
-61.19559106260574
 20
-37.800000000000004
 10
-61.295689038992286
 20
-37.800000000000004
 10
-61.395787015378836
 20
-37.800000000000004
 10
-61.495884991765365
 20
-37.800000000000004
 10
-61.5959829681519
 20
-37.800000000000004
 10
-61.696080944538444
 20
-37.800000000000004
 10
-61.79617892092498
 20
-37.800000000000004
 10
-61.89627689731152
 20
-37.800000000000004
 10
-61.99637487369806
 20
-37.800000000000004
 10
-62.096472850084595
 20
-37.800000000000004
 10
-62.19657082647114
 20
-37.800000000000004
 10
-62.296668802857674
 20
-37.800000000000004
 10
-62.39676677924422
 20
-37.800000000000004
 10
-62.49686475563075
 20
-37.800000000000004
 10
-62.59696273201728
 20
-37.800000000000004
 10
-62.69706070840383
 20
-37.800000000000004
 10
-62.79715868479036
 20
-37.800000000000004
 10
-62.8972566611769
 20
-37.800000000000004
 10
-62.99735463756344
 20
-37.800000000000004
 10
-63.09745261394999
 20
-37.800000000000004
 10
-63.19755059033652
 20
-37.800000000000004
 10
-63.29764856672307
 20
-37.800000000000004
 10
-63.3977465431096
 20
-37.800000000000004
 10
-63.497844519496134
 20
-37.800000000000004
 10
-63.59794249588268
 20
-37.800000000000004
 10
-63.69804047226921
 20
-37.800000000000004
 10
-63.798138448655756
 20
-37.800000000000004
 10
-63.89823642504229
 20
-37.800000000000004
 10
-63.99833440142882
 20
-37.800000000000004
 10
-64.09843237781537
 20
-37.800000000000004
 10
-64.1985303542019
 20
-37.800000000000004
 10
-64.29862833058844
 20
-37.800000000000004
 10
-64.39872630697498
 20
-37.800000000000004
 10
-64.49882428336151
 20
-37.800000000000004
 10
-64.59892225974806
 20
-37.800000000000004
 10
-64.6990202361346
 20
-37.800000000000004
 10
-64.79911821252112
 20
-37.800000000000004
 10
-64.89921618890767
 20
-37.800000000000004
 10
-64.99931416529422
 20
-37.800000000000004
 10
-65.09941214168076
 20
-37.800000000000004
 10
-65.1995101180673
 20
-37.800000000000004
 10
-65.29960809445383
 20
-37.800000000000004
 10
-65.39970607084037
 20
-37.800000000000004
 10
-65.49980404722692
 20
-37.800000000000004
 10
-65.59990202361344
 20
-37.800000000000004
 10
-65.69999999999999
 20
-37.800000000000004
 10
-65.7998917372834
 20
-37.805560711494344
 10
-65.8985490987186
 20
-37.822174131505555
 10
-65.99475296180836
 20
-37.84963496573225
 10
-66.08731452226988
 20
-37.887603876893266
 10
-66.17508998425157
 20
-37.93561167796477
 10
-66.2569946943749
 20
-37.993065129988466
 10
-66.33201654494421
 20
-38.05925427280645
 10
-66.39922848069997
 20
-38.13336119813589
 10
-66.4577999545673
 20
-38.21447015657348
 10
-66.50700719083959
 20
-38.30157887363595
 10
-66.5462421289738
 20
-38.39361093500277
 10
-66.57501993747783
 20
-38.48942908791508
 10
-66.59298500503941
 20
-38.58784929436341
 10
-66.59991533486362
 20
-38.687655362407135
 10
-66.60000000000001
 20
-38.787752951682656
 10
-66.60000000000001
 20
-38.88785092806919
 10
-66.60000000000001
 20
-38.987948904455735
 10
-66.60000000000001
 20
-39.08804688084227
 10
-66.60000000000001
 20
-39.188144857228814
 10
-66.60000000000001
 20
-39.28824283361534
 10
-66.60000000000001
 20
-39.388340810001885
 10
-66.60000000000001
 20
-39.48843878638842
 10
-66.60000000000001
 20
-39.588536762774964
 10
-66.60000000000001
 20
-39.6886347391615
 10
-66.60000000000001
 20
-39.788732715548036
 10
-66.60000000000001
 20
-39.88883069193457
 10
-66.60000000000001
 20
-39.98892866832112
 10
-66.60000000000001
 20
-40.08902664470766
 10
-66.60000000000001
 20
-40.189124621094194
 10
-66.60000000000001
 20
-40.28922259748073
 10
-66.60000000000001
 20
-40.38932057386727
 10
-66.60000000000001
 20
-40.48941855025381
 10
-66.60000000000001
 20
-40.58951652664035
 10
-66.60000000000001
 20
-40.68961450302688
 10
-66.60000000000001
 20
-40.789712479413424
 10
-66.60000000000001
 20
-40.88981045579996
 10
-66.60000000000001
 20
-40.9899084321865
 10
-66.60000000000001
 20
-41.09000640857304
 10
-66.60000000000001
 20
-41.190104384959575
 10
-66.60000000000001
 20
-41.29020236134612
 10
-66.60000000000001
 20
-41.390300337732654
 10
-66.60000000000001
 20
-41.4903983141192
 10
-66.60000000000001
 20
-41.59049629050573
 10
-66.60000000000001
 20
-41.690594266892276
 10
-66.60000000000001
 20
-41.79069224327881
 10
-66.60000000000001
 20
-41.890790219665355
 10
-66.60000000000001
 20
-41.99088819605189
 10
-66.60000000000001
 20
-42.09098617243843
 10
-66.60000000000001
 20
-42.19108414882496
 10
-66.60000000000001
 20
-42.291182125211506
 10
-66.60000000000001
 20
-42.39128010159804
 10
-66.60000000000001
 20
-42.491378077984585
 10
-66.60000000000001
 20
-42.591476054371114
 10
-66.60000000000001
 20
-42.69157403075766
 10
-66.60000000000001
 20
-42.79167200714419
 10
-66.60000000000001
 20
-42.891769983530736
 10
-66.60000000000001
 20
-42.99186795991727
 10
-66.60000000000001
 20
-43.09196593630381
 10
-66.60000000000001
 20
-43.192063912690344
 10
-66.60000000000001
 20
-43.29216188907689
 10
-66.60000000000001
 20
-43.39225986546342
 10
-66.60000000000001
 20
-43.49235784184997
 10
-66.60000000000001
 20
-43.5924558182365
 10
-66.60000000000001
 20
-43.692553794623045
 10
-66.60000000000001
 20
-43.79265177100958
 10
-66.60000000000001
 20
-43.892749747396124
 10
-66.60000000000001
 20
-43.99284772378265
 10
-66.60000000000001
 20
-44.092945700169196
 10
-66.60000000000001
 20
-44.19304367655573
 10
-66.60000000000001
 20
-44.293141652942275
 10
-66.60000000000001
 20
-44.39323962932881
 10
-66.60000000000001
 20
-44.49333760571535
 10
-66.60000000000001
 20
-44.59343558210189
 10
-66.60000000000001
 20
-44.693533558488426
 10
-66.60000000000001
 20
-44.79363153487497
 10
-66.60000000000001
 20
-44.893729511261505
 10
-66.60000000000001
 20
-44.99382748764804
 10
-66.60000000000001
 20
-45.09392546403458
 10
-66.60000000000001
 20
-45.19402344042113
 10
-66.60000000000001
 20
-45.29412141680766
 10
-66.60000000000001
 20
-45.394219393194206
 10
-66.60000000000001
 20
-45.494317369580735
 10
-66.60000000000001
 20
-45.59441534596728
 10
-66.60000000000001
 20
-45.694513322353814
 10
-66.60000000000001
 20
-45.79461129874036
 10
-66.60000000000001
 20
-45.894709275126885
 10
-66.60000000000001
 20
-45.99480725151343
 10
-66.60000000000001
 20
-46.094905227899964
 10
-66.60000000000001
 20
-46.19500320428651
 10
-66.60000000000001
 20
-46.29510118067304
 10
-66.60000000000001
 20
-46.39519915705958
 10
-66.60000000000001
 20
-46.495297133446115
 10
-66.60000000000001
 20
-46.59539510983266
 10
-66.60000000000001
 20
-46.695493086219194
 10
-66.60000000000001
 20
-46.79559106260574
 10
-66.60000000000001
 20
-46.895689038992266
 10
-66.60000000000001
 20
-46.995787015378816
 10
-66.60000000000001
 20
-47.09588499176535
 10
-66.60000000000001
 20
-47.195982968151895
 10
-66.60000000000001
 20
-47.29608094453843
 10
-66.60000000000001
 20
-47.39617892092497
 10
-66.60000000000001
 20
-47.4962768973115
 10
-66.60000000000001
 20
-47.596374873698046
 10
-66.60000000000001
 20
-47.69647285008458
 10
-66.60000000000001
 20
-47.79657082647112
 10
-66.60000000000001
 20
-47.89666880285766
 10
-66.60000000000001
 20
-47.9967667792442
 10
-66.60000000000001
 20
-48.09686475563074
 10
-66.60000000000001
 20
-48.196962732017276
 10
-66.60000000000001
 20
-48.29706070840381
 10
-66.60000000000001
 20
-48.39715868479035
 10
-66.60000000000001
 20
-48.49725666117689
 10
-66.60000000000001
 20
-48.59735463756343
 10
-66.60000000000001
 20
-48.69745261394998
 10
-66.60000000000001
 20
-48.797550590336506
 10
-66.60000000000001
 20
-48.89764856672305
 10
-66.60000000000001
 20
-48.997746543109585
 10
-66.60000000000001
 20
-49.09784451949613
 10
-66.60000000000001
 20
-49.197942495882664
 10
-66.60000000000001
 20
-49.2980404722692
 10
-66.60000000000001
 20
-49.398138448655736
 10
-66.60000000000001
 20
-49.49823642504228
 10
-66.60000000000001
 20
-49.598334401428815
 10
-66.60000000000001
 20
-49.69843237781536
 10
-66.60000000000001
 20
-49.79853035420189
 10
-66.60000000000001
 20
-49.89862833058843
 10
-66.60000000000001
 20
-49.998726306974966
 10
-66.60000000000001
 20
-50.09882428336151
 10
-66.60000000000001
 20
-50.19892225974804
 10
-66.60000000000001
 20
-50.29902023613458
 10
-66.60000000000001
 20
-50.39911821252112
 10
-66.60000000000001
 20
-50.49921618890767
 10
-66.60000000000001
 20
-50.5993141652942
 10
-66.60000000000001
 20
-50.699412141680746
 10
-66.60000000000001
 20
-50.79951011806728
 10
-66.60000000000001
 20
-50.899608094453825
 10
-66.60000000000001
 20
-50.999706070840354
 10
-66.60000000000001
 20
-51.0998040472269
 10
-66.60000000000001
 20
-51.19990202361343
 10
-66.60000000000001
 20
-51.300000000000004
  0
LWPOLYLINE
  5
32
330
17
100
AcDbEntity
  8
0
100
AcDbPolyline
 90
489
 70
0
 10
-65.7
 20
-50.4
 10
-65.7
 20
-50.299887568081026
 10
-65.7
 20
-50.199775136162046
 10
-65.7
 20
-50.099662704243066
 10
-65.7
 20
-49.999550272324086
 10
-65.7
 20
-49.899437840405106
 10
-65.7
 20
-49.799325408486126
 10
-65.7
 20
-49.69921297656715
 10
-65.7
 20
-49.599100544648174
 10
-65.7
 20
-49.498988112729194
 10
-65.7
 20
-49.398875680810214
 10
-65.7
 20
-49.298763248891234
 10
-65.7
 20
-49.198650816972254
 10
-65.7
 20
-49.098538385053274
 10
-65.7
 20
-48.9984259531343
 10
-65.7
 20
-48.89831352121532
 10
-65.7
 20
-48.79820108929634
 10
-65.7
 20
-48.69808865737736
 10
-65.7
 20
-48.59797622545838
 10
-65.7
 20
-48.4978637935394
 10
-65.7
 20
-48.39775136162043
 10
-65.7
 20
-48.29763892970145
 10
-65.7
 20
-48.19752649778247
 10
-65.7
 20
-48.09741406586349
 10
-65.7
 20
-47.99730163394451
 10
-65.7
 20
-47.89718920202553
 10
-65.7
 20
-47.79707677010656
 10
-65.7
 20
-47.69696433818758
 10
-65.7
 20
-47.5968519062686
 10
-65.7
 20
-47.49673947434962
 10
-65.7
 20
-47.39662704243064
 10
-65.7
 20
-47.29651461051166
 10
-65.7
 20
-47.19640217859268
 10
-65.7
 20
-47.096289746673705
 10
-65.7
 20
-46.996177314754725
 10
-65.7
 20
-46.896064882835745
 10
-65.7
 20
-46.795952450916765
 10
-65.7
 20
-46.695840018997785
 10
-65.7
 20
-46.595727587078805
 10
-65.7
 20
-46.49561515515983
 10
-65.7
 20
-46.39550272324085
 10
-65.7
 20
-46.29539029132187
 10
-65.7
 20
-46.1952778594029
 10
-65.7
 20
-46.09516542748391
 10
-65.7
 20
-45.99505299556493
 10
-65.7
 20
-45.89494056364596
 10
-65.7
 20
-45.79482813172698
 10
-65.7
 20
-45.694715699808
 10
-65.7
 20
-45.59460326788902
 10
-65.7
 20
-45.49449083597004
 10
-65.7
 20
-45.39437840405106
 10
-65.7
 20
-45.29426597213208
 10
-65.7
 20
-45.19415354021311
 10
-65.7
 20
-45.09404110829413
 10
-65.7
 20
-44.99392867637515
 10
-65.7
 20
-44.89381624445617
 10
-65.7
 20
-44.79370381253719
 10
-65.7
 20
-44.69359138061821
 10
-65.7
 20
-44.593478948699236
 10
-65.7
 20
-44.493366516780256
 10
-65.7
 20
-44.393254084861276
 10
-65.7
 20
-44.2931416529423
 10
-65.7
 20
-44.193029221023316
 10
-65.7
 20
-44.092916789104336
 10
-65.7
 20
-43.99280435718536
 10
-65.7
 20
-43.892691925266384
 10
-65.7
 20
-43.792579493347404
 10
-65.7
 20
-43.692467061428424
 10
-65.7
 20
-43.59235462950945
 10
-65.7
 20
-43.492242197590464
 10
-65.7
 20
-43.392129765671484
 10
-65.7
 20
-43.29201733375251
 10
-65.7
 20
-43.19190490183353
 10
-65.7
 20
-43.09179246991455
 10
-65.7
 20
-42.99168003799558
 10
-65.7
 20
-42.89156760607659
 10
-65.7
 20
-42.79145517415761
 10
-65.7
 20
-42.69134274223864
 10
-65.7
 20
-42.59123031031966
 10
-65.7
 20
-42.49111787840068
 10
-65.7
 20
-42.39100544648171
 10
-65.7
 20
-42.29089301456273
 10
-65.7
 20
-42.19078058264374
 10
-65.7
 20
-42.09066815072477
 10
-65.7
 20
-41.99055571880579
 10
-65.7
 20
-41.89044328688681
 10
-65.7
 20
-41.79033085496783
 10
-65.7
 20
-41.690218423048854
 10
-65.7
 20
-41.59010599112987
 10
-65.7
 20
-41.48999355921089
 10
-65.7
 20
-41.389881127291915
 10
-65.7
 20
-41.289768695372935
 10
-65.7
 20
-41.189656263453955
 10
-65.7
 20
-41.08954383153498
 10
-65.7
 20
-40.989431399616
 10
-65.7
 20
-40.889318967697015
 10
-65.7
 20
-40.78920653577804
 10
-65.7
 20
-40.68909410385906
 10
-65.7
 20
-40.58898167194008
 10
-65.7
 20
-40.48886924002111
 10
-65.7
 20
-40.38875680810212
 10
-65.7
 20
-40.28864437618314
 10
-65.7
 20
-40.18853194426417
 10
-65.7
 20
-40.08841951234519
 10
-65.7
 20
-39.98830708042621
 10
-65.7
 20
-39.88819464850723
 10
-65.7
 20
-39.78808221658826
 10
-65.7
 20
-39.68796978466927
 10
-65.68785772113358
 20
-39.59991808797464
 10
-65.58803575398265
 20
-39.593008402879704
 10
-65.48959774354651
 20
-39.57506050675327
 10
-65.3937604527685
 20
-39.546296248196484
 10
-65.30170849787045
 20
-39.50707117364665
 10
-65.21457970566425
 20
-39.45787013257352
 10
-65.1334510492133
 20
-39.39930128439929
 10
-65.05932533568911
 20
-39.33208858122111
 10
-64.99311881097029
 20
-39.25706281925464
 10
-64.93564983420013
 20
-39.17515136960942
 10
-64.88762876229275
 20
-39.08736671533056
 10
-64.84964916942278
 20
-38.99479393639732
 10
-64.82218051003166
 20
-38.89857729737243
 10
-64.8055623160411
 20
-38.799906103488475
 10
-64.8
 20
-38.7
 10
-64.69988756808102
 20
-38.7
 10
-64.59977513616205
 20
-38.7
 10
-64.49966270424306
 20
-38.7
 10
-64.39955027232409
 20
-38.7
 10
-64.2994378404051
 20
-38.7
 10
-64.19932540848612
 20
-38.7
 10
-64.09921297656715
 20
-38.7
 10
-63.999100544648165
 20
-38.7
 10
-63.89898811272919
 20
-38.7
 10
-63.79887568081021
 20
-38.7
 10
-63.69876324889124
 20
-38.7
 10
-63.59865081697225
 20
-38.7
 10
-63.49853838505327
 20
-38.7
 10
-63.3984259531343
 20
-38.7
 10
-63.29831352121531
 20
-38.7
 10
-63.19820108929635
 20
-38.7
 10
-63.09808865737736
 20
-38.7
 10
-62.99797622545837
 20
-38.7
 10
-62.89786379353941
 20
-38.7
 10
-62.79775136162042
 20
-38.7
 10
-62.69763892970145
 20
-38.7
 10
-62.59752649778247
 20
-38.7
 10
-62.49741406586348
 20
-38.7
 10
-62.39730163394451
 20
-38.7
 10
-62.297189202025535
 20
-38.7
 10
-62.197076770106555
 20
-38.7
 10
-62.09696433818757
 20
-38.7
 10
-61.996851906268596
 20
-38.7
 10
-61.896739474349616
 20
-38.7
 10
-61.79662704243064
 20
-38.7
 10
-61.696514610511656
 20
-38.7
 10
-61.596402178592676
 20
-38.7
 10
-61.4962897466737
 20
-38.7
 10
-61.396177314754716
 20
-38.7
 10
-61.29606488283575
 20
-38.7
 10
-61.195952450916764
 20
-38.7
 10
-61.09584001899779
 20
-38.7
 10
-60.99572758707881
 20
-38.7
 10
-60.895615155159824
 20
-38.7
 10
-60.79550272324085
 20
-38.7
 10
-60.69539029132187
 20
-38.7
 10
-60.5952778594029
 20
-38.7
 10
-60.49516542748391
 20
-38.7
 10
-60.39505299556494
 20
-38.7
 10
-60.29494056364596
 20
-38.7
 10
-60.194828131726986
 20
-38.7
 10
-60.094715699808
 20
-38.7
 10
-59.99460326788902
 20
-38.7
 10
-59.894490835970046
 20
-38.7
 10
-59.79437840405106
 20
-38.7
 10
-59.694265972132094
 20
-38.7
 10
-59.59415354021311
 20
-38.7
 10
-59.494041108294134
 20
-38.7
 10
-59.393928676375154
 20
-38.7
 10
-59.29381624445618
 20
-38.7
 10
-59.193703812537194
 20
-38.7
 10
-59.093591380618214
 20
-38.7
 10
-58.99347894869924
 20
-38.7
 10
-58.893366516780254
 20
-38.7
 10
-58.79325408486128
 20
-38.7
 10
-58.6931416529423
 20
-38.7
 10
-58.59302922102333
 20
-38.7
 10
-58.49291678910434
 20
-38.7
 10
-58.39280435718536
 20
-38.7
 10
-58.29269192526639
 20
-38.7
 10
-58.1925794933474
 20
-38.7
 10
-58.09246706142844
 20
-38.7
 10
-57.99235462950945
 20
-38.7
 10
-57.89224219759046
 20
-38.7
 10
-57.7921297656715
 20
-38.7
 10
-57.69201733375251
 20
-38.7
 10
-57.59190490183354
 20
-38.7
 10
-57.49179246991456
 20
-38.7
 10
-57.39168003799558
 20
-38.7
 10
-57.291567606076605
 20
-38.7
 10
-57.19145517415762
 20
-38.7
 10
-57.091342742238645
 20
-38.7
 10
-56.991230310319665
 20
-38.7
 10
-56.891117878400685
 20
-38.7
 10
-56.79100544648171
 20
-38.7
 10
-56.69089301456273
 20
-38.7
 10
-56.590780582643745
 20
-38.7
 10
-56.49066815072477
 20
-38.7
 10
-56.39055571880579
 20
-38.7
 10
-56.29044328688681
 20
-38.7
 10
-56.19033085496784
 20
-38.7
 10
-56.09021842304886
 20
-38.7
 10
-55.99010599112988
 20
-38.7
 10
-55.8899935592109
 20
-38.7
 10
-55.78988112729192
 20
-38.7
 10
-55.68976869537294
 20
-38.7
 10
-55.58965626345396
 20
-38.7
 10
-55.48954383153499
 20
-38.7
 10
-55.38943139961601
 20
-38.7
 10
-55.28931896769703
 20
-38.7
 10
-55.189206535778055
 20
-38.7
 10
-55.08909410385907
 20
-38.7
 10
-54.98898167194009
 20
-38.7
 10
-54.888869240021116
 20
-38.7
 10
-54.788756808102136
 20
-38.7
 10
-54.688644376183156
 20
-38.7
 10
-54.58853194426418
 20
-38.7
 10
-54.4884195123452
 20
-38.7
 10
-54.388307080426216
 20
-38.7
 10
-54.28819464850724
 20
-38.7
 10
-54.18808221658826
 20
-38.7
 10
-54.08796978466928
 20
-38.7
 10
-53.99991808797464
 20
-38.712142278866416
 10
-53.99300840287972
 20
-38.81196424601734
 10
-53.975060506753266
 20
-38.91040225645348
 10
-53.94629624819649
 20
-39.006239547231495
 10
-53.907071173646656
 20
-39.09829150212954
 10
-53.857870132573524
 20
-39.18542029433574
 10
-53.7993012843993
 20
-39.26654895078669
 10
-53.73208858122111
 20
-39.3406746643109
 10
-53.65706281925465
 20
-39.40688118902972
 10
-53.57515136960942
 20
-39.46435016579987
 10
-53.48736671533057
 20
-39.51237123770725
 10
-53.394793936397335
 20
-39.55035083057722
 10
-53.29857729737243
 20
-39.577819489968334
 10
-53.19990610348849
 20
-39.594437683958894
 10
-53.100000000000016
 20
-39.6
 10
-53.1
 20
-39.70011243191897
 10
-53.1
 20
-39.80022486383795
 10
-53.1
 20
-39.90033729575693
 10
-53.1
 20
-40.00044972767591
 10
-53.1
 20
-40.10056215959489
 10
-53.1
 20
-40.20067459151386
 10
-53.1
 20
-40.30078702343285
 10
-53.1
 20
-40.40089945535182
 10
-53.1
 20
-40.50101188727079
 10
-53.1
 20
-40.60112431918977
 10
-53.1
 20
-40.70123675110876
 10
-53.1
 20
-40.80134918302773
 10
-53.1
 20
-40.90146161494671
 10
-53.1
 20
-41.00157404686569
 10
-53.1
 20
-41.101686478784664
 10
-53.1
 20
-41.20179891070365
 10
-53.1
 20
-41.30191134262263
 10
-53.1
 20
-41.402023774541604
 10
-53.1
 20
-41.50213620646058
 10
-53.1
 20
-41.602248638379564
 10
-53.1
 20
-41.702361070298544
 10
-53.1
 20
-41.80247350221752
 10
-53.1
 20
-41.902585934136496
 10
-53.1
 20
-42.00269836605548
 10
-53.1
 20
-42.102810797974456
 10
-53.1
 20
-42.202923229893436
 10
-53.1
 20
-42.303035661812416
 10
-53.1
 20
-42.40314809373139
 10
-53.1
 20
-42.50326052565037
 10
-53.1
 20
-42.60337295756935
 10
-53.1
 20
-42.70348538948832
 10
-53.1
 20
-42.8035978214073
 10
-53.1
 20
-42.90371025332629
 10
-53.1
 20
-43.00382268524526
 10
-53.1
 20
-43.10393511716424
 10
-53.1
 20
-43.20404754908322
 10
-53.1
 20
-43.3041599810022
 10
-53.1
 20
-43.40427241292118
 10
-53.1
 20
-43.50438484484015
 10
-53.1
 20
-43.60449727675913
 10
-53.1
 20
-43.704609708678106
 10
-53.1
 20
-43.80472214059709
 10
-53.1
 20
-43.90483457251607
 10
-53.1
 20
-44.004947004435046
 10
-53.1
 20
-44.105059436354026
 10
-53.1
 20
-44.20517186827301
 10
-53.1
 20
-44.305284300191985
 10
-53.1
 20
-44.405396732110965
 10
-53.1
 20
-44.505509164029945
 10
-53.1
 20
-44.60562159594892
 10
-53.1
 20
-44.7057340278679
 10
-53.1
 20
-44.80584645978688
 10
-53.1
 20
-44.90595889170586
 10
-53.1
 20
-45.00607132362483
 10
-53.1
 20
-45.10618375554382
 10
-53.1
 20
-45.2062961874628
 10
-53.1
 20
-45.30640861938177
 10
-53.1
 20
-45.40652105130075
 10
-53.1
 20
-45.50663348321973
 10
-53.1
 20
-45.6067459151387
 10
-53.1
 20
-45.70685834705768
 10
-53.1
 20
-45.80697077897666
 10
-53.1
 20
-45.907083210895635
 10
-53.1
 20
-46.00719564281462
 10
-53.1
 20
-46.1073080747336
 10
-53.1
 20
-46.207420506652575
 10
-53.1
 20
-46.307532938571555
 10
-53.1
 20
-46.40764537049054
 10
-53.1
 20
-46.507757802409515
 10
-53.1
 20
-46.60787023432849
 10
-53.1
 20
-46.70798266624747
 10
-53.1
 20
-46.808095098166454
 10
-53.1
 20
-46.90820753008543
 10
-53.1
 20
-47.00831996200441
 10
-53.1
 20
-47.10843239392339
 10
-53.1
 20
-47.20854482584236
 10
-53.1
 20
-47.30865725776135
 10
-53.1
 20
-47.40876968968033
 10
-53.1
 20
-47.5088821215993
 10
-53.1
 20
-47.60899455351827
 10
-53.1
 20
-47.70910698543726
 10
-53.1
 20
-47.80921941735623
 10
-53.1
 20
-47.90933184927521
 10
-53.1
 20
-48.00944428119419
 10
-53.1
 20
-48.10955671311317
 10
-53.1
 20
-48.20966914503215
 10
-53.1
 20
-48.30978157695113
 10
-53.1
 20
-48.40989400887011
 10
-53.1
 20
-48.510006440789084
 10
-53.1
 20
-48.610118872708064
 10
-53.1
 20
-48.710231304627044
 10
-53.1
 20
-48.81034373654602
 10
-53.1
 20
-48.910456168465
 10
-53.1
 20
-49.01056860038398
 10
-53.1
 20
-49.110681032302956
 10
-53.1
 20
-49.210793464221936
 10
-53.1
 20
-49.310905896140916
 10
-53.1
 20
-49.41101832805989
 10
-53.1
 20
-49.511130759978876
 10
-53.1
 20
-49.61124319189785
 10
-53.1
 20
-49.71135562381683
 10
-53.1
 20
-49.8114680557358
 10
-53.1
 20
-49.91158048765479
 10
-53.1
 20
-50.01169291957377
 10
-53.1
 20
-50.11180535149274
 10
-53.1
 20
-50.21191778341172
 10
-53.1
 20
-50.31203021533071
 10
-53.11214227886639
 20
-50.400081912025364
 10
-53.21196424601732
 20
-50.40699159712029
 10
-53.31040225645346
 20
-50.42493949324673
 10
-53.40623954723148
 20
-50.45370375180351
 10
-53.49829150212953
 20
-50.492928826353335
 10
-53.58542029433573
 20
-50.542129867426475
 10
-53.66654895078668
 20
-50.60069871560069
 10
-53.74067466431089
 20
-50.66791141877888
 10
-53.8068811890297
 20
-50.742937180745336
 10
-53.86435016579986
 20
-50.82484863039056
 10
-53.91237123770724
 20
-50.91263328466942
 10
-53.950350830577214
 20
-51.00520606360266
 10
-53.977819489968326
 20
-51.10142270262755
 10
-53.99443768395889
 20
-51.2000938965115
 10
-54.0
 20
-51.299999999999976
 10
-54.10011243191895
 20
-51.300000000000004
 10
-54.20022486383793
 20
-51.300000000000004
 10
-54.30033729575691
 20
-51.300000000000004
 10
-54.400449727675884
 20
-51.300000000000004
 10
-54.500562159594864
 20
-51.300000000000004
 10
-54.600674591513844
 20
-51.300000000000004
 10
-54.700787023432824
 20
-51.300000000000004
 10
-54.800899455351804
 20
-51.300000000000004
 10
-54.90101188727078
 20
-51.300000000000004
 10
-55.001124319189756
 20
-51.300000000000004
 10
-55.10123675110874
 20
-51.300000000000004
 10
-55.20134918302772
 20
-51.300000000000004
 10
-55.301461614946696
 20
-51.300000000000004
 10
-55.40157404686567
 20
-51.300000000000004
 10
-55.50168647878465
 20
-51.300000000000004
 10
-55.601798910703636
 20
-51.300000000000004
 10
-55.70191134262261
 20
-51.300000000000004
 10
-55.80202377454159
 20
-51.300000000000004
 10
-55.90213620646057
 20
-51.300000000000004
 10
-56.00224863837955
 20
-51.300000000000004
 10
-56.10236107029853
 20
-51.300000000000004
 10
-56.20247350221751
 20
-51.300000000000004
 10
-56.30258593413648
 20
-51.300000000000004
 10
-56.40269836605546
 20
-51.300000000000004
 10
-56.50281079797444
 20
-51.300000000000004
 10
-56.60292322989341
 20
-51.300000000000004
 10
-56.70303566181239
 20
-51.300000000000004
 10
-56.80314809373137
 20
-51.300000000000004
 10
-56.90326052565035
 20
-51.300000000000004
 10
-57.00337295756933
 20
-51.300000000000004
 10
-57.10348538948831
 20
-51.300000000000004
 10
-57.20359782140729
 20
-51.300000000000004
 10
-57.303710253326265
 20
-51.300000000000004
 10
-57.403822685245245
 20
-51.300000000000004
 10
-57.503935117164225
 20
-51.300000000000004
 10
-57.6040475490832
 20
-51.300000000000004
 10
-57.704159981002185
 20
-51.300000000000004
 10
-57.80427241292116
 20
-51.300000000000004
 10
-57.90438484484014
 20
-51.300000000000004
 10
-58.00449727675911
 20
-51.300000000000004
 10
-58.1046097086781
 20
-51.300000000000004
 10
-58.20472214059708
 20
-51.300000000000004
 10
-58.30483457251605
 20
-51.300000000000004
 10
-58.40494700443504
 20
-51.300000000000004
 10
-58.50505943635401
 20
-51.300000000000004
 10
-58.60517186827299
 20
-51.300000000000004
 10
-58.70528430019198
 20
-51.300000000000004
 10
-58.80539673211095
 20
-51.300000000000004
 10
-58.905509164029915
 20
-51.300000000000004
 10
-59.0056215959489
 20
-51.300000000000004
 10
-59.10573402786789
 20
-51.300000000000004
 10
-59.205846459786855
 20
-51.300000000000004
 10
-59.30595889170584
 20
-51.300000000000004
 10
-59.406071323624815
 20
-51.300000000000004
 10
-59.506183755543795
 20
-51.300000000000004
 10
-59.60629618746278
 20
-51.300000000000004
 10
-59.706408619381754
 20
-51.300000000000004
 10
-59.806521051300734
 20
-51.300000000000004
 10
-59.90663348321971
 20
-51.300000000000004
 10
-60.006745915138694
 20
-51.300000000000004
 10
-60.10685834705767
 20
-51.300000000000004
 10
-60.20697077897665
 20
-51.300000000000004
 10
-60.30708321089562
 20
-51.300000000000004
 10
-60.40719564281461
 20
-51.300000000000004
 10
-60.50730807473359
 20
-51.300000000000004
 10
-60.60742050665256
 20
-51.300000000000004
 10
-60.707532938571546
 20
-51.300000000000004
 10
-60.80764537049051
 20
-51.300000000000004
 10
-60.9077578024095
 20
-51.300000000000004
 10
-61.00787023432847
 20
-51.300000000000004
 10
-61.10798266624745
 20
-51.300000000000004
 10
-61.20809509816644
 20
-51.300000000000004
 10
-61.30820753008541
 20
-51.300000000000004
 10
-61.40831996200439
 20
-51.300000000000004
 10
-61.508432393923364
 20
-51.300000000000004
 10
-61.60854482584235
 20
-51.300000000000004
 10
-61.70865725776133
 20
-51.300000000000004
 10
-61.808769689680304
 20
-51.300000000000004
 10
-61.90888212159929
 20
-51.300000000000004
 10
-62.008994553518264
 20
-51.300000000000004
 10
-62.10910698543724
 20
-51.300000000000004
 10
-62.209219417356216
 20
-51.300000000000004
 10
-62.3093318492752
 20
-51.300000000000004
 10
-62.40944428119417
 20
-51.300000000000004
 10
-62.509556713113156
 20
-51.300000000000004
 10
-62.60966914503214
 20
-51.300000000000004
 10
-62.70978157695111
 20
-51.300000000000004
 10
-62.809894008870096
 20
-51.300000000000004
 10
-62.91000644078907
 20
-51.300000000000004
 10
-63.01011887270805
 20
-51.300000000000004
 10
-63.11023130462702
 20
-51.300000000000004
 10
-63.21034373654601
 20
-51.300000000000004
 10
-63.31045616846498
 20
-51.300000000000004
 10
-63.41056860038396
 20
-51.300000000000004
 10
-63.51068103230295
 20
-51.300000000000004
 10
-63.61079346422192
 20
-51.300000000000004
 10
-63.7109058961409
 20
-51.300000000000004
 10
-63.81101832805987
 20
-51.300000000000004
 10
-63.91113075997886
 20
-51.300000000000004
 10
-64.01124319189783
 20
-51.300000000000004
 10
-64.11135562381682
 20
-51.300000000000004
 10
-64.21146805573578
 20
-51.300000000000004
 10
-64.31158048765477
 20
-51.300000000000004
 10
-64.41169291957375
 20
-51.300000000000004
 10
-64.51180535149273
 20
-51.300000000000004
 10
-64.61191778341171
 20
-51.300000000000004
 10
-64.7120302153307
 20
-51.300000000000004
 10
-64.80008191202536
 20
-51.28785772113362
 10
-64.80699159712029
 20
-51.188035753982696
 10
-64.82493949324673
 20
-51.089597743546555
 10
-64.85370375180351
 20
-50.99376045276854
 10
-64.89292882635333
 20
-50.90170849787049
 10
-64.94212986742646
 20
-50.814579705664286
 10
-65.00069871560069
 20
-50.733451049213336
 10
-65.06791141877886
 20
-50.659325335689125
 10
-65.14293718074534
 20
-50.5931188109703
 10
-65.22484863039055
 20
-50.53564983420014
 10
-65.3126332846694
 20
-50.487628762292765
 10
-65.40520606360265
 20
-50.44964916942279
 10
-65.50142270262754
 20
-50.42218051003167
 10
-65.60009389651148
 20
-50.40556231604111
 10
-65.7
 20
-50.4
  0
LWPOLYLINE
  5
33
330
17
100
AcDbEntity
  8
0
100
AcDbPolyline
 90
38
 70
0
 10
-65.1006
 20
-51.300000000000004
 10
-65.10922182333758
 20
-51.40129909170092
 10
-65.13483925919063
 20
-51.49968399296839
 10
-65.17671534057118
 20
-51.59232434932189
 10
-65.23364536886153
 20
-51.67655506637901
 10
-65.30399157079998
 20
-51.74995297976849
 10
-65.38573021423579
 20
-51.81040656515734
 10
-65.47650982721849
 20
-51.856176682961525
 10
-65.57371884556456
 20
-51.88594661022525
 10
-65.67456074280423
 20
-51.898859920343085
 10
-65.77613448115629
 20
-51.89454512089417
 10
-65.87551796910317
 20
-51.873126340802706
 10
-65.96985212464371
 20
-51.83521975937485
 10
-66.05642312587679
 20
-51.78191587994194
 10
-66.13274048271634
 20
-51.71474815806514
 10
-66.19660868375676
 20
-51.63564888681088
 10
-66.24619035713864
 20
-51.54689360819745
 10
-66.28005912839194
 20
-51.45103564999424
 10
-66.2972406546324
 20
-51.35083267113062
 10
-66.2972406546324
 20
-51.24916732886938
 10
-66.28005912839194
 20
-51.148964350005755
 10
-66.24619035713864
 20
-51.05310639180255
 10
-66.19660868375676
 20
-50.964351113189124
 10
-66.13274048271634
 20
-50.88525184193486
 10
-66.05642312587679
 20
-50.81808412005806
 10
-65.96985212464371
 20
-50.76478024062515
 10
-65.87551796910317
 20
-50.726873659197295
 10
-65.77613448115629
 20
-50.70545487910583
 10
-65.67456074280423
 20
-50.701140079656916
 10
-65.57371884556456
 20
-50.714053389774755
 10
-65.47650982721849
 20
-50.743823317038476
 10
-65.38573021423579
 20
-50.78959343484266
 10
-65.30399157079998
 20
-50.850047020231514
 10
-65.23364536886153
 20
-50.923444933621
 10
-65.17671534057118
 20
-51.00767565067811
 10
-65.13483925919063
 20
-51.10031600703161
 10
-65.10922182333758
 20
-51.19870090829909
 10
-65.1006
 20
-51.300000000000004
  0
LWPOLYLINE
  5
34
330
17
100
AcDbEntity
  8
0
100
AcDbPolyline
 90
38
 70
0
 10
-65.1006
 20
-38.7
 10
-65.10922182333758
 20
-38.80129909170092
 10
-65.13483925919063
 20
-38.89968399296839
 10
-65.17671534057118
 20
-38.99232434932189
 10
-65.23364536886153
 20
-39.07655506637901
 10
-65.30399157079998
 20
-39.149952979768486
 10
-65.38573021423579
 20
-39.21040656515735
 10
-65.47650982721849
 20
-39.256176682961524
 10
-65.57371884556456
 20
-39.285946610225245
 10
-65.67456074280423
 20
-39.298859920343084
 10
-65.77613448115629
 20
-39.29454512089417
 10
-65.87551796910317
 20
-39.273126340802705
 10
-65.96985212464371
 20
-39.23521975937485
 10
-66.05642312587679
 20
-39.18191587994195
 10
-66.13274048271634
 20
-39.11474815806514
 10
-66.19660868375676
 20
-39.035648886810876
 10
-66.24619035713864
 20
-38.94689360819745
 10
-66.28005912839194
 20
-38.851035649994245
 10
-66.2972406546324
 20
-38.750832671130624
 10
-66.2972406546324
 20
-38.64916732886938
 10
-66.28005912839194
 20
-38.548964350005754
 10
-66.24619035713864
 20
-38.45310639180255
 10
-66.19660868375676
 20
-38.36435111318913
 10
-66.13274048271634
 20
-38.28525184193486
 10
-66.05642312587679
 20
-38.21808412005806
 10
-65.96985212464371
 20
-38.164780240625156
 10
-65.87551796910317
 20
-38.126873659197294
 10
-65.77613448115629
 20
-38.105454879105835
 10
-65.67456074280423
 20
-38.101140079656915
 10
-65.57371884556456
 20
-38.11405338977476
 10
-65.47650982721849
 20
-38.143823317038475
 10
-65.38573021423579
 20
-38.18959343484266
 10
-65.30399157079998
 20
-38.25004702023152
 10
-65.23364536886153
 20
-38.323444933621
 10
-65.17671534057118
 20
-38.40767565067811
 10
-65.13483925919063
 20
-38.50031600703161
 10
-65.10922182333758
 20
-38.59870090829909
 10
-65.1006
 20
-38.7
  0
LWPOLYLINE
  5
35
330
17
100
AcDbEntity
  8
0
100
AcDbPolyline
 90
38
 70
0
 10
-52.500600000000006
 20
-51.300000000000004
 10
-52.50922182333758
 20
-51.40129909170092
 10
-52.534839259190626
 20
-51.49968399296839
 10
-52.576715340571184
 20
-51.59232434932189
 10
-52.63364536886153
 20
-51.67655506637901
 10
-52.703991570799985
 20
-51.74995297976849
 10
-52.7857302142358
 20
-51.81040656515734
 10
-52.876509827218484
 20
-51.856176682961525
 10
-52.97371884556456
 20
-51.88594661022525
 10
-53.07456074280423
 20
-51.898859920343085
 10
-53.176134481156275
 20
-51.89454512089417
 10
-53.27551796910317
 20
-51.873126340802706
 10
-53.369852124643714
 20
-51.83521975937485
 10
-53.456423125876796
 20
-51.78191587994194
 10
-53.53274048271634
 20
-51.71474815806514
 10
-53.59660868375676
 20
-51.63564888681088
 10
-53.64619035713865
 20
-51.54689360819745
 10
-53.68005912839194
 20
-51.45103564999424
 10
-53.69724065463239
 20
-51.35083267113062
 10
-53.69724065463239
 20
-51.24916732886938
 10
-53.68005912839194
 20
-51.148964350005755
 10
-53.64619035713865
 20
-51.05310639180255
 10
-53.59660868375676
 20
-50.964351113189124
 10
-53.53274048271634
 20
-50.88525184193486
 10
-53.456423125876796
 20
-50.81808412005806
 10
-53.369852124643714
 20
-50.76478024062515
 10
-53.27551796910317
 20
-50.726873659197295
 10
-53.176134481156275
 20
-50.70545487910583
 10
-53.07456074280423
 20
-50.701140079656916
 10
-52.97371884556456
 20
-50.714053389774755
 10
-52.876509827218484
 20
-50.743823317038476
 10
-52.7857302142358
 20
-50.78959343484266
 10
-52.703991570799985
 20
-50.850047020231514
 10
-52.63364536886153
 20
-50.923444933621
 10
-52.576715340571184
 20
-51.00767565067811
 10
-52.534839259190626
 20
-51.10031600703161
 10
-52.50922182333758
 20
-51.19870090829909
 10
-52.500600000000006
 20
-51.300000000000004
  0
LWPOLYLINE
  5
36
330
17
100
AcDbEntity
  8
0
100
AcDbPolyline
 90
38
 70
0
 10
-52.500600000000006
 20
-38.7
 10
-52.50922182333758
 20
-38.80129909170092
 10
-52.534839259190626
 20
-38.89968399296839
 10
-52.576715340571184
 20
-38.99232434932189
 10
-52.63364536886153
 20
-39.07655506637901
 10
-52.703991570799985
 20
-39.149952979768486
 10
-52.7857302142358
 20
-39.21040656515735
 10
-52.876509827218484
 20
-39.256176682961524
 10
-52.97371884556456
 20
-39.285946610225245
 10
-53.07456074280423
 20
-39.298859920343084
 10
-53.176134481156275
 20
-39.29454512089417
 10
-53.27551796910317
 20
-39.273126340802705
 10
-53.369852124643714
 20
-39.23521975937485
 10
-53.456423125876796
 20
-39.18191587994195
 10
-53.53274048271634
 20
-39.11474815806514
 10
-53.59660868375676
 20
-39.035648886810876
 10
-53.64619035713865
 20
-38.94689360819745
 10
-53.68005912839194
 20
-38.851035649994245
 10
-53.69724065463239
 20
-38.750832671130624
 10
-53.69724065463239
 20
-38.64916732886938
 10
-53.68005912839194
 20
-38.548964350005754
 10
-53.64619035713865
 20
-38.45310639180255
 10
-53.59660868375676
 20
-38.36435111318913
 10
-53.53274048271634
 20
-38.28525184193486
 10
-53.456423125876796
 20
-38.21808412005806
 10
-53.369852124643714
 20
-38.164780240625156
 10
-53.27551796910317
 20
-38.126873659197294
 10
-53.176134481156275
 20
-38.105454879105835
 10
-53.07456074280423
 20
-38.101140079656915
 10
-52.97371884556456
 20
-38.11405338977476
 10
-52.876509827218484
 20
-38.143823317038475
 10
-52.7857302142358
 20
-38.18959343484266
 10
-52.703991570799985
 20
-38.25004702023152
 10
-52.63364536886153
 20
-38.323444933621
 10
-52.576715340571184
 20
-38.40767565067811
 10
-52.534839259190626
 20
-38.50031600703161
 10
-52.50922182333758
 20
-38.59870090829909
 10
-52.500600000000006
 20
-38.7
  0
ENDSEC
  0
SECTION
  2
OBJECTS
  0
DICTIONARY
  5
A
330
0
100
AcDbDictionary
280
0
281
1
  3
ACAD_COLOR
350
B
  3
ACAD_GROUP
350
C
  3
ACAD_LAYOUT
350
D
  3
ACAD_MATERIAL
350
E
  3
ACAD_MLEADERSTYLE
350
F
  3
ACAD_MLINESTYLE
350
10
  3
ACAD_PLOTSETTINGS
350
11
  3
ACAD_PLOTSTYLENAME
350
12
  3
ACAD_SCALELIST
350
14
  3
ACAD_TABLESTYLE
350
15
  3
ACAD_VISUALSTYLE
350
16
  3
EZDXF_META
350
2D
  0
DICTIONARY
  5
B
330
A
100
AcDbDictionary
280
0
281
1
  0
DICTIONARY
  5
C
330
A
100
AcDbDictionary
280
0
281
1
  0
DICTIONARY
  5
D
330
A
100
AcDbDictionary
280
0
281
1
  3
Model
350
1A
  3
Layout1
350
1E
  0
DICTIONARY
  5
E
330
A
100
AcDbDictionary
280
0
281
1
  3
ByBlock
350
1F
  3
ByLayer
350
20
  3
Global
350
21
  0
DICTIONARY
  5
F
330
A
100
AcDbDictionary
280
0
281
1
  3
Standard
350
2C
  0
DICTIONARY
  5
10
330
A
100
AcDbDictionary
280
0
281
1
  3
Standard
350
22
  0
DICTIONARY
  5
11
330
A
100
AcDbDictionary
280
0
281
1
  0
ACDBDICTIONARYWDFLT
  5
12
330
A
100
AcDbDictionary
280
0
281
1
  3
Normal
350
13
100
AcDbDictionaryWithDefault
340
13
  0
ACDBPLACEHOLDER
  5
13
330
12
  0
DICTIONARY
  5
14
330
A
100
AcDbDictionary
280
0
281
1
  0
DICTIONARY
  5
15
330
A
100
AcDbDictionary
280
0
281
1
  0
DICTIONARY
  5
16
330
A
100
AcDbDictionary
280
0
281
1
  0
LAYOUT
  5
1A
330
D
100
AcDbPlotSettings
  1

  2
Adobe PDF
  4
A3
  6

 40
7.5
 41
20.0
 42
7.5
 43
20.0
 44
420.0
 45
297.0
 46
0.0
 47
0.0
 48
0.0
 49
0.0
140
0.0
141
0.0
142
1.0
143
1.0
 70
1024
 72
1
 73
0
 74
5
  7

 75
16
 76
0
 77
2
 78
300
147
1.0
148
0.0
149
0.0
100
AcDbLayout
  1
Model
 70
1
 71
0
 10
0.0
 20
0.0
 11
420.0
 21
297.0
 12
0.0
 22
0.0
 32
0.0
 14
1e+20
 24
1e+20
 34
1e+20
 15
-1e+20
 25
-1e+20
 35
-1e+20
146
0.0
 13
0.0
 23
0.0
 33
0.0
 16
1.0
 26
0.0
 36
0.0
 17
0.0
 27
1.0
 37
0.0
 76
1
330
17
  0
LAYOUT
  5
1E
330
D
100
AcDbPlotSettings
  1

  2
Adobe PDF
  4
A3
  6

 40
7.5
 41
20.0
 42
7.5
 43
20.0
 44
420.0
 45
297.0
 46
0.0
 47
0.0
 48
0.0
 49
0.0
140
0.0
141
0.0
142
1.0
143
1.0
 70
0
 72
1
 73
0
 74
5
  7

 75
16
 76
0
 77
2
 78
300
147
1.0
148
0.0
149
0.0
100
AcDbLayout
  1
Layout1
 70
1
 71
1
 10
0.0
 20
0.0
 11
420.0
 21
297.0
 12
0.0
 22
0.0
 32
0.0
 14
1e+20
 24
1e+20
 34
1e+20
 15
-1e+20
 25
-1e+20
 35
-1e+20
146
0.0
 13
0.0
 23
0.0
 33
0.0
 16
1.0
 26
0.0
 36
0.0
 17
0.0
 27
1.0
 37
0.0
 76
1
330
1B
  0
MATERIAL
  5
1F
102
{ACAD_REACTORS
330
E
102
}
330
E
100
AcDbMaterial
  1
ByBlock
  2

 70
0
 40
1.0
 71
1
 41
1.0
 91
-1023410177
 42
1.0
 72
1
  3

 73
1
 74
1
 75
1
 44
0.5
 73
0
 45
1.0
 46
1.0
 77
1
  4

 78
1
 79
1
170
1
 48
1.0
171
1
  6

172
1
173
1
174
1
140
1.0
141
1.0
175
1
  7

176
1
177
1
178
1
143
1.0
179
1
  8

270
1
271
1
272
1
145
1.0
146
1.0
273
1
  9

274
1
275
1
276
1
 42
1.0
 72
1
  3

 73
1
 74
1
 75
1
 94
63
  0
MATERIAL
  5
20
102
{ACAD_REACTORS
330
E
102
}
330
E
100
AcDbMaterial
  1
ByLayer
  2

 70
0
 40
1.0
 71
1
 41
1.0
 91
-1023410177
 42
1.0
 72
1
  3

 73
1
 74
1
 75
1
 44
0.5
 73
0
 45
1.0
 46
1.0
 77
1
  4

 78
1
 79
1
170
1
 48
1.0
171
1
  6

172
1
173
1
174
1
140
1.0
141
1.0
175
1
  7

176
1
177
1
178
1
143
1.0
179
1
  8

270
1
271
1
272
1
145
1.0
146
1.0
273
1
  9

274
1
275
1
276
1
 42
1.0
 72
1
  3

 73
1
 74
1
 75
1
 94
63
  0
MATERIAL
  5
21
102
{ACAD_REACTORS
330
E
102
}
330
E
100
AcDbMaterial
  1
Global
  2

 70
0
 40
1.0
 71
1
 41
1.0
 91
-1023410177
 42
1.0
 72
1
  3

 73
1
 74
1
 75
1
 44
0.5
 73
0
 45
1.0
 46
1.0
 77
1
  4

 78
1
 79
1
170
1
 48
1.0
171
1
  6

172
1
173
1
174
1
140
1.0
141
1.0
175
1
  7

176
1
177
1
178
1
143
1.0
179
1
  8

270
1
271
1
272
1
145
1.0
146
1.0
273
1
  9

274
1
275
1
276
1
 42
1.0
 72
1
  3

 73
1
 74
1
 75
1
 94
63
  0
MLINESTYLE
  5
22
102
{ACAD_REACTORS
330
10
102
}
330
10
100
AcDbMlineStyle
  2
Standard
 70
0
  3

 62
256
 51
90.0
 52
90.0
 71
2
 49
0.5
 62
256
  6
BYLAYER
 49
-0.5
 62
256
  6
BYLAYER
  0
MLEADERSTYLE
  5
2C
102
{ACAD_REACTORS
330
F
102
}
330
F
100
AcDbMLeaderStyle
179
2
170
2
171
1
172
0
 90
2
 40
0.0
 41
0.0
173
1
 91
-1056964608
 92
-2
290
1
 42
2.0
291
1
 43
8.0
  3
Standard
 44
4.0
300

342
29
174
1
175
1
176
0
178
1
 93
-1056964608
 45
4.0
292
0
297
0
 46
4.0
 94
-1056964608
 47
1.0
 49
1.0
140
1.0
294
1
141
0.0
177
0
142
1.0
295
0
296
0
143
3.75
271
0
272
9
273
9
  0
DICTIONARY
  5
2D
330
A
100
AcDbDictionary
281
1
  3
CREATED_BY_EZDXF
350
2E
  3
WRITTEN_BY_EZDXF
350
39
  0
DICTIONARYVAR
  5
2E
330
2D
100
DictionaryVariables
280
0
  1
1.1.4 @ 2026-02-23T18:43:45.676332+00:00
  0
DICTIONARYVAR
  5
39
330
2D
100
DictionaryVariables
280
0
  1
1.1.4 @ 2026-02-23T18:43:45.788145+00:00
  0
ENDSEC
  0
EOF
