  0
SECTION
  2
HEADER
  9
$ACADVER
  1
AC1024
  9
$ACADMAINTVER
 70
6
  9
$DWGCODEPAGE
  3
ANSI_1252
  9
$LASTSAVEDBY
  1
ezdxf
  9
$INSBASE
 10
0.0
 20
0.0
 30
0.0
  9
$EXTMIN
 10
1e+20
 20
1e+20
 30
1e+20
  9
$EXTMAX
 10
-1e+20
 20
-1e+20
 30
-1e+20
  9
$LIMMIN
 10
0.0
 20
0.0
  9
$LIMMAX
 10
420.0
 20
297.0
  9
$ORTHOMODE
 70
0
  9
$REGENMODE
 70
1
  9
$FILLMODE
 70
1
  9
$QTEXTMODE
 70
0
  9
$MIRRTEXT
 70
1
  9
$LTSCALE
 40
1.0
  9
$ATTMODE
 70
1
  9
$TEXTSIZE
 40
2.5
  9
$TRACEWID
 40
1.0
  9
$TEXTSTYLE
  7
Standard
  9
$CLAYER
  8
0
  9
$CELTYPE
  6
ByLayer
  9
$CECOLOR
 62
256
  9
$CELTSCALE
 40
1.0
  9
$DISPSILH
 70
0
  9
$DIMSCALE
 40
1.0
  9
$DIMASZ
 40
2.5
  9
$DIMEXO
 40
0.625
  9
$DIMDLI
 40
3.75
  9
$DIMRND
 40
0.0
  9
$DIMDLE
 40
0.0
  9
$DIMEXE
 40
1.25
  9
$DIMTP
 40
0.0
  9
$DIMTM
 40
0.0
  9
$DIMTXT
 40
2.5
  9
$DIMCEN
 40
2.5
  9
$DIMTSZ
 40
0.0
  9
$DIMTOL
 70
0
  9
$DIMLIM
 70
0
  9
$DIMTIH
 70
0
  9
$DIMTOH
 70
0
  9
$DIMSE1
 70
0
  9
$DIMSE2
 70
0
  9
$DIMTAD
 70
1
  9
$DIMZIN
 70
8
  9
$DIMBLK
  1

  9
$DIMASO
 70
1
  9
$DIMSHO
 70
1
  9
$DIMPOST
  1

  9
$DIMAPOST
  1

  9
$DIMALT
 70
0
  9
$DIMALTD
 70
3
  9
$DIMALTF
 40
0.03937007874
  9
$DIMLFAC
 40
1.0
  9
$DIMTOFL
 70
1
  9
$DIMTVP
 40
0.0
  9
$DIMTIX
 70
0
  9
$DIMSOXD
 70
0
  9
$DIMSAH
 70
0
  9
$DIMBLK1
  1

  9
$DIMBLK2
  1

  9
$DIMSTYLE
  2
ISO-25
  9
$DIMCLRD
 70
0
  9
$DIMCLRE
 70
0
  9
$DIMCLRT
 70
0
  9
$DIMTFAC
 40
1.0
  9
$DIMGAP
 40
0.625
  9
$DIMJUST
 70
0
  9
$DIMSD1
 70
0
  9
$DIMSD2
 70
0
  9
$DIMTOLJ
 70
0
  9
$DIMTZIN
 70
8
  9
$DIMALTZ
 70
0
  9
$DIMALTTZ
 70
0
  9
$DIMUPT
 70
0
  9
$DIMDEC
 70
2
  9
$DIMTDEC
 70
2
  9
$DIMALTU
 70
2
  9
$DIMALTTD
 70
3
  9
$DIMTXSTY
  7
Standard
  9
$DIMAUNIT
 70
0
  9
$DIMADEC
 70
0
  9
$DIMALTRND
 40
0.0
  9
$DIMAZIN
 70
0
  9
$DIMDSEP
 70
44
  9
$DIMATFIT
 70
3
  9
$DIMFRAC
 70
0
  9
$DIMLDRBLK
  1

  9
$DIMLUNIT
 70
2
  9
$DIMLWD
 70
-2
  9
$DIMLWE
 70
-2
  9
$DIMTMOVE
 70
0
  9
$DIMFXL
 40
1.0
  9
$DIMFXLON
 70
0
  9
$DIMJOGANG
 40
0.785398163397
  9
$DIMTFILL
 70
0
  9
$DIMTFILLCLR
 70
0
  9
$DIMARCSYM
 70
0
  9
$DIMLTYPE
  6

  9
$DIMLTEX1
  6

  9
$DIMLTEX2
  6

  9
$DIMTXTDIRECTION
 70
0
  9
$LUNITS
 70
2
  9
$LUPREC
 70
4
  9
$SKETCHINC
 40
1.0
  9
$FILLETRAD
 40
10.0
  9
$AUNITS
 70
0
  9
$AUPREC
 70
2
  9
$MENU
  1
.
  9
$ELEVATION
 40
0.0
  9
$PELEVATION
 40
0.0
  9
$THICKNESS
 40
0.0
  9
$LIMCHECK
 70
0
  9
$CHAMFERA
 40
0.0
  9
$CHAMFERB
 40
0.0
  9
$CHAMFERC
 40
0.0
  9
$CHAMFERD
 40
0.0
  9
$SKPOLY
 70
0
  9
$TDCREATE
 40
2461095.8220949075
  9
$TDUCREATE
 40
2458532.153996898
  9
$TDUPDATE
 40
2461095.8220949075
  9
$TDUUPDATE
 40
2458532.1544311
  9
$TDINDWG
 40
0.0
  9
$TDUSRTIMER
 40
0.0
  9
$USRTIMER
 70
1
  9
$ANGBASE
 50
0.0
  9
$ANGDIR
 70
0
  9
$PDMODE
 70
0
  9
$PDSIZE
 40
0.0
  9
$PLINEWID
 40
0.0
  9
$SPLFRAME
 70
0
  9
$SPLINETYPE
 70
6
  9
$SPLINESEGS
 70
8
  9
$HANDSEED
  5
48
  9
$SURFTAB1
 70
6
  9
$SURFTAB2
 70
6
  9
$SURFTYPE
 70
6
  9
$SURFU
 70
6
  9
$SURFV
 70
6
  9
$UCSBASE
  2

  9
$UCSNAME
  2

  9
$UCSORG
 10
0.0
 20
0.0
 30
0.0
  9
$UCSXDIR
 10
1.0
 20
0.0
 30
0.0
  9
$UCSYDIR
 10
0.0
 20
1.0
 30
0.0
  9
$UCSORTHOREF
  2

  9
$UCSORTHOVIEW
 70
0
  9
$UCSORGTOP
 10
0.0
 20
0.0
 30
0.0
  9
$UCSORGBOTTOM
 10
0.0
 20
0.0
 30
0.0
  9
$UCSORGLEFT
 10
0.0
 20
0.0
 30
0.0
  9
$UCSORGRIGHT
 10
0.0
 20
0.0
 30
0.0
  9
$UCSORGFRONT
 10
0.0
 20
0.0
 30
0.0
  9
$UCSORGBACK
 10
0.0
 20
0.0
 30
0.0
  9
$PUCSBASE
  2

  9
$PUCSNAME
  2

  9
$PUCSORG
 10
0.0
 20
0.0
 30
0.0
  9
$PUCSXDIR
 10
1.0
 20
0.0
 30
0.0
  9
$PUCSYDIR
 10
0.0
 20
1.0
 30
0.0
  9
$PUCSORTHOREF
  2

  9
$PUCSORTHOVIEW
 70
0
  9
$PUCSORGTOP
 10
0.0
 20
0.0
 30
0.0
  9
$PUCSORGBOTTOM
 10
0.0
 20
0.0
 30
0.0
  9
$PUCSORGLEFT
 10
0.0
 20
0.0
 30
0.0
  9
$PUCSORGRIGHT
 10
0.0
 20
0.0
 30
0.0
  9
$PUCSORGFRONT
 10
0.0
 20
0.0
 30
0.0
  9
$PUCSORGBACK
 10
0.0
 20
0.0
 30
0.0
  9
$USERI1
 70
0
  9
$USERI2
 70
0
  9
$USERI3
 70
0
  9
$USERI4
 70
0
  9
$USERI5
 70
0
  9
$USERR1
 40
0.0
  9
$USERR2
 40
0.0
  9
$USERR3
 40
0.0
  9
$USERR4
 40
0.0
  9
$USERR5
 40
0.0
  9
$WORLDVIEW
 70
1
  9
$SHADEDGE
 70
3
  9
$SHADEDIF
 70
70
  9
$TILEMODE
 70
1
  9
$MAXACTVP
 70
64
  9
$PINSBASE
 10
0.0
 20
0.0
 30
0.0
  9
$PLIMCHECK
 70
0
  9
$PEXTMIN
 10
1e+20
 20
1e+20
 30
1e+20
  9
$PEXTMAX
 10
-1e+20
 20
-1e+20
 30
-1e+20
  9
$PLIMMIN
 10
0.0
 20
0.0
  9
$PLIMMAX
 10
420.0
 20
297.0
  9
$UNITMODE
 70
0
  9
$VISRETAIN
 70
1
  9
$PLINEGEN
 70
0
  9
$PSLTSCALE
 70
1
  9
$TREEDEPTH
 70
3020
  9
$CMLSTYLE
  2
Standard
  9
$CMLJUST
 70
0
  9
$CMLSCALE
 40
20.0
  9
$PROXYGRAPHICS
 70
1
  9
$MEASUREMENT
 70
1
  9
$CELWEIGHT
370
-1
  9
$ENDCAPS
280
0
  9
$JOINSTYLE
280
0
  9
$LWDISPLAY
290
0
  9
$INSUNITS
 70
4
  9
$HYPERLINKBASE
  1

  9
$STYLESHEET
  1

  9
$XEDIT
290
1
  9
$CEPSNTYPE
380
0
  9
$PSTYLEMODE
290
1
  9
$FINGERPRINTGUID
  2
{2563A802-E2D0-4BB2-8821-F141196F7826}
  9
$VERSIONGUID
  2
{E180D648-63D2-4BD2-8934-F311376C8A36}
  9
$EXTNAMES
290
1
  9
$PSVPSCALE
 40
0.0
  9
$OLESTARTUP
290
0
  9
$SORTENTS
280
127
  9
$INDEXCTL
280
0
  9
$HIDETEXT
280
1
  9
$XCLIPFRAME
280
0
  9
$HALOGAP
280
0
  9
$OBSCOLOR
 70
257
  9
$OBSLTYPE
280
0
  9
$INTERSECTIONDISPLAY
280
0
  9
$INTERSECTIONCOLOR
 70
257
  9
$DIMASSOC
280
2
  9
$PROJECTNAME
  1

  9
$CAMERADISPLAY
290
0
  9
$LENSLENGTH
 40
50.0
  9
$CAMERAHEIGHT
 40
0.0
  9
$STEPSPERSEC
 40
24.0
  9
$STEPSIZE
 40
100.0
  9
$3DDWFPREC
 40
2.0
  9
$PSOLWIDTH
 40
0.005
  9
$PSOLHEIGHT
 40
0.08
  9
$LOFTANG1
 40
1.570796326795
  9
$LOFTANG2
 40
1.570796326795
  9
$LOFTMAG1
 40
0.0
  9
$LOFTMAG2
 40
0.0
  9
$LOFTPARAM
 70
7
  9
$LOFTNORMALS
280
1
  9
$LATITUDE
 40
37.795
  9
$LONGITUDE
 40
-122.394
  9
$NORTHDIRECTION
 40
0.0
  9
$TIMEZONE
 70
-8000
  9
$LIGHTGLYPHDISPLAY
280
1
  9
$TILEMODELIGHTSYNCH
280
1
  9
$CMATERIAL
347
20
  9
$SOLIDHIST
280
0
  9
$SHOWHIST
280
1
  9
$DWFFRAME
280
2
  9
$DGNFRAME
280
2
  9
$REALWORLDSCALE
290
1
  9
$INTERFERECOLOR
 62
256
  9
$CSHADOW
280
0
  9
$SHADOWPLANELOCATION
 40
0.0
  0
ENDSEC
  0
SECTION
  2
CLASSES
  0
CLASS
  1
ACDBDICTIONARYWDFLT
  2
AcDbDictionaryWithDefault
  3
ObjectDBX Classes
 90
0
 91
0
280
0
281
0
  0
CLASS
  1
SUN
  2
AcDbSun
  3
SCENEOE
 90
1153
 91
0
280
0
281
0
  0
CLASS
  1
VISUALSTYLE
  2
AcDbVisualStyle
  3
ObjectDBX Classes
 90
4095
 91
0
280
0
281
0
  0
CLASS
  1
MATERIAL
  2
AcDbMaterial
  3
ObjectDBX Classes
 90
1153
 91
0
280
0
281
0
  0
CLASS
  1
SCALE
  2
AcDbScale
  3
ObjectDBX Classes
 90
1153
 91
0
280
0
281
0
  0
CLASS
  1
TABLESTYLE
  2
AcDbTableStyle
  3
ObjectDBX Classes
 90
4095
 91
0
280
0
281
0
  0
CLASS
  1
MLEADERSTYLE
  2
AcDbMLeaderStyle
  3
ACDB_MLEADERSTYLE_CLASS
 90
4095
 91
0
280
0
281
0
  0
CLASS
  1
DICTIONARYVAR
  2
AcDbDictionaryVar
  3
ObjectDBX Classes
 90
0
 91
0
280
0
281
0
  0
CLASS
  1
CELLSTYLEMAP
  2
AcDbCellStyleMap
  3
ObjectDBX Classes
 90
1152
 91
0
280
0
281
0
  0
CLASS
  1
MENTALRAYRENDERSETTINGS
  2
AcDbMentalRayRenderSettings
  3
SCENEOE
 90
1024
 91
0
280
0
281
0
  0
CLASS
  1
ACDBDETAILVIEWSTYLE
  2
AcDbDetailViewStyle
  3
ObjectDBX Classes
 90
1025
 91
0
280
0
281
0
  0
CLASS
  1
ACDBSECTIONVIEWSTYLE
  2
AcDbSectionViewStyle
  3
ObjectDBX Classes
 90
1025
 91
0
280
0
281
0
  0
CLASS
  1
RASTERVARIABLES
  2
AcDbRasterVariables
  3
ISM
 90
0
 91
0
280
0
281
0
  0
CLASS
  1
LAYOUT
  2
AcDbLayout
  3
ObjectDBX Classes
 90
0
 91
0
280
0
281
0
  0
CLASS
  1
ACDBPLACEHOLDER
  2
AcDbPlaceHolder
  3
ObjectDBX Classes
 90
0
 91
0
280
0
281
0
  0
ENDSEC
  0
SECTION
  2
TABLES
  0
TABLE
  2
VPORT
  5
8
330
0
100
AcDbSymbolTable
 70
1
  0
VPORT
  5
23
330
8
100
AcDbSymbolTableRecord
100
AcDbViewportTableRecord
  2
*Active
 70
0
 10
0.0
 20
0.0
 11
1.0
 21
1.0
 12
0.0
 22
0.0
 13
0.0
 23
0.0
 14
0.5
 24
0.5
 15
0.5
 25
0.5
 16
0.0
 26
0.0
 36
1.0
 17
0.0
 27
0.0
 37
0.0
 40
1000.0
 41
1.34
 42
50.0
 43
0.0
 44
0.0
 50
0.0
 51
0.0
 71
0
 72
1000
 73
1
 74
3
 75
0
 76
0
 77
0
 78
0
281
0
 65
0
146
0.0
  0
ENDTAB
  0
TABLE
  2
LTYPE
  5
2
330
0
100
AcDbSymbolTable
 70
3
  0
LTYPE
  5
24
330
2
100
AcDbSymbolTableRecord
100
AcDbLinetypeTableRecord
  2
ByBlock
 70
0
  3

 72
65
 73
0
 40
0.0
  0
LTYPE
  5
25
330
2
100
AcDbSymbolTableRecord
100
AcDbLinetypeTableRecord
  2
ByLayer
 70
0
  3

 72
65
 73
0
 40
0.0
  0
LTYPE
  5
26
330
2
100
AcDbSymbolTableRecord
100
AcDbLinetypeTableRecord
  2
Continuous
 70
0
  3

 72
65
 73
0
 40
0.0
  0
ENDTAB
  0
TABLE
  2
LAYER
  5
1
330
0
100
AcDbSymbolTable
 70
2
  0
LAYER
  5
27
330
1
100
AcDbSymbolTableRecord
100
AcDbLayerTableRecord
  2
0
 70
0
 62
7
  6
Continuous
370
-3
390
13
347
21
  0
LAYER
  5
28
330
1
100
AcDbSymbolTableRecord
100
AcDbLayerTableRecord
  2
Defpoints
 70
0
 62
7
  6
Continuous
290
0
370
-3
390
13
347
21
  0
ENDTAB
  0
TABLE
  2
STYLE
  5
5
330
0
100
AcDbSymbolTable
 70
1
  0
STYLE
  5
29
330
5
100
AcDbSymbolTableRecord
100
AcDbTextStyleTableRecord
  2
Standard
 70
0
 40
0.0
 41
1.0
 50
0.0
 71
0
 42
2.5
  3
txt
  4

  0
ENDTAB
  0
TABLE
  2
VIEW
  5
7
330
0
100
AcDbSymbolTable
 70
0
  0
ENDTAB
  0
TABLE
  2
UCS
  5
6
330
0
100
AcDbSymbolTable
 70
0
  0
ENDTAB
  0
TABLE
  2
APPID
  5
3
330
0
100
AcDbSymbolTable
 70
3
  0
APPID
  5
2A
330
3
100
AcDbSymbolTableRecord
100
AcDbRegAppTableRecord
  2
ACAD
 70
0
  0
APPID
  5
45
330
3
100
AcDbSymbolTableRecord
100
AcDbRegAppTableRecord
  2
HATCHBACKGROUNDCOLOR
 70
0
  0
APPID
  5
46
330
3
100
AcDbSymbolTableRecord
100
AcDbRegAppTableRecord
  2
EZDXF
 70
0
  0
ENDTAB
  0
TABLE
  2
DIMSTYLE
  5
4
330
0
100
AcDbSymbolTable
 70
1
100
AcDbDimStyleTable
  0
DIMSTYLE
105
2B
330
4
100
AcDbSymbolTableRecord
100
AcDbDimStyleTableRecord
  2
Standard
 70
0
 40
1.0
 41
2.5
 42
0.625
 43
3.75
 44
1.25
 45
0.0
 46
0.0
 47
0.0
 48
0.0
 49
2.5
140
2.5
141
2.5
142
0.0
143
0.03937007874
144
1.0
145
0.0
146
1.0
147
0.625
148
0.0
 69
0
 70
0
 71
0
 72
0
 73
0
 74
0
 75
0
 76
0
 77
1
 78
8
 79
3
170
0
171
3
172
1
173
0
174
0
175
0
176
0
177
0
178
0
179
2
271
2
272
2
273
2
274
3
275
0
276
0
277
2
278
44
279
0
280
0
281
0
282
0
283
0
284
8
285
0
286
0
288
0
289
3
290
0
371
-2
372
-2
  0
ENDTAB
  0
TABLE
  2
BLOCK_RECORD
  5
9
330
0
100
AcDbSymbolTable
 70
2
  0
BLOCK_RECORD
  5
17
330
9
100
AcDbSymbolTableRecord
100
AcDbBlockTableRecord
  2
*Model_Space
340
1A
 70
0
280
1
281
0
  0
BLOCK_RECORD
  5
1B
330
9
100
AcDbSymbolTableRecord
100
AcDbBlockTableRecord
  2
*Paper_Space
340
1E
 70
0
280
1
281
0
  0
ENDTAB
  0
ENDSEC
  0
SECTION
  2
BLOCKS
  0
BLOCK
  5
18
330
17
100
AcDbEntity
  8
0
100
AcDbBlockBegin
  2
*Model_Space
 70
0
 10
0.0
 20
0.0
 30
0.0
  3
*Model_Space
  1

  0
ENDBLK
  5
19
330
17
100
AcDbEntity
  8
0
100
AcDbBlockEnd
  0
BLOCK
  5
1C
330
1B
100
AcDbEntity
  8
0
100
AcDbBlockBegin
  2
*Paper_Space
 70
0
 10
0.0
 20
0.0
 30
0.0
  3
*Paper_Space
  1

  0
ENDBLK
  5
1D
330
1B
100
AcDbEntity
  8
0
100
AcDbBlockEnd
  0
ENDSEC
  0
SECTION
  2
ENTITIES
  0
LWPOLYLINE
  5
2F
330
17
100
AcDbEntity
  8
0
100
AcDbPolyline
 90
441
 70
0
 10
-85.5
 20
20.7
 10
-85.60021822013366
 20
20.7
 10
-85.70043644026731
 20
20.7
 10
-85.80065466040097
 20
20.7
 10
-85.90087288053462
 20
20.7
 10
-86.00109110066828
 20
20.7
 10
-86.10130932080193
 20
20.7
 10
-86.20152754093559
 20
20.7
 10
-86.30174576106923
 20
20.7
 10
-86.40196397964415
 20
20.699997857099646
 10
-86.5019628149984
 20
20.69420556046001
 10
-86.60069865612567
 20
20.677336907595567
 10
-86.69694848071784
 20
20.649600847339133
 10
-86.78952006028638
 20
20.61134094105653
 10
-86.87726672807267
 20
20.563031107016492
 10
-86.95910158259348
 20
20.505269750054175
 10
-87.0340109508855
 20
20.438772349242875
 10
-87.10106694468183
 20
20.364362595389245
 10
-87.15943895398948
 20
20.282962188130075
 10
-87.20840393569928
 20
20.195579419012073
 10
-87.24735536978504
 20
20.103296681974033
 10
-87.27581077215311
 20
20.00725706593647
 10
-87.29341767108208
 20
19.908650195574033
 10
-87.29995797322391
 20
19.8086974956582
 10
-87.3
 20
19.708479410907707
 10
-87.3
 20
19.60826119077405
 10
-87.3
 20
19.5080429706404
 10
-87.3
 20
19.407824750506744
 10
-87.3
 20
19.307606530373093
 10
-87.3
 20
19.207388310239434
 10
-87.3
 20
19.10717009010578
 10
-87.3
 20
19.006951869972127
 10
-87.3
 20
18.906733649838472
 10
-87.3
 20
18.80651542970482
 10
-87.3
 20
18.706297209571165
 10
-87.3
 20
18.606078989437513
 10
-87.3
 20
18.505860769303855
 10
-87.3
 20
18.4056425491702
 10
-87.3
 20
18.305424329036548
 10
-87.3
 20
18.205206108902892
 10
-87.3
 20
18.10498788876924
 10
-87.3
 20
18.004769668635586
 10
-87.3
 20
17.904551448501934
 10
-87.3
 20
17.804333228368275
 10
-87.3
 20
17.70411500823462
 10
-87.3
 20
17.60389678810097
 10
-87.3
 20
17.503678567967317
 10
-87.3
 20
17.40346034783366
 10
-87.3
 20
17.303242127700006
 10
-87.3
 20
17.203023907566354
 10
-87.3
 20
17.102805687432696
 10
-87.20258746729904
 20
17.1
 10
-87.10236924716538
 20
17.1
 10
-87.00215102703174
 20
17.1
 10
-86.90193280689809
 20
17.1
 10
-86.80171458676443
 20
17.1
 10
-86.70149636663076
 20
17.1
 10
-86.60127814649712
 20
17.1
 10
-86.50105992636347
 20
17.1
 10
-86.40084170622981
 20
17.1
 10
-86.30062348609616
 20
17.1
 10
-86.2004052659625
 20
17.1
 10
-86.10018704582886
 20
17.1
 10
-85.99996882569519
 20
17.1
 10
-85.89975060556154
 20
17.1
 10
-85.79953238542788
 20
17.1
 10
-85.69931416529423
 20
17.1
 10
-85.59909594516058
 20
17.1
 10
-85.49887772502693
 20
17.1
 10
-85.39865950489327
 20
17.1
 10
-85.29844128475962
 20
17.1
 10
-85.19822306462596
 20
17.1
 10
-85.09800484449231
 20
17.1
 10
-84.99778662435865
 20
17.1
 10
-84.897568404225
 20
17.1
 10
-84.79735018409134
 20
17.1
 10
-84.6971319639577
 20
17.1
 10
-84.59691374382405
 20
17.1
 10
-84.49669552369038
 20
17.1
 10
-84.39647730355672
 20
17.1
 10
-84.29625908342307
 20
17.1
 10
-84.19604086328943
 20
17.1
 10
-84.09582264315577
 20
17.1
 10
-83.99560442302212
 20
17.1
 10
-83.89538620288846
 20
17.1
 10
-83.7951679827548
 20
17.1
 10
-83.69494976262115
 20
17.1
 10
-83.5947315424875
 20
17.1
 10
-83.49451332235384
 20
17.1
 10
-83.39429510222018
 20
17.1
 10
-83.29407688208654
 20
17.1
 10
-83.19385866195289
 20
17.1
 10
-83.09364044181922
 20
17.1
 10
-82.99342222168556
 20
17.1
 10
-82.89320400155191
 20
17.1
 10
-82.79298585242512
 20
17.10002733278516
 10
-82.69302109400199
 20
17.106380666238994
 10
-82.59438146318236
 20
17.123803094437687
 10
-82.49828879053536
 20
17.15207880903743
 10
-82.40593335793788
 20
17.190857564075475
 10
-82.31845915477665
 20
17.239659014401052
 10
-82.2369497075668
 20
17.297878665620487
 10
-82.16241465851238
 20
17.364795361855638
 10
-82.09577725925831
 20
17.43958021856624
 10
-82.03786293474565
 20
17.521306889786914
 10
-81.98938905882798
 20
17.608963042600557
 10
-81.95095606829636
 20
17.70146289671594
 10
-81.92304002538161
 20
17.797660673824108
 10
-81.90598672086091
 20
17.896364790138946
 10
-81.9000073908124
 20
17.996352616321648
 10
-81.8948238999263
 20
18.096385621960497
 10
-81.8785711751854
 20
18.195224717014366
 10
-81.85143575441187
 20
18.29164560018815
 10
-81.81375375896307
 20
18.384453924122855
 10
-81.7659919486349
 20
18.47250008955183
 10
-81.70874193999579
 20
18.554693485170883
 10
-81.6427128781434
 20
18.630015996835496
 10
-81.56872265265778
 20
18.697534618749426
 10
-81.48768776655663
 20
18.756413010432144
 10
-81.40061198374478
 20
18.80592185631119
 10
-81.30857389557936
 20
18.845447899617113
 10
-81.21271356056124
 20
18.874501538679816
 10
-81.1142183826448
 20
18.892722891532422
 10
-81.01430840308818
 20
18.89988625370158
 10
-80.91422118803156
 20
18.90409710603365
 10
-80.81519649899793
 20
18.919177846544844
 10
-80.71846093620017
 20
18.945169165533486
 10
-80.62521274487462
 20
18.98174911341595
 10
-80.53660697284263
 20
19.02846458125247
 10
-80.45374116315021
 20
19.08473691332243
 10
-80.37764175900865
 20
19.14986907482403
 10
-80.3092513894353
 20
19.22305428591336
 10
-80.24941719308511
 20
19.303386015134738
 10
-80.19888032490331
 20
19.38986920845544
 10
-80.15826677557843
 20
19.481432614813034
 10
-80.12807961751324
 20
19.576942055500947
 10
-80.10869277336148
 20
19.67521447302695
 10
-80.10034638431817
 20
19.77503258542399
 10
-80.10000000000001
 20
19.87524760198265
 10
-80.10000000000001
 20
19.975465822116302
 10
-80.10000000000001
 20
20.075684042249957
 10
-80.10000000000001
 20
20.175902262383612
 10
-80.10000000000001
 20
20.276120482517268
 10
-80.10000000000001
 20
20.376338702650923
 10
-80.10000000000001
 20
20.476556922784575
 10
-80.10000000000001
 20
20.576775142918226
 10
-80.10000000000001
 20
20.676993363051885
 10
-80.10000000000001
 20
20.777211583185537
 10
-80.10000000000001
 20
20.877429803319192
 10
-80.10000000000001
 20
20.977648023452847
 10
-80.10000000000001
 20
21.0778662435865
 10
-80.10000000000001
 20
21.178084463720154
 10
-80.10000000000001
 20
21.27830268385381
 10
-80.10000000000001
 20
21.37852090398746
 10
-80.10000000000001
 20
21.478739124121116
 10
-80.10000000000001
 20
21.57895734425477
 10
-80.09651959550627
 20
21.679073477685517
 10
-80.08218015637593
 20
21.778208225670255
 10
-80.05691331744117
 20
21.875135541855197
 10
-80.02103205428737
 20
21.968654805790806
 10
-79.97498082137784
 20
22.05760761193026
 10
-79.91933004668002
 20
22.140892118581263
 10
-79.85476906588133
 20
22.217476696212014
 10
-79.78209758371764
 20
22.286412706052335
 10
-79.70221576818102
 20
22.34684625070382
 10
-79.6161131003079
 20
22.398028751206464
 10
-79.52485611766353
 20
22.43932621954552
 10
-79.42957520334154
 20
22.470227111741927
 10
-79.33145058412099
 20
22.490348664251403
 10
-79.2316977112191
 20
22.499441635184557
 10
-79.13148604785583
 20
22.5
 10
-79.03126782772217
 20
22.5
 10
-78.93104960758852
 20
22.5
 10
-78.83083138745486
 20
22.5
 10
-78.73061316732121
 20
22.5
 10
-78.63039494718755
 20
22.5
 10
-78.5301767270539
 20
22.5
 10
-78.42995850692024
 20
22.5
 10
-78.32974028678659
 20
22.5
 10
-78.3
 20
22.570477933347064
 10
-78.3
 20
22.67069615348072
 10
-78.3
 20
22.77091437361437
 10
-78.3
 20
22.871132593748026
 10
-78.3
 20
22.971350813881678
 10
-78.3
 20
23.071569034015333
 10
-78.3
 20
23.17178725414899
 10
-78.3
 20
23.272005474282643
 10
-78.3
 20
23.372223694416295
 10
-78.3
 20
23.47244191454995
 10
-78.3
 20
23.572660134683606
 10
-78.3
 20
23.672878354817257
 10
-78.3
 20
23.773096574950916
 10
-78.3
 20
23.873314795084568
 10
-78.3
 20
23.973533015218223
 10
-78.3
 20
24.073751235351878
 10
-78.3
 20
24.17396945548553
 10
-78.3
 20
24.27418767561918
 10
-78.3
 20
24.374405895752837
 10
-78.3
 20
24.474624115886495
 10
-78.3
 20
24.574842336020147
 10
-78.3
 20
24.675060556153802
 10
-78.3
 20
24.775278776287458
 10
-78.3
 20
24.87549699642111
 10
-78.3
 20
24.975715216554764
 10
-78.3
 20
25.075933436688416
 10
-78.3
 20
25.17615165682207
 10
-78.3
 20
25.276369876955727
 10
-78.3
 20
25.376588097089382
 10
-78.3
 20
25.476806317223033
 10
-78.3
 20
25.57702453735669
 10
-78.3
 20
25.677242757490344
 10
-78.3
 20
25.777460977623996
 10
-78.3
 20
25.87767919775765
 10
-78.3
 20
25.977897417891306
 10
-78.3
 20
26.07811563802496
 10
-78.37833385815861
 20
26.1
 10
-78.47855207829227
 20
26.1
 10
-78.57877029842592
 20
26.1
 10
-78.67898851855958
 20
26.1
 10
-78.77920673869323
 20
26.1
 10
-78.87942495882689
 20
26.1
 10
-78.97964317896054
 20
26.1
 10
-79.07986139909418
 20
26.1
 10
-79.18007961922784
 20
26.1
 10
-79.2802978393615
 20
26.1
 10
-79.38051605949516
 20
26.1
 10
-79.48073427962882
 20
26.1
 10
-79.58095249976246
 20
26.1
 10
-79.68117071989612
 20
26.1
 10
-79.78138894002979
 20
26.1
 10
-79.88160716016343
 20
26.1
 10
-79.98182538029708
 20
26.1
 10
-80.08204360043074
 20
26.1
 10
-80.18226182056439
 20
26.1
 10
-80.28248004069805
 20
26.1
 10
-80.3826982608317
 20
26.1
 10
-80.48291648096536
 20
26.1
 10
-80.58313470109901
 20
26.1
 10
-80.68335292123267
 20
26.1
 10
-80.78357114136632
 20
26.1
 10
-80.88378936149998
 20
26.1
 10
-80.98400758163362
 20
26.1
 10
-81.08422580176729
 20
26.1
 10
-81.18444402190094
 20
26.1
 10
-81.2846622420346
 20
26.1
 10
-81.38488046216824
 20
26.1
 10
-81.4850986823019
 20
26.1
 10
-81.58531690243555
 20
26.1
 10
-81.6855351225692
 20
26.1
 10
-81.78575334270288
 20
26.1
 10
-81.88597156283652
 20
26.1
 10
-81.98618978297017
 20
26.1
 10
-82.08640800310383
 20
26.1
 10
-82.18662622323748
 20
26.1
 10
-82.28684444337114
 20
26.1
 10
-82.38706266350479
 20
26.1
 10
-82.48728088363845
 20
26.1
 10
-82.5874991037721
 20
26.1
 10
-82.68771732390576
 20
26.1
 10
-82.7879355440394
 20
26.1
 10
-82.88815376417307
 20
26.1
 10
-82.98837198430671
 20
26.1
 10
-83.08859020444038
 20
26.1
 10
-83.18880842457403
 20
26.1
 10
-83.28902664470768
 20
26.1
 10
-83.38924486484133
 20
26.1
 10
-83.48946308497499
 20
26.1
 10
-83.58968130510866
 20
26.1
 10
-83.6898995252423
 20
26.1
 10
-83.79011774537595
 20
26.1
 10
-83.8903359655096
 20
26.1
 10
-83.99055418564326
 20
26.1
 10
-84.09077240577692
 20
26.1
 10
-84.19099062591057
 20
26.1
 10
-84.29120884604423
 20
26.1
 10
-84.39142706617788
 20
26.1
 10
-84.49164528631154
 20
26.1
 10
-84.5918635064452
 20
26.1
 10
-84.69208172657883
 20
26.1
 10
-84.79229994671249
 20
26.1
 10
-84.89251816684616
 20
26.1
 10
-84.99273638697981
 20
26.1
 10
-85.09295460711346
 20
26.1
 10
-85.19317282724711
 20
26.1
 10
-85.29339104738077
 20
26.1
 10
-85.39360926751442
 20
26.1
 10
-85.49382748764809
 20
26.1
 10
-85.59404570778173
 20
26.1
 10
-85.69426392791539
 20
26.1
 10
-85.79448214804904
 20
26.1
 10
-85.8947003681827
 20
26.1
 10
-85.99491858831635
 20
26.1
 10
-86.09513680845001
 20
26.1
 10
-86.19535502858366
 20
26.1
 10
-86.29557324871732
 20
26.1
 10
-86.39579146885097
 20
26.1
 10
-86.49600968898461
 20
26.1
 10
-86.59622790911828
 20
26.1
 10
-86.69644612925192
 20
26.1
 10
-86.7966643493856
 20
26.1
 10
-86.89688256951925
 20
26.1
 10
-86.99710078965289
 20
26.1
 10
-87.09731900978655
 20
26.1
 10
-87.1975372299202
 20
26.1
 10
-87.29775545005387
 20
26.1
 10
-87.3
 20
26.002026329812487
 10
-87.3
 20
25.901808109678836
 10
-87.3
 20
25.80158988954518
 10
-87.3
 20
25.70137166941153
 10
-87.3
 20
25.601153449277874
 10
-87.3
 20
25.50093522914422
 10
-87.3
 20
25.400717009010563
 10
-87.3
 20
25.300498788876908
 10
-87.3
 20
25.200280568743256
 10
-87.3
 20
25.1000623486096
 10
-87.3
 20
24.999844128475942
 10
-87.3
 20
24.899625908342294
 10
-87.3
 20
24.79940768820864
 10
-87.3
 20
24.69918946807498
 10
-87.3
 20
24.59897124794133
 10
-87.3
 20
24.49875302780767
 10
-87.3
 20
24.39853480767402
 10
-87.3
 20
24.298316587540363
 10
-87.3
 20
24.198098367406708
 10
-87.3
 20
24.097880147273056
 10
-87.3
 20
23.9976619271394
 10
-87.3
 20
23.897443707005742
 10
-87.3
 20
23.79722548687209
 10
-87.3
 20
23.697007266738435
 10
-87.3
 20
23.596789046604783
 10
-87.3
 20
23.496570826471128
 10
-87.3
 20
23.396352606337473
 10
-87.3
 20
23.29613438620382
 10
-87.3
 20
23.195916166070162
 10
-87.3
 20
23.09569794593651
 10
-87.3
 20
22.995479725802856
 10
-87.3
 20
22.8952615056692
 10
-87.3
 20
22.79504328553555
 10
-87.3
 20
22.694825065401893
 10
-87.3
 20
22.59460684526824
 10
-87.29438862513459
 20
22.5
 10
-87.19417040500092
 20
22.5
 10
-87.09395218486729
 20
22.5
 10
-86.99373396473362
 20
22.5
 10
-86.89351574459997
 20
22.5
 10
-86.79329752446631
 20
22.5
 10
-86.69307930433266
 20
22.5
 10
-86.592861084199
 20
22.5
 10
-86.49264286406535
 20
22.5
 10
-86.39242464393169
 20
22.5
 10
-86.29220642379804
 20
22.5
 10
-86.1919882036644
 20
22.5
 10
-86.09176998353074
 20
22.5
 10
-85.99155176339708
 20
22.5
 10
-85.89133354326341
 20
22.5
 10
-85.79111532312976
 20
22.5
 10
-85.69089710299612
 20
22.5
 10
-85.59067888286246
 20
22.5
 10
-85.49046066272881
 20
22.5
 10
-85.39024244259515
 20
22.5
 10
-85.2900242224615
 20
22.5
 10
-85.18980600232784
 20
22.5
 10
-85.08958778219419
 20
22.5
 10
-84.98936956206053
 20
22.5
 10
-84.88915134192688
 20
22.5
 10
-84.78893312179324
 20
22.5
 10
-84.68871490165958
 20
22.5
 10
-84.58849668152591
 20
22.5
 10
-84.48827846139226
 20
22.5
 10
-84.3880602412586
 20
22.5
 10
-84.28784202112496
 20
22.5
 10
-84.1876238009913
 20
22.5
 10
-84.08740558085763
 20
22.5
 10
-83.98718736072398
 20
22.5
 10
-83.88696914059034
 20
22.5
 10
-83.78675092045668
 20
22.5
 10
-83.68653270032303
 20
22.5
 10
-83.58631448018937
 20
22.5
 10
-83.4860962600557
 20
22.5
 10
-83.38587803992206
 20
22.5
 10
-83.2856598197884
 20
22.5
 10
-83.18544159965475
 20
22.5
 10
-83.0852233795211
 20
22.5
 10
-82.98500515938744
 20
22.5
 10
-82.8847869392538
 20
22.5
 10
-82.78456947519236
 20
22.49986771189112
 10
-82.68466850582382
 20
22.4925797703573
 10
-82.58619612599884
 20
22.474235610955134
 10
-82.49037209457984
 20
22.445062459339617
 10
-82.39838336583533
 20
22.40542167785716
 10
-82.31136938686036
 20
22.35580428941809
 10
-82.2304079834595
 20
22.296824895288143
 10
-82.1565020093212
 20
22.229214062138123
 10
-82.0905669238576
 20
22.153809272651806
 10
-82.03341945258077
 20
22.071544551785347
 10
-81.98576747047746
 20
21.9834388971757
 10
-81.94820123369446
 20
21.89058365700836
 10
-81.92118606814681
 20
21.79412901169253
 10
-81.90505660561303
 20
21.695269726792514
 10
-81.90001263871426
 20
21.595230353691246
 10
-81.90611664612051
 20
21.495250061302425
 10
-81.92329301863921
 20
21.396567286718057
 10
-81.95132899577202
 20
21.300404394920964
 10
-81.98987730113913
 20
21.20795253757946
 10
-82.03846044412656
 20
21.120356898475475
 10
-82.09647663447255
 20
21.03870250832831
 10
-82.16320723653062
 20
20.964000804722975
 10
-82.23782567087406
 20
20.897177103622965
 10
-82.3194076529801
 20
20.839059137655294
 10
-82.40694264216852
 20
20.790366803141982
 10
-82.49934635897911
 20
20.751703242879667
 10
-82.59547421593766
 20
20.723547375123058
 10
-82.69413549534582
 20
20.706247961314592
 10
-82.79410809847745
 20
20.700019286041947
 10
-82.89432627652502
 20
20.7
 10
-82.99454449665868
 20
20.7
 10
-83.09476271679233
 20
20.7
 10
-83.19498093692599
 20
20.7
 10
-83.29519915705964
 20
20.7
 10
-83.3954173771933
 20
20.7
 10
-83.49563559732695
 20
20.7
 10
-83.59585381746061
 20
20.7
 10
-83.69607203759426
 20
20.7
 10
-83.79629025772792
 20
20.7
 10
-83.89650847786156
 20
20.7
 10
-83.99672669799523
 20
20.7
 10
-84.09694491812888
 20
20.7
 10
-84.19716313826254
 20
20.7
 10
-84.29738135839618
 20
20.7
 10
-84.39759957852984
 20
20.7
 10
-84.4978177986635
 20
20.7
 10
-84.59803601879715
 20
20.7
 10
-84.69825423893082
 20
20.7
 10
-84.79847245906446
 20
20.7
 10
-84.89869067919811
 20
20.7
 10
-84.99890889933177
 20
20.7
 10
-85.09912711946544
 20
20.7
 10
-85.19934533959908
 20
20.7
 10
-85.29956355973273
 20
20.7
 10
-85.39978177986639
 20
20.7
 10
-85.5
 20
20.7
  0
LWPOLYLINE
  5
30
330
17
100
AcDbEntity
  8
0
100
AcDbPolyline
 90
386
 70
0
 10
-72.9
 20
18.900000000000002
 10
-72.9
 20
18.799832206936664
 10
-72.9
 20
18.699664413873325
 10
-72.9
 20
18.599496620809987
 10
-72.9
 20
18.49932882774665
 10
-72.9
 20
18.399161034683313
 10
-72.9
 20
18.29899324161998
 10
-72.9
 20
18.19882544855664
 10
-72.9
 20
18.0986576554933
 10
-72.9
 20
17.998489862429963
 10
-72.9
 20
17.898322069366625
 10
-72.9
 20
17.79815427630329
 10
-72.9
 20
17.69798648323995
 10
-72.9
 20
17.597818690176613
 10
-72.9
 20
17.497650897113278
 10
-72.9
 20
17.39748310404994
 10
-72.9
 20
17.297315310986605
 10
-72.9
 20
17.197147517923266
 10
-72.89697972485992
 20
17.1
 10
-72.7968119317966
 20
17.1
 10
-72.69664413873326
 20
17.1
 10
-72.59647634566993
 20
17.1
 10
-72.49630855260658
 20
17.1
 10
-72.39614075954324
 20
17.1
 10
-72.29597296647991
 20
17.1
 10
-72.19580517341657
 20
17.1
 10
-72.09563738035324
 20
17.1
 10
-71.99546958728989
 20
17.1
 10
-71.89530179422655
 20
17.1
 10
-71.79513400116322
 20
17.1
 10
-71.69496620809988
 20
17.1
 10
-71.59479841503655
 20
17.1
 10
-71.4946306219732
 20
17.1
 10
-71.39446282890987
 20
17.1
 10
-71.29429503584653
 20
17.1
 10
-71.1941272427832
 20
17.1
 10
-71.09395944971986
 20
17.1
 10
-70.99379165665651
 20
17.1
 10
-70.89362386359318
 20
17.1
 10
-70.79345607052984
 20
17.1
 10
-70.69328827746651
 20
17.1
 10
-70.59312048440317
 20
17.1
 10
-70.49295269133982
 20
17.1
 10
-70.39278489827649
 20
17.1
 10
-70.29261710521315
 20
17.1
 10
-70.19244931214982
 20
17.1
 10
-70.09228151908648
 20
17.1
 10
-69.99211372602313
 20
17.1
 10
-69.8919459329598
 20
17.1
 10
-69.79177813989646
 20
17.1
 10
-69.69161034683313
 20
17.1
 10
-69.5914425537698
 20
17.1
 10
-69.49127476070645
 20
17.1
 10
-69.39110696764311
 20
17.1
 10
-69.29093917457978
 20
17.1
 10
-69.19077138151644
 20
17.1
 10
-69.09060358845312
 20
17.1
 10
-68.99043579538977
 20
17.1
 10
-68.89026800232644
 20
17.1
 10
-68.7901002092631
 20
17.1
 10
-68.68993241619977
 20
17.1
 10
-68.58976462313643
 20
17.1
 10
-68.48959683007308
 20
17.1
 10
-68.38942903700975
 20
17.1
 10
-68.28926124394641
 20
17.1
 10
-68.18909345088308
 20
17.1
 10
-68.08892565781974
 20
17.1
 10
-67.9887578647564
 20
17.1
 10
-67.88859007169306
 20
17.1
 10
-67.78842227862972
 20
17.1
 10
-67.68825448556639
 20
17.1
 10
-67.58808669250305
 20
17.1
 10
-67.4879188994397
 20
17.1
 10
-67.38775110637637
 20
17.1
 10
-67.28758331331304
 20
17.1
 10
-67.1874155202497
 20
17.1
 10
-67.08724772718637
 20
17.1
 10
-66.98707993412302
 20
17.1
 10
-66.88691214105968
 20
17.1
 10
-66.78674434799635
 20
17.1
 10
-66.68657655493301
 20
17.1
 10
-66.58640876186968
 20
17.1
 10
-66.48624096880633
 20
17.1
 10
-66.386073175743
 20
17.1
 10
-66.28590538267966
 20
17.1
 10
-66.18573758961632
 20
17.1
 10
-66.08556979655299
 20
17.1
 10
-65.98540200348964
 20
17.1
 10
-65.8852342104263
 20
17.1
 10
-65.78506641736297
 20
17.1
 10
-65.68489862429963
 20
17.1
 10
-65.5847308312363
 20
17.1
 10
-65.48456303817295
 20
17.1
 10
-65.38439524510962
 20
17.1
 10
-65.28422745204628
 20
17.1
 10
-65.18405965898295
 20
17.1
 10
-65.08389186591961
 20
17.1
 10
-64.98372407285628
 20
17.1
 10
-64.88355627979294
 20
17.1
 10
-64.78338942988645
 20
17.100153296966365
 10
-64.68354810657746
 20
17.107565713053166
 10
-64.5851478012298
 20
17.126021434654366
 10
-64.48940615490743
 20
17.155292083977777
 10
-64.3975079094633
 20
17.195015455393456
 10
-64.31059024711416
 20
17.24469999749754
 10
-64.22972871853518
 20
17.303730895747577
 10
-64.15592393360603
 20
17.371377680400634
 10
-64.09008917950129
 20
17.446803265610832
 10
-64.03303911934366
 20
17.529074307833135
 10
-63.98547971126715
 20
17.617172755354908
 10
-63.94799947263508
 20
17.710008446036976
 10
-63.92106219751275
 20
17.80643259737531
 10
-63.90500121751151
 20
17.905252021952336
 10
-63.9
 20
18.00524392204172
 10
-63.9
 20
18.10541171510506
 10
-63.9
 20
18.205579508168398
 10
-63.9
 20
18.305747301231733
 10
-63.9
 20
18.40591509429507
 10
-63.9
 20
18.50608288735841
 10
-63.9
 20
18.60625068042175
 10
-63.9
 20
18.706418473485087
 10
-63.9
 20
18.806586266548422
 10
-63.9
 20
18.906754059611757
 10
-63.9
 20
19.006921852675095
 10
-63.9
 20
19.107089645738434
 10
-63.9
 20
19.207257438801772
 10
-63.9
 20
19.30742523186511
 10
-63.9
 20
19.407593024928445
 10
-63.9
 20
19.507760817991784
 10
-63.9
 20
19.607928611055122
 10
-63.9
 20
19.70809640411846
 10
-63.90003794248621
 20
19.808264081046588
 10
-63.90652404516506
 20
19.90816985777833
 10
-63.924066343334516
 20
20.00673710146135
 10
-63.95244776223521
 20
20.10274610527619
 10
-63.99131709989693
 20
20.195008818991283
 10
-64.0401933730392
 20
20.282383550327385
 10
-64.09847176893284
 20
20.36378909267187
 10
-64.16543112957194
 20
20.438218104321454
 10
-64.24024287554472
 20
20.504749573693772
 10
-64.32198125917544
 20
20.5625602162587
 10
-64.40963482006208
 20
20.610934662159682
 10
-64.50211890125401
 20
20.64927430845981
 10
-64.59828907119055
 20
20.677104726471608
 10
-64.6969552853121
 20
20.694081532509696
 10
-64.79689661210311
 20
20.69999464941941
 10
-64.89687634134141
 20
20.705229093852342
 10
-64.99565728759906
 20
20.721525056811874
 10
-65.09201709962342
 20
20.748691587303682
 10
-65.18476338615494
 20
20.78639251682732
 10
-65.27274847100897
 20
20.834161320408352
 10
-65.3548835948371
 20
20.891406889547568
 10
-65.43015238783018
 20
20.95742084681191
 10
-65.49762344664694
 20
21.031386311553764
 10
-65.55646185993675
 20
21.1123880082883
 10
-65.60593953983533
 20
21.199423592644276
 10
-65.64544423158823
 20
21.291416054736796
 10
-65.674487089813
 20
21.38722704647819
 10
-65.69270872764939
 20
21.485670967910107
 10
-65.6998836639426
 20
21.58552963824735
 10
-65.69592311342888
 20
21.685567370088705
 10
-65.68087608539663
 20
21.784546260260953
 10
-65.65492877722764
 20
21.881241508081704
 10
-65.61840227032313
 20
21.9744565714872
 10
-65.57174855692618
 20
22.063037973477734
 10
-65.51554494700565
 20
22.145889575660398
 10
-65.45048692441334
 20
22.221986142263056
 10
-65.37737954071457
 20
22.290386026773596
 10
-65.29712745318815
 20
22.350242824215375
 10
-65.21072373026914
 20
22.40081584486935
 10
-65.11923756295984
 20
22.441479279837278
 10
-65.0238010342727
 20
22.471729945027977
 10
-64.92559511042438
 20
22.491193507739755
 10
-64.82583502713173
 20
22.499629118789017
 10
-64.72575525184408
 20
22.503067607134597
 10
-64.6265942079955
 20
22.516863299766516
 10
-64.52957895030403
 20
22.54158724620301
 10
-64.43590998075166
 20
22.576933503364558
 10
-64.34674639313732
 20
22.622464683846463
 10
-64.26319153003001
 20
22.677617368309235
 10
-64.18627932960754
 20
22.741709077433814
 10
-64.11696153133076
 20
22.813946717168175
 10
-64.05609589877407
 20
22.893436392760734
 10
-64.00443560534816
 20
22.979194470138218
 10
-63.96261991425882
 20
23.070159747750367
 10
-63.93116626803237
 20
23.165206588262794
 10
-63.910463885494096
 20
23.26315884760158
 10
-63.900768945433384
 20
23.36280442898657
 10
-63.9
 20
23.4629616253304
 10
-63.9
 20
23.56312941839374
 10
-63.9
 20
23.663297211457078
 10
-63.9
 20
23.763465004520416
 10
-63.9
 20
23.863632797583755
 10
-63.9
 20
23.963800590647086
 10
-63.9
 20
24.063968383710424
 10
-63.9
 20
24.164136176773763
 10
-63.9
 20
24.2643039698371
 10
-63.9
 20
24.364471762900436
 10
-63.9
 20
24.464639555963775
 10
-63.9
 20
24.56480734902711
 10
-63.9
 20
24.664975142090448
 10
-63.9
 20
24.765142935153786
 10
-63.9
 20
24.865310728217125
 10
-63.9
 20
24.96547852128046
 10
-63.9
 20
25.065646314343795
 10
-63.9
 20
25.165814107407133
 10
-63.90241758974788
 20
25.265922809451634
 10
-63.91529300378576
 20
25.365207538718966
 10
-63.939116103040156
 20
25.462447929988485
 10
-63.97359209184129
 20
25.556440695393693
 10
-64.01829435180075
 20
25.646022734368316
 10
-64.07266972094222
 20
25.730085526274507
 10
-64.13604533872831
 20
25.807588847639245
 10
-64.20763697228091
 20
25.87757364425682
 10
-64.28655872076322
 20
25.939173898873403
 10
-64.37183397783801
 20
25.991627347598584
 10
-64.4624075165485
 20
26.034284912435222
 10
-64.55715854707957
 20
26.066618733205956
 10
-64.65491458581728
 20
26.08822869948647
 10
-64.75446596408636
 20
26.09884740171701
 10
-64.8546143092418
 20
26.1
 10
-64.95478210230513
 20
26.1
 10
-65.05494989536847
 20
26.1
 10
-65.1551176884318
 20
26.1
 10
-65.25528548149514
 20
26.1
 10
-65.35545327455849
 20
26.1
 10
-65.45562106762182
 20
26.1
 10
-65.55578886068515
 20
26.1
 10
-65.65595665374849
 20
26.1
 10
-65.75612444681182
 20
26.1
 10
-65.85629223987517
 20
26.1
 10
-65.95646003293851
 20
26.1
 10
-66.05662782600184
 20
26.1
 10
-66.15679561906518
 20
26.1
 10
-66.25696341212851
 20
26.1
 10
-66.35713120519185
 20
26.1
 10
-66.45729899825518
 20
26.1
 10
-66.55746679131852
 20
26.1
 10
-66.65763458438185
 20
26.1
 10
-66.75780237744519
 20
26.1
 10
-66.85797017050854
 20
26.1
 10
-66.95813796357187
 20
26.1
 10
-67.0583057566352
 20
26.1
 10
-67.15847354969854
 20
26.1
 10
-67.25864134276188
 20
26.1
 10
-67.35880913582523
 20
26.1
 10
-67.45897692888856
 20
26.1
 10
-67.5
 20
26.040855278048106
 10
-67.5
 20
25.940687484984768
 10
-67.5
 20
25.840519691921433
 10
-67.5
 20
25.740351898858094
 10
-67.5
 20
25.64018410579476
 10
-67.5
 20
25.54001631273142
 10
-67.5
 20
25.439848519668082
 10
-67.5
 20
25.339680726604744
 10
-67.5
 20
25.23951293354141
 10
-67.4979568779492
 20
25.13939104568039
 10
-67.48566934581478
 20
25.04003184728196
 10
-67.46242222000087
 20
24.94265215281886
 10
-67.42850316887305
 20
24.84845697394583
 10
-67.38433191907095
 20
24.758611915966807
 10
-67.33045506165864
 20
24.674228754212177
 10
-67.26753928840859
 20
24.596351676527654
 10
-67.19636314191581
 20
24.525944362115194
 10
-67.1178073816296
 20
24.463878056617048
 10
-67.03284408501654
 20
24.41092079100625
 10
-66.94252461872144
 20
24.367727877692797
 10
-66.84796662857526
 20
24.334833801450255
 10
-66.75034020944022
 20
24.31264560550732
 10
-66.65085342603159
 20
24.301437854647297
 10
-66.55073736388691
 20
24.298650762356093
 10
-66.45123089546692
 20
24.28761914892392
 10
-66.35356534989862
 20
24.265603814241484
 10
-66.25894927606195
 20
24.232877184044167
 10
-66.16855348756783
 20
24.189844229522578
 10
-66.08349657468571
 20
24.137037456062174
 10
-66.00483106250212
 20
24.07511031382852
 10
-65.93353038659343
 20
24.004829111737934
 10
-65.87047684738103
 20
23.927063534873064
 10
-65.81645069222598
 20
23.842775882684293
 10
-65.77212046036512
 20
23.75300916114732
 10
-65.73803471016417
 20
23.658874176229
 10
-65.71461523105758
 20
23.561535788371433
 10
-65.70215182417304
 20
23.46219849808644
 10
-65.7007987162273
 20
23.362091541029393
 10
-65.71057265106879
 20
23.262453676991427
 10
-65.73135268248318
 20
23.164517861036533
 10
-65.76288167082572
 20
23.069495986468464
 10
-65.80476946496046
 20
22.978563888423498
 10
-65.85649773013186
 20
22.892846793660024
 10
-65.91742636202707
 20
22.813405396594558
 10
-65.98680140765879
 20
22.74122273388439
 10
-66.06376439505304
 20
22.677192019975454
 10
-66.1473629562926
 20
22.622105594142866
 10
-66.23656261246309
 20
22.576645115797366
 10
-66.33025957467012
 20
22.541373129384564
 10
-66.42729440272352
 20
22.516726103255976
 10
-66.52646635247054
 20
22.50300902865134
 10
-66.62654823423959
 20
22.499608354373592
 10
-66.72630159853026
 20
22.491093657372055
 10
-66.82449206103652
 20
22.471552244292663
 10
-66.91990457736586
 20
22.441225927667695
 10
-67.01135847843918
 20
22.400489976337127
 10
-67.09772208051817
 20
22.349848471735907
 10
-67.17792668907033
 20
22.289928070207477
 10
-67.25097982318266
 20
22.221470248530917
 10
-67.31597749688041
 20
22.14532212861837
 10
-67.37211540537736
 20
22.062425994921306
 10
-67.41869887783496
 20
21.973807634260968
 10
-67.45515147347119
 20
21.88056364237025
 10
-67.48102211464784
 20
21.783847854220422
 10
-67.49599066866882
 20
21.684857066048718
 10
-67.50012809078177
 20
21.584816225767703
 10
-67.50738219158207
 20
21.484963275015545
 10
-67.52568186885799
 20
21.386533830417235
 10
-67.55480067576643
 20
21.290745893616393
 10
-67.59437828563057
 20
21.19878477928117
 10
-67.64392495075283
 20
21.11178844759071
 10
-67.70282756273053
 20
21.030833422703196
 10
-67.77035723928162
 20
20.956921471455512
 10
-67.84567834369832
 20
20.8909672071371
 10
-67.92785882531884
 20
20.833786771733426
 10
-68.01588175306026
 20
20.786087736689066
 10
-68.10865789929255
 20
20.748460347162055
 10
-68.20503921833631
 20
20.72137021811625
 10
-68.30383305279632
 20
20.705152572632898
 10
-68.40381690337851
 20
20.7
 10
-68.50398469644185
 20
20.7
 10
-68.6041524895052
 20
20.7
 10
-68.70432028256853
 20
20.7
 10
-68.80448807563187
 20
20.7
 10
-68.9046558686952
 20
20.7
 10
-69.00482366175854
 20
20.7
 10
-69.10499145482189
 20
20.7
 10
-69.20515924788522
 20
20.7
 10
-69.30532704094855
 20
20.7
 10
-69.40549483401189
 20
20.7
 10
-69.50566262707522
 20
20.7
 10
-69.60583042013857
 20
20.7
 10
-69.70599821320191
 20
20.7
 10
-69.80616600626524
 20
20.7
 10
-69.90633379932856
 20
20.7
 10
-70.00650159239191
 20
20.7
 10
-70.10666938545525
 20
20.7
 10
-70.20683717851858
 20
20.7
 10
-70.30700497158192
 20
20.7
 10
-70.40717276464525
 20
20.7
 10
-70.5073405577086
 20
20.7
 10
-70.60750835077194
 20
20.7
 10
-70.70767614383527
 20
20.7
 10
-70.8078439368986
 20
20.7
 10
-70.90801172996194
 20
20.7
 10
-71.00817952302529
 20
20.7
 10
-71.10834731608863
 20
20.7
 10
-71.20851510915196
 20
20.7
 10
-71.3086829022153
 20
20.7
 10
-71.40885069527863
 20
20.7
 10
-71.50901848834198
 20
20.7
 10
-71.60918628140531
 20
20.7
 10
-71.70935407446865
 20
20.7
 10
-71.80952186753198
 20
20.7
 10
-71.90968966059532
 20
20.7
 10
-72.00985725657284
 20
20.699946017543752
 10
-72.10975139451271
 20
20.693283063425316
 10
-72.20828742889475
 20
20.67556630072452
 10
-72.3042460390947
 20
20.64701496308813
 10
-72.39643979846988
 20
20.60798235512241
 10
-72.48372786800705
 20
20.558951480473787
 10
-72.5650301134781
 20
20.50052906496656
 10
-72.63934047141274
 20
20.433438048757527
 10
-72.70573939849268
 20
20.3585086404123
 10
-72.76340525031421
 20
20.276668043603426
 10
-72.81162444871391
 20
20.188928983555904
 10
-72.84980031184381
 20
20.096377175217967
 10
-72.87746043772873
 20
20.000157888230564
 10
-72.89426254993985
 20
19.901461774945496
 10
-72.89999873304725
 20
19.801510136861406
 10
-72.9
 20
19.70134234450669
 10
-72.9
 20
19.601174551443354
 10
-72.9
 20
19.501006758380015
 10
-72.9
 20
19.40083896531668
 10
-72.9
 20
19.30067117225334
 10
-72.9
 20
19.200503379190003
 10
-72.9
 20
19.100335586126665
 10
-72.9
 20
19.00016779306333
 10
-72.9
 20
18.900000000000002
  0
LWPOLYLINE
  5
31
330
17
100
AcDbEntity
  8
0
100
AcDbPolyline
 90
125
 70
0
 10
-72.9
 20
24.3
 10
-72.9
 20
24.199446907495346
 10
-72.9
 20
24.098893814990696
 10
-72.9
 20
23.99834072248604
 10
-72.9
 20
23.897787629981387
 10
-72.9
 20
23.797234537476733
 10
-72.9
 20
23.69668144497208
 10
-72.9
 20
23.596128352467424
 10
-72.9
 20
23.49557525996277
 10
-72.89998623402576
 20
23.39502219283767
 10
-72.8938199878179
 20
23.294710734748545
 10
-72.87650812502949
 20
23.195712196259052
 10
-72.84826651841736
 20
23.099261053848878
 10
-72.80944733074722
 20
23.00656001887682
 10
-72.76053462344935
 20
22.91876504019891
 10
-72.70213832054526
 20
22.83697088989832
 10
-72.63498660311252
 20
22.7621975118678
 10
-72.55991682912638
 20
22.69537730347295
 10
-72.47786509190435
 20
22.637343488889492
 10
-72.38985454735622
 20
22.588819729094897
 10
-72.29698265559473
 20
22.55041109807395
 10
-72.20040749599916
 20
22.52259653776193
 10
-72.10133332637837
 20
22.505722885809387
 10
-72.00099556630533
 20
22.50000055064032
 10
-71.90044247400373
 20
22.5
 10
-71.79988938149907
 20
22.5
 10
-71.69933628899442
 20
22.5
 10
-71.59878319648976
 20
22.5
 10
-71.49823010398511
 20
22.5
 10
-71.39767701148045
 20
22.5
 10
-71.2971239189758
 20
22.5
 10
-71.19657082647115
 20
22.5
 10
-71.0960177339665
 20
22.5
 10
-70.99546464146184
 20
22.5
 10
-70.89491154895718
 20
22.5
 10
-70.79435845645254
 20
22.5
 10
-70.69380536394789
 20
22.5
 10
-70.59325227144322
 20
22.5
 10
-70.49269917893858
 20
22.5
 10
-70.39214608643393
 20
22.5
 10
-70.29159299392926
 20
22.5
 10
-70.19103990142462
 20
22.5
 10
-70.09048680891996
 20
22.5
 10
-69.98993371641531
 20
22.5
 10
-69.88938062391065
 20
22.5
 10
-69.788827531406
 20
22.5
 10
-69.68827443890135
 20
22.5
 10
-69.5877213463967
 20
22.5
 10
-69.48716825389204
 20
22.5
 10
-69.38661516138738
 20
22.5
 10
-69.3
 20
22.51393793111727
 10
-69.3
 20
22.614491023621923
 10
-69.3
 20
22.715044116126574
 10
-69.3
 20
22.815597208631228
 10
-69.3
 20
22.916150301135882
 10
-69.3
 20
23.016703393640537
 10
-69.3
 20
23.11725648614519
 10
-69.3
 20
23.217809578649845
 10
-69.3
 20
23.318362671154496
 10
-69.3001987738576
 20
23.418914371061124
 10
-69.30791770098213
 20
23.519118310007194
 10
-69.32676057632742
 20
23.61783688609591
 10
-69.35649243595584
 20
23.713839113878894
 10
-69.39674253417795
 20
23.805927879802717
 10
-69.44700896661898
 20
23.892954869788078
 10
-69.50666492878756
 20
23.973834888296995
 10
-69.57496653210416
 20
24.047559390334268
 10
-69.65106207992652
 20
24.11320905764397
 10
-69.73400268790313
 20
24.169965262280382
 10
-69.82275411622278
 20
24.21712027460659
 10
-69.91620966621625
 20
24.25408608843073
 10
-70.01320398049417
 20
24.28040175323359
 10
-70.11252757453823
 20
24.29573912205722
 10
-70.21294191854186
 20
24.300093056619488
 10
-70.31319488143536
 20
24.307146754042503
 10
-70.41203634451395
 20
24.325334013119775
 10
-70.50823378997232
 20
24.354428045214778
 10
-70.60058766996222
 20
24.394066058119996
 10
-70.68794636452645
 20
24.44375377994636
 10
-70.76922054188921
 20
24.502871622517517
 10
-70.8433967420349
 20
24.570682407413493
 10
-70.90955001419324
 20
24.646340558322738
 10
-70.96685545064558
 20
24.7289026450773
 10
-71.01459847303008
 20
24.817339147890642
 10
-71.0521837428791
 20
24.91054729510234
 10
-71.07914258527764
 20
25.00736481434753
 10
-71.09513883307243
 20
25.106584425678907
 10
-71.10002698124349
 20
25.206968895917253
 10
-71.10641513824211
 20
25.307266466508082
 10
-71.12394597988316
 20
25.40622646250453
 10
-71.15240090282155
 20
25.502614888038057
 10
-71.19142508431308
 20
25.595229813806956
 10
-71.24053190672754
 20
25.68291636470625
 10
-71.29910902549717
 20
25.764581120708517
 10
-71.36642600483502
 20
25.83920575142178
 10
-71.44164342600878
 20
25.905859714306448
 10
-71.52382335459318
 20
25.963711858209034
 10
-71.6119410361778
 20
26.012040787520696
 10
-71.70489767468929
 20
26.050243857723306
 10
-71.80153413398659
 20
26.07784469015171
 10
-71.90064539187541
 20
26.094499112265858
 10
-72.00099556630533
 20
26.099999449359682
 10
-72.10133332637838
 20
26.094277114190614
 10
-72.20040749599916
 20
26.07740346223807
 10
-72.29698265559473
 20
26.04958890192605
 10
-72.38985454735622
 20
26.011180270905104
 10
-72.47786509190435
 20
25.96265651111051
 10
-72.55991682912638
 20
25.904622696527056
 10
-72.63498660311252
 20
25.837802488132198
 10
-72.70213832054526
 20
25.76302911010168
 10
-72.76053462344935
 20
25.681234959801092
 10
-72.80944733074722
 20
25.593439981123183
 10
-72.84826651841736
 20
25.500738946151124
 10
-72.87650812502949
 20
25.40428780374095
 10
-72.8938199878179
 20
25.305289265251456
 10
-72.89998623402576
 20
25.204977807162333
 10
-72.9
 20
25.104424740037228
 10
-72.9
 20
25.003871647532574
 10
-72.9
 20
24.90331855502792
 10
-72.9
 20
24.802765462523265
 10
-72.9
 20
24.702212370018614
 10
-72.9
 20
24.60165927751396
 10
-72.9
 20
24.501106185009306
 10
-72.9
 20
24.400553092504655
 10
-72.9
 20
24.3
  0
LWPOLYLINE
  5
32
330
17
100
AcDbEntity
  8
0
100
AcDbPolyline
 90
531
 70
0
 10
-58.5
 20
18.900000000000002
 10
-58.5
 20
18.799833866836938
 10
-58.5
 20
18.699667733673873
 10
-58.5
 20
18.599501600510813
 10
-58.5
 20
18.499335467347745
 10
-58.5
 20
18.399169334184684
 10
-58.5
 20
18.29900320102162
 10
-58.5
 20
18.198837067858555
 10
-58.5
 20
18.098670934695495
 10
-58.499998757990035
 20
17.998504802220225
 10
-58.49426442108139
 20
17.898554718256772
 10
-58.47746449828533
 20
17.799859913438432
 10
-58.44980687105639
 20
17.70364163263822
 10
-58.411633773573115
 20
17.611090476337413
 10
-58.36341755794841
 20
17.52335166819122
 10
-58.30575484936669
 20
17.441510884085105
 10
-58.23935916347197
 20
17.366580818032464
 10
-58.16505207735879
 20
17.29948865114652
 10
-58.083753063415884
 20
17.24106457874484
 10
-57.99646811181816
 20
17.19203153755153
 10
-57.904277282451474
 20
17.152996260112182
 10
-57.8083213403025
 20
17.124441767113936
 10
-57.7097876396864
 20
17.106721390510167
 10
-57.60989543198035
 20
17.10005440140755
 10
-57.509729498201885
 20
17.1
 10
-57.40956336503882
 20
17.1
 10
-57.309397231875764
 20
17.1
 10
-57.2092310987127
 20
17.1
 10
-57.109064965549635
 20
17.1
 10
-57.00889883238657
 20
17.1
 10
-56.908732699223506
 20
17.1
 10
-56.80856656606045
 20
17.1
 10
-56.708400432897385
 20
17.1
 10
-56.60823429973431
 20
17.1
 10
-56.50806816657125
 20
17.1
 10
-56.40790203340819
 20
17.1
 10
-56.30773590024513
 20
17.1
 10
-56.20756976708206
 20
17.1
 10
-56.107403633919
 20
17.1
 10
-56.007237500755934
 20
17.1
 10
-55.90707136759288
 20
17.1
 10
-55.80690523442981
 20
17.1
 10
-55.70673910126675
 20
17.1
 10
-55.606572968103684
 20
17.1
 10
-55.50640683494062
 20
17.1
 10
-55.40624070177756
 20
17.1
 10
-55.3060745686145
 20
17.1
 10
-55.205908435451434
 20
17.1
 10
-55.10574230228836
 20
17.1
 10
-55.0055761691253
 20
17.1
 10
-54.90541003596224
 20
17.1
 10
-54.9
 20
17.194756097200827
 10
-54.9
 20
17.294922230363888
 10
-54.9
 20
17.395088363526952
 10
-54.9
 20
17.495254496690016
 10
-54.9
 20
17.595420629853077
 10
-54.9
 20
17.69558676301614
 10
-54.9
 20
17.795752896179206
 10
-54.9
 20
17.89591902934227
 10
-54.9
 20
17.99608516250533
 10
-54.89485806372423
 20
18.09606792278243
 10
-54.87865171025958
 20
18.194861930755902
 10
-54.851572961856924
 20
18.291244726362947
 10
-54.81395688967543
 20
18.384023673423798
 10
-54.766268953223104
 20
18.4720507296111
 10
-54.709099240782756
 20
18.554236652271687
 10
-54.64315516768731
 20
18.629564476663912
 10
-54.569252722795774
 20
18.69710209983158
 10
-54.48830637148546
 20
18.756013814402028
 10
-54.4013177401004
 20
18.80557064958991
 10
-54.30936322187412
 20
18.845159391447357
 10
-54.21358065769033
 20
18.87429017074457
 10
-54.11515525649341
 20
18.892602524588597
 10
-54.01530492956863
 20
18.899869856774245
 10
-53.915265220165175
 20
18.903997758325158
 10
-53.81627401494216
 20
18.91895246302227
 10
-53.71955622641725
 20
18.944809208504523
 10
-53.62630863595682
 20
18.98124804461941
 10
-53.5376850848596
 20
19.02781807892264
 10
-53.45478219677875
 20
19.083943056000017
 10
-53.37862580815227
 20
19.14892848802487
 10
-53.310158274551256
 20
19.22197024831771
 10
-53.250226810016294
 20
19.30216452157197
 10
-53.19957300367087
 20
19.38851898762211
 10
-53.15882364333235
 20
19.479965100366638
 10
-53.12848295966903
 20
19.575371309907347
 10
-53.10892638687358
 20
19.673557064294528
 10
-53.10039591705798
 20
19.77330741762126
 10
-53.09700289414547
 20
19.87338806370695
 10
-53.083302233724595
 20
19.972560609343912
 10
-53.05867163300708
 20
20.069597898116722
 10
-53.02341586988778
 20
20.163299195177967
 10
-52.97797119752137
 20
20.252505045084764
 10
-52.92289994614638
 20
20.336111618845894
 10
-52.85888356483719
 20
20.413084372649827
 10
-52.78671418928532
 20
20.482470849261173
 10
-52.70728483994957
 20
20.543412463681726
 10
-52.62157837186291
 20
20.595155127240854
 10
-52.53065531283048
 20
20.63705857865324
 10
-52.435640740508475
 20
20.668604306581898
 10
-52.337710360746065
 20
20.689401965673106
 10
-52.23807595945658
 20
20.69919420667143
 10
-52.137970408035564
 20
20.697859860847295
 10
-52.03863240786814
 20
20.68541543933318
 10
-51.941291162696324
 20
20.66201492881561
 10
-51.847151168509704
 20
20.627947886111155
 10
-51.75737730916876
 20
20.583635855204005
 10
-51.67308044218674
 20
20.52962715108052
 10
-51.59530365303101
 20
20.466590074905383
 10
-51.52500934803261
 20
20.395304644494427
 10
-51.46306734561549
 20
20.316652942410865
 10
-51.41024411320432
 20
20.231608201117126
 10
-51.36719328299256
 20
20.14122276024216
 10
-51.334447563928485
 20
20.04661504498035
 10
-51.3124121499997
 20
19.948955726750746
 10
-51.301359706381795
 20
19.849453237364017
 10
-51.300000000000004
 20
19.749312023661684
 10
-51.300000000000004
 20
19.649145890498623
 10
-51.300000000000004
 20
19.54897975733556
 10
-51.300000000000004
 20
19.448813624172494
 10
-51.300000000000004
 20
19.34864749100943
 10
-51.300000000000004
 20
19.248481357846366
 10
-51.300000000000004
 20
19.148315224683305
 10
-51.300000000000004
 20
19.04814909152024
 10
-51.300000000000004
 20
18.94798295835718
 10
-51.300000000000004
 20
18.847816825194116
 10
-51.300000000000004
 20
18.747650692031048
 10
-51.300000000000004
 20
18.647484558867987
 10
-51.300000000000004
 20
18.547318425704923
 10
-51.300000000000004
 20
18.447152292541862
 10
-51.300000000000004
 20
18.346986159378798
 10
-51.300000000000004
 20
18.246820026215733
 10
-51.300000000000004
 20
18.146653893052672
 10
-51.300000000000004
 20
18.046487759889605
 10
-51.300000000000004
 20
17.946321626726544
 10
-51.300000000000004
 20
17.84615549356348
 10
-51.300000000000004
 20
17.74598936040042
 10
-51.300000000000004
 20
17.645823227237354
 10
-51.300000000000004
 20
17.54565709407429
 10
-51.300000000000004
 20
17.44549096091123
 10
-51.300000000000004
 20
17.34532482774816
 10
-51.300000000000004
 20
17.2451586945851
 10
-51.300000000000004
 20
17.144992561422036
 10
-51.24482642825897
 20
17.1
 10
-51.14466029509591
 20
17.1
 10
-51.044494161932846
 20
17.1
 10
-50.94432802876978
 20
17.1
 10
-50.84416189560672
 20
17.1
 10
-50.74399576244365
 20
17.1
 10
-50.643829629280596
 20
17.1
 10
-50.54366349611753
 20
17.1
 10
-50.44349736295447
 20
17.1
 10
-50.34336866747792
 20
17.10178349370724
 10
-50.24395765719443
 20
17.113630558259285
 10
-50.14647750752184
 20
17.136445516595703
 10
-50.0521344332475
 20
17.169946057495082
 10
-49.96209583113535
 20
17.213717646839918
 10
-49.87747583461322
 20
17.267218657042328
 10
-49.79932152753823
 20
17.329787069118332
 10
-49.72859998763038
 20
17.40064866447961
 10
-49.66618631989831
 20
17.478926605077934
 10
-49.61285282813109
 20
17.563652283357897
 10
-49.569259458447476
 20
17.653777307761285
 10
-49.53594563315365
 20
17.748186475474892
 10
-49.51332357595699
 20
17.84571157189768
 10
-49.50167321112926
 20
17.945145826073315
 10
-49.5
 20
18.045277940376074
 10
-49.5
 20
18.14544407353914
 10
-49.5
 20
18.245610206702203
 10
-49.5
 20
18.345776339865267
 10
-49.5
 20
18.44594247302833
 10
-49.5
 20
18.546108606191392
 10
-49.5
 20
18.646274739354457
 10
-49.5
 20
18.746440872517518
 10
-49.5
 20
18.846607005680582
 10
-49.5
 20
18.94677313884365
 10
-49.5
 20
19.04693927200671
 10
-49.5
 20
19.147105405169775
 10
-49.5
 20
19.247271538332836
 10
-49.5
 20
19.3474376714959
 10
-49.5
 20
19.447603804658964
 10
-49.5
 20
19.547769937822025
 10
-49.5
 20
19.647936070985093
 10
-49.5
 20
19.748102204148154
 10
-49.5012940411066
 20
19.848245201310515
 10
-49.51221271916417
 20
19.94776245797266
 10
-49.53411683528039
 20
20.04545130892941
 10
-49.56673534895265
 20
20.140102956933536
 10
-49.60966464022686
 20
20.230546186944284
 10
-49.66237350407186
 20
20.315661858687232
 10
-49.72420972348542
 20
20.394396754843388
 10
-49.79440813999682
 20
20.465776613510783
 10
-49.8721001217017
 20
20.528918183675394
 10
-49.956324311672454
 20
20.583040154517683
 10
-50.046038523743626
 20
20.62747282331591
 10
-50.14013263847447
 20
20.661666382316124
 10
-50.237442339714754
 20
20.68519772202745
 10
-50.336763521798
 20
20.697775666759025
 10
-50.43686718908838
 20
20.700755422385697
 10
-50.53651466351492
 20
20.710413721640556
 10
-50.63447291191568
 20
20.731079719664812
 10
-50.729529803532124
 20
20.762497696370882
 10
-50.820509108858104
 20
20.804278887192655
 10
-50.906285054248464
 20
20.85590629363995
 10
-50.98579625218915
 20
20.916741080613537
 10
-51.058058834856396
 20
20.986030481320583
 10
-51.12217862845097
 20
21.06291711197555
 10
-51.17736221766258
 20
21.146449581026857
 10
-51.22292676335374
 20
21.235594261631157
 10
-51.25830845197905
 20
21.3292480817033
 10
-51.28306947218752
 20
21.426252173278446
 10
-51.29690343227966
 20
21.525406212289738
 10
-51.29963915148394
 20
21.625483271321862
 10
-51.29124277813957
 20
21.725245001553173
 10
-51.27181820857544
 20
21.823456956025794
 10
-51.24160580150175
 20
21.918903864634174
 10
-51.200979403822664
 20
22.010404671820258
 10
-51.15044172467234
 20
22.096827150899387
 10
-51.09061811491569
 20
22.177101914180064
 10
-51.02224882908624
 20
22.250235645516927
 10
-50.946179865511255
 20
22.315323391558046
 10
-50.86335249796838
 20
22.37155975959511
 10
-50.77479162840803
 20
22.41824888345494
 10
-50.68159310486496
 20
22.45481303411478
 10
-50.58491016148618
 20
22.48079976849404
 10
-50.48593914846585
 20
22.49588752796373
 10
-50.38590472846431
 20
22.50011038270223
 10
-50.286044722689816
 20
22.50724348516902
 10
-50.187594794157214
 20
22.525423514762213
 10
-50.091773157651865
 20
22.55442551265066
 10
-49.99976550559722
 20
22.59389060947651
 10
-49.91271033635248
 20
22.64333046598777
 10
-49.831684866487514
 20
22.702133315725213
 10
-49.75769170135563
 20
22.769571534991815
 10
-49.69164642890213
 20
22.844810646434116
 10
-49.634366290222125
 20
22.92691964482578
 10
-49.586560067057626
 20
23.014882517282455
 10
-49.54881931136565
 20
23.107610815357436
 10
-49.5216110254821
 20
23.203957123451538
 10
-49.505271883456864
 20
23.302729256879758
 10
-49.5
 20
23.402705017981134
 10
-49.5
 20
23.5028711511442
 10
-49.5
 20
23.603037284307263
 10
-49.5
 20
23.703203417470323
 10
-49.5
 20
23.803369550633388
 10
-49.5
 20
23.90353568379645
 10
-49.5
 20
24.003701816959513
 10
-49.5
 20
24.103867950122577
 10
-49.5
 20
24.20403408328564
 10
-49.5
 20
24.304200216448706
 10
-49.5
 20
24.404366349611767
 10
-49.5
 20
24.50453248277483
 10
-49.5
 20
24.60469861593789
 10
-49.5
 20
24.704864749100956
 10
-49.5
 20
24.805030882264024
 10
-49.5
 20
24.905197015427085
 10
-49.5
 20
25.00536314859015
 10
-49.5
 20
25.10552928175321
 10
-49.5
 20
25.205695414916274
 10
-49.5
 20
25.30586154807934
 10
-49.5
 20
25.4060276812424
 10
-49.5
 20
25.506193814405467
 10
-49.5
 20
25.606359947568528
 10
-49.5
 20
25.706526080731592
 10
-49.5
 20
25.806692213894653
 10
-49.5
 20
25.906858347057717
 10
-49.5
 20
26.00702448022078
 10
-49.50719061338385
 20
26.1
 10
-49.60735674654691
 20
26.1
 10
-49.70752287970997
 20
26.1
 10
-49.807689012873034
 20
26.1
 10
-49.9078551460361
 20
26.1
 10
-50.00802127919916
 20
26.1
 10
-50.10818741236223
 20
26.1
 10
-50.208353545525284
 20
26.1
 10
-50.30851967868835
 20
26.1
 10
-50.40868581185141
 20
26.1
 10
-50.50885194501448
 20
26.1
 10
-50.60901807817754
 20
26.1
 10
-50.7091842113406
 20
26.1
 10
-50.80935034450366
 20
26.1
 10
-50.90951647766673
 20
26.1
 10
-51.00968261082979
 20
26.1
 10
-51.109848743992856
 20
26.1
 10
-51.21001487715591
 20
26.1
 10
-51.31018101031898
 20
26.1
 10
-51.41034714348204
 20
26.1
 10
-51.510513276645106
 20
26.1
 10
-51.61067940980817
 20
26.1
 10
-51.71084554297123
 20
26.1
 10
-51.81101167613429
 20
26.1
 10
-51.91117780929736
 20
26.1
 10
-52.01134394246042
 20
26.1
 10
-52.111510075623485
 20
26.1
 10
-52.21167620878654
 20
26.1
 10
-52.31184234194961
 20
26.1
 10
-52.41200847511267
 20
26.1
 10
-52.512174608275735
 20
26.1
 10
-52.6123407414388
 20
26.1
 10
-52.71250687460186
 20
26.1
 10
-52.81267300776492
 20
26.1
 10
-52.912839140927986
 20
26.1
 10
-53.01300527409105
 20
26.1
 10
-53.1
 20
26.086828592745885
 10
-53.1
 20
25.986662459582824
 10
-53.1
 20
25.88649632641976
 10
-53.1
 20
25.7863301932567
 10
-53.1
 20
25.686164060093635
 10
-53.1
 20
25.58599792693057
 10
-53.1
 20
25.48583179376751
 10
-53.1
 20
25.385665660604445
 10
-53.1
 20
25.285499527441385
 10
-53.100119502534966
 20
25.18533404343094
 10
-53.10731593232756
 20
25.08547858137541
 10
-53.125558392788825
 20
24.987040201967766
 10
-53.15462115257098
 20
24.89123697708505
 10
-53.19414459045137
 20
24.799254371326143
 10
-53.24363964526852
 20
24.71223057312858
 10
-53.30249386754199
 20
24.63124241087835
 10
-53.36997899789339
 20
24.557292028286113
 10
-53.44525997849371
 20
24.49129448390802
 10
-53.52740528602962
 20
24.43406642825422
 10
-53.615398458329125
 20
24.386315998593815
 10
-53.708150672016686
 20
24.348634056497627
 10
-53.804514215562456
 20
24.3214868765449
 10
-53.90329669101077
 20
24.305210376663577
 10
-54.00327576865637
 20
24.29999403850232
 10
-54.103214312094686
 20
24.294061969764304
 10
-54.20187568648951
 20
24.27706682026194
 10
-54.29803906063433
 20
24.24921888717586
 10
-54.39051451346023
 20
24.210862759520328
 10
-54.47815775806326
 20
24.16247305421498
 10
-54.55988430105672
 20
24.104648543197406
 10
-54.63468286204138
 20
24.038104744247338
 10
-54.70162788714155
 20
23.96366506720329
 10
-54.75989100176518
 20
23.882250625127963
 10
-54.808751260872164
 20
23.794868836498512
 10
-54.8476040699143
 20
23.702600959457694
 10
-54.875968666059826
 20
23.606588712376478
 10
-54.893494067130085
 20
23.508020146284593
 10
-54.89996341463648
 20
23.408114943982987
 10
-54.90470334282276
 20
23.30810932774619
 10
-54.92044845901032
 20
23.20924076236607
 10
-54.947077104599025
 20
23.112732642820642
 10
-54.98425977798075
 20
23.019779156042194
 10
-55.03153638250386
 20
22.931530504104334
 10
-55.08832191968748
 20
22.849078671675628
 10
-55.15391372796526
 20
22.773443913852685
 10
-55.22750017738646
 20
22.70556213157154
 10
-55.308170712686874
 20
22.646273290813536
 10
-55.394927120456785
 20
22.596311028905728
 10
-55.48669588098678
 20
22.55629357652715
 10
-55.58234145195013
 20
22.526716107751426
 10
-55.68068031955013
 20
22.5079446127861
 10
-55.780495643264175
 20
22.500211369227017
 10
-55.88055231297114
 20
22.503612067866264
 10
-55.97961223214593
 20
22.51810462861882
 10
-56.07644963800768
 20
22.543509721219543
 10
-56.1698662690507
 20
22.579512984247454
 10
-56.25870619227602
 20
22.625668915019144
 10
-56.341870106652
 20
22.681406382218054
 10
-56.41832894581349
 20
22.7460356930465
 10
-56.48713661168074
 20
22.818757127451946
 10
-56.54744168143245
 20
22.89867083382529
 10
-56.5984979429718
 20
22.984787963722365
 10
-56.63967362851975
 20
23.076042907828093
 10
-56.67045923207993
 20
23.171306481756005
 10
-56.690473814041795
 20
23.26939989852276
 10
-56.69946971490946
 20
23.369109354802806
 10
-56.69733561982869
 20
23.469201050473675
 10
-56.684097935991645
 20
23.568436455600647
 10
-56.65992046587554
 20
23.66558763594792
 10
-56.625102380358456
 20
23.759452447379086
 10
-56.580074516793026
 20
23.848869411132153
 10
-56.52539404784527
 20
23.932732085903094
 10
-56.461737587066196
 20
24.010002758898523
 10
-56.38989281650761
 20
24.079725286444987
 10
-56.31074873998139
 20
24.14103692526582
 10
-56.22528468256818
 20
24.193179008025858
 10
-56.134558172494856
 20
24.235506331045375
 10
-56.03969185533002
 20
24.267495138020067
 10
-55.941859602420514
 20
24.288749600956926
 10
-55.842271985462595
 20
24.29900671813121
 10
-55.7421612969447
 20
24.30186043154258
 10
-55.64276630181814
 20
24.313841117995167
 10
-55.545316909077876
 20
24.33678709277586
 10
-55.451018952926425
 20
24.370414423471917
 10
-55.36103927183818
 20
24.41430700707487
 10
-55.27649127015501
 20
24.467921718819575
 10
-55.19842114087329
 20
24.530595132784498
 10
-55.127794920100946
 20
24.601551731092897
 10
-55.06548653337213
 20
24.67991350013454
 10
-55.01226698173373
 20
24.764710795064808
 10
-54.968794801414695
 20
24.85489433814443
 10
-54.93560791512973
 20
24.949348202452843
 10
-54.91311697584885
 20
25.046903620315447
 10
-54.901600285396945
 20
25.14635344557984
 10
-54.901200350760014
 20
25.24646709078553
 10
-54.91192212071043
 20
25.34600575439528
 10
-54.9336329245711
 20
25.44373774966708
 10
-54.96606411387615
 20
25.53845374548797
 10
-55.00881438661444
 20
25.62898173058035
 10
-55.061354752921716
 20
25.714201515914393
 10
-55.12303508077638
 20
25.793058595874438
 10
-55.19309214070251
 20
25.86457719666186
 10
-55.270659049935496
 20
25.927872350474182
 10
-55.35477599918862
 20
25.982160846055024
 10
-55.44440212928801
 20
26.026770920113364
 10
-55.53842841071511
 20
26.061150569690913
 10
-55.63569136668579
 20
26.084874382620733
 10
-55.734987469957346
 20
26.097648801557412
 10
-55.83509693005713
 20
26.1
 10
-55.935263063220184
 20
26.1
 10
-56.03542919638325
 20
26.1
 10
-56.13559532954631
 20
26.1
 10
-56.23576146270938
 20
26.1
 10
-56.33592759587244
 20
26.1
 10
-56.4360937290355
 20
26.1
 10
-56.53625986219856
 20
26.1
 10
-56.63642599536163
 20
26.1
 10
-56.73659212852469
 20
26.1
 10
-56.836758261687756
 20
26.1
 10
-56.93692439485081
 20
26.1
 10
-57.03709052801388
 20
26.1
 10
-57.13725666117694
 20
26.1
 10
-57.237422794340006
 20
26.1
 10
-57.33758892750307
 20
26.1
 10
-57.43775506066613
 20
26.1
 10
-57.53792119382919
 20
26.1
 10
-57.638087326992256
 20
26.1
 10
-57.73825346015532
 20
26.1
 10
-57.838419593318385
 20
26.1
 10
-57.93858572648144
 20
26.1
 10
-58.038751859644506
 20
26.1
 10
-58.13891799280757
 20
26.1
 10
-58.239084125970635
 20
26.1
 10
-58.3392502591337
 20
26.1
 10
-58.439416392296756
 20
26.1
 10
-58.5
 20
26.060417474540177
 10
-58.5
 20
25.960251341377113
 10
-58.5
 20
25.860085208214052
 10
-58.5
 20
25.759919075050988
 10
-58.5
 20
25.659752941887923
 10
-58.5
 20
25.559586808724863
 10
-58.5
 20
25.459420675561798
 10
-58.5
 20
25.359254542398737
 10
-58.5
 20
25.259088409235673
 10
-58.5
 20
25.15892227607261
 10
-58.5
 20
25.058756142909548
 10
-58.5
 20
24.958590009746484
 10
-58.5
 20
24.858423876583423
 10
-58.5
 20
24.75825774342036
 10
-58.5
 20
24.658091610257294
 10
-58.5
 20
24.557925477094233
 10
-58.5
 20
24.45775934393117
 10
-58.5
 20
24.35759321076811
 10
-58.5
 20
24.257427077605044
 10
-58.5
 20
24.15726094444198
 10
-58.5
 20
24.05709481127892
 10
-58.5
 20
23.956928678115855
 10
-58.5
 20
23.856762544952794
 10
-58.5
 20
23.75659641178973
 10
-58.5
 20
23.656430278626665
 10
-58.5
 20
23.5562641454636
 10
-58.5
 20
23.456098012300536
 10
-58.498921327051534
 20
23.355949486133433
 10
-58.48846720401055
 20
23.25638235694148
 10
-58.46701922957351
 20
23.1585923457101
 10
-58.434842799967385
 20
23.06378950143903
 10
-58.392336064818785
 20
22.9731469100645
 10
-58.340025000469254
 20
22.887786178749078
 10
-58.27855690156879
 20
22.808763557167374
 10
-58.20869237148218
 20
22.737056867522256
 10
-58.13129591061887
 20
22.67355340501888
 10
-58.04732521914547
 20
22.619038958515564
 10
-57.957819346448964
 20
22.574188087209418
 10
-57.86388583398845
 20
22.539555773672564
 10
-57.76668701062925
 20
22.515570556523876
 10
-57.667425610040134
 20
22.50252922771228
 10
-57.56732988812356
 20
22.49940683997287
 10
-57.467638424634785
 20
22.49021368972109
 10
-57.36958479705436
 20
22.47000507714123
 10
-57.2743823163583
 20
22.4390310626549
 10
-57.18320901356517
 20
22.397674917260584
 10
-57.09719306283567
 20
22.34644837995633
 10
-57.01739882149863
 20
22.285985325505447
 10
-56.944813659743474
 20
22.217033920900022
 10
-56.88033574294792
 20
22.140447367577718
 10
-56.8247629178219
 20
22.057173343947326
 10
-56.77878283988979
 20
21.968242278860703
 10
-56.74296446447341
 20
21.874754601134626
 10
-56.71775100646554
 20
21.777867122896367
 10
-56.70345445600974
 20
21.678778725244836
 10
-56.700251717948944
 20
21.57871552335224
 10
-56.708182422813294
 20
21.47891569457264
 10
-56.72714843643379
 20
21.380614157293554
 10
-56.7569150742499
 20
21.28502729011397
 10
-56.79711400528528
 20
21.19333788043272
 10
-56.847247809857926
 20
21.10668048869286
 10
-56.90669613462796
 20
21.026127409384117
 10
-56.97472336882064
 20
20.95267540252128
 10
-57.050487746639526
 20
20.88723335978268
 10
-57.133051763236836
 20
20.830611057927285
 10
-57.22139377535434
 20
20.78350913865521
 10
-57.31442064308901
 20
20.746510438900213
 10
-57.41098125635473
 20
20.720072778832954
 10
-57.50988077866439
 20
20.70452329681568
 10
-57.609895431980355
 20
20.69994559859245
 10
-57.70978763968641
 20
20.69327860948983
 10
-57.80832134030252
 20
20.67555823288606
 10
-57.90427728245149
 20
20.64700373988781
 10
-57.996468111818174
 20
20.607968462448465
 10
-58.0837530634159
 20
20.55893542125515
 10
-58.1650520773588
 20
20.50051134885347
 10
-58.23935916347199
 20
20.433419181967526
 10
-58.30575484936671
 20
20.35848911591488
 10
-58.36341755794841
 20
20.276648331808765
 10
-58.41163377357313
 20
20.18890952366257
 10
-58.4498068710564
 20
20.096358367361766
 10
-58.47746449828534
 20
20.000140086561547
 10
-58.49426442108139
 20
19.90144528174321
 10
-58.499998757990035
 20
19.80149519777975
 10
-58.5
 20
19.70132906530449
 10
-58.5
 20
19.601162932141424
 10
-58.5
 20
19.500996798978363
 10
-58.5
 20
19.4008306658153
 10
-58.5
 20
19.300664532652235
 10
-58.5
 20
19.200498399489174
 10
-58.5
 20
19.10033226632611
 10
-58.5
 20
19.000166133163045
 10
-58.5
 20
18.900000000000002
  0
LWPOLYLINE
  5
33
330
17
100
AcDbEntity
  8
0
100
AcDbPolyline
 90
441
 70
0
 10
-72.9
 20
45.9
 10
-72.9
 20
45.79978177986635
 10
-72.9
 20
45.69956355973269
 10
-72.9
 20
45.59934533959904
 10
-72.9
 20
45.499127119465385
 10
-72.9
 20
45.39890889933173
 10
-72.9
 20
45.298690679198074
 10
-72.9
 20
45.19847245906442
 10
-72.9
 20
45.09825423893077
 10
-72.9
 20
44.99803601879711
 10
-72.9
 20
44.89781779866346
 10
-72.9
 20
44.797599578529805
 10
-72.9
 20
44.69738135839615
 10
-72.9
 20
44.597163138262495
 10
-72.9
 20
44.49694491812884
 10
-72.9
 20
44.39672669799519
 10
-72.9
 20
44.29650847786153
 10
-72.9
 20
44.19629025772788
 10
-72.89607203759422
 20
44.1
 10
-72.79585381746057
 20
44.1
 10
-72.69563559732691
 20
44.1
 10
-72.59541737719326
 20
44.1
 10
-72.49519915705962
 20
44.1
 10
-72.39498093692596
 20
44.1
 10
-72.2947627167923
 20
44.1
 10
-72.19454449665864
 20
44.1
 10
-72.094326276525
 20
44.1
 10
-71.99410805639134
 20
44.1
 10
-71.89388983625769
 20
44.1
 10
-71.79367161612403
 20
44.1
 10
-71.69345339599037
 20
44.1
 10
-71.59323517585673
 20
44.1
 10
-71.49301695572306
 20
44.1
 10
-71.39279873558941
 20
44.1
 10
-71.29258051545575
 20
44.1
 10
-71.1923622953221
 20
44.1
 10
-71.09214407518846
 20
44.1
 10
-70.9919258550548
 20
44.1
 10
-70.89170763492115
 20
44.1
 10
-70.79148941478748
 20
44.1
 10
-70.69127119465384
 20
44.1
 10
-70.59105297452018
 20
44.1
 10
-70.49083475438653
 20
44.1
 10
-70.39061653425287
 20
44.1
 10
-70.29039831411922
 20
44.1
 10
-70.19018009398557
 20
44.1
 10
-70.0899618738519
 20
44.1
 10
-69.98974365371825
 20
44.1
 10
-69.8895254335846
 20
44.1
 10
-69.78930721345094
 20
44.1
 10
-69.6890889933173
 20
44.1
 10
-69.58887077318364
 20
44.1
 10
-69.48865255304999
 20
44.1
 10
-69.38843433291632
 20
44.1
 10
-69.28821611278268
 20
44.1
 10
-69.18799789264902
 20
44.1
 10
-69.08777967251537
 20
44.1
 10
-68.98756145238171
 20
44.1
 10
-68.88734323224806
 20
44.1
 10
-68.78712501211442
 20
44.1
 10
-68.68690679198076
 20
44.1
 10
-68.58668857184709
 20
44.1
 10
-68.48647035171344
 20
44.1
 10
-68.38625266622387
 20
44.10010500011721
 10
-68.28633823983009
 20
44.10720606841496
 10
-68.18783172029848
 20
44.125366007355936
 10
-68.09195328937366
 20
44.15435987318938
 10
-67.9998905751606
 20
44.193828524348156
 10
-67.91278394119841
 20
44.24328307006791
 10
-67.8317123609916
 20
44.30211092618508
 10
-67.757680052968
 20
44.36958340310173
 10
-67.69160404141381
 20
44.44486473192676
 10
-67.63430279746618
 20
44.52702241698801
 10
-67.58648610086495
 20
44.61503878648094
 10
-67.54874624804448
 20
44.707823598178
 10
-67.52155071546903
 20
44.80422754405424
 10
-67.50523636908962
 20
44.903056486549765
 10
-67.4999947083512
 20
45.00308625012731
 10
-67.49407772048026
 20
45.103077784904535
 10
-67.47708595991432
 20
45.20179251453208
 10
-67.44922990039817
 20
45.29800767820602
 10
-67.41085458970586
 20
45.39053147677612
 10
-67.36243537559892
 20
45.478217835337965
 10
-67.3045720177828
 20
45.5599805994474
 10
-67.23798125879622
 20
45.63480698911148
 10
-67.163487945856
 20
45.70177014390396
 10
-67.08201481362964
 20
45.760040603811134
 10
-66.99457105449433
 20
45.80889658359721
 10
-66.90223981786076
 20
45.84773291342233
 10
-66.8061647934048
 20
45.876068534967644
 10
-66.70753604439855
 20
45.893552460214345
 10
-66.60757526662013
 20
45.899968119066244
 10
-66.50752065543774
 20
45.90476395803714
 10
-66.40861156851635
 20
45.92058515574604
 10
-66.31207317412714
 20
45.9472994998578
 10
-66.21910127521843
 20
45.98457608481246
 10
-66.13084749722937
 20
46.031953172557785
 10
-66.04840502312192
 20
46.088843912011676
 10
-65.97279505232898
 20
46.15454360827629
 10
-65.90495415134903
 20
46.22823845156128
 10
-65.8457226526728
 20
46.30901559769271
 10
-65.79583424574274
 20
46.395874475342325
 10
-65.7559068888797
 20
46.4877391799165
 10
-65.72643515474935
 20
46.583471800584284
 10
-65.70778410418366
 20
46.68188651536498
 10
-65.70018476424075
 20
46.781764279682186
 10
-65.7
 20
46.881981251821124
 10
-65.7
 20
46.98219947195478
 10
-65.7
 20
47.082417692088434
 10
-65.7
 20
47.18263591222209
 10
-65.7
 20
47.282854132355745
 10
-65.7
 20
47.38307235248939
 10
-65.7
 20
47.483290572623055
 10
-65.7
 20
47.5835087927567
 10
-65.7
 20
47.68372701289036
 10
-65.7
 20
47.78394523302401
 10
-65.7
 20
47.88416345315767
 10
-65.7
 20
47.984381673291324
 10
-65.7
 20
48.08459989342497
 10
-65.7
 20
48.184818113558634
 10
-65.7
 20
48.28503633369228
 10
-65.7
 20
48.38525455382594
 10
-65.7
 20
48.48547277395959
 10
-65.7
 20
48.58569099409325
 10
-65.69590289396635
 20
48.68577881196845
 10
-65.68082215345517
 20
48.78480350100207
 10
-65.65483083446652
 20
48.881539063799835
 10
-65.61825088658405
 20
48.974787255125385
 10
-65.57153541874753
 20
49.06339302715738
 10
-65.51526308667758
 20
49.14625883684979
 10
-65.45013092517597
 20
49.22235824099135
 10
-65.37694571408665
 20
49.2907486105647
 10
-65.29661398486527
 20
49.3505828069149
 10
-65.21013079154457
 20
49.401119675096695
 10
-65.11856738518696
 20
49.441733224421576
 10
-65.02305794449904
 20
49.471920382486765
 10
-64.92478552697305
 20
49.491307226638526
 10
-64.82496741457601
 20
49.49965361568183
 10
-64.72475239801736
 20
49.5
 10
-64.6245341778837
 20
49.5
 10
-64.52431595775005
 20
49.5
 10
-64.42409773761639
 20
49.5
 10
-64.32387951748272
 20
49.5
 10
-64.22366129734908
 20
49.5
 10
-64.12344307721543
 20
49.5
 10
-64.02322485708177
 20
49.5
 10
-63.92300663694812
 20
49.5
 10
-63.9
 20
49.577211583185544
 10
-63.9
 20
49.67742980331919
 10
-63.9
 20
49.77764802345285
 10
-63.9
 20
49.877866243586496
 10
-63.9
 20
49.97808446372016
 10
-63.9
 20
50.07830268385381
 10
-63.9
 20
50.17852090398746
 10
-63.9
 20
50.278739124121124
 10
-63.9
 20
50.37895734425477
 10
-63.9
 20
50.47917556438843
 10
-63.9
 20
50.57939378452208
 10
-63.9
 20
50.67961200465574
 10
-63.9
 20
50.77983022478939
 10
-63.9
 20
50.88004844492304
 10
-63.9
 20
50.9802666650567
 10
-63.9
 20
51.08048488519035
 10
-63.9
 20
51.18070310532401
 10
-63.9
 20
51.28092132545766
 10
-63.9
 20
51.38113954559132
 10
-63.9
 20
51.48135776572497
 10
-63.9
 20
51.58157598585862
 10
-63.9
 20
51.68179420599228
 10
-63.9
 20
51.78201242612593
 10
-63.9
 20
51.882230646259586
 10
-63.9
 20
51.982448866393234
 10
-63.9
 20
52.0826670865269
 10
-63.9
 20
52.18288530666055
 10
-63.9
 20
52.2831035267942
 10
-63.9
 20
52.383321746927855
 10
-63.9
 20
52.48353996706151
 10
-63.9
 20
52.583758187195166
 10
-63.9
 20
52.683976407328814
 10
-63.9
 20
52.784194627462476
 10
-63.9
 20
52.88441284759613
 10
-63.9
 20
52.98463106772978
 10
-63.9
 20
53.08484928786344
 10
-63.98506750799709
 20
53.1
 10
-64.08528572813074
 20
53.1
 10
-64.1855039482644
 20
53.1
 10
-64.28572216839805
 20
53.1
 10
-64.38594038853171
 20
53.1
 10
-64.48615860866536
 20
53.1
 10
-64.58637682879902
 20
53.1
 10
-64.68659504893266
 20
53.1
 10
-64.78681326906633
 20
53.1
 10
-64.88703148919998
 20
53.1
 10
-64.98724970933364
 20
53.1
 10
-65.0874679294673
 20
53.1
 10
-65.18768614960094
 20
53.1
 10
-65.28790436973459
 20
53.1
 10
-65.38812258986825
 20
53.1
 10
-65.48834081000192
 20
53.1
 10
-65.58855903013556
 20
53.1
 10
-65.68877725026921
 20
53.1
 10
-65.78899547040287
 20
53.1
 10
-65.88921369053652
 20
53.1
 10
-65.98943191067018
 20
53.1
 10
-66.08965013080382
 20
53.1
 10
-66.18986835093747
 20
53.1
 10
-66.29008657107114
 20
53.1
 10
-66.3903047912048
 20
53.1
 10
-66.49052301133845
 20
53.1
 10
-66.5907412314721
 20
53.1
 10
-66.69095945160575
 20
53.1
 10
-66.7911776717394
 20
53.1
 10
-66.89139589187306
 20
53.1
 10
-66.99161411200672
 20
53.1
 10
-67.09183233214037
 20
53.1
 10
-67.19205055227403
 20
53.1
 10
-67.29226877240768
 20
53.1
 10
-67.39248699254134
 20
53.1
 10
-67.49270521267498
 20
53.1
 10
-67.59292343280865
 20
53.1
 10
-67.6931416529423
 20
53.1
 10
-67.79335987307596
 20
53.1
 10
-67.89357809320961
 20
53.1
 10
-67.99379631334325
 20
53.1
 10
-68.09401453347691
 20
53.1
 10
-68.19423275361056
 20
53.1
 10
-68.29445097374423
 20
53.1
 10
-68.39466919387787
 20
53.1
 10
-68.49488741401153
 20
53.1
 10
-68.59510563414518
 20
53.1
 10
-68.69532385427884
 20
53.1
 10
-68.79554207441251
 20
53.1
 10
-68.89576029454614
 20
53.1
 10
-68.9959785146798
 20
53.1
 10
-69.09619673481346
 20
53.1
 10
-69.19641495494712
 20
53.1
 10
-69.29663317508077
 20
53.1
 10
-69.39685139521443
 20
53.1
 10
-69.49706961534808
 20
53.1
 10
-69.59728783548174
 20
53.1
 10
-69.69750605561539
 20
53.1
 10
-69.79772427574903
 20
53.1
 10
-69.89794249588269
 20
53.1
 10
-69.99816071601634
 20
53.1
 10
-70.09837893615001
 20
53.1
 10
-70.19859715628367
 20
53.1
 10
-70.29881537641731
 20
53.1
 10
-70.39903359655096
 20
53.1
 10
-70.49925181668462
 20
53.1
 10
-70.59947003681827
 20
53.1
 10
-70.69968825695193
 20
53.1
 10
-70.79990647708559
 20
53.1
 10
-70.90012469721924
 20
53.1
 10
-71.0003429173529
 20
53.1
 10
-71.10056113748655
 20
53.1
 10
-71.20077935762019
 20
53.1
 10
-71.30099757775385
 20
53.1
 10
-71.40121579788752
 20
53.1
 10
-71.50143401802117
 20
53.1
 10
-71.60165223815483
 20
53.1
 10
-71.70187045828847
 20
53.1
 10
-71.80208867842212
 20
53.1
 10
-71.90230689855578
 20
53.1
 10
-72.00252511868945
 20
53.1
 10
-72.10274333882309
 20
53.1
 10
-72.20296155895674
 20
53.1
 10
-72.3031797790904
 20
53.1
 10
-72.40339799922405
 20
53.1
 10
-72.50361621935772
 20
53.1
 10
-72.60383443949135
 20
53.1
 10
-72.70405265962502
 20
53.1
 10
-72.80427087975868
 20
53.1
 10
-72.9
 20
53.095510900107676
 10
-72.9
 20
52.995292679974014
 10
-72.9
 20
52.89507445984037
 10
-72.9
 20
52.79485623970671
 10
-72.9
 20
52.694638019573055
 10
-72.9
 20
52.5944197994394
 10
-72.9
 20
52.49420157930575
 10
-72.9
 20
52.3939833591721
 10
-72.9
 20
52.293765139038435
 10
-72.9
 20
52.19354691890479
 10
-72.9
 20
52.09332869877113
 10
-72.9
 20
51.993110478637476
 10
-72.9
 20
51.89289225850382
 10
-72.9
 20
51.79267403837017
 10
-72.9
 20
51.69245581823651
 10
-72.9
 20
51.592237598102855
 10
-72.9
 20
51.49201937796921
 10
-72.9
 20
51.391801157835545
 10
-72.9
 20
51.2915829377019
 10
-72.9
 20
51.19136471756824
 10
-72.9
 20
51.091146497434586
 10
-72.9
 20
50.99092827730093
 10
-72.9
 20
50.890710057167276
 10
-72.9
 20
50.79049183703363
 10
-72.9
 20
50.690273616899965
 10
-72.9
 20
50.59005539676632
 10
-72.9
 20
50.48983717663266
 10
-72.9
 20
50.38961895649901
 10
-72.9
 20
50.28940073636535
 10
-72.9
 20
50.189182516231696
 10
-72.9
 20
50.08896429609804
 10
-72.9
 20
49.988746075964386
 10
-72.9
 20
49.88852785583074
 10
-72.9
 20
49.788309635697075
 10
-72.9
 20
49.68809141556343
 10
-72.9
 20
49.587873195429765
 10
-72.88765497529612
 20
49.5
 10
-72.78743675516246
 20
49.5
 10
-72.6872185350288
 20
49.5
 10
-72.58700031489516
 20
49.5
 10
-72.4867820947615
 20
49.5
 10
-72.38656387462785
 20
49.5
 10
-72.28634565449418
 20
49.5
 10
-72.18612743436053
 20
49.5
 10
-72.08590921422689
 20
49.5
 10
-71.98569099409323
 20
49.5
 10
-71.88547277395956
 20
49.5
 10
-71.78525455382591
 20
49.5
 10
-71.68503633369227
 20
49.5
 10
-71.58481811355861
 20
49.5
 10
-71.48459989342496
 20
49.5
 10
-71.3843816732913
 20
49.5
 10
-71.28416345315765
 20
49.5
 10
-71.18394523302399
 20
49.5
 10
-71.08372701289034
 20
49.5
 10
-70.98350879275668
 20
49.5
 10
-70.88329057262303
 20
49.5
 10
-70.78307235248937
 20
49.5
 10
-70.68285413235573
 20
49.5
 10
-70.58263591222206
 20
49.5
 10
-70.4824176920884
 20
49.5
 10
-70.38219947195475
 20
49.5
 10
-70.28198125182111
 20
49.5
 10
-70.18176303168745
 20
49.5
 10
-70.0815448115538
 20
49.5
 10
-69.98132659142014
 20
49.5
 10
-69.88110837128647
 20
49.5
 10
-69.78089015115283
 20
49.5
 10
-69.68067193101918
 20
49.5
 10
-69.58045371088552
 20
49.5
 10
-69.48023549075187
 20
49.5
 10
-69.38001727061821
 20
49.5
 10
-69.27979905048456
 20
49.5
 10
-69.1795808303509
 20
49.5
 10
-69.07936261021725
 20
49.5
 10
-68.97914439008359
 20
49.5
 10
-68.87892616994995
 20
49.5
 10
-68.77870794981628
 20
49.5
 10
-68.67848972968262
 20
49.5
 10
-68.57827150954897
 20
49.5
 10
-68.47805328941531
 20
49.5
 10
-68.37783730980615
 20
49.49972707815391
 10
-68.27799366319807
 20
49.491691905189334
 10
-68.17966128615468
 20
49.472611512175376
 10
-68.08405820335031
 20
49.442722244354435
 10
-67.99236863220449
 20
49.40239433446976
 10
-67.90572831420332
 20
49.35212731676207
 10
-67.82521044668312
 20
49.292543839332765
 10
-67.7518123893367
 20
49.22438195151894
 10
-67.68644331010638
 20
49.14848596181494
 10
-67.62991292349143
 20
49.065795979581694
 10
-67.5829214607668
 20
48.97733627008879
 10
-67.5460509963499
 20
48.88420256713302
 10
-67.51975823775423
 20
48.78754850038981
 10
-67.50436886843919
 20
48.68857130561923
 10
-67.50007351363026
 20
48.588496994731585
 10
-67.50692537908022
 20
48.48856516940839
 10
-67.52483959201945
 20
48.39001366638921
 10
-67.55359425245896
 20
48.294063224620665
 10
-67.59283318182393
 20
48.2019023641925
 10
-67.64207033487068
 20
48.11467266436255
 10
-67.70069582023778
 20
48.0334546230291
 10
-67.76798345505581
 20
47.95925427280644
 10
-67.84309976003797
 20
47.892990719487905
 10
-67.92511428363143
 20
47.83548475725522
 10
-68.01301112734586
 20
47.787448701655165
 10
-68.10570152949707
 20
47.749477566280795
 10
-68.20203735149339
 20
47.7220416924499
 10
-68.30082529961261
 20
47.705480923175436
 10
-68.40084170622984
 20
47.7
 10
-68.5010599263635
 20
47.7
 10
-68.60127814649715
 20
47.7
 10
-68.7014963666308
 20
47.7
 10
-68.80171458676446
 20
47.7
 10
-68.90193280689812
 20
47.7
 10
-69.00215102703176
 20
47.7
 10
-69.10236924716541
 20
47.7
 10
-69.20258746729907
 20
47.7
 10
-69.30280568743274
 20
47.7
 10
-69.40302390756639
 20
47.7
 10
-69.50324212770003
 20
47.7
 10
-69.60346034783369
 20
47.7
 10
-69.70367856796736
 20
47.7
 10
-69.803896788101
 20
47.7
 10
-69.90411500823465
 20
47.7
 10
-70.00433322836831
 20
47.7
 10
-70.10455144850197
 20
47.7
 10
-70.20476966863562
 20
47.7
 10
-70.30498788876928
 20
47.7
 10
-70.40520610890293
 20
47.7
 10
-70.50542432903659
 20
47.7
 10
-70.60564254917024
 20
47.7
 10
-70.7058607693039
 20
47.7
 10
-70.80607898943755
 20
47.7
 10
-70.90629720957119
 20
47.7
 10
-71.00651542970486
 20
47.7
 10
-71.10673364983852
 20
47.7
 10
-71.20695186997217
 20
47.7
 10
-71.30717009010581
 20
47.7
 10
-71.40738831023947
 20
47.7
 10
-71.50760653037312
 20
47.7
 10
-71.60782475050678
 20
47.7
 10
-71.70804297064045
 20
47.7
 10
-71.80826119077409
 20
47.7
 10
-71.90847941090774
 20
47.7
 10
-72.00869749565824
 20
47.69995797322391
 10
-72.10865019557407
 20
47.693417671082074
 10
-72.2072570659365
 20
47.67581077215309
 10
-72.30329668197407
 20
47.647355369785025
 10
-72.39557941901211
 20
47.60840393569926
 10
-72.4829621881301
 20
47.55943895398945
 10
-72.56436259538927
 20
47.50106694468181
 10
-72.6387723492429
 20
47.43401095088548
 10
-72.7052697500542
 20
47.359101582593446
 10
-72.76303110701652
 20
47.27726672807263
 10
-72.81134094105654
 20
47.18952006028635
 10
-72.84960084733915
 20
47.0969484807178
 10
-72.87733690759558
 20
47.000698656125635
 10
-72.89420556046001
 20
46.90196281499836
 10
-72.89999785709965
 20
46.80196397964411
 10
-72.9
 20
46.7017457610692
 10
-72.9
 20
46.60152754093554
 10
-72.9
 20
46.50130932080189
 10
-72.9
 20
46.40109110066823
 10
-72.9
 20
46.30087288053458
 10
-72.9
 20
46.20065466040093
 10
-72.9
 20
46.100436440267266
 10
-72.9
 20
46.00021822013362
 10
-72.9
 20
45.9
  0
LWPOLYLINE
  5
34
330
17
100
AcDbEntity
  8
0
100
AcDbPolyline
 90
386
 70
0
 10
-58.5
 20
45.9
 10
-58.5
 20
45.799832206936664
 10
-58.5
 20
45.69966441387333
 10
-58.5
 20
45.59949662080999
 10
-58.5
 20
45.49932882774665
 10
-58.5
 20
45.39916103468331
 10
-58.5
 20
45.298993241619975
 10
-58.5
 20
45.19882544855664
 10
-58.5
 20
45.0986576554933
 10
-58.5
 20
44.99848986242996
 10
-58.5
 20
44.89832206936663
 10
-58.5
 20
44.79815427630329
 10
-58.5
 20
44.69798648323995
 10
-58.5
 20
44.59781869017662
 10
-58.5
 20
44.49765089711328
 10
-58.5
 20
44.39748310404994
 10
-58.5
 20
44.297315310986605
 10
-58.5
 20
44.19714751792326
 10
-58.49697972485992
 20
44.1
 10
-58.3968119317966
 20
44.1
 10
-58.29664413873326
 20
44.1
 10
-58.19647634566992
 20
44.1
 10
-58.09630855260659
 20
44.1
 10
-57.996140759543245
 20
44.1
 10
-57.89597296647991
 20
44.1
 10
-57.79580517341657
 20
44.1
 10
-57.69563738035323
 20
44.1
 10
-57.59546958728989
 20
44.1
 10
-57.495301794226556
 20
44.1
 10
-57.39513400116322
 20
44.1
 10
-57.29496620809988
 20
44.1
 10
-57.194798415036544
 20
44.1
 10
-57.09463062197321
 20
44.1
 10
-56.99446282890987
 20
44.1
 10
-56.89429503584653
 20
44.1
 10
-56.79412724278319
 20
44.1
 10
-56.693959449719856
 20
44.1
 10
-56.59379165665652
 20
44.1
 10
-56.49362386359318
 20
44.1
 10
-56.393456070529844
 20
44.1
 10
-56.2932882774665
 20
44.1
 10
-56.19312048440317
 20
44.1
 10
-56.09295269133983
 20
44.1
 10
-55.99278489827649
 20
44.1
 10
-55.892617105213155
 20
44.1
 10
-55.79244931214981
 20
44.1
 10
-55.69228151908648
 20
44.1
 10
-55.59211372602314
 20
44.1
 10
-55.49194593295981
 20
44.1
 10
-55.39177813989647
 20
44.1
 10
-55.29161034683313
 20
44.1
 10
-55.1914425537698
 20
44.1
 10
-55.091274760706455
 20
44.1
 10
-54.99110696764312
 20
44.1
 10
-54.890939174579785
 20
44.1
 10
-54.79077138151644
 20
44.1
 10
-54.69060358845311
 20
44.1
 10
-54.590435795389766
 20
44.1
 10
-54.49026800232643
 20
44.1
 10
-54.390100209263096
 20
44.1
 10
-54.289932416199754
 20
44.1
 10
-54.18976462313642
 20
44.1
 10
-54.08959683007308
 20
44.1
 10
-53.98942903700974
 20
44.1
 10
-53.88926124394641
 20
44.1
 10
-53.789093450883065
 20
44.1
 10
-53.68892565781973
 20
44.1
 10
-53.58875786475639
 20
44.1
 10
-53.48859007169306
 20
44.1
 10
-53.388422278629726
 20
44.1
 10
-53.288254485566384
 20
44.1
 10
-53.18808669250305
 20
44.1
 10
-53.08791889943971
 20
44.1
 10
-52.98775110637637
 20
44.1
 10
-52.88758331331304
 20
44.1
 10
-52.787415520249695
 20
44.1
 10
-52.68724772718636
 20
44.1
 10
-52.58707993412302
 20
44.1
 10
-52.48691214105968
 20
44.1
 10
-52.38674434799635
 20
44.1
 10
-52.286576554933006
 20
44.1
 10
-52.18640876186967
 20
44.1
 10
-52.08624096880633
 20
44.1
 10
-51.986073175742995
 20
44.1
 10
-51.88590538267966
 20
44.1
 10
-51.78573758961632
 20
44.1
 10
-51.68556979655298
 20
44.1
 10
-51.58540200348964
 20
44.1
 10
-51.485234210426306
 20
44.1
 10
-51.38506641736297
 20
44.1
 10
-51.284898624299636
 20
44.1
 10
-51.1847308312363
 20
44.1
 10
-51.08456303817296
 20
44.1
 10
-50.984395245109624
 20
44.1
 10
-50.88422745204628
 20
44.1
 10
-50.78405965898295
 20
44.1
 10
-50.68389186591961
 20
44.1
 10
-50.58372407285627
 20
44.1
 10
-50.483556279792936
 20
44.1
 10
-50.38338942988645
 20
44.10015329696637
 10
-50.28354810657746
 20
44.10756571305317
 10
-50.1851478012298
 20
44.12602143465437
 10
-50.08940615490742
 20
44.15529208397778
 10
-49.99750790946331
 20
44.19501545539346
 10
-49.91059024711416
 20
44.24469999749754
 10
-49.829728718535186
 20
44.30373089574758
 10
-49.75592393360604
 20
44.37137768040064
 10
-49.690089179501285
 20
44.44680326561083
 10
-49.63303911934366
 20
44.529074307833135
 10
-49.58547971126715
 20
44.61717275535491
 10
-49.54799947263507
 20
44.71000844603698
 10
-49.52106219751274
 20
44.80643259737531
 10
-49.50500121751151
 20
44.905252021952336
 10
-49.5
 20
45.00524392204173
 10
-49.5
 20
45.10541171510506
 10
-49.5
 20
45.20557950816839
 10
-49.5
 20
45.30574730123173
 10
-49.5
 20
45.40591509429507
 10
-49.5
 20
45.50608288735841
 10
-49.5
 20
45.606250680421745
 10
-49.5
 20
45.70641847348508
 10
-49.5
 20
45.80658626654842
 10
-49.5
 20
45.90675405961176
 10
-49.5
 20
46.0069218526751
 10
-49.5
 20
46.107089645738434
 10
-49.5
 20
46.20725743880177
 10
-49.5
 20
46.30742523186511
 10
-49.5
 20
46.407593024928445
 10
-49.5
 20
46.50776081799179
 10
-49.5
 20
46.60792861105512
 10
-49.5
 20
46.70809640411846
 10
-49.50003794248621
 20
46.80826408104659
 10
-49.50652404516506
 20
46.90816985777833
 10
-49.524066343334525
 20
47.006737101461354
 10
-49.55244776223522
 20
47.10274610527619
 10
-49.59131709989693
 20
47.19500881899128
 10
-49.6401933730392
 20
47.28238355032738
 10
-49.698471768932826
 20
47.363789092671865
 10
-49.76543112957195
 20
47.43821810432146
 10
-49.840242875544725
 20
47.50474957369377
 10
-49.92198125917545
 20
47.5625602162587
 10
-50.00963482006209
 20
47.61093466215968
 10
-50.102118901254016
 20
47.64927430845981
 10
-50.19828907119055
 20
47.677104726471605
 10
-50.2969552853121
 20
47.6940815325097
 10
-50.396896612103106
 20
47.69999464941941
 10
-50.49687634134141
 20
47.70522909385234
 10
-50.59565728759905
 20
47.72152505681187
 10
-50.69201709962342
 20
47.74869158730368
 10
-50.78476338615494
 20
47.78639251682733
 10
-50.872748471008975
 20
47.834161320408356
 10
-50.954883594837106
 20
47.89140688954757
 10
-51.03015238783018
 20
47.957420846811914
 10
-51.09762344664695
 20
48.03138631155377
 10
-51.15646185993674
 20
48.112388008288306
 10
-51.20593953983533
 20
48.19942359264428
 10
-51.24544423158822
 20
48.29141605473679
 10
-51.274487089813
 20
48.38722704647819
 10
-51.292708727649384
 20
48.48567096791011
 10
-51.299883663942595
 20
48.58552963824735
 10
-51.295923113428884
 20
48.685567370088705
 10
-51.280876085396635
 20
48.78454626026095
 10
-51.25492877722763
 20
48.88124150808171
 10
-51.21840227032313
 20
48.974456571487195
 10
-51.171748556926175
 20
49.06303797347773
 10
-51.115544947005645
 20
49.1458895756604
 10
-51.05048692441334
 20
49.221986142263056
 10
-50.977379540714566
 20
49.2903860267736
 10
-50.89712745318815
 20
49.35024282421538
 10
-50.81072373026913
 20
49.40081584486935
 10
-50.71923756295984
 20
49.44147927983728
 10
-50.62380103427269
 20
49.471729945027974
 10
-50.52559511042439
 20
49.49119350773975
 10
-50.42583502713172
 20
49.49962911878902
 10
-50.325755251844065
 20
49.5030676071346
 10
-50.22659420799549
 20
49.51686329976652
 10
-50.12957895030404
 20
49.54158724620301
 10
-50.03590998075166
 20
49.57693350336456
 10
-49.94674639313733
 20
49.62246468384646
 10
-49.86319153003001
 20
49.677617368309235
 10
-49.786279329607545
 20
49.74170907743382
 10
-49.716961531330746
 20
49.81394671716818
 10
-49.65609589877408
 20
49.89343639276074
 10
-49.604435605348165
 20
49.97919447013822
 10
-49.562619914258825
 20
50.07015974775037
 10
-49.53116626803237
 20
50.1652065882628
 10
-49.51046388549409
 20
50.26315884760158
 10
-49.500768945433386
 20
50.36280442898657
 10
-49.5
 20
50.4629616253304
 10
-49.5
 20
50.56312941839374
 10
-49.5
 20
50.66329721145708
 10
-49.5
 20
50.76346500452041
 10
-49.5
 20
50.863632797583755
 10
-49.5
 20
50.96380059064708
 10
-49.5
 20
51.063968383710424
 10
-49.5
 20
51.16413617677376
 10
-49.5
 20
51.2643039698371
 10
-49.5
 20
51.364471762900436
 10
-49.5
 20
51.46463955596377
 10
-49.5
 20
51.56480734902711
 10
-49.5
 20
51.66497514209045
 10
-49.5
 20
51.76514293515379
 10
-49.5
 20
51.865310728217125
 10
-49.5
 20
51.96547852128046
 10
-49.5
 20
52.0656463143438
 10
-49.5
 20
52.16581410740714
 10
-49.502417589747886
 20
52.26592280945164
 10
-49.51529300378576
 20
52.36520753871896
 10
-49.53911610304016
 20
52.462447929988485
 10
-49.573592091841284
 20
52.5564406953937
 10
-49.61829435180075
 20
52.646022734368316
 10
-49.67266972094221
 20
52.73008552627451
 10
-49.7360453387283
 20
52.80758884763924
 10
-49.8076369722809
 20
52.87757364425682
 10
-49.886558720763226
 20
52.9391738988734
 10
-49.971833977837996
 20
52.99162734759859
 10
-50.0624075165485
 20
53.034284912435226
 10
-50.15715854707957
 20
53.06661873320595
 10
-50.25491458581728
 20
53.08822869948647
 10
-50.35446596408636
 20
53.09884740171701
 10
-50.45461430924179
 20
53.1
 10
-50.554782102305126
 20
53.1
 10
-50.65494989536847
 20
53.1
 10
-50.7551176884318
 20
53.1
 10
-50.85528548149514
 20
53.1
 10
-50.95545327455848
 20
53.1
 10
-51.055621067621814
 20
53.1
 10
-51.155788860685156
 20
53.1
 10
-51.25595665374849
 20
53.1
 10
-51.35612444681182
 20
53.1
 10
-51.45629223987516
 20
53.1
 10
-51.556460032938496
 20
53.1
 10
-51.65662782600184
 20
53.1
 10
-51.75679561906517
 20
53.1
 10
-51.85696341212851
 20
53.1
 10
-51.95713120519185
 20
53.1
 10
-52.057298998255185
 20
53.1
 10
-52.15746679131853
 20
53.1
 10
-52.25763458438186
 20
53.1
 10
-52.357802377445196
 20
53.1
 10
-52.45797017050854
 20
53.1
 10
-52.55813796357187
 20
53.1
 10
-52.65830575663521
 20
53.1
 10
-52.75847354969854
 20
53.1
 10
-52.858641342761885
 20
53.1
 10
-52.95880913582522
 20
53.1
 10
-53.058976928888555
 20
53.1
 10
-53.1
 20
53.040855278048106
 10
-53.1
 20
52.94068748498477
 10
-53.1
 20
52.84051969192143
 10
-53.1
 20
52.740351898858094
 10
-53.1
 20
52.64018410579476
 10
-53.1
 20
52.54001631273142
 10
-53.1
 20
52.43984851966808
 10
-53.1
 20
52.33968072660474
 10
-53.1
 20
52.23951293354141
 10
-53.09795687794921
 20
52.1393910456804
 10
-53.08566934581478
 20
52.04003184728196
 10
-53.06242222000087
 20
51.942652152818866
 10
-53.028503168873044
 20
51.84845697394583
 10
-52.98433191907095
 20
51.75861191596681
 10
-52.930455061658634
 20
51.67422875421217
 10
-52.86753928840858
 20
51.59635167652766
 10
-52.79636314191582
 20
51.52594436211519
 10
-52.717807381629605
 20
51.46387805661705
 10
-52.63284408501653
 20
51.41092079100625
 10
-52.54252461872144
 20
51.36772787769279
 10
-52.44796662857526
 20
51.33483380145025
 10
-52.35034020944021
 20
51.31264560550732
 10
-52.2508534260316
 20
51.301437854647304
 10
-52.1507373638869
 20
51.29865076235609
 10
-52.051230895466915
 20
51.28761914892392
 10
-51.95356534989861
 20
51.26560381424149
 10
-51.85894927606196
 20
51.23287718404417
 10
-51.76855348756783
 20
51.18984422952258
 10
-51.68349657468571
 20
51.13703745606218
 10
-51.60483106250212
 20
51.07511031382852
 10
-51.53353038659343
 20
51.00482911173793
 10
-51.470476847381036
 20
50.927063534873064
 10
-51.41645069222598
 20
50.84277588268429
 10
-51.37212046036512
 20
50.753009161147325
 10
-51.33803471016418
 20
50.65887417622899
 10
-51.31461523105759
 20
50.56153578837144
 10
-51.302151824173045
 20
50.46219849808644
 10
-51.300798716227305
 20
50.36209154102939
 10
-51.31057265106878
 20
50.26245367699143
 10
-51.33135268248317
 20
50.16451786103653
 10
-51.362881670825715
 20
50.06949598646846
 10
-51.40476946496046
 20
49.9785638884235
 10
-51.456497730131865
 20
49.89284679366002
 10
-51.51742636202707
 20
49.813405396594554
 10
-51.58680140765879
 20
49.74122273388439
 10
-51.663764395053036
 20
49.67719201997546
 10
-51.7473629562926
 20
49.62210559414287
 10
-51.83656261246308
 20
49.57664511579736
 10
-51.930259574670124
 20
49.54137312938457
 10
-52.02729440272351
 20
49.51672610325598
 10
-52.12646635247053
 20
49.50300902865134
 10
-52.22654823423959
 20
49.49960835437359
 10
-52.32630159853026
 20
49.491093657372055
 10
-52.42449206103652
 20
49.47155224429266
 10
-52.51990457736586
 20
49.4412259276677
 10
-52.611358478439165
 20
49.40048997633713
 10
-52.69772208051816
 20
49.3498484717359
 10
-52.77792668907033
 20
49.28992807020748
 10
-52.85097982318266
 20
49.22147024853092
 10
-52.91597749688041
 20
49.145322128618375
 10
-52.97211540537736
 20
49.062425994921306
 10
-53.01869887783496
 20
48.973807634260965
 10
-53.055151473471184
 20
48.88056364237025
 10
-53.08102211464784
 20
48.78384785422042
 10
-53.095990668668826
 20
48.68485706604872
 10
-53.10012809078177
 20
48.5848162257677
 10
-53.10738219158206
 20
48.484963275015545
 10
-53.12568186885799
 20
48.38653383041724
 10
-53.15480067576643
 20
48.29074589361639
 10
-53.19437828563057
 20
48.19878477928117
 10
-53.24392495075283
 20
48.11178844759071
 10
-53.30282756273054
 20
48.030833422703196
 10
-53.370357239281624
 20
47.956921471455516
 10
-53.44567834369832
 20
47.8909672071371
 10
-53.52785882531883
 20
47.83378677173343
 10
-53.61588175306025
 20
47.78608773668906
 10
-53.70865789929255
 20
47.74846034716206
 10
-53.80503921833632
 20
47.721370218116256
 10
-53.903833052796315
 20
47.7051525726329
 10
-54.003816903378514
 20
47.7
 10
-54.103984696441856
 20
47.7
 10
-54.20415248950519
 20
47.7
 10
-54.304320282568526
 20
47.7
 10
-54.40448807563187
 20
47.7
 10
-54.5046558686952
 20
47.7
 10
-54.604823661758545
 20
47.7
 10
-54.70499145482188
 20
47.7
 10
-54.805159247885214
 20
47.7
 10
-54.90532704094855
 20
47.7
 10
-55.005494834011884
 20
47.7
 10
-55.105662627075226
 20
47.7
 10
-55.20583042013856
 20
47.7
 10
-55.305998213201896
 20
47.7
 10
-55.40616600626524
 20
47.7
 10
-55.50633379932857
 20
47.7
 10
-55.606501592391915
 20
47.7
 10
-55.70666938545525
 20
47.7
 10
-55.806837178518585
 20
47.7
 10
-55.90700497158193
 20
47.7
 10
-56.00717276464526
 20
47.7
 10
-56.1073405577086
 20
47.7
 10
-56.20750835077193
 20
47.7
 10
-56.30767614383527
 20
47.7
 10
-56.40784393689861
 20
47.7
 10
-56.50801172996194
 20
47.7
 10
-56.608179523025285
 20
47.7
 10
-56.70834731608862
 20
47.7
 10
-56.80851510915196
 20
47.7
 10
-56.9086829022153
 20
47.7
 10
-57.00885069527863
 20
47.7
 10
-57.109018488341974
 20
47.7
 10
-57.20918628140531
 20
47.7
 10
-57.30935407446865
 20
47.7
 10
-57.409521867531986
 20
47.7
 10
-57.50968966059531
 20
47.7
 10
-57.609857256572845
 20
47.69994601754375
 10
-57.709751394512715
 20
47.69328306342532
 10
-57.80828742889475
 20
47.67556630072452
 10
-57.90424603909471
 20
47.647014963088125
 10
-57.996439798469886
 20
47.60798235512242
 10
-58.08372786800705
 20
47.55895148047379
 10
-58.1650301134781
 20
47.500529064966564
 10
-58.23934047141274
 20
47.43343804875753
 10
-58.305739398492676
 20
47.358508640412296
 10
-58.3634052503142
 20
47.27666804360342
 10
-58.411624448713916
 20
47.188928983555904
 10
-58.4498003118438
 20
47.09637717521797
 10
-58.47746043772872
 20
47.00015788823056
 10
-58.49426254993985
 20
46.901461774945496
 10
-58.49999873304725
 20
46.8015101368614
 10
-58.5
 20
46.70134234450669
 10
-58.5
 20
46.60117455144335
 10
-58.5
 20
46.501006758380015
 10
-58.5
 20
46.40083896531668
 10
-58.5
 20
46.30067117225334
 10
-58.5
 20
46.20050337919
 10
-58.5
 20
46.10033558612666
 10
-58.5
 20
46.00016779306333
 10
-58.5
 20
45.9
  0
LWPOLYLINE
  5
35
330
17
100
AcDbEntity
  8
0
100
AcDbPolyline
 90
125
 70
0
 10
-58.5
 20
51.300000000000004
 10
-58.5
 20
51.19944690749534
 10
-58.5
 20
51.098893814990696
 10
-58.5
 20
50.99834072248604
 10
-58.5
 20
50.89778762998139
 10
-58.5
 20
50.79723453747673
 10
-58.5
 20
50.69668144497208
 10
-58.5
 20
50.596128352467424
 10
-58.5
 20
50.49557525996278
 10
-58.49998623402576
 20
50.39502219283767
 10
-58.493819987817915
 20
50.29471073474855
 10
-58.47650812502949
 20
50.19571219625905
 10
-58.44826651841736
 20
50.09926105384888
 10
-58.40944733074722
 20
50.00656001887682
 10
-58.36053462344935
 20
49.918765040198906
 10
-58.302138320545254
 20
49.836970889898325
 10
-58.23498660311252
 20
49.7621975118678
 10
-58.15991682912638
 20
49.695377303472945
 10
-58.07786509190434
 20
49.63734348888949
 10
-57.98985454735622
 20
49.588819729094894
 10
-57.89698265559473
 20
49.55041109807395
 10
-57.80040749599915
 20
49.522596537761935
 10
-57.701333326378375
 20
49.505722885809384
 10
-57.600995566305336
 20
49.50000055064032
 10
-57.50044247400373
 20
49.5
 10
-57.39988938149907
 20
49.5
 10
-57.29933628899442
 20
49.5
 10
-57.198783196489764
 20
49.5
 10
-57.09823010398511
 20
49.5
 10
-56.997677011480455
 20
49.5
 10
-56.8971239189758
 20
49.5
 10
-56.796570826471154
 20
49.5
 10
-56.69601773396649
 20
49.5
 10
-56.595464641461845
 20
49.5
 10
-56.49491154895719
 20
49.5
 10
-56.39435845645254
 20
49.5
 10
-56.29380536394788
 20
49.5
 10
-56.19325227144323
 20
49.5
 10
-56.092699178938574
 20
49.5
 10
-55.99214608643392
 20
49.5
 10
-55.891592993929265
 20
49.5
 10
-55.79103990142461
 20
49.5
 10
-55.690486808919964
 20
49.5
 10
-55.5899337164153
 20
49.5
 10
-55.489380623910655
 20
49.5
 10
-55.388827531406
 20
49.5
 10
-55.28827443890135
 20
49.5
 10
-55.18772134639669
 20
49.5
 10
-55.087168253892045
 20
49.5
 10
-54.986615161387384
 20
49.5
 10
-54.9
 20
49.51393793111727
 10
-54.9
 20
49.61449102362192
 10
-54.9
 20
49.71504411612658
 10
-54.9
 20
49.81559720863123
 10
-54.9
 20
49.916150301135886
 10
-54.9
 20
50.01670339364053
 10
-54.9
 20
50.117256486145195
 10
-54.9
 20
50.21780957864984
 10
-54.9
 20
50.318362671154496
 10
-54.9001987738576
 20
50.41891437106112
 10
-54.90791770098212
 20
50.51911831000719
 10
-54.92676057632741
 20
50.6178368860959
 10
-54.956492435955845
 20
50.7138391138789
 10
-54.99674253417794
 20
50.80592787980272
 10
-55.04700896661898
 20
50.89295486978808
 10
-55.10666492878755
 20
50.973834888297
 10
-55.17496653210415
 20
51.04755939033427
 10
-55.25106207992652
 20
51.11320905764397
 10
-55.33400268790314
 20
51.16996526228038
 10
-55.42275411622278
 20
51.217120274606586
 10
-55.51620966621624
 20
51.25408608843073
 10
-55.61320398049417
 20
51.28040175323359
 10
-55.712527574538235
 20
51.29573912205722
 10
-55.81294191854185
 20
51.30009305661949
 10
-55.91319488143536
 20
51.307146754042506
 10
-56.01203634451395
 20
51.32533401311978
 10
-56.108233789972324
 20
51.35442804521478
 10
-56.20058766996222
 20
51.394066058119996
 10
-56.287946364526455
 20
51.44375377994636
 10
-56.369220541889206
 20
51.502871622517524
 10
-56.4433967420349
 20
51.57068240741349
 10
-56.50955001419324
 20
51.646340558322734
 10
-56.56685545064558
 20
51.7289026450773
 10
-56.614598473030085
 20
51.81733914789064
 10
-56.6521837428791
 20
51.91054729510235
 10
-56.67914258527763
 20
52.00736481434753
 10
-56.69513883307243
 20
52.10658442567891
 10
-56.7000269812435
 20
52.20696889591725
 10
-56.70641513824211
 20
52.30726646650809
 10
-56.72394597988316
 20
52.406226462504534
 10
-56.752400902821556
 20
52.50261488803806
 10
-56.791425084313076
 20
52.59522981380696
 10
-56.84053190672754
 20
52.68291636470625
 10
-56.899109025497175
 20
52.76458112070852
 10
-56.966426004835014
 20
52.83920575142178
 10
-57.041643426008775
 20
52.90585971430645
 10
-57.12382335459317
 20
52.96371185820903
 10
-57.2119410361778
 20
53.0120407875207
 10
-57.30489767468928
 20
53.05024385772331
 10
-57.401534133986594
 20
53.07784469015171
 10
-57.500645391875416
 20
53.09449911226586
 10
-57.600995566305336
 20
53.09999944935968
 10
-57.70133332637838
 20
53.09427711419062
 10
-57.80040749599915
 20
53.077403462238074
 10
-57.89698265559473
 20
53.04958890192605
 10
-57.98985454735622
 20
53.01118027090511
 10
-58.07786509190434
 20
52.96265651111051
 10
-58.15991682912638
 20
52.904622696527056
 10
-58.23498660311252
 20
52.837802488132205
 10
-58.302138320545254
 20
52.76302911010168
 10
-58.36053462344935
 20
52.681234959801095
 10
-58.40944733074722
 20
52.59343998112318
 10
-58.44826651841736
 20
52.500738946151124
 10
-58.47650812502949
 20
52.40428780374095
 10
-58.493819987817915
 20
52.30528926525145
 10
-58.49998623402576
 20
52.20497780716233
 10
-58.5
 20
52.104424740037224
 10
-58.5
 20
52.00387164753258
 10
-58.5
 20
51.90331855502792
 10
-58.5
 20
51.80276546252326
 10
-58.5
 20
51.702212370018614
 10
-58.5
 20
51.60165927751396
 10
-58.5
 20
51.501106185009306
 10
-58.5
 20
51.40055309250465
 10
-58.5
 20
51.300000000000004
  0
LWPOLYLINE
  5
36
330
17
100
AcDbEntity
  8
0
100
AcDbPolyline
 90
531
 70
0
 10
-44.1
 20
45.9
 10
-44.1
 20
45.79983386683694
 10
-44.1
 20
45.69966773367388
 10
-44.1
 20
45.59950160051081
 10
-44.1
 20
45.49933546734775
 10
-44.1
 20
45.399169334184684
 10
-44.1
 20
45.29900320102163
 10
-44.1
 20
45.19883706785856
 10
-44.1
 20
45.09867093469549
 10
-44.09999875799003
 20
44.99850480222023
 10
-44.0942644210814
 20
44.898554718256776
 10
-44.07746449828533
 20
44.79985991343843
 10
-44.0498068710564
 20
44.70364163263822
 10
-44.01163377357312
 20
44.61109047633741
 10
-43.963417557948404
 20
44.52335166819122
 10
-43.905754849366694
 20
44.441510884085105
 10
-43.83935916347197
 20
44.36658081803247
 10
-43.76505207735879
 20
44.29948865114652
 10
-43.68375306341589
 20
44.24106457874484
 10
-43.59646811181816
 20
44.19203153755153
 10
-43.504277282451476
 20
44.15299626011218
 10
-43.4083213403025
 20
44.124441767113936
 10
-43.3097876396864
 20
44.10672139051017
 10
-43.20989543198034
 20
44.100054401407554
 10
-43.10972949820189
 20
44.1
 10
-43.00956336503882
 20
44.1
 10
-42.90939723187576
 20
44.1
 10
-42.8092310987127
 20
44.1
 10
-42.709064965549636
 20
44.1
 10
-42.60889883238657
 20
44.1
 10
-42.50873269922351
 20
44.1
 10
-42.40856656606044
 20
44.1
 10
-42.308400432897386
 20
44.1
 10
-42.208234299734315
 20
44.1
 10
-42.10806816657125
 20
44.1
 10
-42.007902033408186
 20
44.1
 10
-41.90773590024513
 20
44.1
 10
-41.807569767082065
 20
44.1
 10
-41.707403633919
 20
44.1
 10
-41.607237500755936
 20
44.1
 10
-41.50707136759287
 20
44.1
 10
-41.406905234429814
 20
44.1
 10
-41.30673910126675
 20
44.1
 10
-41.206572968103686
 20
44.1
 10
-41.10640683494062
 20
44.1
 10
-41.00624070177756
 20
44.1
 10
-40.9060745686145
 20
44.1
 10
-40.805908435451435
 20
44.1
 10
-40.705742302288364
 20
44.1
 10
-40.6055761691253
 20
44.1
 10
-40.505410035962235
 20
44.1
 10
-40.5
 20
44.19475609720082
 10
-40.5
 20
44.29492223036389
 10
-40.5
 20
44.39508836352695
 10
-40.5
 20
44.495254496690016
 10
-40.5
 20
44.59542062985308
 10
-40.5
 20
44.69558676301614
 10
-40.5
 20
44.7957528961792
 10
-40.5
 20
44.89591902934227
 10
-40.5
 20
44.99608516250533
 10
-40.49485806372423
 20
45.09606792278243
 10
-40.47865171025958
 20
45.1948619307559
 10
-40.451572961856925
 20
45.29124472636295
 10
-40.41395688967543
 20
45.3840236734238
 10
-40.366268953223106
 20
45.472050729611105
 10
-40.30909924078275
 20
45.55423665227168
 10
-40.24315516768731
 20
45.629564476663916
 10
-40.169252722795775
 20
45.69710209983158
 10
-40.08830637148546
 20
45.75601381440203
 10
-40.001317740100404
 20
45.80557064958991
 10
-39.90936322187412
 20
45.84515939144736
 10
-39.81358065769033
 20
45.874290170744565
 10
-39.71515525649341
 20
45.8926025245886
 10
-39.61530492956863
 20
45.899869856774245
 10
-39.515265220165176
 20
45.903997758325154
 10
-39.41627401494216
 20
45.918952463022265
 10
-39.31955622641724
 20
45.944809208504516
 10
-39.22630863595682
 20
45.981248044619406
 10
-39.137685084859605
 20
46.027818078922635
 10
-39.05478219677875
 20
46.08394305600002
 10
-38.97862580815227
 20
46.14892848802487
 10
-38.91015827455125
 20
46.22197024831771
 10
-38.850226810016295
 20
46.302164521571974
 10
-38.79957300367087
 20
46.388518987622106
 10
-38.75882364333235
 20
46.479965100366634
 10
-38.72848295966903
 20
46.57537130990735
 10
-38.70892638687358
 20
46.67355706429453
 10
-38.70039591705798
 20
46.77330741762127
 10
-38.69700289414547
 20
46.87338806370695
 10
-38.683302233724596
 20
46.972560609343915
 10
-38.65867163300708
 20
47.069597898116726
 10
-38.62341586988778
 20
47.16329919517797
 10
-38.57797119752137
 20
47.25250504508476
 10
-38.522899946146374
 20
47.3361116188459
 10
-38.458883564837194
 20
47.413084372649834
 10
-38.38671418928532
 20
47.482470849261176
 10
-38.307284839949574
 20
47.54341246368173
 10
-38.22157837186291
 20
47.59515512724085
 10
-38.130655312830484
 20
47.63705857865324
 10
-38.03564074050848
 20
47.6686043065819
 10
-37.93771036074607
 20
47.689401965673106
 10
-37.83807595945658
 20
47.699194206671436
 10
-37.737970408035565
 20
47.697859860847295
 10
-37.638632407868144
 20
47.685415439333184
 10
-37.541291162696325
 20
47.662014928815616
 10
-37.447151168509706
 20
47.62794788611116
 10
-37.35737730916876
 20
47.58363585520401
 10
-37.27308044218673
 20
47.52962715108052
 10
-37.19530365303101
 20
47.46659007490538
 10
-37.125009348032606
 20
47.39530464449442
 10
-37.063067345615494
 20
47.31665294241086
 10
-37.010244113204315
 20
47.231608201117126
 10
-36.967193282992554
 20
47.141222760242165
 10
-36.93444756392849
 20
47.04661504498035
 10
-36.9124121499997
 20
46.94895572675075
 10
-36.90135970638179
 20
46.84945323736402
 10
-36.9
 20
46.74931202366168
 10
-36.9
 20
46.649145890498616
 10
-36.9
 20
46.54897975733556
 10
-36.9
 20
46.448813624172494
 10
-36.9
 20
46.34864749100943
 10
-36.9
 20
46.248481357846366
 10
-36.9
 20
46.1483152246833
 10
-36.9
 20
46.048149091520244
 10
-36.9
 20
45.94798295835718
 10
-36.9
 20
45.847816825194116
 10
-36.9
 20
45.74765069203105
 10
-36.9
 20
45.64748455886799
 10
-36.9
 20
45.54731842570493
 10
-36.9
 20
45.44715229254186
 10
-36.9
 20
45.346986159378794
 10
-36.9
 20
45.24682002621573
 10
-36.9
 20
45.14665389305267
 10
-36.9
 20
45.04648775988961
 10
-36.9
 20
44.946321626726544
 10
-36.9
 20
44.84615549356348
 10
-36.9
 20
44.745989360400415
 10
-36.9
 20
44.64582322723736
 10
-36.9
 20
44.54565709407429
 10
-36.9
 20
44.44549096091123
 10
-36.9
 20
44.345324827748165
 10
-36.9
 20
44.2451586945851
 10
-36.9
 20
44.14499256142204
 10
-36.84482642825897
 20
44.1
 10
-36.744660295095905
 20
44.1
 10
-36.64449416193285
 20
44.1
 10
-36.54432802876978
 20
44.1
 10
-36.44416189560672
 20
44.1
 10
-36.343995762443654
 20
44.1
 10
-36.24382962928059
 20
44.1
 10
-36.14366349611753
 20
44.1
 10
-36.04349736295447
 20
44.1
 10
-35.94336866747792
 20
44.101783493707245
 10
-35.84395765719443
 20
44.11363055825928
 10
-35.74647750752184
 20
44.13644551659571
 10
-35.652134433247504
 20
44.16994605749508
 10
-35.56209583113535
 20
44.213717646839925
 10
-35.47747583461322
 20
44.267218657042335
 10
-35.399321527538234
 20
44.32978706911833
 10
-35.32859998763038
 20
44.40064866447961
 10
-35.26618631989831
 20
44.47892660507793
 10
-35.21285282813109
 20
44.5636522833579
 10
-35.16925945844748
 20
44.65377730776129
 10
-35.13594563315365
 20
44.748186475474895
 10
-35.11332357595698
 20
44.84571157189768
 10
-35.10167321112926
 20
44.945145826073315
 10
-35.1
 20
45.045277940376074
 10
-35.1
 20
45.14544407353914
 10
-35.1
 20
45.2456102067022
 10
-35.1
 20
45.34577633986527
 10
-35.1
 20
45.445942473028325
 10
-35.1
 20
45.546108606191396
 10
-35.1
 20
45.64627473935446
 10
-35.1
 20
45.746440872517525
 10
-35.1
 20
45.84660700568059
 10
-35.1
 20
45.946773138843646
 10
-35.1
 20
46.04693927200671
 10
-35.1
 20
46.147105405169775
 10
-35.1
 20
46.24727153833284
 10
-35.1
 20
46.3474376714959
 10
-35.1
 20
46.44760380465896
 10
-35.1
 20
46.547769937822025
 10
-35.1
 20
46.64793607098509
 10
-35.1
 20
46.748102204148154
 10
-35.1012940411066
 20
46.84824520131052
 10
-35.11221271916417
 20
46.94776245797266
 10
-35.134116835280395
 20
47.045451308929415
 10
-35.16673534895265
 20
47.14010295693353
 10
-35.20966464022686
 20
47.23054618694429
 10
-35.26237350407186
 20
47.31566185868723
 10
-35.324209723485424
 20
47.39439675484339
 10
-35.39440813999681
 20
47.465776613510776
 10
-35.47210012170169
 20
47.528918183675394
 10
-35.55632431167245
 20
47.58304015451768
 10
-35.64603852374362
 20
47.62747282331591
 10
-35.74013263847447
 20
47.66166638231613
 10
-35.837442339714755
 20
47.68519772202745
 10
-35.936763521798
 20
47.69777566675903
 10
-36.036867189088376
 20
47.700755422385704
 10
-36.136514663514916
 20
47.710413721640556
 10
-36.23447291191568
 20
47.73107971966481
 10
-36.329529803532125
 20
47.762497696370886
 10
-36.420509108858106
 20
47.80427888719265
 10
-36.506285054248465
 20
47.855906293639954
 10
-36.58579625218914
 20
47.91674108061354
 10
-36.6580588348564
 20
47.98603048132058
 10
-36.72217862845097
 20
48.06291711197555
 10
-36.777362217662585
 20
48.14644958102686
 10
-36.82292676335374
 20
48.23559426163116
 10
-36.85830845197904
 20
48.329248081703305
 10
-36.883069472187515
 20
48.42625217327844
 10
-36.896903432279665
 20
48.52540621228974
 10
-36.89963915148393
 20
48.62548327132186
 10
-36.89124277813957
 20
48.725245001553176
 10
-36.87181820857544
 20
48.823456956025794
 10
-36.84160580150174
 20
48.91890386463418
 10
-36.80097940382266
 20
49.01040467182026
 10
-36.75044172467234
 20
49.096827150899394
 10
-36.690618114915694
 20
49.177101914180064
 10
-36.62224882908623
 20
49.25023564551693
 10
-36.546179865511256
 20
49.315323391558046
 10
-36.46335249796837
 20
49.371559759595115
 10
-36.37479162840803
 20
49.41824888345494
 10
-36.28159310486496
 20
49.45481303411478
 10
-36.18491016148618
 20
49.48079976849404
 10
-36.085939148465854
 20
49.49588752796373
 10
-35.985904728464305
 20
49.500110382702225
 10
-35.88604472268982
 20
49.50724348516902
 10
-35.787594794157215
 20
49.52542351476221
 10
-35.691773157651866
 20
49.55442551265066
 10
-35.59976550559722
 20
49.59389060947652
 10
-35.51271033635248
 20
49.64333046598777
 10
-35.431684866487515
 20
49.70213331572522
 10
-35.35769170135563
 20
49.76957153499181
 10
-35.29164642890213
 20
49.84481064643412
 10
-35.23436629022213
 20
49.92691964482578
 10
-35.18656006705762
 20
50.01488251728246
 10
-35.14881931136565
 20
50.10761081535744
 10
-35.1216110254821
 20
50.20395712345153
 10
-35.10527188345686
 20
50.30272925687976
 10
-35.1
 20
50.402705017981134
 10
-35.1
 20
50.5028711511442
 10
-35.1
 20
50.60303728430726
 10
-35.1
 20
50.70320341747033
 10
-35.1
 20
50.803369550633384
 10
-35.1
 20
50.90353568379645
 10
-35.1
 20
51.00370181695951
 10
-35.1
 20
51.10386795012258
 10
-35.1
 20
51.20403408328564
 10
-35.1
 20
51.3042002164487
 10
-35.1
 20
51.40436634961177
 10
-35.1
 20
51.504532482774835
 10
-35.1
 20
51.6046986159379
 10
-35.1
 20
51.70486474910096
 10
-35.1
 20
51.80503088226402
 10
-35.1
 20
51.905197015427085
 10
-35.1
 20
52.00536314859015
 10
-35.1
 20
52.10552928175321
 10
-35.1
 20
52.20569541491628
 10
-35.1
 20
52.305861548079335
 10
-35.1
 20
52.4060276812424
 10
-35.1
 20
52.506193814405464
 10
-35.1
 20
52.60635994756853
 10
-35.1
 20
52.70652608073159
 10
-35.1
 20
52.80669221389466
 10
-35.1
 20
52.90685834705772
 10
-35.1
 20
53.007024480220785
 10
-35.10719061338385
 20
53.1
 10
-35.20735674654691
 20
53.1
 10
-35.30752287970997
 20
53.1
 10
-35.407689012873035
 20
53.1
 10
-35.5078551460361
 20
53.1
 10
-35.608021279199164
 20
53.1
 10
-35.70818741236222
 20
53.1
 10
-35.808353545525286
 20
53.1
 10
-35.90851967868835
 20
53.1
 10
-36.008685811851414
 20
53.1
 10
-36.10885194501448
 20
53.1
 10
-36.209018078177536
 20
53.1
 10
-36.3091842113406
 20
53.1
 10
-36.409350344503665
 20
53.1
 10
-36.50951647766673
 20
53.1
 10
-36.60968261082979
 20
53.1
 10
-36.70984874399285
 20
53.1
 10
-36.810014877155915
 20
53.1
 10
-36.91018101031898
 20
53.1
 10
-37.01034714348204
 20
53.1
 10
-37.11051327664511
 20
53.1
 10
-37.210679409808165
 20
53.1
 10
-37.31084554297123
 20
53.1
 10
-37.411011676134294
 20
53.1
 10
-37.51117780929736
 20
53.1
 10
-37.61134394246042
 20
53.1
 10
-37.71151007562348
 20
53.1
 10
-37.811676208786544
 20
53.1
 10
-37.91184234194961
 20
53.1
 10
-38.01200847511267
 20
53.1
 10
-38.11217460827574
 20
53.1
 10
-38.212340741438794
 20
53.1
 10
-38.31250687460186
 20
53.1
 10
-38.41267300776492
 20
53.1
 10
-38.51283914092799
 20
53.1
 10
-38.61300527409105
 20
53.1
 10
-38.7
 20
53.08682859274589
 10
-38.7
 20
52.986662459582824
 10
-38.7
 20
52.88649632641976
 10
-38.7
 20
52.786330193256696
 10
-38.7
 20
52.68616406009363
 10
-38.7
 20
52.58599792693057
 10
-38.7
 20
52.48583179376751
 10
-38.7
 20
52.385665660604445
 10
-38.7
 20
52.28549952744138
 10
-38.70011950253497
 20
52.18533404343094
 10
-38.70731593232756
 20
52.08547858137541
 10
-38.72555839278882
 20
51.987040201967766
 10
-38.754621152570984
 20
51.89123697708505
 10
-38.794144590451374
 20
51.79925437132614
 10
-38.843639645268524
 20
51.71223057312858
 10
-38.90249386754199
 20
51.63124241087835
 10
-38.96997899789339
 20
51.557292028286106
 10
-39.04525997849371
 20
51.49129448390802
 10
-39.12740528602962
 20
51.43406642825422
 10
-39.215398458329126
 20
51.386315998593815
 10
-39.30815067201669
 20
51.34863405649762
 10
-39.40451421556246
 20
51.3214868765449
 10
-39.503296691010775
 20
51.30521037666358
 10
-39.60327576865637
 20
51.29999403850232
 10
-39.70321431209468
 20
51.2940619697643
 10
-39.80187568648951
 20
51.277066820261936
 10
-39.89803906063433
 20
51.249218887175864
 10
-39.990514513460234
 20
51.210862759520325
 10
-40.078157758063256
 20
51.16247305421498
 10
-40.15988430105672
 20
51.104648543197406
 10
-40.23468286204138
 20
51.03810474424734
 10
-40.30162788714155
 20
50.96366506720329
 10
-40.359891001765185
 20
50.882250625127966
 10
-40.40875126087216
 20
50.79486883649851
 10
-40.4476040699143
 20
50.7026009594577
 10
-40.47596866605983
 20
50.60658871237648
 10
-40.49349406713009
 20
50.50802014628459
 10
-40.49996341463648
 20
50.40811494398299
 10
-40.504703342822765
 20
50.308109327746195
 10
-40.520448459010325
 20
50.20924076236607
 10
-40.547077104599026
 20
50.11273264282064
 10
-40.584259777980755
 20
50.01977915604219
 10
-40.63153638250386
 20
49.93153050410433
 10
-40.68832191968748
 20
49.84907867167563
 10
-40.753913727965255
 20
49.77344391385268
 10
-40.827500177386455
 20
49.70556213157154
 10
-40.908170712686875
 20
49.64627329081354
 10
-40.994927120456786
 20
49.59631102890573
 10
-41.08669588098678
 20
49.556293576527146
 10
-41.18234145195013
 20
49.526716107751426
 10
-41.28068031955013
 20
49.507944612786105
 10
-41.380495643264176
 20
49.50021136922702
 10
-41.48055231297114
 20
49.503612067866264
 10
-41.579612232145934
 20
49.518104628618815
 10
-41.67644963800768
 20
49.54350972121955
 10
-41.769866269050695
 20
49.57951298424746
 10
-41.858706192276024
 20
49.62566891501914
 10
-41.941870106652004
 20
49.68140638221805
 10
-42.018328945813494
 20
49.7460356930465
 10
-42.08713661168074
 20
49.818757127451946
 10
-42.147441681432454
 20
49.898670833825285
 10
-42.19849794297179
 20
49.98478796372237
 10
-42.23967362851975
 20
50.076042907828096
 10
-42.27045923207993
 20
50.171306481756005
 10
-42.290473814041796
 20
50.26939989852276
 10
-42.29946971490946
 20
50.36910935480281
 10
-42.297335619828694
 20
50.46920105047367
 10
-42.284097935991646
 20
50.56843645560065
 10
-42.25992046587554
 20
50.66558763594792
 10
-42.22510238035846
 20
50.75945244737908
 10
-42.18007451679303
 20
50.848869411132156
 10
-42.12539404784527
 20
50.93273208590309
 10
-42.0617375870662
 20
51.01000275889852
 10
-41.98989281650761
 20
51.07972528644499
 10
-41.91074873998139
 20
51.14103692526582
 10
-41.82528468256818
 20
51.19317900802586
 10
-41.73455817249486
 20
51.23550633104537
 10
-41.63969185533002
 20
51.26749513802007
 10
-41.541859602420516
 20
51.288749600956926
 10
-41.4422719854626
 20
51.29900671813122
 10
-41.3421612969447
 20
51.301860431542586
 10
-41.24276630181814
 20
51.31384111799517
 10
-41.14531690907788
 20
51.33678709277586
 10
-41.05101895292642
 20
51.37041442347192
 10
-40.961039271838175
 20
51.414307007074875
 10
-40.876491270155014
 20
51.46792171881957
 10
-40.798421140873295
 20
51.5305951327845
 10
-40.72779492010095
 20
51.6015517310929
 10
-40.66548653337213
 20
51.67991350013454
 10
-40.61226698173373
 20
51.764710795064815
 10
-40.5687948014147
 20
51.854894338144426
 10
-40.535607915129724
 20
51.94934820245284
 10
-40.51311697584885
 20
52.04690362031545
 10
-40.50160028539695
 20
52.14635344557984
 10
-40.501200350760016
 20
52.24646709078553
 10
-40.51192212071042
 20
52.34600575439528
 10
-40.5336329245711
 20
52.44373774966708
 10
-40.56606411387615
 20
52.53845374548797
 10
-40.60881438661444
 20
52.62898173058036
 10
-40.66135475292172
 20
52.7142015159144
 10
-40.723035080776384
 20
52.79305859587444
 10
-40.79309214070251
 20
52.86457719666186
 10
-40.8706590499355
 20
52.92787235047418
 10
-40.95477599918862
 20
52.982160846055024
 10
-41.04440212928801
 20
53.02677092011337
 10
-41.138428410715115
 20
53.06115056969091
 10
-41.23569136668579
 20
53.08487438262073
 10
-41.33498746995735
 20
53.09764880155741
 10
-41.43509693005712
 20
53.1
 10
-41.535263063220185
 20
53.1
 10
-41.63542919638325
 20
53.1
 10
-41.735595329546314
 20
53.1
 10
-41.83576146270938
 20
53.1
 10
-41.935927595872435
 20
53.1
 10
-42.0360937290355
 20
53.1
 10
-42.136259862198564
 20
53.1
 10
-42.23642599536163
 20
53.1
 10
-42.33659212852469
 20
53.1
 10
-42.43675826168775
 20
53.1
 10
-42.536924394850814
 20
53.1
 10
-42.63709052801388
 20
53.1
 10
-42.73725666117694
 20
53.1
 10
-42.83742279434001
 20
53.1
 10
-42.937588927503064
 20
53.1
 10
-43.03775506066613
 20
53.1
 10
-43.13792119382919
 20
53.1
 10
-43.23808732699226
 20
53.1
 10
-43.33825346015532
 20
53.1
 10
-43.43841959331838
 20
53.1
 10
-43.53858572648144
 20
53.1
 10
-43.63875185964451
 20
53.1
 10
-43.73891799280757
 20
53.1
 10
-43.839084125970636
 20
53.1
 10
-43.93925025913369
 20
53.1
 10
-44.03941639229676
 20
53.1
 10
-44.1
 20
53.06041747454018
 10
-44.1
 20
52.960251341377116
 10
-44.1
 20
52.86008520821405
 10
-44.1
 20
52.759919075050995
 10
-44.1
 20
52.65975294188793
 10
-44.1
 20
52.559586808724866
 10
-44.1
 20
52.4594206755618
 10
-44.1
 20
52.35925454239874
 10
-44.1
 20
52.25908840923568
 10
-44.1
 20
52.158922276072616
 10
-44.1
 20
52.05875614290955
 10
-44.1
 20
51.95859000974649
 10
-44.1
 20
51.85842387658342
 10
-44.1
 20
51.75825774342036
 10
-44.1
 20
51.658091610257294
 10
-44.1
 20
51.55792547709423
 10
-44.1
 20
51.457759343931166
 10
-44.1
 20
51.3575932107681
 10
-44.1
 20
51.257427077605044
 10
-44.1
 20
51.15726094444198
 10
-44.1
 20
51.057094811278915
 10
-44.1
 20
50.95692867811585
 10
-44.1
 20
50.85676254495279
 10
-44.1
 20
50.75659641178973
 10
-44.1
 20
50.656430278626665
 10
-44.1
 20
50.5562641454636
 10
-44.1
 20
50.45609801230054
 10
-44.098921327051535
 20
50.35594948613343
 10
-44.08846720401054
 20
50.25638235694148
 10
-44.06701922957352
 20
50.158592345710105
 10
-44.034842799967386
 20
50.06378950143903
 10
-43.99233606481879
 20
49.9731469100645
 10
-43.94002500046926
 20
49.88778617874908
 10
-43.87855690156878
 20
49.808763557167374
 10
-43.808692371482174
 20
49.737056867522256
 10
-43.73129591061887
 20
49.67355340501888
 10
-43.647325219145465
 20
49.61903895851556
 10
-43.557819346448966
 20
49.574188087209414
 10
-43.463885833988456
 20
49.53955577367257
 10
-43.36668701062924
 20
49.515570556523876
 10
-43.267425610040135
 20
49.50252922771228
 10
-43.167329888123554
 20
49.49940683997287
 10
-43.06763842463479
 20
49.490213689721095
 10
-42.96958479705436
 20
49.47000507714123
 10
-42.8743823163583
 20
49.4390310626549
 10
-42.78320901356516
 20
49.39767491726058
 10
-42.69719306283567
 20
49.34644837995633
 10
-42.61739882149863
 20
49.28598532550545
 10
-42.544813659743475
 20
49.21703392090003
 10
-42.48033574294792
 20
49.14044736757772
 10
-42.424762917821894
 20
49.057173343947326
 10
-42.37878283988979
 20
48.9682422788607
 10
-42.342964464473404
 20
48.874754601134626
 10
-42.31775100646554
 20
48.77786712289637
 10
-42.30345445600974
 20
48.67877872524483
 10
-42.300251717948946
 20
48.57871552335224
 10
-42.308182422813296
 20
48.478915694572635
 10
-42.32714843643379
 20
48.38061415729356
 10
-42.3569150742499
 20
48.28502729011397
 10
-42.39711400528528
 20
48.19333788043272
 10
-42.44724780985793
 20
48.10668048869286
 10
-42.50669613462796
 20
48.02612740938412
 10
-42.574723368820635
 20
47.95267540252128
 10
-42.65048774663952
 20
47.88723335978268
 10
-42.73305176323684
 20
47.830611057927285
 10
-42.821393775354345
 20
47.783509138655205
 10
-42.91442064308901
 20
47.746510438900216
 10
-43.010981256354725
 20
47.72007277883296
 10
-43.10988077866438
 20
47.70452329681568
 10
-43.20989543198036
 20
47.69994559859245
 10
-43.30978763968641
 20
47.69327860948983
 10
-43.408321340302514
 20
47.67555823288606
 10
-43.50427728245149
 20
47.647003739887815
 10
-43.59646811181817
 20
47.60796846244847
 10
-43.68375306341591
 20
47.55893542125515
 10
-43.7650520773588
 20
47.50051134885347
 10
-43.83935916347198
 20
47.43341918196752
 10
-43.90575484936671
 20
47.35848911591488
 10
-43.96341755794842
 20
47.276648331808765
 10
-44.011633773573124
 20
47.18890952366257
 10
-44.049806871056404
 20
47.096358367361766
 10
-44.07746449828534
 20
47.00014008656155
 10
-44.0942644210814
 20
46.90144528174321
 10
-44.09999875799003
 20
46.80149519777975
 10
-44.1
 20
46.701329065304485
 10
-44.1
 20
46.60116293214142
 10
-44.1
 20
46.500996798978356
 10
-44.1
 20
46.4008306658153
 10
-44.1
 20
46.300664532652235
 10
-44.1
 20
46.20049839948917
 10
-44.1
 20
46.100332266326106
 10
-44.1
 20
46.00016613316304
 10
-44.1
 20
45.9
  0
LWPOLYLINE
  5
37
330
17
100
AcDbEntity
  8
0
100
AcDbPolyline
 90
38
 70
0
 10
-78.6006
 20
25.2
 10
-78.60922182333758
 20
25.098700908299083
 10
-78.63483925919063
 20
25.00031600703161
 10
-78.67671534057118
 20
24.907675650678108
 10
-78.73364536886153
 20
24.82344493362099
 10
-78.80399157079998
 20
24.750047020231516
 10
-78.88573021423579
 20
24.689593434842653
 10
-78.97650982721849
 20
24.64382331703847
 10
-79.07371884556456
 20
24.614053389774757
 10
-79.17456074280423
 20
24.601140079656915
 10
-79.27613448115629
 20
24.605454879105828
 10
-79.37551796910317
 20
24.626873659197294
 10
-79.46985212464371
 20
24.66478024062515
 10
-79.55642312587679
 20
24.71808412005806
 10
-79.63274048271634
 20
24.78525184193486
 10
-79.69660868375676
 20
24.864351113189127
 10
-79.74619035713864
 20
24.953106391802553
 10
-79.78005912839194
 20
25.048964350005757
 10
-79.7972406546324
 20
25.149167328869382
 10
-79.7972406546324
 20
25.25083267113062
 10
-79.78005912839194
 20
25.351035649994245
 10
-79.74619035713864
 20
25.44689360819745
 10
-79.69660868375676
 20
25.535648886810876
 10
-79.63274048271634
 20
25.614748158065144
 10
-79.55642312587679
 20
25.681915879941943
 10
-79.46985212464371
 20
25.735219759374854
 10
-79.37551796910317
 20
25.77312634080271
 10
-79.27613448115629
 20
25.79454512089417
 10
-79.17456074280423
 20
25.798859920343087
 10
-79.07371884556456
 20
25.785946610225245
 10
-78.97650982721849
 20
25.75617668296153
 10
-78.88573021423579
 20
25.71040656515735
 10
-78.80399157079998
 20
25.649952979768486
 10
-78.73364536886153
 20
25.576555066379008
 10
-78.67671534057118
 20
25.49232434932189
 10
-78.63483925919063
 20
25.399683992968388
 10
-78.60922182333758
 20
25.301299091700916
 10
-78.6006
 20
25.2
  0
LWPOLYLINE
  5
38
330
17
100
AcDbEntity
  8
0
100
AcDbPolyline
 90
38
 70
0
 10
-71.40060000000001
 20
18.0
 10
-71.40922182333759
 20
17.898700908299084
 10
-71.43483925919062
 20
17.80031600703161
 10
-71.47671534057119
 20
17.70767565067811
 10
-71.53364536886153
 20
17.62344493362099
 10
-71.60399157079999
 20
17.550047020231517
 10
-71.6857302142358
 20
17.489593434842654
 10
-71.77650982721849
 20
17.443823317038472
 10
-71.87371884556457
 20
17.414053389774757
 10
-71.97456074280423
 20
17.401140079656912
 10
-72.07613448115629
 20
17.40545487910583
 10
-72.17551796910317
 20
17.426873659197295
 10
-72.26985212464372
 20
17.46478024062515
 10
-72.35642312587679
 20
17.518084120058056
 10
-72.43274048271634
 20
17.58525184193486
 10
-72.49660868375676
 20
17.664351113189127
 10
-72.54619035713864
 20
17.753106391802554
 10
-72.58005912839194
 20
17.848964350005755
 10
-72.5972406546324
 20
17.94916732886938
 10
-72.5972406546324
 20
18.05083267113062
 10
-72.58005912839194
 20
18.151035649994245
 10
-72.54619035713864
 20
18.24689360819745
 10
-72.49660868375676
 20
18.335648886810873
 10
-72.43274048271634
 20
18.414748158065144
 10
-72.35642312587679
 20
18.481915879941944
 10
-72.26985212464372
 20
18.53521975937485
 10
-72.17551796910317
 20
18.573126340802705
 10
-72.07613448115629
 20
18.59454512089417
 10
-71.97456074280423
 20
18.598859920343088
 10
-71.87371884556457
 20
18.585946610225246
 10
-71.77650982721849
 20
18.556176682961528
 10
-71.6857302142358
 20
18.51040656515735
 10
-71.60399157079999
 20
18.449952979768483
 10
-71.53364536886153
 20
18.37655506637901
 10
-71.47671534057119
 20
18.29232434932189
 10
-71.43483925919062
 20
18.19968399296839
 10
-71.40922182333759
 20
18.101299091700916
 10
-71.40060000000001
 20
18.0
  0
LWPOLYLINE
  5
39
330
17
100
AcDbEntity
  8
0
100
AcDbPolyline
 90
38
 70
0
 10
-57.000600000000006
 20
18.0
 10
-57.00922182333758
 20
17.898700908299084
 10
-57.034839259190626
 20
17.80031600703161
 10
-57.076715340571184
 20
17.70767565067811
 10
-57.13364536886153
 20
17.62344493362099
 10
-57.203991570799985
 20
17.550047020231517
 10
-57.2857302142358
 20
17.489593434842654
 10
-57.376509827218484
 20
17.443823317038472
 10
-57.47371884556456
 20
17.414053389774757
 10
-57.57456074280423
 20
17.401140079656912
 10
-57.67613448115628
 20
17.40545487910583
 10
-57.77551796910317
 20
17.426873659197295
 10
-57.869852124643714
 20
17.46478024062515
 10
-57.956423125876796
 20
17.518084120058056
 10
-58.03274048271634
 20
17.58525184193486
 10
-58.09660868375676
 20
17.664351113189127
 10
-58.14619035713864
 20
17.753106391802554
 10
-58.18005912839194
 20
17.848964350005755
 10
-58.197240654632395
 20
17.94916732886938
 10
-58.197240654632395
 20
18.05083267113062
 10
-58.18005912839194
 20
18.151035649994245
 10
-58.14619035713864
 20
18.24689360819745
 10
-58.09660868375676
 20
18.335648886810873
 10
-58.03274048271634
 20
18.414748158065144
 10
-57.956423125876796
 20
18.481915879941944
 10
-57.869852124643714
 20
18.53521975937485
 10
-57.77551796910317
 20
18.573126340802705
 10
-57.67613448115628
 20
18.59454512089417
 10
-57.57456074280423
 20
18.598859920343088
 10
-57.47371884556456
 20
18.585946610225246
 10
-57.376509827218484
 20
18.556176682961528
 10
-57.2857302142358
 20
18.51040656515735
 10
-57.203991570799985
 20
18.449952979768483
 10
-57.13364536886153
 20
18.37655506637901
 10
-57.076715340571184
 20
18.29232434932189
 10
-57.034839259190626
 20
18.19968399296839
 10
-57.00922182333758
 20
18.101299091700916
 10
-57.000600000000006
 20
18.0
  0
LWPOLYLINE
  5
3A
330
17
100
AcDbEntity
  8
0
100
AcDbPolyline
 90
38
 70
0
 10
-49.8006
 20
25.2
 10
-49.80922182333758
 20
25.098700908299083
 10
-49.83483925919062
 20
25.00031600703161
 10
-49.87671534057118
 20
24.907675650678108
 10
-49.93364536886153
 20
24.82344493362099
 10
-50.00399157079998
 20
24.750047020231516
 10
-50.085730214235795
 20
24.689593434842653
 10
-50.17650982721848
 20
24.64382331703847
 10
-50.27371884556456
 20
24.614053389774757
 10
-50.374560742804235
 20
24.601140079656915
 10
-50.47613448115628
 20
24.605454879105828
 10
-50.57551796910317
 20
24.626873659197294
 10
-50.66985212464371
 20
24.66478024062515
 10
-50.75642312587679
 20
24.71808412005806
 10
-50.832740482716346
 20
24.78525184193486
 10
-50.89660868375676
 20
24.864351113189127
 10
-50.94619035713865
 20
24.953106391802553
 10
-50.980059128391936
 20
25.048964350005757
 10
-50.99724065463239
 20
25.149167328869382
 10
-50.99724065463239
 20
25.25083267113062
 10
-50.980059128391936
 20
25.351035649994245
 10
-50.94619035713865
 20
25.44689360819745
 10
-50.89660868375676
 20
25.535648886810876
 10
-50.832740482716346
 20
25.614748158065144
 10
-50.75642312587679
 20
25.681915879941943
 10
-50.66985212464371
 20
25.735219759374854
 10
-50.57551796910317
 20
25.77312634080271
 10
-50.47613448115628
 20
25.79454512089417
 10
-50.374560742804235
 20
25.798859920343087
 10
-50.27371884556456
 20
25.785946610225245
 10
-50.17650982721848
 20
25.75617668296153
 10
-50.085730214235795
 20
25.71040656515735
 10
-50.00399157079998
 20
25.649952979768486
 10
-49.93364536886153
 20
25.576555066379008
 10
-49.87671534057118
 20
25.49232434932189
 10
-49.83483925919062
 20
25.399683992968388
 10
-49.80922182333758
 20
25.301299091700916
 10
-49.8006
 20
25.2
  0
LWPOLYLINE
  5
3B
330
17
100
AcDbEntity
  8
0
100
AcDbPolyline
 90
38
 70
0
 10
-71.40060000000001
 20
25.2
 10
-71.40922182333759
 20
25.098700908299083
 10
-71.43483925919062
 20
25.00031600703161
 10
-71.47671534057119
 20
24.907675650678108
 10
-71.53364536886153
 20
24.82344493362099
 10
-71.60399157079999
 20
24.750047020231516
 10
-71.6857302142358
 20
24.689593434842653
 10
-71.77650982721849
 20
24.64382331703847
 10
-71.87371884556457
 20
24.614053389774757
 10
-71.97456074280423
 20
24.601140079656915
 10
-72.07613448115629
 20
24.605454879105828
 10
-72.17551796910317
 20
24.626873659197294
 10
-72.26985212464372
 20
24.66478024062515
 10
-72.35642312587679
 20
24.71808412005806
 10
-72.43274048271634
 20
24.78525184193486
 10
-72.49660868375676
 20
24.864351113189127
 10
-72.54619035713864
 20
24.953106391802553
 10
-72.58005912839194
 20
25.048964350005757
 10
-72.5972406546324
 20
25.149167328869382
 10
-72.5972406546324
 20
25.25083267113062
 10
-72.58005912839194
 20
25.351035649994245
 10
-72.54619035713864
 20
25.44689360819745
 10
-72.49660868375676
 20
25.535648886810876
 10
-72.43274048271634
 20
25.614748158065144
 10
-72.35642312587679
 20
25.681915879941943
 10
-72.26985212464372
 20
25.735219759374854
 10
-72.17551796910317
 20
25.77312634080271
 10
-72.07613448115629
 20
25.79454512089417
 10
-71.97456074280423
 20
25.798859920343087
 10
-71.87371884556457
 20
25.785946610225245
 10
-71.77650982721849
 20
25.75617668296153
 10
-71.6857302142358
 20
25.71040656515735
 10
-71.60399157079999
 20
25.649952979768486
 10
-71.53364536886153
 20
25.576555066379008
 10
-71.47671534057119
 20
25.49232434932189
 10
-71.43483925919062
 20
25.399683992968388
 10
-71.40922182333759
 20
25.301299091700916
 10
-71.40060000000001
 20
25.2
  0
LWPOLYLINE
  5
3C
330
17
100
AcDbEntity
  8
0
100
AcDbPolyline
 90
38
 70
0
 10
-64.20060000000001
 20
25.2
 10
-64.20922182333759
 20
25.098700908299083
 10
-64.23483925919062
 20
25.00031600703161
 10
-64.27671534057119
 20
24.907675650678108
 10
-64.33364536886153
 20
24.82344493362099
 10
-64.40399157079999
 20
24.750047020231516
 10
-64.4857302142358
 20
24.689593434842653
 10
-64.57650982721849
 20
24.64382331703847
 10
-64.67371884556457
 20
24.614053389774757
 10
-64.77456074280423
 20
24.601140079656915
 10
-64.87613448115629
 20
24.605454879105828
 10
-64.97551796910317
 20
24.626873659197294
 10
-65.06985212464372
 20
24.66478024062515
 10
-65.1564231258768
 20
24.71808412005806
 10
-65.23274048271634
 20
24.78525184193486
 10
-65.29660868375676
 20
24.864351113189127
 10
-65.34619035713864
 20
24.953106391802553
 10
-65.38005912839193
 20
25.048964350005757
 10
-65.3972406546324
 20
25.149167328869382
 10
-65.3972406546324
 20
25.25083267113062
 10
-65.38005912839193
 20
25.351035649994245
 10
-65.34619035713864
 20
25.44689360819745
 10
-65.29660868375676
 20
25.535648886810876
 10
-65.23274048271634
 20
25.614748158065144
 10
-65.1564231258768
 20
25.681915879941943
 10
-65.06985212464372
 20
25.735219759374854
 10
-64.97551796910317
 20
25.77312634080271
 10
-64.87613448115629
 20
25.79454512089417
 10
-64.77456074280423
 20
25.798859920343087
 10
-64.67371884556457
 20
25.785946610225245
 10
-64.57650982721849
 20
25.75617668296153
 10
-64.4857302142358
 20
25.71040656515735
 10
-64.40399157079999
 20
25.649952979768486
 10
-64.33364536886153
 20
25.576555066379008
 10
-64.27671534057119
 20
25.49232434932189
 10
-64.23483925919062
 20
25.399683992968388
 10
-64.20922182333759
 20
25.301299091700916
 10
-64.20060000000001
 20
25.2
  0
LWPOLYLINE
  5
3D
330
17
100
AcDbEntity
  8
0
100
AcDbPolyline
 90
36
 70
0
 10
-71.4402
 20
45.0
 10
-71.4491962163025
 20
44.90004385029172
 10
-71.47589571941587
 20
44.80330037347927
 10
-71.51944036534168
 20
44.71287898450817
 10
-71.57843059333119
 20
44.63168590121895
 10
-71.65097040891949
 20
44.5623307361144
 10
-71.73472832274761
 20
44.5070426212666
 10
-71.82701228654891
 20
44.467598562177976
 10
-71.92485621779528
 20
44.44526632336231
 10
-72.02511533203023
 20
44.44076368135018
 10
-72.12456721882874
 20
44.45423535476061
 10
-72.22001541271986
 20
44.4852483529257
 10
-72.30839213021689
 20
44.53280589256681
 10
-72.38685687090285
 20
44.59537943522943
 10
-72.45288771345109
 20
44.67095781576668
 10
-72.50436237225178
 20
44.75711188284199
 10
-72.53962640941754
 20
44.85107257385177
 10
-72.55754640977854
 20
44.94981991487586
 10
-72.55754640977854
 20
45.05018008512414
 10
-72.53962640941754
 20
45.14892742614823
 10
-72.50436237225178
 20
45.24288811715801
 10
-72.45288771345109
 20
45.32904218423333
 10
-72.38685687090285
 20
45.404620564770575
 10
-72.30839213021689
 20
45.46719410743319
 10
-72.22001541271986
 20
45.5147516470743
 10
-72.12456721882874
 20
45.54576464523939
 10
-72.02511533203023
 20
45.55923631864983
 10
-71.92485621779528
 20
45.554733676637696
 10
-71.82701228654891
 20
45.532401437822024
 10
-71.73472832274761
 20
45.49295737873341
 10
-71.65097040891949
 20
45.4376692638856
 10
-71.57843059333119
 20
45.368314098781056
 10
-71.51944036534168
 20
45.28712101549183
 10
-71.47589571941587
 20
45.19669962652073
 10
-71.4491962163025
 20
45.09995614970828
 10
-71.4402
 20
45.0
  0
LWPOLYLINE
  5
3E
330
17
100
AcDbEntity
  8
0
100
AcDbPolyline
 90
36
 70
0
 10
-64.2402
 20
52.2
 10
-64.2491962163025
 20
52.10004385029172
 10
-64.27589571941589
 20
52.00330037347926
 10
-64.31944036534168
 20
51.912878984508176
 10
-64.37843059333119
 20
51.83168590121895
 10
-64.45097040891949
 20
51.76233073611439
 10
-64.53472832274761
 20
51.707042621266595
 10
-64.6270122865489
 20
51.66759856217798
 10
-64.72485621779528
 20
51.64526632336231
 10
-64.82511533203022
 20
51.64076368135017
 10
-64.92456721882874
 20
51.654235354760615
 10
-65.02001541271987
 20
51.6852483529257
 10
-65.10839213021688
 20
51.732805892566816
 10
-65.18685687090286
 20
51.79537943522943
 10
-65.2528877134511
 20
51.87095781576667
 10
-65.30436237225177
 20
51.95711188284199
 10
-65.33962640941753
 20
52.051072573851776
 10
-65.35754640977854
 20
52.14981991487586
 10
-65.35754640977854
 20
52.25018008512414
 10
-65.33962640941753
 20
52.34892742614823
 10
-65.30436237225177
 20
52.44288811715801
 10
-65.2528877134511
 20
52.529042184233326
 10
-65.18685687090286
 20
52.60462056477057
 10
-65.10839213021688
 20
52.66719410743319
 10
-65.02001541271987
 20
52.7147516470743
 10
-64.92456721882874
 20
52.74576464523939
 10
-64.82511533203022
 20
52.759236318649826
 10
-64.72485621779528
 20
52.75473367663769
 10
-64.6270122865489
 20
52.73240143782203
 10
-64.53472832274761
 20
52.692957378733404
 10
-64.45097040891949
 20
52.637669263885606
 10
-64.37843059333119
 20
52.56831409878105
 10
-64.31944036534168
 20
52.48712101549183
 10
-64.27589571941589
 20
52.396699626520736
 10
-64.2491962163025
 20
52.29995614970828
 10
-64.2402
 20
52.2
  0
LWPOLYLINE
  5
3F
330
17
100
AcDbEntity
  8
0
100
AcDbPolyline
 90
36
 70
0
 10
-57.0402
 20
45.0
 10
-57.04919621630249
 20
44.90004385029172
 10
-57.07589571941588
 20
44.80330037347927
 10
-57.119440365341674
 20
44.71287898450817
 10
-57.17843059333118
 20
44.63168590121895
 10
-57.250970408919486
 20
44.5623307361144
 10
-57.334728322747615
 20
44.5070426212666
 10
-57.42701228654891
 20
44.467598562177976
 10
-57.524856217795275
 20
44.44526632336231
 10
-57.62511533203022
 20
44.44076368135018
 10
-57.72456721882874
 20
44.45423535476061
 10
-57.82001541271987
 20
44.4852483529257
 10
-57.90839213021688
 20
44.53280589256681
 10
-57.98685687090285
 20
44.59537943522943
 10
-58.05288771345109
 20
44.67095781576668
 10
-58.10436237225177
 20
44.75711188284199
 10
-58.13962640941754
 20
44.85107257385177
 10
-58.15754640977853
 20
44.94981991487586
 10
-58.15754640977853
 20
45.05018008512414
 10
-58.13962640941754
 20
45.14892742614823
 10
-58.10436237225177
 20
45.24288811715801
 10
-58.05288771345109
 20
45.32904218423333
 10
-57.98685687090285
 20
45.404620564770575
 10
-57.90839213021688
 20
45.46719410743319
 10
-57.82001541271987
 20
45.5147516470743
 10
-57.72456721882874
 20
45.54576464523939
 10
-57.62511533203022
 20
45.55923631864983
 10
-57.524856217795275
 20
45.554733676637696
 10
-57.42701228654891
 20
45.532401437822024
 10
-57.334728322747615
 20
45.49295737873341
 10
-57.250970408919486
 20
45.4376692638856
 10
-57.17843059333118
 20
45.368314098781056
 10
-57.119440365341674
 20
45.28712101549183
 10
-57.07589571941588
 20
45.19669962652073
 10
-57.04919621630249
 20
45.09995614970828
 10
-57.0402
 20
45.0
  0
LWPOLYLINE
  5
40
330
17
100
AcDbEntity
  8
0
100
AcDbPolyline
 90
36
 70
0
 10
-42.6402
 20
45.0
 10
-42.64919621630249
 20
44.90004385029172
 10
-42.67589571941588
 20
44.80330037347927
 10
-42.719440365341676
 20
44.71287898450817
 10
-42.77843059333118
 20
44.63168590121895
 10
-42.85097040891949
 20
44.5623307361144
 10
-42.93472832274762
 20
44.5070426212666
 10
-43.02701228654891
 20
44.467598562177976
 10
-43.124856217795276
 20
44.44526632336231
 10
-43.22511533203022
 20
44.44076368135018
 10
-43.32456721882875
 20
44.45423535476061
 10
-43.42001541271986
 20
44.4852483529257
 10
-43.50839213021689
 20
44.53280589256681
 10
-43.58685687090285
 20
44.59537943522943
 10
-43.65288771345109
 20
44.67095781576668
 10
-43.70436237225177
 20
44.75711188284199
 10
-43.73962640941754
 20
44.85107257385177
 10
-43.75754640977854
 20
44.94981991487586
 10
-43.75754640977854
 20
45.05018008512414
 10
-43.73962640941754
 20
45.14892742614823
 10
-43.70436237225177
 20
45.24288811715801
 10
-43.65288771345109
 20
45.32904218423333
 10
-43.58685687090285
 20
45.404620564770575
 10
-43.50839213021689
 20
45.46719410743319
 10
-43.42001541271986
 20
45.5147516470743
 10
-43.32456721882875
 20
45.54576464523939
 10
-43.22511533203022
 20
45.55923631864983
 10
-43.124856217795276
 20
45.554733676637696
 10
-43.02701228654891
 20
45.532401437822024
 10
-42.93472832274762
 20
45.49295737873341
 10
-42.85097040891949
 20
45.4376692638856
 10
-42.77843059333118
 20
45.368314098781056
 10
-42.719440365341676
 20
45.28712101549183
 10
-42.67589571941588
 20
45.19669962652073
 10
-42.64919621630249
 20
45.09995614970828
 10
-42.6402
 20
45.0
  0
LWPOLYLINE
  5
41
330
17
100
AcDbEntity
  8
0
100
AcDbPolyline
 90
36
 70
0
 10
-35.440200000000004
 20
52.2
 10
-35.44919621630249
 20
52.10004385029172
 10
-35.47589571941588
 20
52.00330037347926
 10
-35.51944036534167
 20
51.912878984508176
 10
-35.57843059333118
 20
51.83168590121895
 10
-35.650970408919484
 20
51.76233073611439
 10
-35.734728322747614
 20
51.707042621266595
 10
-35.82701228654891
 20
51.66759856217798
 10
-35.92485621779528
 20
51.64526632336231
 10
-36.02511533203022
 20
51.64076368135017
 10
-36.124567218828744
 20
51.654235354760615
 10
-36.22001541271987
 20
51.6852483529257
 10
-36.30839213021689
 20
51.732805892566816
 10
-36.386856870902854
 20
51.79537943522943
 10
-36.4528877134511
 20
51.87095781576667
 10
-36.50436237225178
 20
51.95711188284199
 10
-36.53962640941754
 20
52.051072573851776
 10
-36.55754640977854
 20
52.14981991487586
 10
-36.55754640977854
 20
52.25018008512414
 10
-36.53962640941754
 20
52.34892742614823
 10
-36.50436237225178
 20
52.44288811715801
 10
-36.4528877134511
 20
52.529042184233326
 10
-36.386856870902854
 20
52.60462056477057
 10
-36.30839213021689
 20
52.66719410743319
 10
-36.22001541271987
 20
52.7147516470743
 10
-36.124567218828744
 20
52.74576464523939
 10
-36.02511533203022
 20
52.759236318649826
 10
-35.92485621779528
 20
52.75473367663769
 10
-35.82701228654891
 20
52.73240143782203
 10
-35.734728322747614
 20
52.692957378733404
 10
-35.650970408919484
 20
52.637669263885606
 10
-35.57843059333118
 20
52.56831409878105
 10
-35.51944036534167
 20
52.48712101549183
 10
-35.47589571941588
 20
52.396699626520736
 10
-35.44919621630249
 20
52.29995614970828
 10
-35.440200000000004
 20
52.2
  0
LWPOLYLINE
  5
42
330
17
100
AcDbEntity
  8
0
100
AcDbPolyline
 90
36
 70
0
 10
-49.8402
 20
52.2
 10
-49.84919621630249
 20
52.10004385029172
 10
-49.87589571941588
 20
52.00330037347926
 10
-49.91944036534168
 20
51.912878984508176
 10
-49.978430593331176
 20
51.83168590121895
 10
-50.05097040891948
 20
51.76233073611439
 10
-50.13472832274761
 20
51.707042621266595
 10
-50.227012286548906
 20
51.66759856217798
 10
-50.32485621779528
 20
51.64526632336231
 10
-50.42511533203022
 20
51.64076368135017
 10
-50.52456721882874
 20
51.654235354760615
 10
-50.620015412719866
 20
51.6852483529257
 10
-50.70839213021689
 20
51.732805892566816
 10
-50.78685687090285
 20
51.79537943522943
 10
-50.852887713451096
 20
51.87095781576667
 10
-50.904362372251775
 20
51.95711188284199
 10
-50.93962640941754
 20
52.051072573851776
 10
-50.95754640977854
 20
52.14981991487586
 10
-50.95754640977854
 20
52.25018008512414
 10
-50.93962640941754
 20
52.34892742614823
 10
-50.904362372251775
 20
52.44288811715801
 10
-50.852887713451096
 20
52.529042184233326
 10
-50.78685687090285
 20
52.60462056477057
 10
-50.70839213021689
 20
52.66719410743319
 10
-50.620015412719866
 20
52.7147516470743
 10
-50.52456721882874
 20
52.74576464523939
 10
-50.42511533203022
 20
52.759236318649826
 10
-50.32485621779528
 20
52.75473367663769
 10
-50.227012286548906
 20
52.73240143782203
 10
-50.13472832274761
 20
52.692957378733404
 10
-50.05097040891948
 20
52.637669263885606
 10
-49.978430593331176
 20
52.56831409878105
 10
-49.91944036534168
 20
52.48712101549183
 10
-49.87589571941588
 20
52.396699626520736
 10
-49.84919621630249
 20
52.29995614970828
 10
-49.8402
 20
52.2
  0
LWPOLYLINE
  5
43
330
17
100
AcDbEntity
  8
0
100
AcDbPolyline
 90
36
 70
0
 10
-57.0402
 20
52.2
 10
-57.04919621630249
 20
52.10004385029172
 10
-57.07589571941588
 20
52.00330037347926
 10
-57.119440365341674
 20
51.912878984508176
 10
-57.17843059333118
 20
51.83168590121895
 10
-57.250970408919486
 20
51.76233073611439
 10
-57.334728322747615
 20
51.707042621266595
 10
-57.42701228654891
 20
51.66759856217798
 10
-57.524856217795275
 20
51.64526632336231
 10
-57.62511533203022
 20
51.64076368135017
 10
-57.72456721882874
 20
51.654235354760615
 10
-57.82001541271987
 20
51.6852483529257
 10
-57.90839213021688
 20
51.732805892566816
 10
-57.98685687090285
 20
51.79537943522943
 10
-58.05288771345109
 20
51.87095781576667
 10
-58.10436237225177
 20
51.95711188284199
 10
-58.13962640941754
 20
52.051072573851776
 10
-58.15754640977853
 20
52.14981991487586
 10
-58.15754640977853
 20
52.25018008512414
 10
-58.13962640941754
 20
52.34892742614823
 10
-58.10436237225177
 20
52.44288811715801
 10
-58.05288771345109
 20
52.529042184233326
 10
-57.98685687090285
 20
52.60462056477057
 10
-57.90839213021688
 20
52.66719410743319
 10
-57.82001541271987
 20
52.7147516470743
 10
-57.72456721882874
 20
52.74576464523939
 10
-57.62511533203022
 20
52.759236318649826
 10
-57.524856217795275
 20
52.75473367663769
 10
-57.42701228654891
 20
52.73240143782203
 10
-57.334728322747615
 20
52.692957378733404
 10
-57.250970408919486
 20
52.637669263885606
 10
-57.17843059333118
 20
52.56831409878105
 10
-57.119440365341674
 20
52.48712101549183
 10
-57.07589571941588
 20
52.396699626520736
 10
-57.04919621630249
 20
52.29995614970828
 10
-57.0402
 20
52.2
  0
LWPOLYLINE
  5
44
330
17
100
AcDbEntity
  8
0
100
AcDbPolyline
 90
38
 70
0
 10
-85.8006
 20
18.0
 10
-85.80922182333758
 20
17.898700908299084
 10
-85.83483925919063
 20
17.80031600703161
 10
-85.87671534057118
 20
17.70767565067811
 10
-85.93364536886153
 20
17.62344493362099
 10
-86.00399157079998
 20
17.550047020231517
 10
-86.0857302142358
 20
17.489593434842654
 10
-86.1765098272185
 20
17.443823317038472
 10
-86.27371884556456
 20
17.414053389774757
 10
-86.37456074280423
 20
17.401140079656912
 10
-86.47613448115628
 20
17.40545487910583
 10
-86.57551796910317
 20
17.426873659197295
 10
-86.66985212464371
 20
17.46478024062515
 10
-86.7564231258768
 20
17.518084120058056
 10
-86.83274048271635
 20
17.58525184193486
 10
-86.89660868375677
 20
17.664351113189127
 10
-86.94619035713865
 20
17.753106391802554
 10
-86.98005912839194
 20
17.848964350005755
 10
-86.99724065463239
 20
17.94916732886938
 10
-86.99724065463239
 20
18.05083267113062
 10
-86.98005912839194
 20
18.151035649994245
 10
-86.94619035713865
 20
18.24689360819745
 10
-86.89660868375677
 20
18.335648886810873
 10
-86.83274048271635
 20
18.414748158065144
 10
-86.7564231258768
 20
18.481915879941944
 10
-86.66985212464371
 20
18.53521975937485
 10
-86.57551796910317
 20
18.573126340802705
 10
-86.47613448115628
 20
18.59454512089417
 10
-86.37456074280423
 20
18.598859920343088
 10
-86.27371884556456
 20
18.585946610225246
 10
-86.1765098272185
 20
18.556176682961528
 10
-86.0857302142358
 20
18.51040656515735
 10
-86.00399157079998
 20
18.449952979768483
 10
-85.93364536886153
 20
18.37655506637901
 10
-85.87671534057118
 20
18.29232434932189
 10
-85.83483925919063
 20
18.19968399296839
 10
-85.80922182333758
 20
18.101299091700916
 10
-85.8006
 20
18.0
  0
ENDSEC
  0
SECTION
  2
OBJECTS
  0
DICTIONARY
  5
A
330
0
100
AcDbDictionary
280
0
281
1
  3
ACAD_COLOR
350
B
  3
ACAD_GROUP
350
C
  3
ACAD_LAYOUT
350
D
  3
ACAD_MATERIAL
350
E
  3
ACAD_MLEADERSTYLE
350
F
  3
ACAD_MLINESTYLE
350
10
  3
ACAD_PLOTSETTINGS
350
11
  3
ACAD_PLOTSTYLENAME
350
12
  3
ACAD_SCALELIST
350
14
  3
ACAD_TABLESTYLE
350
15
  3
ACAD_VISUALSTYLE
350
16
  3
EZDXF_META
350
2D
  0
DICTIONARY
  5
B
330
A
100
AcDbDictionary
280
0
281
1
  0
DICTIONARY
  5
C
330
A
100
AcDbDictionary
280
0
281
1
  0
DICTIONARY
  5
D
330
A
100
AcDbDictionary
280
0
281
1
  3
Model
350
1A
  3
Layout1
350
1E
  0
DICTIONARY
  5
E
330
A
100
AcDbDictionary
280
0
281
1
  3
ByBlock
350
1F
  3
ByLayer
350
20
  3
Global
350
21
  0
DICTIONARY
  5
F
330
A
100
AcDbDictionary
280
0
281
1
  3
Standard
350
2C
  0
DICTIONARY
  5
10
330
A
100
AcDbDictionary
280
0
281
1
  3
Standard
350
22
  0
DICTIONARY
  5
11
330
A
100
AcDbDictionary
280
0
281
1
  0
ACDBDICTIONARYWDFLT
  5
12
330
A
100
AcDbDictionary
280
0
281
1
  3
Normal
350
13
100
AcDbDictionaryWithDefault
340
13
  0
ACDBPLACEHOLDER
  5
13
330
12
  0
DICTIONARY
  5
14
330
A
100
AcDbDictionary
280
0
281
1
  0
DICTIONARY
  5
15
330
A
100
AcDbDictionary
280
0
281
1
  0
DICTIONARY
  5
16
330
A
100
AcDbDictionary
280
0
281
1
  0
LAYOUT
  5
1A
330
D
100
AcDbPlotSettings
  1

  2
Adobe PDF
  4
A3
  6

 40
7.5
 41
20.0
 42
7.5
 43
20.0
 44
420.0
 45
297.0
 46
0.0
 47
0.0
 48
0.0
 49
0.0
140
0.0
141
0.0
142
1.0
143
1.0
 70
1024
 72
1
 73
0
 74
5
  7

 75
16
 76
0
 77
2
 78
300
147
1.0
148
0.0
149
0.0
100
AcDbLayout
  1
Model
 70
1
 71
0
 10
0.0
 20
0.0
 11
420.0
 21
297.0
 12
0.0
 22
0.0
 32
0.0
 14
1e+20
 24
1e+20
 34
1e+20
 15
-1e+20
 25
-1e+20
 35
-1e+20
146
0.0
 13
0.0
 23
0.0
 33
0.0
 16
1.0
 26
0.0
 36
0.0
 17
0.0
 27
1.0
 37
0.0
 76
1
330
17
  0
LAYOUT
  5
1E
330
D
100
AcDbPlotSettings
  1

  2
Adobe PDF
  4
A3
  6

 40
7.5
 41
20.0
 42
7.5
 43
20.0
 44
420.0
 45
297.0
 46
0.0
 47
0.0
 48
0.0
 49
0.0
140
0.0
141
0.0
142
1.0
143
1.0
 70
0
 72
1
 73
0
 74
5
  7

 75
16
 76
0
 77
2
 78
300
147
1.0
148
0.0
149
0.0
100
AcDbLayout
  1
Layout1
 70
1
 71
1
 10
0.0
 20
0.0
 11
420.0
 21
297.0
 12
0.0
 22
0.0
 32
0.0
 14
1e+20
 24
1e+20
 34
1e+20
 15
-1e+20
 25
-1e+20
 35
-1e+20
146
0.0
 13
0.0
 23
0.0
 33
0.0
 16
1.0
 26
0.0
 36
0.0
 17
0.0
 27
1.0
 37
0.0
 76
1
330
1B
  0
MATERIAL
  5
1F
102
{ACAD_REACTORS
330
E
102
}
330
E
100
AcDbMaterial
  1
ByBlock
  2

 70
0
 40
1.0
 71
1
 41
1.0
 91
-1023410177
 42
1.0
 72
1
  3

 73
1
 74
1
 75
1
 44
0.5
 73
0
 45
1.0
 46
1.0
 77
1
  4

 78
1
 79
1
170
1
 48
1.0
171
1
  6

172
1
173
1
174
1
140
1.0
141
1.0
175
1
  7

176
1
177
1
178
1
143
1.0
179
1
  8

270
1
271
1
272
1
145
1.0
146
1.0
273
1
  9

274
1
275
1
276
1
 42
1.0
 72
1
  3

 73
1
 74
1
 75
1
 94
63
  0
MATERIAL
  5
20
102
{ACAD_REACTORS
330
E
102
}
330
E
100
AcDbMaterial
  1
ByLayer
  2

 70
0
 40
1.0
 71
1
 41
1.0
 91
-1023410177
 42
1.0
 72
1
  3

 73
1
 74
1
 75
1
 44
0.5
 73
0
 45
1.0
 46
1.0
 77
1
  4

 78
1
 79
1
170
1
 48
1.0
171
1
  6

172
1
173
1
174
1
140
1.0
141
1.0
175
1
  7

176
1
177
1
178
1
143
1.0
179
1
  8

270
1
271
1
272
1
145
1.0
146
1.0
273
1
  9

274
1
275
1
276
1
 42
1.0
 72
1
  3

 73
1
 74
1
 75
1
 94
63
  0
MATERIAL
  5
21
102
{ACAD_REACTORS
330
E
102
}
330
E
100
AcDbMaterial
  1
Global
  2

 70
0
 40
1.0
 71
1
 41
1.0
 91
-1023410177
 42
1.0
 72
1
  3

 73
1
 74
1
 75
1
 44
0.5
 73
0
 45
1.0
 46
1.0
 77
1
  4

 78
1
 79
1
170
1
 48
1.0
171
1
  6

172
1
173
1
174
1
140
1.0
141
1.0
175
1
  7

176
1
177
1
178
1
143
1.0
179
1
  8

270
1
271
1
272
1
145
1.0
146
1.0
273
1
  9

274
1
275
1
276
1
 42
1.0
 72
1
  3

 73
1
 74
1
 75
1
 94
63
  0
MLINESTYLE
  5
22
102
{ACAD_REACTORS
330
10
102
}
330
10
100
AcDbMlineStyle
  2
Standard
 70
0
  3

 62
256
 51
90.0
 52
90.0
 71
2
 49
0.5
 62
256
  6
BYLAYER
 49
-0.5
 62
256
  6
BYLAYER
  0
MLEADERSTYLE
  5
2C
102
{ACAD_REACTORS
330
F
102
}
330
F
100
AcDbMLeaderStyle
179
2
170
2
171
1
172
0
 90
2
 40
0.0
 41
0.0
173
1
 91
-1056964608
 92
-2
290
1
 42
2.0
291
1
 43
8.0
  3
Standard
 44
4.0
300

342
29
174
1
175
1
176
0
178
1
 93
-1056964608
 45
4.0
292
0
297
0
 46
4.0
 94
-1056964608
 47
1.0
 49
1.0
140
1.0
294
1
141
0.0
177
0
142
1.0
295
0
296
0
143
3.75
271
0
272
9
273
9
  0
DICTIONARY
  5
2D
330
A
100
AcDbDictionary
281
1
  3
CREATED_BY_EZDXF
350
2E
  3
WRITTEN_BY_EZDXF
350
47
  0
DICTIONARYVAR
  5
2E
330
2D
100
DictionaryVariables
280
0
  1
1.1.4 @ 2026-02-23T18:43:49.273195+00:00
  0
DICTIONARYVAR
  5
47
330
2D
100
DictionaryVariables
280
0
  1
1.1.4 @ 2026-02-23T18:43:49.535298+00:00
  0
ENDSEC
  0
EOF
