  0
SECTION
  2
HEADER
  9
$ACADVER
  1
AC1024
  9
$ACADMAINTVER
 70
6
  9
$DWGCODEPAGE
  3
ANSI_1252
  9
$LASTSAVEDBY
  1
ezdxf
  9
$INSBASE
 10
0.0
 20
0.0
 30
0.0
  9
$EXTMIN
 10
1e+20
 20
1e+20
 30
1e+20
  9
$EXTMAX
 10
-1e+20
 20
-1e+20
 30
-1e+20
  9
$LIMMIN
 10
0.0
 20
0.0
  9
$LIMMAX
 10
420.0
 20
297.0
  9
$ORTHOMODE
 70
0
  9
$REGENMODE
 70
1
  9
$FILLMODE
 70
1
  9
$QTEXTMODE
 70
0
  9
$MIRRTEXT
 70
1
  9
$LTSCALE
 40
1.0
  9
$ATTMODE
 70
1
  9
$TEXTSIZE
 40
2.5
  9
$TRACEWID
 40
1.0
  9
$TEXTSTYLE
  7
Standard
  9
$CLAYER
  8
0
  9
$CELTYPE
  6
ByLayer
  9
$CECOLOR
 62
256
  9
$CELTSCALE
 40
1.0
  9
$DISPSILH
 70
0
  9
$DIMSCALE
 40
1.0
  9
$DIMASZ
 40
2.5
  9
$DIMEXO
 40
0.625
  9
$DIMDLI
 40
3.75
  9
$DIMRND
 40
0.0
  9
$DIMDLE
 40
0.0
  9
$DIMEXE
 40
1.25
  9
$DIMTP
 40
0.0
  9
$DIMTM
 40
0.0
  9
$DIMTXT
 40
2.5
  9
$DIMCEN
 40
2.5
  9
$DIMTSZ
 40
0.0
  9
$DIMTOL
 70
0
  9
$DIMLIM
 70
0
  9
$DIMTIH
 70
0
  9
$DIMTOH
 70
0
  9
$DIMSE1
 70
0
  9
$DIMSE2
 70
0
  9
$DIMTAD
 70
1
  9
$DIMZIN
 70
8
  9
$DIMBLK
  1

  9
$DIMASO
 70
1
  9
$DIMSHO
 70
1
  9
$DIMPOST
  1

  9
$DIMAPOST
  1

  9
$DIMALT
 70
0
  9
$DIMALTD
 70
3
  9
$DIMALTF
 40
0.03937007874
  9
$DIMLFAC
 40
1.0
  9
$DIMTOFL
 70
1
  9
$DIMTVP
 40
0.0
  9
$DIMTIX
 70
0
  9
$DIMSOXD
 70
0
  9
$DIMSAH
 70
0
  9
$DIMBLK1
  1

  9
$DIMBLK2
  1

  9
$DIMSTYLE
  2
ISO-25
  9
$DIMCLRD
 70
0
  9
$DIMCLRE
 70
0
  9
$DIMCLRT
 70
0
  9
$DIMTFAC
 40
1.0
  9
$DIMGAP
 40
0.625
  9
$DIMJUST
 70
0
  9
$DIMSD1
 70
0
  9
$DIMSD2
 70
0
  9
$DIMTOLJ
 70
0
  9
$DIMTZIN
 70
8
  9
$DIMALTZ
 70
0
  9
$DIMALTTZ
 70
0
  9
$DIMUPT
 70
0
  9
$DIMDEC
 70
2
  9
$DIMTDEC
 70
2
  9
$DIMALTU
 70
2
  9
$DIMALTTD
 70
3
  9
$DIMTXSTY
  7
Standard
  9
$DIMAUNIT
 70
0
  9
$DIMADEC
 70
0
  9
$DIMALTRND
 40
0.0
  9
$DIMAZIN
 70
0
  9
$DIMDSEP
 70
44
  9
$DIMATFIT
 70
3
  9
$DIMFRAC
 70
0
  9
$DIMLDRBLK
  1

  9
$DIMLUNIT
 70
2
  9
$DIMLWD
 70
-2
  9
$DIMLWE
 70
-2
  9
$DIMTMOVE
 70
0
  9
$DIMFXL
 40
1.0
  9
$DIMFXLON
 70
0
  9
$DIMJOGANG
 40
0.785398163397
  9
$DIMTFILL
 70
0
  9
$DIMTFILLCLR
 70
0
  9
$DIMARCSYM
 70
0
  9
$DIMLTYPE
  6

  9
$DIMLTEX1
  6

  9
$DIMLTEX2
  6

  9
$DIMTXTDIRECTION
 70
0
  9
$LUNITS
 70
2
  9
$LUPREC
 70
4
  9
$SKETCHINC
 40
1.0
  9
$FILLETRAD
 40
10.0
  9
$AUNITS
 70
0
  9
$AUPREC
 70
2
  9
$MENU
  1
.
  9
$ELEVATION
 40
0.0
  9
$PELEVATION
 40
0.0
  9
$THICKNESS
 40
0.0
  9
$LIMCHECK
 70
0
  9
$CHAMFERA
 40
0.0
  9
$CHAMFERB
 40
0.0
  9
$CHAMFERC
 40
0.0
  9
$CHAMFERD
 40
0.0
  9
$SKPOLY
 70
0
  9
$TDCREATE
 40
2461095.8220833335
  9
$TDUCREATE
 40
2458532.153996898
  9
$TDUPDATE
 40
2461095.8220949075
  9
$TDUUPDATE
 40
2458532.1544311
  9
$TDINDWG
 40
0.0
  9
$TDUSRTIMER
 40
0.0
  9
$USRTIMER
 70
1
  9
$ANGBASE
 50
0.0
  9
$ANGDIR
 70
0
  9
$PDMODE
 70
0
  9
$PDSIZE
 40
0.0
  9
$PLINEWID
 40
0.0
  9
$SPLFRAME
 70
0
  9
$SPLINETYPE
 70
6
  9
$SPLINESEGS
 70
8
  9
$HANDSEED
  5
46
  9
$SURFTAB1
 70
6
  9
$SURFTAB2
 70
6
  9
$SURFTYPE
 70
6
  9
$SURFU
 70
6
  9
$SURFV
 70
6
  9
$UCSBASE
  2

  9
$UCSNAME
  2

  9
$UCSORG
 10
0.0
 20
0.0
 30
0.0
  9
$UCSXDIR
 10
1.0
 20
0.0
 30
0.0
  9
$UCSYDIR
 10
0.0
 20
1.0
 30
0.0
  9
$UCSORTHOREF
  2

  9
$UCSORTHOVIEW
 70
0
  9
$UCSORGTOP
 10
0.0
 20
0.0
 30
0.0
  9
$UCSORGBOTTOM
 10
0.0
 20
0.0
 30
0.0
  9
$UCSORGLEFT
 10
0.0
 20
0.0
 30
0.0
  9
$UCSORGRIGHT
 10
0.0
 20
0.0
 30
0.0
  9
$UCSORGFRONT
 10
0.0
 20
0.0
 30
0.0
  9
$UCSORGBACK
 10
0.0
 20
0.0
 30
0.0
  9
$PUCSBASE
  2

  9
$PUCSNAME
  2

  9
$PUCSORG
 10
0.0
 20
0.0
 30
0.0
  9
$PUCSXDIR
 10
1.0
 20
0.0
 30
0.0
  9
$PUCSYDIR
 10
0.0
 20
1.0
 30
0.0
  9
$PUCSORTHOREF
  2

  9
$PUCSORTHOVIEW
 70
0
  9
$PUCSORGTOP
 10
0.0
 20
0.0
 30
0.0
  9
$PUCSORGBOTTOM
 10
0.0
 20
0.0
 30
0.0
  9
$PUCSORGLEFT
 10
0.0
 20
0.0
 30
0.0
  9
$PUCSORGRIGHT
 10
0.0
 20
0.0
 30
0.0
  9
$PUCSORGFRONT
 10
0.0
 20
0.0
 30
0.0
  9
$PUCSORGBACK
 10
0.0
 20
0.0
 30
0.0
  9
$USERI1
 70
0
  9
$USERI2
 70
0
  9
$USERI3
 70
0
  9
$USERI4
 70
0
  9
$USERI5
 70
0
  9
$USERR1
 40
0.0
  9
$USERR2
 40
0.0
  9
$USERR3
 40
0.0
  9
$USERR4
 40
0.0
  9
$USERR5
 40
0.0
  9
$WORLDVIEW
 70
1
  9
$SHADEDGE
 70
3
  9
$SHADEDIF
 70
70
  9
$TILEMODE
 70
1
  9
$MAXACTVP
 70
64
  9
$PINSBASE
 10
0.0
 20
0.0
 30
0.0
  9
$PLIMCHECK
 70
0
  9
$PEXTMIN
 10
1e+20
 20
1e+20
 30
1e+20
  9
$PEXTMAX
 10
-1e+20
 20
-1e+20
 30
-1e+20
  9
$PLIMMIN
 10
0.0
 20
0.0
  9
$PLIMMAX
 10
420.0
 20
297.0
  9
$UNITMODE
 70
0
  9
$VISRETAIN
 70
1
  9
$PLINEGEN
 70
0
  9
$PSLTSCALE
 70
1
  9
$TREEDEPTH
 70
3020
  9
$CMLSTYLE
  2
Standard
  9
$CMLJUST
 70
0
  9
$CMLSCALE
 40
20.0
  9
$PROXYGRAPHICS
 70
1
  9
$MEASUREMENT
 70
1
  9
$CELWEIGHT
370
-1
  9
$ENDCAPS
280
0
  9
$JOINSTYLE
280
0
  9
$LWDISPLAY
290
0
  9
$INSUNITS
 70
4
  9
$HYPERLINKBASE
  1

  9
$STYLESHEET
  1

  9
$XEDIT
290
1
  9
$CEPSNTYPE
380
0
  9
$PSTYLEMODE
290
1
  9
$FINGERPRINTGUID
  2
{E6320924-B36D-45DC-8FBC-0A5BEBFA8D21}
  9
$VERSIONGUID
  2
{E4E87C57-B730-4A0E-BD48-13AEB3B6AEE8}
  9
$EXTNAMES
290
1
  9
$PSVPSCALE
 40
0.0
  9
$OLESTARTUP
290
0
  9
$SORTENTS
280
127
  9
$INDEXCTL
280
0
  9
$HIDETEXT
280
1
  9
$XCLIPFRAME
280
0
  9
$HALOGAP
280
0
  9
$OBSCOLOR
 70
257
  9
$OBSLTYPE
280
0
  9
$INTERSECTIONDISPLAY
280
0
  9
$INTERSECTIONCOLOR
 70
257
  9
$DIMASSOC
280
2
  9
$PROJECTNAME
  1

  9
$CAMERADISPLAY
290
0
  9
$LENSLENGTH
 40
50.0
  9
$CAMERAHEIGHT
 40
0.0
  9
$STEPSPERSEC
 40
24.0
  9
$STEPSIZE
 40
100.0
  9
$3DDWFPREC
 40
2.0
  9
$PSOLWIDTH
 40
0.005
  9
$PSOLHEIGHT
 40
0.08
  9
$LOFTANG1
 40
1.570796326795
  9
$LOFTANG2
 40
1.570796326795
  9
$LOFTMAG1
 40
0.0
  9
$LOFTMAG2
 40
0.0
  9
$LOFTPARAM
 70
7
  9
$LOFTNORMALS
280
1
  9
$LATITUDE
 40
37.795
  9
$LONGITUDE
 40
-122.394
  9
$NORTHDIRECTION
 40
0.0
  9
$TIMEZONE
 70
-8000
  9
$LIGHTGLYPHDISPLAY
280
1
  9
$TILEMODELIGHTSYNCH
280
1
  9
$CMATERIAL
347
20
  9
$SOLIDHIST
280
0
  9
$SHOWHIST
280
1
  9
$DWFFRAME
280
2
  9
$DGNFRAME
280
2
  9
$REALWORLDSCALE
290
1
  9
$INTERFERECOLOR
 62
256
  9
$CSHADOW
280
0
  9
$SHADOWPLANELOCATION
 40
0.0
  0
ENDSEC
  0
SECTION
  2
CLASSES
  0
CLASS
  1
ACDBDICTIONARYWDFLT
  2
AcDbDictionaryWithDefault
  3
ObjectDBX Classes
 90
0
 91
0
280
0
281
0
  0
CLASS
  1
SUN
  2
AcDbSun
  3
SCENEOE
 90
1153
 91
0
280
0
281
0
  0
CLASS
  1
VISUALSTYLE
  2
AcDbVisualStyle
  3
ObjectDBX Classes
 90
4095
 91
0
280
0
281
0
  0
CLASS
  1
MATERIAL
  2
AcDbMaterial
  3
ObjectDBX Classes
 90
1153
 91
0
280
0
281
0
  0
CLASS
  1
SCALE
  2
AcDbScale
  3
ObjectDBX Classes
 90
1153
 91
0
280
0
281
0
  0
CLASS
  1
TABLESTYLE
  2
AcDbTableStyle
  3
ObjectDBX Classes
 90
4095
 91
0
280
0
281
0
  0
CLASS
  1
MLEADERSTYLE
  2
AcDbMLeaderStyle
  3
ACDB_MLEADERSTYLE_CLASS
 90
4095
 91
0
280
0
281
0
  0
CLASS
  1
DICTIONARYVAR
  2
AcDbDictionaryVar
  3
ObjectDBX Classes
 90
0
 91
0
280
0
281
0
  0
CLASS
  1
CELLSTYLEMAP
  2
AcDbCellStyleMap
  3
ObjectDBX Classes
 90
1152
 91
0
280
0
281
0
  0
CLASS
  1
MENTALRAYRENDERSETTINGS
  2
AcDbMentalRayRenderSettings
  3
SCENEOE
 90
1024
 91
0
280
0
281
0
  0
CLASS
  1
ACDBDETAILVIEWSTYLE
  2
AcDbDetailViewStyle
  3
ObjectDBX Classes
 90
1025
 91
0
280
0
281
0
  0
CLASS
  1
ACDBSECTIONVIEWSTYLE
  2
AcDbSectionViewStyle
  3
ObjectDBX Classes
 90
1025
 91
0
280
0
281
0
  0
CLASS
  1
RASTERVARIABLES
  2
AcDbRasterVariables
  3
ISM
 90
0
 91
0
280
0
281
0
  0
CLASS
  1
LAYOUT
  2
AcDbLayout
  3
ObjectDBX Classes
 90
0
 91
0
280
0
281
0
  0
CLASS
  1
ACDBPLACEHOLDER
  2
AcDbPlaceHolder
  3
ObjectDBX Classes
 90
0
 91
0
280
0
281
0
  0
ENDSEC
  0
SECTION
  2
TABLES
  0
TABLE
  2
VPORT
  5
8
330
0
100
AcDbSymbolTable
 70
1
  0
VPORT
  5
23
330
8
100
AcDbSymbolTableRecord
100
AcDbViewportTableRecord
  2
*Active
 70
0
 10
0.0
 20
0.0
 11
1.0
 21
1.0
 12
0.0
 22
0.0
 13
0.0
 23
0.0
 14
0.5
 24
0.5
 15
0.5
 25
0.5
 16
0.0
 26
0.0
 36
1.0
 17
0.0
 27
0.0
 37
0.0
 40
1000.0
 41
1.34
 42
50.0
 43
0.0
 44
0.0
 50
0.0
 51
0.0
 71
0
 72
1000
 73
1
 74
3
 75
0
 76
0
 77
0
 78
0
281
0
 65
0
146
0.0
  0
ENDTAB
  0
TABLE
  2
LTYPE
  5
2
330
0
100
AcDbSymbolTable
 70
3
  0
LTYPE
  5
24
330
2
100
AcDbSymbolTableRecord
100
AcDbLinetypeTableRecord
  2
ByBlock
 70
0
  3

 72
65
 73
0
 40
0.0
  0
LTYPE
  5
25
330
2
100
AcDbSymbolTableRecord
100
AcDbLinetypeTableRecord
  2
ByLayer
 70
0
  3

 72
65
 73
0
 40
0.0
  0
LTYPE
  5
26
330
2
100
AcDbSymbolTableRecord
100
AcDbLinetypeTableRecord
  2
Continuous
 70
0
  3

 72
65
 73
0
 40
0.0
  0
ENDTAB
  0
TABLE
  2
LAYER
  5
1
330
0
100
AcDbSymbolTable
 70
2
  0
LAYER
  5
27
330
1
100
AcDbSymbolTableRecord
100
AcDbLayerTableRecord
  2
0
 70
0
 62
7
  6
Continuous
370
-3
390
13
347
21
  0
LAYER
  5
28
330
1
100
AcDbSymbolTableRecord
100
AcDbLayerTableRecord
  2
Defpoints
 70
0
 62
7
  6
Continuous
290
0
370
-3
390
13
347
21
  0
ENDTAB
  0
TABLE
  2
STYLE
  5
5
330
0
100
AcDbSymbolTable
 70
1
  0
STYLE
  5
29
330
5
100
AcDbSymbolTableRecord
100
AcDbTextStyleTableRecord
  2
Standard
 70
0
 40
0.0
 41
1.0
 50
0.0
 71
0
 42
2.5
  3
txt
  4

  0
ENDTAB
  0
TABLE
  2
VIEW
  5
7
330
0
100
AcDbSymbolTable
 70
0
  0
ENDTAB
  0
TABLE
  2
UCS
  5
6
330
0
100
AcDbSymbolTable
 70
0
  0
ENDTAB
  0
TABLE
  2
APPID
  5
3
330
0
100
AcDbSymbolTable
 70
3
  0
APPID
  5
2A
330
3
100
AcDbSymbolTableRecord
100
AcDbRegAppTableRecord
  2
ACAD
 70
0
  0
APPID
  5
43
330
3
100
AcDbSymbolTableRecord
100
AcDbRegAppTableRecord
  2
HATCHBACKGROUNDCOLOR
 70
0
  0
APPID
  5
44
330
3
100
AcDbSymbolTableRecord
100
AcDbRegAppTableRecord
  2
EZDXF
 70
0
  0
ENDTAB
  0
TABLE
  2
DIMSTYLE
  5
4
330
0
100
AcDbSymbolTable
 70
1
100
AcDbDimStyleTable
  0
DIMSTYLE
105
2B
330
4
100
AcDbSymbolTableRecord
100
AcDbDimStyleTableRecord
  2
Standard
 70
0
 40
1.0
 41
2.5
 42
0.625
 43
3.75
 44
1.25
 45
0.0
 46
0.0
 47
0.0
 48
0.0
 49
2.5
140
2.5
141
2.5
142
0.0
143
0.03937007874
144
1.0
145
0.0
146
1.0
147
0.625
148
0.0
 69
0
 70
0
 71
0
 72
0
 73
0
 74
0
 75
0
 76
0
 77
1
 78
8
 79
3
170
0
171
3
172
1
173
0
174
0
175
0
176
0
177
0
178
0
179
2
271
2
272
2
273
2
274
3
275
0
276
0
277
2
278
44
279
0
280
0
281
0
282
0
283
0
284
8
285
0
286
0
288
0
289
3
290
0
371
-2
372
-2
  0
ENDTAB
  0
TABLE
  2
BLOCK_RECORD
  5
9
330
0
100
AcDbSymbolTable
 70
2
  0
BLOCK_RECORD
  5
17
330
9
100
AcDbSymbolTableRecord
100
AcDbBlockTableRecord
  2
*Model_Space
340
1A
 70
0
280
1
281
0
  0
BLOCK_RECORD
  5
1B
330
9
100
AcDbSymbolTableRecord
100
AcDbBlockTableRecord
  2
*Paper_Space
340
1E
 70
0
280
1
281
0
  0
ENDTAB
  0
ENDSEC
  0
SECTION
  2
BLOCKS
  0
BLOCK
  5
18
330
17
100
AcDbEntity
  8
0
100
AcDbBlockBegin
  2
*Model_Space
 70
0
 10
0.0
 20
0.0
 30
0.0
  3
*Model_Space
  1

  0
ENDBLK
  5
19
330
17
100
AcDbEntity
  8
0
100
AcDbBlockEnd
  0
BLOCK
  5
1C
330
1B
100
AcDbEntity
  8
0
100
AcDbBlockBegin
  2
*Paper_Space
 70
0
 10
0.0
 20
0.0
 30
0.0
  3
*Paper_Space
  1

  0
ENDBLK
  5
1D
330
1B
100
AcDbEntity
  8
0
100
AcDbBlockEnd
  0
ENDSEC
  0
SECTION
  2
ENTITIES
  0
LWPOLYLINE
  5
2F
330
17
100
AcDbEntity
  8
0
100
AcDbPolyline
 90
431
 70
0
 10
-88.2
 20
16.2
 10
-88.09984050355679
 20
16.2
 10
-87.9996810071136
 20
16.2
 10
-87.89952151067038
 20
16.2
 10
-87.7993620142272
 20
16.2
 10
-87.69920251778399
 20
16.2
 10
-87.59904302134079
 20
16.2
 10
-87.49888352489758
 20
16.2
 10
-87.39872402845438
 20
16.2
 10
-87.29856453201117
 20
16.2
 10
-87.19840503556799
 20
16.2
 10
-87.09824553912478
 20
16.2
 10
-86.99808604268158
 20
16.2
 10
-86.89792654623837
 20
16.2
 10
-86.79776704979517
 20
16.2
 10
-86.69760755335196
 20
16.2
 10
-86.59744805690877
 20
16.2
 10
-86.49728856046556
 20
16.2
 10
-86.39712906402237
 20
16.2
 10
-86.29696956757915
 20
16.2
 10
-86.19681007113596
 20
16.2
 10
-86.09665057469275
 20
16.2
 10
-85.99649107824955
 20
16.2
 10
-85.89633158180635
 20
16.2
 10
-85.79617208536315
 20
16.2
 10
-85.69601258891994
 20
16.2
 10
-85.59585309247674
 20
16.2
 10
-85.49569359603353
 20
16.2
 10
-85.39553409959034
 20
16.2
 10
-85.29537460314714
 20
16.2
 10
-85.19521510670393
 20
16.2
 10
-85.09505561026073
 20
16.2
 10
-84.99489611381752
 20
16.2
 10
-84.89473661737432
 20
16.2
 10
-84.79457712093111
 20
16.2
 10
-84.69441762448791
 20
16.2
 10
-84.59425812804471
 20
16.2
 10
-84.49409863160152
 20
16.2
 10
-84.3939391351583
 20
16.2
 10
-84.29377963871511
 20
16.2
 10
-84.1936201422719
 20
16.2
 10
-84.0934606458287
 20
16.2
 10
-83.9933011493855
 20
16.2
 10
-83.8931416529423
 20
16.2
 10
-83.7929821564991
 20
16.2
 10
-83.6928226600559
 20
16.2
 10
-83.59266316361268
 20
16.2
 10
-83.49250366716949
 20
16.2
 10
-83.39234417072629
 20
16.2
 10
-83.29218467428309
 20
16.2
 10
-83.19202517783988
 20
16.2
 10
-83.09186568139668
 20
16.2
 10
-82.99170618495347
 20
16.2
 10
-82.89154668851027
 20
16.2
 10
-82.79138719206706
 20
16.2
 10
-82.69122769562388
 20
16.2
 10
-82.59106819918067
 20
16.2
 10
-82.49090870273747
 20
16.2
 10
-82.39074920629426
 20
16.2
 10
-82.29058970985106
 20
16.2
 10
-82.19043021340785
 20
16.2
 10
-82.09027071696465
 20
16.2
 10
-81.99011122052146
 20
16.2
 10
-81.88995193283267
 20
16.20005609266677
 10
-81.79006744433947
 20
16.206739213216014
 10
-81.69154307605257
 20
16.22447403758748
 10
-81.59559780249056
 20
16.253041144947748
 10
-81.50341868879975
 20
16.292087094046217
 10
-81.41614620401022
 20
16.34112879610155
 10
-81.33486011079374
 20
16.399559491728283
 10
-81.26056610629989
 20
16.466656257955044
 10
-81.19418337935412
 20
16.541588952455268
 10
-81.13653323796407
 20
16.62343048432956
 10
-81.08832894783825
 20
16.711168284366313
 10
-81.05016690763797
 20
16.803716832866947
 10
-81.02251927014524
 20
16.89993109003756
 10
-81.00572810063984
 20
16.998620662781914
 10
-81.00000114475995
 20
17.098564532619797
 10
-80.99459074179236
 20
17.198526162512266
 10
-80.97811446990016
 20
17.297268795687387
 10
-80.95077388918918
 20
17.393570757184584
 10
-80.91290726593594
 20
17.486240568802074
 10
-80.86498309793097
 20
17.57413169044046
 10
-80.80759431807645
 20
17.656156705458024
 10
-80.74145095843362
 20
17.73130077453191
 10
-80.66737136548248
 20
17.79863419156992
 10
-80.58627207528133
 20
17.85732388632711
 10
-80.499156473794
 20
17.90664373141328
 10
-80.40710238268264
 20
17.945983526169776
 10
-80.31124872415857
 20
17.97485654626423
 10
-80.212781429878
 20
17.992905565597322
 10
-80.11291876822197
 20
17.999907276016607
 10
-80.01289627149623
 20
18.004224949844694
 10
-79.91395144953633
 20
18.01943998678661
 10
-79.81730847884617
 20
18.045549589579522
 10
-79.72416305670069
 20
18.0822307219934
 10
-79.63566760760257
 20
18.12902955350385
 10
-79.5529170251232
 20
18.185367074226253
 10
-79.47693512553462
 20
18.250546258608487
 10
-79.40866198083206
 20
18.323760689250587
 10
-79.34894228786716
 20
18.404104534154847
 10
-79.29851491749235
 20
18.490583753964604
 10
-79.25800377301805
 20
18.582128400532298
 10
-79.22791007108428
 20
18.677605854654953
 10
-79.20860614045057
 20
18.775834839195724
 10
-79.20033081542726
 20
18.875600034216735
 10
-79.2
 20
18.97575654063324
 10
-79.2
 20
19.07591603707644
 10
-79.2
 20
19.176075533519644
 10
-79.2
 20
19.276235029962844
 10
-79.2
 20
19.376394526406045
 10
-79.2
 20
19.47655402284925
 10
-79.2
 20
19.57671351929245
 10
-79.2
 20
19.67687301573565
 10
-79.2
 20
19.777032512178856
 10
-79.2
 20
19.877192008622057
 10
-79.2
 20
19.97735150506526
 10
-79.2
 20
20.077511001508462
 10
-79.2
 20
20.177670497951667
 10
-79.2
 20
20.277829994394867
 10
-79.2
 20
20.377989490838072
 10
-79.2
 20
20.478148987281273
 10
-79.2
 20
20.578308483724477
 10
-79.2
 20
20.678467980167678
 10
-79.19656758393373
 20
20.77852749479802
 10
-79.18230011006717
 20
20.877613388502873
 10
-79.15711654132323
 20
20.974501793418742
 10
-79.121328456747
 20
21.06799397568114
 10
-79.0753786377937
 20
21.156933220562028
 10
-79.01983559009719
 20
21.24021914370877
 10
-78.95538650973904
 20
21.31682130544597
 10
-78.88282878104228
 20
21.38579195969971
 10
-78.80306011108128
 20
21.446277779810504
 10
-78.71706742296712
 20
21.497530416159513
 10
-78.62591464532399
 20
21.538915754985766
 10
-78.53072954902909
 20
21.569921763841343
 10
-78.43268979407611
 20
21.590164826618103
 10
-78.33300835919489
 20
21.59939448976701
 10
-78.2328562672997
 20
21.6
 10
-78.13269677085648
 20
21.6
 10
-78.03253727441329
 20
21.6
 10
-77.93237777797009
 20
21.6
 10
-77.83221828152689
 20
21.6
 10
-77.73205878508368
 20
21.6
 10
-77.63189928864048
 20
21.6
 10
-77.53173979219727
 20
21.6
 10
-77.43158029575409
 20
21.6
 10
-77.4
 20
21.668579200689127
 10
-77.4
 20
21.76873869713233
 10
-77.4
 20
21.868898193575532
 10
-77.4
 20
21.969057690018737
 10
-77.4
 20
22.069217186461938
 10
-77.4
 20
22.16937668290514
 10
-77.4
 20
22.269536179348343
 10
-77.4
 20
22.369695675791544
 10
-77.4
 20
22.469855172234748
 10
-77.4
 20
22.570014668677953
 10
-77.4
 20
22.670174165121153
 10
-77.4
 20
22.770333661564358
 10
-77.4
 20
22.87049315800756
 10
-77.4
 20
22.97065265445076
 10
-77.4
 20
23.07081215089396
 10
-77.4
 20
23.170971647337165
 10
-77.4
 20
23.271131143780366
 10
-77.4
 20
23.37129064022357
 10
-77.4
 20
23.47145013666677
 10
-77.4
 20
23.571609633109976
 10
-77.4
 20
23.671769129553176
 10
-77.4
 20
23.771928625996377
 10
-77.4
 20
23.87208812243958
 10
-77.4
 20
23.972247618882783
 10
-77.4
 20
24.072407115325987
 10
-77.4
 20
24.17256661176919
 10
-77.4
 20
24.272726108212392
 10
-77.4
 20
24.372885604655593
 10
-77.4
 20
24.473045101098798
 10
-77.4
 20
24.573204597542
 10
-77.4
 20
24.6733640939852
 10
-77.4
 20
24.773523590428404
 10
-77.4
 20
24.873683086871605
 10
-77.4
 20
24.97384258331481
 10
-77.4
 20
25.07400207975801
 10
-77.4
 20
25.17416157620121
 10
-77.4
 20
25.274321072644415
 10
-77.4
 20
25.374480569087616
 10
-77.4
 20
25.474640065530817
 10
-77.4
 20
25.57479956197402
 10
-77.4
 20
25.674959058417226
 10
-77.4
 20
25.77511855486043
 10
-77.4
 20
25.87527805130363
 10
-77.4
 20
25.975437547746832
 10
-77.4
 20
26.075597044190037
 10
-77.4
 20
26.175756540633238
 10
-77.4
 20
26.27591603707644
 10
-77.4
 20
26.37607553351964
 10
-77.4
 20
26.476235029962844
 10
-77.4
 20
26.576394526406048
 10
-77.4
 20
26.67655402284925
 10
-77.4
 20
26.77671351929245
 10
-77.4
 20
26.87687301573565
 10
-77.4
 20
26.977032512178855
 10
-77.47719200862207
 20
27.0
 10
-77.57735150506527
 20
27.0
 10
-77.67751100150846
 20
27.0
 10
-77.77767049795166
 20
27.0
 10
-77.87782999439487
 20
27.0
 10
-77.97798949083807
 20
27.0
 10
-78.07814898728128
 20
27.0
 10
-78.17830848372448
 20
27.0
 10
-78.27846798016768
 20
27.0
 10
-78.37862747661087
 20
27.0
 10
-78.47878697305408
 20
27.0
 10
-78.57894646949728
 20
27.0
 10
-78.6791059659405
 20
27.0
 10
-78.77926546238369
 20
27.0
 10
-78.8794249588269
 20
27.0
 10
-78.9795844552701
 20
27.0
 10
-79.0797439517133
 20
27.0
 10
-79.1799034481565
 20
27.0
 10
-79.2800629445997
 20
27.0
 10
-79.3802224410429
 20
27.0
 10
-79.48038193748611
 20
27.0
 10
-79.58054143392931
 20
27.0
 10
-79.68070093037252
 20
27.0
 10
-79.7808604268157
 20
27.0
 10
-79.88101992325892
 20
27.0
 10
-79.98117941970212
 20
27.0
 10
-80.08133891614533
 20
27.0
 10
-80.18149841258852
 20
27.0
 10
-80.28165790903174
 20
27.0
 10
-80.38181740547493
 20
27.0
 10
-80.48197690191813
 20
27.0
 10
-80.58213639836134
 20
27.0
 10
-80.68229589480454
 20
27.0
 10
-80.78245539124775
 20
27.0
 10
-80.88261488769093
 20
27.0
 10
-80.98277438413415
 20
27.0
 10
-81.08293388057734
 20
27.0
 10
-81.18309337702055
 20
27.0
 10
-81.28325287346375
 20
27.0
 10
-81.38341236990696
 20
27.0
 10
-81.48357186635016
 20
27.0
 10
-81.58373136279336
 20
27.0
 10
-81.68389085923656
 20
27.0
 10
-81.78405035567977
 20
27.0
 10
-81.88420985212296
 20
27.0
 10
-81.98436934856618
 20
27.0
 10
-82.08452884500937
 20
27.0
 10
-82.18468834145258
 20
27.0
 10
-82.28484783789577
 20
27.0
 10
-82.38500733433898
 20
27.0
 10
-82.48516683078218
 20
27.0
 10
-82.58532632722539
 20
27.0
 10
-82.68548582366859
 20
27.0
 10
-82.7856453201118
 20
27.0
 10
-82.885804816555
 20
27.0
 10
-82.98596431299819
 20
27.0
 10
-83.08612380944139
 20
27.0
 10
-83.1862833058846
 20
27.0
 10
-83.2864428023278
 20
27.0
 10
-83.386602298771
 20
27.0
 10
-83.4867617952142
 20
27.0
 10
-83.5869212916574
 20
27.0
 10
-83.68708078810062
 20
27.0
 10
-83.78724028454381
 20
27.0
 10
-83.88739978098702
 20
27.0
 10
-83.98755927743022
 20
27.0
 10
-84.08771877387342
 20
27.0
 10
-84.18787827031662
 20
27.0
 10
-84.28803776675983
 20
27.0
 10
-84.38819726320303
 20
27.0
 10
-84.48835675964624
 20
27.0
 10
-84.58851625608943
 20
27.0
 10
-84.68867575253265
 20
27.0
 10
-84.78883524897583
 20
27.0
 10
-84.88899474541904
 20
27.0
 10
-84.98915424186224
 20
27.0
 10
-85.08931373830545
 20
27.0
 10
-85.18947323474865
 20
27.0
 10
-85.28963273119186
 20
27.0
 10
-85.38979222763506
 20
27.0
 10
-85.48995172407825
 20
27.0
 10
-85.59011122052145
 20
27.0
 10
-85.69027071696466
 20
27.0
 10
-85.79043021340786
 20
27.0
 10
-85.89058970985106
 20
27.0
 10
-85.99074920629425
 20
27.0
 10
-86.09090870273747
 20
27.0
 10
-86.19106819918066
 20
27.0
 10
-86.29122769562387
 20
27.0
 10
-86.39138719206707
 20
27.0
 10
-86.49154668851028
 20
27.0
 10
-86.59170618495348
 20
27.0
 10
-86.69186568139668
 20
27.0
 10
-86.79202517783989
 20
27.0
 10
-86.89218467428309
 20
27.0
 10
-86.9923441707263
 20
27.0
 10
-87.0925036671695
 20
27.0
 10
-87.1926631636127
 20
27.0
 10
-87.29282266005589
 20
27.0
 10
-87.3929821564991
 20
27.0
 10
-87.4931416529423
 20
27.0
 10
-87.59330114938551
 20
27.0
 10
-87.69346064582871
 20
27.0
 10
-87.79362014227192
 20
27.0
 10
-87.89377963871512
 20
27.0
 10
-87.99393913515831
 20
27.0
 10
-88.09409863160151
 20
27.0
 10
-88.19425812804472
 20
27.0
 10
-88.2
 20
26.905582375512083
 10
-88.2
 20
26.80542287906888
 10
-88.2
 20
26.705263382625677
 10
-88.2
 20
26.605103886182473
 10
-88.2
 20
26.504944389739276
 10
-88.2
 20
26.40478489329607
 10
-88.2
 20
26.304625396852867
 10
-88.2
 20
26.204465900409662
 10
-88.2
 20
26.104306403966465
 10
-88.2
 20
26.00414690752326
 10
-88.2
 20
25.903987411080053
 10
-88.2
 20
25.803827914636855
 10
-88.2
 20
25.70366841819365
 10
-88.2
 20
25.60350892175045
 10
-88.2
 20
25.503349425307245
 10
-88.2
 20
25.403189928864048
 10
-88.2
 20
25.303030432420844
 10
-88.2
 20
25.202870935977643
 10
-88.2
 20
25.10271143953444
 10
-88.2
 20
25.002551943091234
 10
-88.2
 20
24.902392446648037
 10
-88.2
 20
24.802232950204832
 10
-88.2
 20
24.702073453761628
 10
-88.2
 20
24.601913957318423
 10
-88.2
 20
24.501754460875226
 10
-88.2
 20
24.40159496443202
 10
-88.2
 20
24.301435467988817
 10
-88.2
 20
24.201275971545616
 10
-88.2
 20
24.101116475102412
 10
-88.2
 20
24.000956978659215
 10
-88.2
 20
23.90079748221601
 10
-88.2
 20
23.80063798577281
 10
-88.2
 20
23.700478489329605
 10
-88.2
 20
23.600318992886407
 10
-88.2
 20
23.500159496443203
 10
-88.2
 20
23.4
 10
-88.2
 20
23.299840503556798
 10
-88.2
 20
23.199681007113593
 10
-88.2
 20
23.09952151067039
 10
-88.2
 20
22.999362014227184
 10
-88.2
 20
22.899202517783987
 10
-88.2
 20
22.799043021340783
 10
-88.2
 20
22.698883524897578
 10
-88.2
 20
22.598724028454377
 10
-88.2
 20
22.498564532011173
 10
-88.2
 20
22.398405035567976
 10
-88.2
 20
22.29824553912477
 10
-88.2
 20
22.19808604268157
 10
-88.2
 20
22.097926546238366
 10
-88.2
 20
21.99776704979517
 10
-88.2
 20
21.897607553351964
 10
-88.2
 20
21.79744805690876
 10
-88.2
 20
21.69728856046556
 10
-88.19712906402236
 20
21.6
 10
-88.09696956757915
 20
21.6
 10
-87.99681007113595
 20
21.6
 10
-87.89665057469274
 20
21.6
 10
-87.79649107824955
 20
21.6
 10
-87.69633158180633
 20
21.6
 10
-87.59617208536315
 20
21.6
 10
-87.49601258891994
 20
21.6
 10
-87.39585309247674
 20
21.6
 10
-87.30430638753381
 20
21.599989697177925
 10
-87.40423148032453
 20
21.593943957141253
 10
-87.5028669884088
 20
21.576838060883507
 10
-87.59899256221141
 20
21.548883647941373
 10
-87.69141890585472
 20
21.510426579117134
 10
-87.77900249150179
 20
21.461942657379865
 10
-87.86065970744303
 20
21.40403174108125
 10
-87.93538026488166
 20
21.337410322319084
 10
-88.0022396975448
 20
21.262902662271372
 10
-88.06041079947148
 20
21.18143059317738
 10
-88.1091738594654
 20
21.094002113138828
 10
-88.14792556558841
 20
21.00169891484983
 10
-88.17618646952597
 20
20.905663002554196
 10
-88.19360691847267
 20
20.807082562809196
 10
-88.19997138114685
 20
20.70717726386719
 10
-88.2
 20
20.607017843500905
 10
-88.2
 20
20.5068583470577
 10
-88.2
 20
20.406698850614504
 10
-88.2
 20
20.3065393541713
 10
-88.2
 20
20.2063798577281
 10
-88.2
 20
20.106220361284894
 10
-88.2
 20
20.00606086484169
 10
-88.2
 20
19.905901368398492
 10
-88.2
 20
19.805741871955288
 10
-88.2
 20
19.705582375512087
 10
-88.2
 20
19.605422879068882
 10
-88.2
 20
19.50526338262568
 10
-88.2
 20
19.405103886182477
 10
-88.2
 20
19.304944389739273
 10
-88.2
 20
19.204784893296072
 10
-88.2
 20
19.104625396852867
 10
-88.2
 20
19.00446590040967
 10
-88.2
 20
18.904306403966466
 10
-88.2
 20
18.804146907523265
 10
-88.2
 20
18.70398741108006
 10
-88.2
 20
18.60382791463686
 10
-88.2
 20
18.503668418193655
 10
-88.2
 20
18.40350892175045
 10
-88.2
 20
18.303349425307253
 10
-88.2
 20
18.20318992886405
 10
-88.2
 20
18.103030432420848
 10
-88.2
 20
18.002870935977644
 10
-88.2
 20
17.902711439534443
 10
-88.2
 20
17.80255194309124
 10
-88.2
 20
17.702392446648034
 10
-88.2
 20
17.602232950204833
 10
-88.2
 20
17.50207345376163
 10
-88.2
 20
17.40191395731843
 10
-88.2
 20
17.301754460875227
 10
-88.2
 20
17.201594964432026
 10
-88.2
 20
17.10143546798882
 10
-88.2
 20
17.001275971545624
 10
-88.2
 20
16.90111647510242
 10
-88.2
 20
16.800956978659215
 10
-88.2
 20
16.700797482216014
 10
-88.2
 20
16.60063798577281
 10
-88.2
 20
16.50047848932961
 10
-88.2
 20
16.400318992886405
 10
-88.2
 20
16.300159496443204
 10
-88.2
 20
16.2
  0
LWPOLYLINE
  5
30
330
17
100
AcDbEntity
  8
0
100
AcDbPolyline
 90
519
 70
0
 10
-73.8
 20
16.2
 10
-73.69992838739662
 20
16.2
 10
-73.59985677479325
 20
16.2
 10
-73.49978516218987
 20
16.2
 10
-73.39971354958648
 20
16.2
 10
-73.29964193698311
 20
16.2
 10
-73.19957032437972
 20
16.2
 10
-73.09949871177633
 20
16.2
 10
-72.99942709917296
 20
16.2
 10
-72.89935548656959
 20
16.2
 10
-72.79928387396622
 20
16.2
 10
-72.69921226136282
 20
16.2
 10
-72.59914064875944
 20
16.2
 10
-72.49906903615607
 20
16.2
 10
-72.39899742355269
 20
16.2
 10
-72.2989258109493
 20
16.2
 10
-72.19885419834593
 20
16.2
 10
-72.09878258574255
 20
16.2
 10
-71.99871097313917
 20
16.2
 10
-71.89863936053578
 20
16.2
 10
-71.79856774793241
 20
16.2
 10
-71.69849613532904
 20
16.2
 10
-71.59842452272565
 20
16.2
 10
-71.49835291012226
 20
16.2
 10
-71.39828129751889
 20
16.2
 10
-71.2982096849155
 20
16.2
 10
-71.19813807231213
 20
16.2
 10
-71.09806645970875
 20
16.2
 10
-70.99799484710537
 20
16.2
 10
-70.89792323450199
 20
16.2
 10
-70.7978516218986
 20
16.2
 10
-70.69778000929523
 20
16.2
 10
-70.59770839669186
 20
16.2
 10
-70.49763678408847
 20
16.2
 10
-70.39756517148508
 20
16.2
 10
-70.29749355888171
 20
16.2
 10
-70.19742194627833
 20
16.2
 10
-70.09735033367495
 20
16.2
 10
-69.99727872107157
 20
16.2
 10
-69.8972071084682
 20
16.2
 10
-69.79713549586481
 20
16.2
 10
-69.69706388326144
 20
16.2
 10
-69.59699227065805
 20
16.2
 10
-69.49692065805468
 20
16.2
 10
-69.39684904545129
 20
16.2
 10
-69.29677743284792
 20
16.2
 10
-69.19670582024453
 20
16.2
 10
-69.09663420764115
 20
16.2
 10
-68.99656259503777
 20
16.2
 10
-68.8964909824344
 20
16.2
 10
-68.79641936983101
 20
16.2
 10
-68.69634775722763
 20
16.2
 10
-68.59627614462426
 20
16.2
 10
-68.49620453202088
 20
16.2
 10
-68.3961329194175
 20
16.2
 10
-68.29606130681411
 20
16.2
 10
-68.19598969421074
 20
16.2
 10
-68.09591808160737
 20
16.2
 10
-67.99584646900396
 20
16.2
 10
-67.89577485640059
 20
16.2
 10
-67.79570324379722
 20
16.2
 10
-67.69563163119385
 20
16.2
 10
-67.59556001859045
 20
16.2
 10
-67.49548840598707
 20
16.2
 10
-67.3954167933837
 20
16.2
 10
-67.29534518078032
 20
16.2
 10
-67.19527356817694
 20
16.2
 10
-67.09520195557356
 20
16.2
 10
-66.99513034297019
 20
16.2
 10
-66.8950587303668
 20
16.2
 10
-66.79498711776341
 20
16.2
 10
-66.69491550516004
 20
16.2
 10
-66.59484389255667
 20
16.2
 10
-66.49477227995328
 20
16.2
 10
-66.39470066734991
 20
16.2
 10
-66.29462905474652
 20
16.2
 10
-66.19455744214314
 20
16.2
 10
-66.09448582953976
 20
16.2
 10
-65.99441421693638
 20
16.2
 10
-65.894342604333
 20
16.2
 10
-65.79427099172962
 20
16.2
 10
-65.69419937912625
 20
16.2
 10
-65.59412776652286
 20
16.2
 10
-65.49405615391949
 20
16.2
 10
-65.3939845413161
 20
16.2
 10
-65.29391292871273
 20
16.2
 10
-65.19384131610934
 20
16.2
 10
-65.09376970350596
 20
16.2
 10
-64.99369809090258
 20
16.2
 10
-64.89362647829921
 20
16.2
 10
-64.79355486569582
 20
16.2
 10
-64.69348325309244
 20
16.2
 10
-64.59341164048907
 20
16.2
 10
-64.4933400278857
 20
16.2
 10
-64.39326841528231
 20
16.2
 10
-64.29319680267892
 20
16.2
 10
-64.19312519007555
 20
16.2
 10
-64.09305357747218
 20
16.2
 10
-63.99298196486878
 20
16.2
 10
-63.89291042558776
 20
16.200027923802825
 10
-63.793091768085596
 20
16.20637220838375
 10
-63.69459349513199
 20
16.22375336362534
 10
-63.59863212294216
 20
16.251956721223706
 10
-63.50639283539604
 20
16.290633951803986
 10
-63.41901484626477
 20
16.33930736700932
 10
-63.33757732919723
 20
16.397375819255355
 10
-63.26308608924026
 20
16.46412212628466
 10
-63.19646114050766
 20
16.538721928822962
 10
-63.138525343421655
 20
16.62025387193966
 10
-63.08999424186423
 20
16.70771098436626
 10
-63.05146722575581
 20
16.80001311523092
 10
-63.02342012820915
 20
16.89602027460763
 10
-63.00619934868827
 20
16.99454671311562
 10
-63.00001757475504
 20
17.094375566677176
 10
-63.0
 20
17.194447142669883
 10
-63.0
 20
17.294518755273266
 10
-63.0
 20
17.394590367876646
 10
-63.0
 20
17.494661980480025
 10
-63.0
 20
17.594733593083404
 10
-63.0
 20
17.694805205686784
 10
-63.0
 20
17.794876818290163
 10
-63.0
 20
17.894948430893542
 10
-63.0
 20
17.995020043496922
 10
-63.0
 20
18.0950916561003
 10
-63.0
 20
18.19516326870368
 10
-63.0
 20
18.295234881307064
 10
-63.0
 20
18.395306493910443
 10
-63.0
 20
18.495378106513822
 10
-63.0
 20
18.5954497191172
 10
-63.0
 20
18.69552133172058
 10
-63.0
 20
18.79559294432396
 10
-63.0
 20
18.89566455692734
 10
-63.0
 20
18.99573616953072
 10
-63.0
 20
19.0958077821341
 10
-63.0
 20
19.195879394737478
 10
-63.0
 20
19.295951007340857
 10
-63.0
 20
19.39602261994424
 10
-63.0
 20
19.49609423254762
 10
-63.0
 20
19.596165845150995
 10
-63.0
 20
19.696237457754375
 10
-63.0
 20
19.796309070357758
 10
-63.0
 20
19.896380682961134
 10
-63.0
 20
19.996452295564513
 10
-63.0
 20
20.096523908167896
 10
-63.0
 20
20.196595520771275
 10
-63.0
 20
20.296667133374655
 10
-63.0
 20
20.396738745978034
 10
-63.0
 20
20.496810358581417
 10
-63.0
 20
20.596881971184793
 10
-63.0
 20
20.696953583788172
 10
-63.005224874915776
 20
20.796837366395955
 10
-63.021495634876366
 20
20.895525140221697
 10
-63.04861648157738
 20
20.99179805441149
 10
-63.08625245534094
 20
21.084467077343888
 10
-63.13393872799301
 20
21.172387687742855
 10
-63.19108634378662
 20
21.2544740102423
 10
-63.2569894933792
 20
21.32971222663632
 10
-63.330834231026245
 20
21.397173097177813
 10
-63.41170852732798
 20
21.45602343727942
 10
-63.498613533371675
 20
21.50553640787219
 10
-63.59047591714991
 20
21.545100492329645
 10
-63.686161119892404
 20
21.57422704908641
 10
-63.78448736858725
 20
21.592556346671795
 10
-63.884240271628066
 20
21.59986200662193
 10
-63.81581218267865
 20
21.60394620060252
 10
-63.71690440998672
 20
21.618821241224182
 10
-63.62025798409317
 20
21.644579399046073
 10
-63.52706654972616
 20
21.680902544463212
 10
-63.43848108027465
 20
21.727342063565292
 10
-63.35559566253622
 20
21.78332439880332
 10
-63.27943398405039
 20
21.84815813278954
 10
-63.21093668990744
 20
21.92104252774121
 10
-63.15094976518436
 20
22.001077415100674
 10
-63.10021408649183
 20
22.08727431318863
 10
-63.05935627167781
 20
22.17856863558054
 10
-63.02888094069902
 20
22.273832839424955
 10
-63.00916448324426
 20
22.37189035131369
 10
-63.00045041008259
 20
22.47153009871055
 10
-63.0
 20
22.57159696105537
 10
-63.0
 20
22.671668573658746
 10
-63.0
 20
22.77174018626213
 10
-63.0
 20
22.87181179886551
 10
-63.0
 20
22.971883411468887
 10
-63.0
 20
23.071955024072267
 10
-63.0
 20
23.172026636675646
 10
-63.0
 20
23.27209824927903
 10
-63.0
 20
23.372169861882405
 10
-63.0
 20
23.472241474485784
 10
-63.0
 20
23.572313087089167
 10
-63.0
 20
23.672384699692543
 10
-63.0
 20
23.772456312295926
 10
-63.0
 20
23.872527924899305
 10
-63.0
 20
23.972599537502685
 10
-63.0
 20
24.072671150106064
 10
-63.0
 20
24.172742762709444
 10
-63.0
 20
24.27281437531282
 10
-63.0
 20
24.372885987916202
 10
-63.0
 20
24.47295760051958
 10
-63.0
 20
24.573029213122958
 10
-63.0
 20
24.67310082572634
 10
-63.0
 20
24.773172438329723
 10
-63.0
 20
24.8732440509331
 10
-63.0
 20
24.97331566353648
 10
-63.0
 20
25.07338727613986
 10
-63.0
 20
25.17345888874324
 10
-63.0
 20
25.273530501346617
 10
-63.0
 20
25.373602113949996
 10
-63.0
 20
25.47367372655338
 10
-63.0
 20
25.573745339156755
 10
-63.0
 20
25.673816951760138
 10
-63.0
 20
25.773888564363517
 10
-63.0
 20
25.873960176966897
 10
-63.0
 20
25.974031789570276
 10
-63.0
 20
26.074103402173655
 10
-63.00305489955255
 20
26.174091070874308
 10
-63.016815092019726
 20
26.273160094467162
 10
-63.04148317890367
 20
26.37009048094046
 10
-63.07675449366764
 20
26.463685078472558
 10
-63.122193413177826
 20
26.55278793435341
 10
-63.1772387379255
 20
26.636298571734514
 10
-63.24121062319748
 20
26.713185581216774
 10
-63.313318975589894
 20
26.7824993594115
 10
-63.39267321116346
 20
26.843383837145254
 10
-63.47829325472062
 20
26.8950870524577
 10
-63.56912164435659
 20
26.936970437809315
 10
-63.66403659178531
 20
26.968516706795967
 10
-63.76186583713712
 20
26.989336242964477
 10
-63.86140112711248
 20
26.99917191182321
 10
-63.96146089710895
 20
27.0
 10
-64.06153250971232
 20
27.0
 10
-64.1616041223157
 20
27.0
 10
-64.2616757349191
 20
27.0
 10
-64.36174734752247
 20
27.0
 10
-64.46181896012584
 20
27.0
 10
-64.56189057272923
 20
27.0
 10
-64.66196218533261
 20
27.0
 10
-64.76203379793598
 20
27.0
 10
-64.86210541053936
 20
27.0
 10
-64.96217702314274
 20
27.0
 10
-65.06224863574613
 20
27.0
 10
-65.1623202483495
 20
27.0
 10
-65.26239186095287
 20
27.0
 10
-65.36246347355626
 20
27.0
 10
-65.46253508615965
 20
27.0
 10
-65.56260669876302
 20
27.0
 10
-65.6626783113664
 20
27.0
 10
-65.76274992396978
 20
27.0
 10
-65.86282153657316
 20
27.0
 10
-65.96289314917654
 20
27.0
 10
-66.06296476177992
 20
27.0
 10
-66.1630363743833
 20
27.0
 10
-66.26310798698668
 20
27.0
 10
-66.36317959959005
 20
27.0
 10
-66.46325121219344
 20
27.0
 10
-66.56332282479681
 20
27.0
 10
-66.66339443740019
 20
27.0
 10
-66.76346605000359
 20
27.0
 10
-66.86353766260696
 20
27.0
 10
-66.96360927521033
 20
27.0
 10
-67.0636808878137
 20
27.0
 10
-67.1637525004171
 20
27.0
 10
-67.26382411302048
 20
27.0
 10
-67.36389572562385
 20
27.0
 10
-67.46396733822723
 20
27.0
 10
-67.56403895083061
 20
27.0
 10
-67.664110563434
 20
27.0
 10
-67.76418217603737
 20
27.0
 10
-67.86425378864075
 20
27.0
 10
-67.96432540124414
 20
27.0
 10
-68.06439701384751
 20
27.0
 10
-68.16446862645088
 20
27.0
 10
-68.26454023905427
 20
27.0
 10
-68.36461185165764
 20
27.0
 10
-68.4
 20
26.935316535738973
 10
-68.4
 20
26.835244923135594
 10
-68.4
 20
26.73517331053221
 10
-68.4
 20
26.63510169792884
 10
-68.4
 20
26.53503008532546
 10
-68.4
 20
26.434958472722077
 10
-68.4
 20
26.334886860118694
 10
-68.4
 20
26.234815247515314
 10
-68.4
 20
26.134743634911935
 10
-68.4
 20
26.03467202230856
 10
-68.4
 20
25.93460040970518
 10
-68.4
 20
25.8345287971018
 10
-68.4
 20
25.73445718449842
 10
-68.4
 20
25.634385571895038
 10
-68.4
 20
25.53431395929166
 10
-68.4
 20
25.434242346688283
 10
-68.4
 20
25.3341707340849
 10
-68.4
 20
25.23409912148152
 10
-68.4
 20
25.13402750887814
 10
-68.4
 20
25.03395589627476
 10
-68.4
 20
24.933884283671382
 10
-68.4
 20
24.833812671068
 10
-68.4
 20
24.733741058464627
 10
-68.4
 20
24.633669445861248
 10
-68.4
 20
24.533597833257865
 10
-68.4
 20
24.433526220654482
 10
-68.4
 20
24.333454608051102
 10
-68.39753566694242
 20
24.23344380895644
 10
-68.3846079106681
 20
24.134262724821983
 10
-68.36075468499024
 20
24.03712860127553
 10
-68.32627059239225
 20
23.943241106420945
 10
-68.28158153331438
 20
23.853759810436195
 10
-68.22723944601282
 20
23.76978986414537
 10
-68.16391548977175
 20
23.69236834970425
 10
-68.09239175566012
 20
23.62245147197716
 10
-68.01355160721022
 20
23.560902748799727
 10
-67.92836877031718
 20
23.508482345985286
 10
-67.83789530710585
 20
23.465837688794416
 10
-67.74324862229561
 20
23.433495465821853
 10
-67.64559766254243
 20
23.41185512405792
 10
-67.54614847920551
 20
23.401183935464537
 10
-67.65322447656523
 20
23.386860902160713
 10
-67.75068586639779
 20
23.36438220503918
 10
-67.84505112660027
 20
23.33122783882152
 10
-67.93515478628927
 20
23.28780728098282
 10
-68.01988400805378
 20
23.2346568029835
 10
-68.0981923322038
 20
23.172432846976257
 10
-68.16911260121198
 20
23.10190391832862
 10
-68.23176890472325
 20
23.023941094093736
 10
-68.28538739760386
 20
22.9395072646556
 10
-68.32930585742014
 20
22.849645241421417
 10
-68.36298186330612
 20
22.75546487743856
 10
-68.38599949520557
 20
22.6581293600047
 10
-68.39807447074881
 20
22.558840844566078
 10
-68.4
 20
22.5411887692161
 10
-68.4
 20
22.641260381819478
 10
-68.4
 20
22.741331994422858
 10
-68.4
 20
22.841403607026237
 10
-68.4
 20
22.94147521962962
 10
-68.4
 20
23.041546832232996
 10
-68.4
 20
23.141618444836375
 10
-68.4
 20
23.241690057439758
 10
-68.4
 20
23.341761670043137
 10
-68.4
 20
23.441833282646517
 10
-68.4
 20
23.541904895249896
 10
-68.4
 20
23.641976507853272
 10
-68.4
 20
23.74204812045665
 10
-68.4
 20
23.84211973306003
 10
-68.4
 20
23.942191345663414
 10
-68.4
 20
24.042262958266797
 10
-68.4
 20
24.142334570870176
 10
-68.4
 20
24.24240618347355
 10
-68.4010022379073
 20
24.342462027181046
 10
-68.41126549353119
 20
24.441954137000746
 10
-68.43250518463702
 20
24.539693023090695
 10
-68.46445898755293
 20
24.634471548145623
 10
-68.50673225252292
 20
24.725119137198796
 10
-68.55880287788202
 20
24.810516234966162
 10
-68.62002775834331
 20
24.889608133064986
 10
-68.68965072775664
 20
24.96141799633213
 10
-68.7668118982407
 20
25.025058927358536
 10
-68.85055828034433
 20
25.07974492023542
 10
-68.9398555530714
 20
25.12480056822634
 10
-69.03360083840194
 20
25.15966940546925
 10
-69.13063632253588
 20
25.18392077968324
 10
-69.22976355562875
 20
25.197255170997686
 10
-69.32975825340822
 20
25.200492108787206
 10
-69.42938541786226
 20
25.20934888219651
 10
-69.52741459024878
 20
25.229205762454768
 10
-69.62263504804241
 20
25.259817504482108
 10
-69.71387075812648
 20
25.300806033826692
 10
-69.79999490154874
 20
25.3516651161243
 10
-69.87994379045101
 20
25.41176660941414
 10
-69.95273000528952
 20
25.480368222090945
 10
-70.01745459009337
 20
25.556622680677624
 10
-70.0733181551415
 20
25.639588194190708
 10
-70.1196307499334
 20
25.72824008585702
 10
-70.15582038451596
 20
25.821483448522446
 10
-70.18144009392242
 20
25.918166667450574
 10
-70.19617345847367
 20
26.0170956434959
 10
-70.2001614882379
 20
26.117048540986513
 10
-70.20761001194761
 20
26.21679087817049
 10
-70.22608011865798
 20
26.31509077384939
 10
-70.25534369082303
 20
26.41073416189329
 10
-70.29503930474479
 20
26.50253978572838
 10
-70.3446766943855
 20
26.58937378760572
 10
-70.40364280646439
 20
26.67016371246442
 10
-70.47120937205511
 20
26.743911753432634
 10
-70.54654190116935
 20
26.809707075376
 10
-70.62870998923796
 20
26.86673706428992
 10
-70.71669880819842
 20
26.91429736359851
 10
-70.80942164026553
 20
26.95180057340555
 10
-70.90573329958629
 20
26.9787835052562
 10
-71.0044442760123
 20
26.99491290280853
 10
-71.10433544307267
 20
27.0
 10
-71.20440705567604
 20
27.0
 10
-71.30447866827942
 20
27.0
 10
-71.40455028088282
 20
27.0
 10
-71.50462189348619
 20
27.0
 10
-71.60469350608956
 20
27.0
 10
-71.70476511869295
 20
27.0
 10
-71.80483673129633
 20
27.0
 10
-71.9049083438997
 20
27.0
 10
-72.00497995650308
 20
27.0
 10
-72.10505156910646
 20
27.0
 10
-72.20512318170985
 20
27.0
 10
-72.30519479431322
 20
27.0
 10
-72.4052664069166
 20
27.0
 10
-72.50533801951998
 20
27.0
 10
-72.60540963212335
 20
27.0
 10
-72.70548124472674
 20
27.0
 10
-72.80555285733013
 20
27.0
 10
-72.90562443332283
 20
26.999982425244962
 10
-73.00545328688439
 20
26.993800651311737
 10
-73.10397972539238
 20
26.976579871790843
 10
-73.19998688476909
 20
26.948532774244192
 10
-73.29228901563374
 20
26.91000575813577
 10
-73.37974612806035
 20
26.86147465657835
 10
-73.46127807117705
 20
26.80353885949234
 10
-73.53587787371535
 20
26.73691391075973
 10
-73.60262418074466
 20
26.662422670802762
 10
-73.66069263299069
 20
26.58098515373523
 10
-73.70936604819602
 20
26.493607164603954
 10
-73.7480432787763
 20
26.401367877057837
 10
-73.77624663637467
 20
26.305406504868003
 10
-73.79362779161625
 20
26.206908231914397
 10
-73.79997207619718
 20
26.107089574412242
 10
-73.8
 20
26.007018035131214
 10
-73.8
 20
25.90694642252783
 10
-73.8
 20
25.80687480992445
 10
-73.8
 20
25.706803197321072
 10
-73.8
 20
25.606731584717693
 10
-73.8
 20
25.506659972114313
 10
-73.8
 20
25.40658835951093
 10
-73.8
 20
25.306516746907555
 10
-73.8
 20
25.206445134304175
 10
-73.8
 20
25.106373521700792
 10
-73.8
 20
25.006301909097413
 10
-73.8
 20
24.906230296494034
 10
-73.8
 20
24.806158683890654
 10
-73.8
 20
24.70608707128728
 10
-73.8
 20
24.6060154586839
 10
-73.8
 20
24.50594384608052
 10
-73.8
 20
24.40587223347714
 10
-73.8
 20
24.305800620873757
 10
-73.8
 20
24.205729008270374
 10
-73.8
 20
24.105657395667002
 10
-73.8
 20
24.00558578306362
 10
-73.8
 20
23.90551417046024
 10
-73.8
 20
23.80544255785686
 10
-73.8
 20
23.70537094525348
 10
-73.8
 20
23.605299332650098
 10
-73.8
 20
23.50522772004672
 10
-73.8
 20
23.405156107443343
 10
-73.8
 20
23.305084494839964
 10
-73.8
 20
23.20501288223658
 10
-73.8
 20
23.1049412696332
 10
-73.8
 20
23.004869657029822
 10
-73.8
 20
22.904798044426443
 10
-73.8
 20
22.804726431823067
 10
-73.8
 20
22.704654819219687
 10
-73.8
 20
22.604583206616308
 10
-73.8
 20
22.504511594012925
 10
-73.8
 20
22.404439981409546
 10
-73.8
 20
22.304368368806163
 10
-73.8
 20
22.20429675620279
 10
-73.8
 20
22.104225143599407
 10
-73.8
 20
22.004153530996028
 10
-73.8
 20
21.90408191839265
 10
-73.8
 20
21.80401030578927
 10
-73.8
 20
21.703938693185886
 10
-73.8
 20
21.603867080582507
 10
-73.8
 20
21.50379546797913
 10
-73.8
 20
21.40372385537575
 10
-73.8
 20
21.30365224277237
 10
-73.8
 20
21.20358063016899
 10
-73.8
 20
21.10350901756561
 10
-73.8
 20
21.003437404962227
 10
-73.8
 20
20.903365792358855
 10
-73.8
 20
20.803294179755476
 10
-73.8
 20
20.703222567152096
 10
-73.8
 20
20.603150954548713
 10
-73.8
 20
20.503079341945334
 10
-73.8
 20
20.40300772934195
 10
-73.8
 20
20.302936116738575
 10
-73.8
 20
20.202864504135196
 10
-73.8
 20
20.102792891531816
 10
-73.8
 20
20.002721278928437
 10
-73.8
 20
19.902649666325058
 10
-73.8
 20
19.802578053721675
 10
-73.8
 20
19.702506441118295
 10
-73.8
 20
19.60243482851492
 10
-73.8
 20
19.502363215911537
 10
-73.8
 20
19.402291603308157
 10
-73.8
 20
19.302219990704778
 10
-73.8
 20
19.2021483781014
 10
-73.8
 20
19.102076765498015
 10
-73.8
 20
19.002005152894643
 10
-73.8
 20
18.901933540291264
 10
-73.8
 20
18.801861927687884
 10
-73.8
 20
18.7017903150845
 10
-73.8
 20
18.601718702481122
 10
-73.8
 20
18.50164708987774
 10
-73.8
 20
18.401575477274363
 10
-73.8
 20
18.301503864670984
 10
-73.8
 20
18.201432252067605
 10
-73.8
 20
18.101360639464225
 10
-73.8
 20
18.001289026860842
 10
-73.8
 20
17.901217414257463
 10
-73.8
 20
17.801145801654084
 10
-73.8
 20
17.701074189050708
 10
-73.8
 20
17.601002576447325
 10
-73.8
 20
17.500930963843945
 10
-73.8
 20
17.400859351240566
 10
-73.8
 20
17.300787738637187
 10
-73.8
 20
17.200716126033804
 10
-73.8
 20
17.10064451343043
 10
-73.8
 20
17.000572900827052
 10
-73.8
 20
16.90050128822367
 10
-73.8
 20
16.80042967562029
 10
-73.8
 20
16.70035806301691
 10
-73.8
 20
16.600286450413527
 10
-73.8
 20
16.50021483781015
 10
-73.8
 20
16.400143225206772
 10
-73.8
 20
16.300071612603393
 10
-73.8
 20
16.2
  0
LWPOLYLINE
  5
31
330
17
100
AcDbEntity
  8
0
100
AcDbPolyline
 90
498
 70
0
 10
-59.4
 20
17.1
 10
-59.39443879956114
 20
17.000103884762083
 10
-59.377823924800836
 20
16.90144230801284
 10
-59.350360706049756
 20
16.805234551538746
 10
-59.31238853989497
 20
16.712669572267636
 10
-59.264376694841076
 20
16.62489130887361
 10
-59.206918511985414
 20
16.542984544727585
 10
-59.1407240723762
 20
16.467961501902256
 10
-59.06661142167258
 20
16.400749331905807
 10
-58.9854964605537
 20
16.342178657736646
 10
-58.898381625813705
 20
16.29297330885898
 10
-58.806343502024156
 20
16.253741375956746
 10
-58.71051951686148
 20
16.224967696013223
 10
-58.61209388452201
 20
16.20700786058736
 10
-58.51228297093855
 20
16.20008382133394
 10
-58.412180970716925
 20
16.2
 10
-58.31207858915703
 20
16.2
 10
-58.21197620759713
 20
16.2
 10
-58.11187382603723
 20
16.2
 10
-58.01177144447733
 20
16.2
 10
-57.91166906291743
 20
16.2
 10
-57.81156668135754
 20
16.2
 10
-57.71146429979764
 20
16.2
 10
-57.61136191823774
 20
16.2
 10
-57.51125953667785
 20
16.2
 10
-57.41115715511795
 20
16.2
 10
-57.31105477355805
 20
16.2
 10
-57.210952391998156
 20
16.2
 10
-57.110850010438256
 20
16.2
 10
-57.010747628878356
 20
16.2
 10
-56.910645247318456
 20
16.2
 10
-56.810542865758556
 20
16.2
 10
-56.710440484198664
 20
16.2
 10
-56.610338102638764
 20
16.2
 10
-56.510235721078864
 20
16.2
 10
-56.410133339518964
 20
16.2
 10
-56.310030957959064
 20
16.2
 10
-56.20992857639917
 20
16.2
 10
-56.10982619483927
 20
16.2
 10
-56.00972381327937
 20
16.2
 10
-55.90962143171947
 20
16.2
 10
-55.80951905015957
 20
16.2
 10
-55.70941666859968
 20
16.2
 10
-55.60931428703978
 20
16.2
 10
-55.50921190547988
 20
16.2
 10
-55.40910952391998
 20
16.2
 10
-55.30900714236008
 20
16.2
 10
-55.20890476080019
 20
16.2
 10
-55.10880237924029
 20
16.2
 10
-55.00869999768039
 20
16.2
 10
-54.90859761612049
 20
16.2
 10
-54.80849523456059
 20
16.2
 10
-54.708392853000696
 20
16.2
 10
-54.608290471440796
 20
16.2
 10
-54.508188089880896
 20
16.2
 10
-54.408085708320996
 20
16.2
 10
-54.3079833267611
 20
16.2
 10
-54.207880945201204
 20
16.2
 10
-54.107778563641304
 20
16.2
 10
-54.007676182081404
 20
16.2
 10
-54.0
 20
16.292426199478495
 10
-54.0
 20
16.392528581038395
 10
-54.0
 20
16.49263096259829
 10
-54.0
 20
16.59273334415819
 10
-54.0
 20
16.69283572571809
 10
-54.0
 20
16.792938107277987
 10
-54.0
 20
16.893040488837887
 10
-54.0
 20
16.993142870397783
 10
-54.0
 20
17.093245251957683
 10
-53.99516334902316
 20
17.193180355041417
 10
-53.97928941758475
 20
17.291963851085224
 10
-53.95254903126866
 20
17.388375015011473
 10
-53.91527265373737
 20
17.48122237613764
 10
-53.867920954784395
 20
17.56935850605163
 10
-53.81107911727419
 20
17.651694198788203
 10
-53.74544960532165
 20
17.727211931479406
 10
-53.67184348308383
 20
17.794978439129267
 10
-53.59117039144804
 20
17.854156248110947
 10
-53.504427306486754
 20
17.904014025852703
 10
-53.41268621860475
 20
17.94393561880908
 10
-53.31708088464245
 20
17.973427667023923
 10
-53.21879281665585
 20
17.99212570118284
 10
-53.119036680526754
 20
17.999798646806344
 10
-53.01904528485076
 20
18.00364832008017
 10
-52.92005434561348
 20
18.01817260109055
 10
-52.82328721493652
 20
18.0435947019183
 10
-52.72993976261897
 20
18.07960045056723
 10
-52.64116559731147
 20
18.125744879959157
 10
-52.55806180996308
 20
18.18145772693633
 10
-52.4816554157264
 20
18.246050479700838
 10
-52.41289066187512
 20
18.318724886597078
 10
-52.35261735858544
 20
18.398582821083885
 10
-52.30158037679228
 20
18.484637380982782
 10
-52.26041044290796
 20
18.57582508483538
 10
-52.22961634416444
 20
18.6710190146446
 10
-52.20957864090717
 20
18.76904274257882
 10
-52.200544963545354
 20
18.868684869529577
 10
-52.2
 20
18.831219071036077
 10
-52.2
 20
18.73111668947618
 10
-52.2
 20
18.63101430791628
 10
-52.2
 20
18.530911926356385
 10
-52.2
 20
18.430809544796485
 10
-52.2
 20
18.330707163236585
 10
-52.2
 20
18.23060478167669
 10
-52.2
 20
18.13050240011679
 10
-52.2
 20
18.030400018556893
 10
-52.2
 20
17.930297636996993
 10
-52.2
 20
17.830195255437093
 10
-52.2
 20
17.730092873877197
 10
-52.2
 20
17.629990492317297
 10
-52.2
 20
17.5298881107574
 10
-52.2
 20
17.4297857291975
 10
-52.2
 20
17.3296833476376
 10
-52.2
 20
17.229580966077705
 10
-52.2
 20
17.129478584517805
 10
-52.19723046564725
 20
17.029448660434916
 10
-52.18385548430647
 20
16.93029589615634
 10
-52.15955761961633
 20
16.8332403730706
 10
-52.124637150011885
 20
16.739481524994517
 10
-52.07952563045067
 20
16.650178044699366
 10
-52.0247805591602
 20
16.56643356452694
 10
-51.961078487950445
 20
16.48928301745477
 10
-51.889206661235555
 20
16.419679847163373
 10
-51.81005328709168
 20
16.358484225166467
 10
-51.72459656058332
 20
16.306452420619397
 10
-51.63389257501041
 20
16.264227454176126
 10
-51.539062270471526
 20
16.23233115139646
 10
-51.44127758103607
 20
16.21115769390932
 10
-51.341746951721376
 20
16.200968748028206
 10
-51.24165955523474
 20
16.2
 10
-51.14155717367484
 20
16.2
 10
-51.04145479211494
 20
16.2
 10
-50.94135241055504
 20
16.2
 10
-50.84125002899515
 20
16.2
 10
-50.74114764743525
 20
16.2
 10
-50.64104526587535
 20
16.2
 10
-50.54094288431545
 20
16.2
 10
-50.440840502755556
 20
16.2
 10
-50.340738121195656
 20
16.2
 10
-50.240635739635756
 20
16.2
 10
-50.14053335807586
 20
16.2
 10
-50.04043097651596
 20
16.2
 10
-49.940328594956064
 20
16.2
 10
-49.840226213396164
 20
16.2
 10
-49.740123831836264
 20
16.2
 10
-49.640021450276365
 20
16.2
 10
-49.53991906871647
 20
16.2
 10
-49.43986153018145
 20
16.202011489801855
 10
-49.34056028394553
 20
16.214235371588778
 10
-49.24322942930715
 20
16.237405730354027
 10
-49.149071802691935
 20
16.27123622163242
 10
-49.059251025065336
 20
16.315308760661853
 10
-48.97487712164503
 20
16.369078689168123
 10
-48.89699280396153
 20
16.43188150637344
 10
-48.82656058379636
 20
16.502941081045346
 10
-48.7644508782466
 20
16.58137924309974
 10
-48.71143125291617
 20
16.66622663622274
 10
-48.66815693616875
 20
16.756434697392418
 10
-48.635162721669424
 20
16.850888615254625
 10
-48.612856359285196
 20
16.948421107210546
 10
-48.601513516021136
 20
17.04782684495558
 10
-48.6
 20
17.147899960566605
 10
-48.6
 20
17.248002342126505
 10
-48.6
 20
17.348104723686397
 10
-48.6
 20
17.448207105246297
 10
-48.6
 20
17.548309486806197
 10
-48.6
 20
17.648411868366097
 10
-48.6
 20
17.748514249925993
 10
-48.6
 20
17.84861663148589
 10
-48.6
 20
17.94871901304579
 10
-48.6
 20
18.04882139460569
 10
-48.6
 20
18.148923776165585
 10
-48.6
 20
18.249026157725485
 10
-48.6
 20
18.34912853928538
 10
-48.6
 20
18.44923092084528
 10
-48.6
 20
18.54933330240518
 10
-48.6
 20
18.649435683965077
 10
-48.6
 20
18.749538065524977
 10
-48.6
 20
18.849640447084873
 10
-48.6
 20
18.949742828644773
 10
-48.6
 20
19.049845210204673
 10
-48.6
 20
19.14994759176457
 10
-48.6
 20
19.25004997332447
 10
-48.6
 20
19.350152354884365
 10
-48.6
 20
19.45025473644426
 10
-48.6
 20
19.550357118004165
 10
-48.6
 20
19.65045949956406
 10
-48.6
 20
19.75056188112396
 10
-48.6
 20
19.850664262683857
 10
-48.6
 20
19.950766644243753
 10
-48.6
 20
20.050869025803657
 10
-48.6
 20
20.150971407363553
 10
-48.6
 20
20.25107378892345
 10
-48.6
 20
20.35117617048335
 10
-48.6
 20
20.451278552043245
 10
-48.6
 20
20.55138093360315
 10
-48.6
 20
20.65148331516304
 10
-48.60147797536128
 20
20.751557455708497
 10
-48.61275269826636
 20
20.850970942788276
 10
-48.63499222135762
 20
20.94851869726075
 10
-48.66792170364489
 20
21.042995202203727
 10
-48.71113419523628
 20
21.133232895882212
 10
-48.76409566651579
 20
21.218116600736902
 10
-48.82615160780048
 20
21.29659730499737
 10
-48.89653511791723
 20
21.367705126603674
 10
-48.974376381738594
 20
21.430561299225317
 10
-49.058713419552284
 20
21.484389032251702
 10
-49.14850397542119
 20
21.528523110543876
 10
-49.24263839761488
 20
21.562418115311687
 10
-49.339953351933296
 20
21.58565516452094
 10
-49.439246198450526
 20
21.597947089531054
 10
-49.46071014599261
 20
21.600858016010775
 10
-49.361152043220955
 20
21.610774918876956
 10
-49.26330985448969
 20
21.63168106376844
 10
-49.168392735405284
 20
21.663318087880462
 10
-49.07757369291064
 20
21.70529501380774
 10
-48.99197508900349
 20
21.75709308133052
 10
-48.9126547703363
 20
21.818072158369162
 10
-48.840592995111265
 20
21.887478651879242
 10
-48.77668031883062
 20
21.964454820922615
 10
-48.72170658861299
 20
22.048049376821353
 10
-48.67635118208639
 20
22.137229239395566
 10
-48.64117461148791
 20
22.230892303998843
 10
-48.616611596728305
 20
22.327881061573457
 10
-48.602965693026384
 20
22.426996903405662
 10
-48.6
 20
22.527018992169285
 10
-48.6
 20
22.62712137372918
 10
-48.6
 20
22.727223755289078
 10
-48.6
 20
22.82732613684898
 10
-48.6
 20
22.927428518408878
 10
-48.6
 20
23.027530899968774
 10
-48.6
 20
23.127633281528674
 10
-48.6
 20
23.22773566308857
 10
-48.6
 20
23.327838044648473
 10
-48.6
 20
23.427940426208366
 10
-48.6
 20
23.528042807768266
 10
-48.6
 20
23.628145189328166
 10
-48.6
 20
23.728247570888062
 10
-48.6
 20
23.82834995244796
 10
-48.6
 20
23.928452334007858
 10
-48.6
 20
24.028554715567758
 10
-48.6
 20
24.128657097127657
 10
-48.6
 20
24.228759478687557
 10
-48.6
 20
24.328861860247454
 10
-48.6
 20
24.42896424180735
 10
-48.6
 20
24.52906662336725
 10
-48.6
 20
24.629169004927153
 10
-48.6
 20
24.729271386487046
 10
-48.6
 20
24.829373768046946
 10
-48.6
 20
24.92947614960684
 10
-48.6
 20
25.02957853116674
 10
-48.6
 20
25.12968091272664
 10
-48.6
 20
25.22978329428654
 10
-48.6
 20
25.32988567584644
 10
-48.6
 20
25.429988057406337
 10
-48.6
 20
25.530090438966237
 10
-48.6
 20
25.630192820526137
 10
-48.6
 20
25.73029520208603
 10
-48.6
 20
25.830397583645933
 10
-48.6
 20
25.93049996520583
 10
-48.6
 20
26.03060234676573
 10
-48.6
 20
26.13070472832563
 10
-48.6
 20
26.23080710988553
 10
-48.6
 20
26.33090949144543
 10
-48.6
 20
26.431011873005325
 10
-48.6
 20
26.531114254565225
 10
-48.6
 20
26.63121663612512
 10
-48.6
 20
26.731319017685017
 10
-48.6
 20
26.831421399244917
 10
-48.6
 20
26.931523780804817
 10
-48.63162616236472
 20
27.0
 10
-48.73172854392462
 20
27.0
 10
-48.83183092548452
 20
27.0
 10
-48.93193330704442
 20
27.0
 10
-49.03203568860431
 20
27.0
 10
-49.1321380701642
 20
27.0
 10
-49.2322404517241
 20
27.0
 10
-49.33234283328401
 20
27.0
 10
-49.43244521484391
 20
27.0
 10
-49.5325475964038
 20
27.0
 10
-49.6326499779637
 20
27.0
 10
-49.7327523595236
 20
27.0
 10
-49.8328547410835
 20
27.0
 10
-49.9329571226434
 20
27.0
 10
-50.033059504203294
 20
27.0
 10
-50.133161885763194
 20
27.0
 10
-50.233264267323094
 20
27.0
 10
-50.33336664888299
 20
27.0
 10
-50.43346903044289
 20
27.0
 10
-50.533571412002786
 20
27.0
 10
-50.63367379356269
 20
27.0
 10
-50.733776175122586
 20
27.0
 10
-50.833878556682485
 20
27.0
 10
-50.933980938242385
 20
27.0
 10
-51.03408331980228
 20
27.0
 10
-51.13418570136218
 20
27.0
 10
-51.23428808292208
 20
27.0
 10
-51.334390464481984
 20
27.0
 10
-51.434492846041884
 20
27.0
 10
-51.53459522760178
 20
27.0
 10
-51.63469760916167
 20
27.0
 10
-51.73479999072157
 20
27.0
 10
-51.83490237228147
 20
27.0
 10
-51.935004753841376
 20
27.0
 10
-52.03510713540127
 20
27.0
 10
-52.13520951696117
 20
27.0
 10
-52.23531189852107
 20
27.0
 10
-52.33541428008097
 20
27.0
 10
-52.43551666164086
 20
27.0
 10
-52.53561904320076
 20
27.0
 10
-52.63572142476066
 20
27.0
 10
-52.73582380632056
 20
27.0
 10
-52.83592618788046
 20
27.0
 10
-52.93602856944036
 20
27.0
 10
-53.03613095100025
 20
27.0
 10
-53.13622354547481
 20
26.999270734958742
 10
-53.235814886110944
 20
26.98969338353765
 10
-53.333727796071
 20
26.96912100270549
 10
-53.42875224575975
 20
26.93780783053629
 10
-53.51971390181873
 20
26.896140842200733
 10
-53.60548863979997
 20
26.84463496764064
 10
-53.685016436346764
 20
26.78392672794981
 10
-53.757314469199
 20
26.71476636910426
 10
-53.821489263129955
 20
26.638008590255023
 10
-53.87674773171257
 20
26.554601981165263
 10
-53.922406978458554
 20
26.465577299326252
 10
-53.9579027362056
 20
26.372034731626243
 10
-53.982796340456886
 20
26.275130297995325
 10
-53.99678015049491
 20
26.176061565053146
 10
-54.000318648725944
 20
26.123947153686707
 10
-54.00853591089245
 20
26.22365992815636
 10
-54.02777008524466
 20
26.32184448563327
 10
-54.05778347156293
 20
26.417287439441598
 10
-54.098205157720216
 20
26.50880928425555
 10
-54.148535603496974
 20
26.595278972689478
 10
-54.20815281401067
 20
26.6756278930339
 10
-54.27632002646736
 20
26.74886307539752
 10
-54.352194815240765
 20
26.81407946305078
 10
-54.43483950275614
 20
26.870471097318937
 10
-54.52323274751911
 20
26.917341077799225
 10
-54.61628216608173
 20
26.954110174811614
 10
-54.712837832961014
 20
26.98032398764845
 10
-54.811706491674684
 20
26.995658560159846
 10
-54.911666628006486
 20
27.0
 10
-55.01176900956639
 20
27.0
 10
-55.111871391126286
 20
27.0
 10
-55.211973772686186
 20
27.0
 10
-55.312076154246085
 20
27.0
 10
-55.412178535805985
 20
27.0
 10
-55.512280917365885
 20
27.0
 10
-55.61238329892578
 20
27.0
 10
-55.71248568048568
 20
27.0
 10
-55.81258806204558
 20
27.0
 10
-55.91269044360548
 20
27.0
 10
-56.01279282516538
 20
27.0
 10
-56.11289520672527
 20
27.0
 10
-56.21299758828517
 20
27.0
 10
-56.31309996984508
 20
27.0
 10
-56.413202351404976
 20
27.0
 10
-56.51330473296487
 20
27.0
 10
-56.61340711452476
 20
27.0
 10
-56.71350949608466
 20
27.0
 10
-56.81361187764456
 20
27.0
 10
-56.91371425920447
 20
27.0
 10
-57.01381664076436
 20
27.0
 10
-57.11391902232426
 20
27.0
 10
-57.21402140388416
 20
27.0
 10
-57.31412378544405
 20
27.0
 10
-57.41422616700395
 20
27.0
 10
-57.51432854856385
 20
27.0
 10
-57.614430930123746
 20
27.0
 10
-57.714533311683645
 20
27.0
 10
-57.814635693243545
 20
27.0
 10
-57.91473807480346
 20
27.0
 10
-58.01484045636335
 20
27.0
 10
-58.11494283792324
 20
27.0
 10
-58.21504521948314
 20
27.0
 10
-58.31514760104304
 20
27.0
 10
-58.41524998260294
 20
27.0
 10
-58.51535236416284
 20
27.0
 10
-58.615454745722744
 20
27.0
 10
-58.71555712728264
 20
27.0
 10
-58.81565950884254
 20
27.0
 10
-58.91576189040244
 20
27.0
 10
-59.01586427196233
 20
27.0
 10
-59.11596665352222
 20
27.0
 10
-59.216069035082135
 20
27.0
 10
-59.316171416642035
 20
27.0
 10
-59.4
 20
26.983726201798074
 10
-59.4
 20
26.883623820238174
 10
-59.4
 20
26.783521438678275
 10
-59.4
 20
26.68341905711838
 10
-59.4
 20
26.583316675558482
 10
-59.4
 20
26.483214293998586
 10
-59.4
 20
26.383111912438682
 10
-59.4
 20
26.283009530878783
 10
-59.4
 20
26.182907149318886
 10
-59.4
 20
26.082804767758986
 10
-59.4
 20
25.982702386199087
 10
-59.4
 20
25.882600004639187
 10
-59.4
 20
25.78249762307929
 10
-59.4
 20
25.682395241519394
 10
-59.4
 20
25.582292859959495
 10
-59.4
 20
25.4821904783996
 10
-59.4
 20
25.382088096839695
 10
-59.4
 20
25.2819857152798
 10
-59.4
 20
25.1818833337199
 10
-59.4
 20
25.08178095216
 10
-59.4
 20
24.9816785706001
 10
-59.4
 20
24.881576189040207
 10
-59.4
 20
24.781473807480307
 10
-59.4
 20
24.681371425920407
 10
-59.4
 20
24.581269044360507
 10
-59.4
 20
24.48116666280061
 10
-59.4
 20
24.381064281240707
 10
-59.4
 20
24.28096189968081
 10
-59.4
 20
24.18085951812091
 10
-59.4
 20
24.080757136561015
 10
-59.4
 20
23.98065475500112
 10
-59.4
 20
23.88055237344122
 10
-59.4
 20
23.780449991881323
 10
-59.4
 20
23.68034761032142
 10
-59.4
 20
23.58024522876152
 10
-59.4
 20
23.480142847201623
 10
-59.4
 20
23.38004046564172
 10
-59.4
 20
23.279938084081824
 10
-59.4
 20
23.17983570252193
 10
-59.4
 20
23.079733320962028
 10
-59.4
 20
22.97963093940213
 10
-59.4
 20
22.87952855784223
 10
-59.4
 20
22.779426176282332
 10
-59.4
 20
22.679323794722432
 10
-59.4
 20
22.579221413162536
 10
-59.39975778039831
 20
22.479120904888045
 10
-59.39188058722656
 20
22.37938068923918
 10
-59.37298133469236
 20
22.281131113954615
 10
-59.343293583976816
 20
22.185586369214782
 10
-59.30318422292949
 20
22.093927218300518
 10
-59.25314893198652
 20
22.007286405456913
 10
-59.193806058441126
 20
21.926734657187097
 10
-59.125888974769765
 20
21.85326744997514
 10
-59.05023701545135
 20
21.78779270796545
 10
-58.9677851042845
 20
21.731119582633593
 10
-58.87955220039044
 20
21.68394845311171
 10
-58.78662870568887
 20
21.646862270746908
 10
-58.690162989467595
 20
21.6203193548584
 10
-58.59134719657858
 20
21.604647728725038
 10
-58.508597485354215
 20
21.59995893419955
 10
-58.608435917644066
 20
21.59344370374674
 10
-58.70693427466105
 20
21.575887096588655
 10
-58.80287529172457
 20
21.547506081195152
 10
-58.895073308331945
 20
21.508651396489025
 10
-58.982388920815595
 20
21.459803217336148
 10
-59.063743063347836
 20
21.40156522043727
 10
-59.1381303432772
 20
21.334657123956653
 10
-59.204631465995256
 20
21.259905793084314
 10
-59.262424595784594
 20
21.17823502145149
 10
-59.31079551224798
 20
21.090654114682717
 10
-59.34914643680351
 20
20.99824541717169
 10
-59.37700342016568
 20
20.90215093622763
 10
-59.3940221995165
 20
20.8035582288941
 10
-59.399992452982204
 20
20.703685725853955
 10
-59.4
 20
20.603583354596402
 10
-59.4
 20
20.503480973036503
 10
-59.4
 20
20.403378591476606
 10
-59.4
 20
20.303276209916703
 10
-59.4
 20
20.203173828356807
 10
-59.4
 20
20.103071446796907
 10
-59.4
 20
20.00296906523701
 10
-59.4
 20
19.902866683677114
 10
-59.4
 20
19.802764302117215
 10
-59.4
 20
19.702661920557315
 10
-59.4
 20
19.602559538997415
 10
-59.4
 20
19.50245715743752
 10
-59.4
 20
19.40235477587762
 10
-59.4
 20
19.302252394317716
 10
-59.4
 20
19.202150012757826
 10
-59.4
 20
19.102047631197923
 10
-59.4
 20
19.001945249638027
 10
-59.4
 20
18.901842868078127
 10
-59.4
 20
18.801740486518227
 10
-59.4
 20
18.701638104958327
 10
-59.4
 20
18.601535723398428
 10
-59.4
 20
18.50143334183853
 10
-59.4
 20
18.40133096027863
 10
-59.4
 20
18.301228578718735
 10
-59.4
 20
18.20112619715884
 10
-59.4
 20
18.101023815598936
 10
-59.4
 20
18.00092143403904
 10
-59.4
 20
17.90081905247914
 10
-59.4
 20
17.80071667091924
 10
-59.4
 20
17.70061428935934
 10
-59.4
 20
17.60051190779944
 10
-59.4
 20
17.50040952623955
 10
-59.4
 20
17.400307144679648
 10
-59.4
 20
17.300204763119748
 10
-59.4
 20
17.20010238155985
 10
-59.4
 20
17.1
  0
LWPOLYLINE
  5
32
330
17
100
AcDbEntity
  8
0
100
AcDbPolyline
 90
431
 70
0
 10
-73.8
 20
43.2
 10
-73.6998405035568
 20
43.2
 10
-73.59968100711359
 20
43.2
 10
-73.49952151067039
 20
43.2
 10
-73.3993620142272
 20
43.2
 10
-73.299202517784
 20
43.2
 10
-73.19904302134078
 20
43.2
 10
-73.09888352489759
 20
43.2
 10
-72.99872402845438
 20
43.2
 10
-72.89856453201118
 20
43.2
 10
-72.79840503556798
 20
43.2
 10
-72.69824553912478
 20
43.2
 10
-72.59808604268157
 20
43.2
 10
-72.49792654623838
 20
43.2
 10
-72.39776704979516
 20
43.2
 10
-72.29760755335197
 20
43.2
 10
-72.19744805690877
 20
43.2
 10
-72.09728856046557
 20
43.2
 10
-71.99712906402236
 20
43.2
 10
-71.89696956757916
 20
43.2
 10
-71.79681007113595
 20
43.2
 10
-71.69665057469275
 20
43.2
 10
-71.59649107824954
 20
43.2
 10
-71.49633158180634
 20
43.2
 10
-71.39617208536315
 20
43.2
 10
-71.29601258891994
 20
43.2
 10
-71.19585309247674
 20
43.2
 10
-71.09569359603353
 20
43.2
 10
-70.99553409959033
 20
43.2
 10
-70.89537460314713
 20
43.2
 10
-70.79521510670394
 20
43.2
 10
-70.69505561026072
 20
43.2
 10
-70.59489611381753
 20
43.2
 10
-70.49473661737431
 20
43.2
 10
-70.39457712093112
 20
43.2
 10
-70.2944176244879
 20
43.2
 10
-70.19425812804472
 20
43.2
 10
-70.09409863160151
 20
43.2
 10
-69.99393913515831
 20
43.2
 10
-69.8937796387151
 20
43.2
 10
-69.7936201422719
 20
43.2
 10
-69.6934606458287
 20
43.2
 10
-69.59330114938551
 20
43.2
 10
-69.4931416529423
 20
43.2
 10
-69.3929821564991
 20
43.2
 10
-69.29282266005589
 20
43.2
 10
-69.19266316361269
 20
43.2
 10
-69.09250366716948
 20
43.2
 10
-68.9923441707263
 20
43.2
 10
-68.89218467428309
 20
43.2
 10
-68.79202517783989
 20
43.2
 10
-68.69186568139668
 20
43.2
 10
-68.59170618495348
 20
43.2
 10
-68.49154668851027
 20
43.2
 10
-68.39138719206707
 20
43.2
 10
-68.29122769562387
 20
43.2
 10
-68.19106819918066
 20
43.2
 10
-68.09090870273747
 20
43.2
 10
-67.99074920629425
 20
43.2
 10
-67.89058970985106
 20
43.2
 10
-67.79043021340784
 20
43.2
 10
-67.69027071696466
 20
43.2
 10
-67.59011122052145
 20
43.2
 10
-67.48995193283267
 20
43.20005609266677
 10
-67.39006744433948
 20
43.20673921321602
 10
-67.29154307605256
 20
43.22447403758748
 10
-67.19559780249055
 20
43.25304114494775
 10
-67.10341868879975
 20
43.29208709404622
 10
-67.01614620401023
 20
43.34112879610155
 10
-66.93486011079375
 20
43.39955949172828
 10
-66.86056610629988
 20
43.46665625795505
 10
-66.79418337935411
 20
43.54158895245527
 10
-66.73653323796407
 20
43.62343048432956
 10
-66.68832894783826
 20
43.71116828436631
 10
-66.65016690763797
 20
43.80371683286695
 10
-66.62251927014525
 20
43.89993109003756
 10
-66.60572810063984
 20
43.99862066278192
 10
-66.60000114475994
 20
44.0985645326198
 10
-66.59459074179236
 20
44.19852616251227
 10
-66.57811446990016
 20
44.29726879568739
 10
-66.55077388918917
 20
44.393570757184584
 10
-66.51290726593594
 20
44.486240568802074
 10
-66.46498309793098
 20
44.57413169044046
 10
-66.40759431807645
 20
44.656156705458024
 10
-66.34145095843363
 20
44.73130077453191
 10
-66.26737136548248
 20
44.79863419156992
 10
-66.18627207528132
 20
44.85732388632711
 10
-66.09915647379401
 20
44.90664373141328
 10
-66.00710238268265
 20
44.945983526169776
 10
-65.91124872415857
 20
44.97485654626423
 10
-65.81278142987802
 20
44.992905565597326
 10
-65.71291876822198
 20
44.99990727601661
 10
-65.61289627149623
 20
45.00422494984469
 10
-65.51395144953632
 20
45.019439986786615
 10
-65.41730847884617
 20
45.04554958957952
 10
-65.3241630567007
 20
45.082230721993405
 10
-65.23566760760258
 20
45.12902955350385
 10
-65.1529170251232
 20
45.18536707422626
 10
-65.07693512553462
 20
45.25054625860849
 10
-65.00866198083207
 20
45.32376068925059
 10
-64.94894228786717
 20
45.40410453415485
 10
-64.89851491749236
 20
45.49058375396461
 10
-64.85800377301805
 20
45.582128400532305
 10
-64.82791007108428
 20
45.67760585465495
 10
-64.80860614045056
 20
45.775834839195724
 10
-64.80033081542726
 20
45.87560003421673
 10
-64.8
 20
45.975756540633235
 10
-64.8
 20
46.07591603707644
 10
-64.8
 20
46.176075533519644
 10
-64.8
 20
46.27623502996285
 10
-64.8
 20
46.376394526406045
 10
-64.8
 20
46.47655402284925
 10
-64.8
 20
46.576713519292454
 10
-64.8
 20
46.67687301573565
 10
-64.8
 20
46.777032512178856
 10
-64.8
 20
46.87719200862205
 10
-64.8
 20
46.97735150506526
 10
-64.8
 20
47.07751100150846
 10
-64.8
 20
47.17767049795167
 10
-64.8
 20
47.277829994394864
 10
-64.8
 20
47.37798949083807
 10
-64.8
 20
47.47814898728127
 10
-64.8
 20
47.57830848372447
 10
-64.8
 20
47.678467980167675
 10
-64.79656758393372
 20
47.77852749479802
 10
-64.78230011006717
 20
47.87761338850287
 10
-64.75711654132323
 20
47.974501793418746
 10
-64.72132845674699
 20
48.06799397568115
 10
-64.6753786377937
 20
48.15693322056203
 10
-64.6198355900972
 20
48.24021914370877
 10
-64.55538650973904
 20
48.31682130544597
 10
-64.48282878104229
 20
48.38579195969971
 10
-64.40306011108129
 20
48.4462777798105
 10
-64.31706742296711
 20
48.49753041615951
 10
-64.225914645324
 20
48.538915754985766
 10
-64.1307295490291
 20
48.56992176384134
 10
-64.03268979407612
 20
48.5901648266181
 10
-63.93300835919489
 20
48.599394489767015
 10
-63.83285626729969
 20
48.6
 10
-63.732696770856485
 20
48.6
 10
-63.63253727441328
 20
48.6
 10
-63.53237777797009
 20
48.6
 10
-63.432218281526886
 20
48.6
 10
-63.33205878508368
 20
48.6
 10
-63.23189928864048
 20
48.6
 10
-63.13173979219727
 20
48.6
 10
-63.03158029575408
 20
48.6
 10
-63.0
 20
48.66857920068913
 10
-63.0
 20
48.768738697132335
 10
-63.0
 20
48.86889819357553
 10
-63.0
 20
48.96905769001874
 10
-63.0
 20
49.06921718646194
 10
-63.0
 20
49.16937668290514
 10
-63.0
 20
49.26953617934834
 10
-63.0
 20
49.36969567579154
 10
-63.0
 20
49.469855172234745
 10
-63.0
 20
49.57001466867795
 10
-63.0
 20
49.67017416512115
 10
-63.0
 20
49.77033366156435
 10
-63.0
 20
49.870493158007555
 10
-63.0
 20
49.97065265445076
 10
-63.0
 20
50.070812150893964
 10
-63.0
 20
50.17097164733717
 10
-63.0
 20
50.271131143780366
 10
-63.0
 20
50.37129064022358
 10
-63.0
 20
50.471450136666775
 10
-63.0
 20
50.57160963310998
 10
-63.0
 20
50.67176912955318
 10
-63.0
 20
50.77192862599638
 10
-63.0
 20
50.872088122439585
 10
-63.0
 20
50.97224761888278
 10
-63.0
 20
51.07240711532599
 10
-63.0
 20
51.17256661176919
 10
-63.0
 20
51.272726108212396
 10
-63.0
 20
51.37288560465559
 10
-63.0
 20
51.4730451010988
 10
-63.0
 20
51.573204597541995
 10
-63.0
 20
51.6733640939852
 10
-63.0
 20
51.773523590428404
 10
-63.0
 20
51.8736830868716
 10
-63.0
 20
51.973842583314806
 10
-63.0
 20
52.07400207975801
 10
-63.0
 20
52.174161576201215
 10
-63.0
 20
52.27432107264441
 10
-63.0
 20
52.374480569087616
 10
-63.0
 20
52.47464006553082
 10
-63.0
 20
52.57479956197402
 10
-63.0
 20
52.67495905841722
 10
-63.0
 20
52.77511855486043
 10
-63.0
 20
52.875278051303624
 10
-63.0
 20
52.97543754774683
 10
-63.0
 20
53.07559704419003
 10
-63.0
 20
53.17575654063324
 10
-63.0
 20
53.27591603707644
 10
-63.0
 20
53.376075533519646
 10
-63.0
 20
53.476235029962844
 10
-63.0
 20
53.57639452640605
 10
-63.0
 20
53.67655402284925
 10
-63.0
 20
53.77671351929246
 10
-63.0
 20
53.876873015735654
 10
-63.0
 20
53.97703251217886
 10
-63.07719200862206
 20
54.0
 10
-63.17735150506527
 20
54.0
 10
-63.27751100150846
 20
54.0
 10
-63.37767049795166
 20
54.0
 10
-63.47782999439487
 20
54.0
 10
-63.57798949083807
 20
54.0
 10
-63.678148987281276
 20
54.0
 10
-63.77830848372448
 20
54.0
 10
-63.87846798016767
 20
54.0
 10
-63.978627476610875
 20
54.0
 10
-64.07878697305408
 20
54.0
 10
-64.17894646949729
 20
54.0
 10
-64.27910596594049
 20
54.0
 10
-64.3792654623837
 20
54.0
 10
-64.4794249588269
 20
54.0
 10
-64.57958445527011
 20
54.0
 10
-64.67974395171329
 20
54.0
 10
-64.7799034481565
 20
54.0
 10
-64.8800629445997
 20
54.0
 10
-64.98022244104291
 20
54.0
 10
-65.08038193748611
 20
54.0
 10
-65.18054143392932
 20
54.0
 10
-65.28070093037252
 20
54.0
 10
-65.38086042681572
 20
54.0
 10
-65.48101992325891
 20
54.0
 10
-65.58117941970212
 20
54.0
 10
-65.68133891614532
 20
54.0
 10
-65.78149841258853
 20
54.0
 10
-65.88165790903173
 20
54.0
 10
-65.98181740547493
 20
54.0
 10
-66.08197690191813
 20
54.0
 10
-66.18213639836134
 20
54.0
 10
-66.28229589480453
 20
54.0
 10
-66.38245539124775
 20
54.0
 10
-66.48261488769094
 20
54.0
 10
-66.58277438413414
 20
54.0
 10
-66.68293388057735
 20
54.0
 10
-66.78309337702055
 20
54.0
 10
-66.88325287346376
 20
54.0
 10
-66.98341236990696
 20
54.0
 10
-67.08357186635017
 20
54.0
 10
-67.18373136279335
 20
54.0
 10
-67.28389085923656
 20
54.0
 10
-67.38405035567976
 20
54.0
 10
-67.48420985212297
 20
54.0
 10
-67.58436934856617
 20
54.0
 10
-67.68452884500938
 20
54.0
 10
-67.78468834145258
 20
54.0
 10
-67.88484783789578
 20
54.0
 10
-67.98500733433897
 20
54.0
 10
-68.08516683078219
 20
54.0
 10
-68.18532632722538
 20
54.0
 10
-68.2854858236686
 20
54.0
 10
-68.38564532011179
 20
54.0
 10
-68.485804816555
 20
54.0
 10
-68.58596431299819
 20
54.0
 10
-68.6861238094414
 20
54.0
 10
-68.7862833058846
 20
54.0
 10
-68.8864428023278
 20
54.0
 10
-68.98660229877099
 20
54.0
 10
-69.0867617952142
 20
54.0
 10
-69.1869212916574
 20
54.0
 10
-69.28708078810061
 20
54.0
 10
-69.38724028454381
 20
54.0
 10
-69.48739978098702
 20
54.0
 10
-69.58755927743022
 20
54.0
 10
-69.68771877387341
 20
54.0
 10
-69.78787827031663
 20
54.0
 10
-69.88803776675982
 20
54.0
 10
-69.98819726320303
 20
54.0
 10
-70.08835675964623
 20
54.0
 10
-70.18851625608944
 20
54.0
 10
-70.28867575253264
 20
54.0
 10
-70.38883524897584
 20
54.0
 10
-70.48899474541903
 20
54.0
 10
-70.58915424186225
 20
54.0
 10
-70.68931373830544
 20
54.0
 10
-70.78947323474866
 20
54.0
 10
-70.88963273119185
 20
54.0
 10
-70.98979222763506
 20
54.0
 10
-71.08995172407825
 20
54.0
 10
-71.19011122052146
 20
54.0
 10
-71.29027071696466
 20
54.0
 10
-71.39043021340787
 20
54.0
 10
-71.49058970985105
 20
54.0
 10
-71.59074920629426
 20
54.0
 10
-71.69090870273746
 20
54.0
 10
-71.79106819918067
 20
54.0
 10
-71.89122769562387
 20
54.0
 10
-71.99138719206708
 20
54.0
 10
-72.09154668851028
 20
54.0
 10
-72.19170618495347
 20
54.0
 10
-72.29186568139667
 20
54.0
 10
-72.39202517783988
 20
54.0
 10
-72.49218467428308
 20
54.0
 10
-72.59234417072629
 20
54.0
 10
-72.69250366716949
 20
54.0
 10
-72.7926631636127
 20
54.0
 10
-72.8928226600559
 20
54.0
 10
-72.9929821564991
 20
54.0
 10
-73.09314165294231
 20
54.0
 10
-73.1933011493855
 20
54.0
 10
-73.29346064582872
 20
54.0
 10
-73.39362014227191
 20
54.0
 10
-73.49377963871513
 20
54.0
 10
-73.59393913515831
 20
54.0
 10
-73.69409863160152
 20
54.0
 10
-73.79425812804472
 20
54.0
 10
-73.8
 20
53.90558237551208
 10
-73.8
 20
53.80542287906888
 10
-73.8
 20
53.705263382625674
 10
-73.8
 20
53.60510388618247
 10
-73.8
 20
53.50494438973927
 10
-73.8
 20
53.40478489329607
 10
-73.8
 20
53.30462539685287
 10
-73.8
 20
53.204465900409666
 10
-73.8
 20
53.10430640396646
 10
-73.8
 20
53.00414690752326
 10
-73.8
 20
52.90398741108005
 10
-73.8
 20
52.803827914636855
 10
-73.8
 20
52.70366841819365
 10
-73.8
 20
52.60350892175045
 10
-73.8
 20
52.50334942530725
 10
-73.8
 20
52.403189928864045
 10
-73.8
 20
52.30303043242084
 10
-73.8
 20
52.20287093597764
 10
-73.8
 20
52.10271143953444
 10
-73.8
 20
52.002551943091234
 10
-73.8
 20
51.90239244664804
 10
-73.8
 20
51.80223295020483
 10
-73.8
 20
51.702073453761635
 10
-73.8
 20
51.60191395731843
 10
-73.8
 20
51.501754460875226
 10
-73.8
 20
51.40159496443202
 10
-73.8
 20
51.30143546798882
 10
-73.8
 20
51.20127597154562
 10
-73.8
 20
51.101116475102415
 10
-73.8
 20
51.00095697865922
 10
-73.8
 20
50.900797482216014
 10
-73.8
 20
50.80063798577281
 10
-73.8
 20
50.700478489329605
 10
-73.8
 20
50.6003189928864
 10
-73.8
 20
50.500159496443196
 10
-73.8
 20
50.39999999999999
 10
-73.8
 20
50.299840503556794
 10
-73.8
 20
50.19968100711359
 10
-73.8
 20
50.09952151067039
 10
-73.8
 20
49.99936201422719
 10
-73.8
 20
49.89920251778398
 10
-73.8
 20
49.79904302134078
 10
-73.8
 20
49.698883524897575
 10
-73.8
 20
49.59872402845438
 10
-73.8
 20
49.49856453201117
 10
-73.8
 20
49.398405035567976
 10
-73.8
 20
49.29824553912477
 10
-73.8
 20
49.198086042681574
 10
-73.8
 20
49.09792654623837
 10
-73.8
 20
48.997767049795165
 10
-73.8
 20
48.89760755335196
 10
-73.8
 20
48.797448056908756
 10
-73.8
 20
48.69728856046556
 10
-73.79712906402236
 20
48.6
 10
-73.69696956757916
 20
48.6
 10
-73.59681007113595
 20
48.6
 10
-73.49665057469275
 20
48.6
 10
-73.39649107824954
 20
48.6
 10
-73.29633158180634
 20
48.6
 10
-73.19617208536314
 20
48.6
 10
-73.09601258891995
 20
48.6
 10
-72.99585309247674
 20
48.6
 10
-72.90430638753382
 20
48.599989697177925
 10
-73.00423148032452
 20
48.59394395714125
 10
-73.10286698840879
 20
48.57683806088351
 10
-73.1989925622114
 20
48.54888364794138
 10
-73.29141890585471
 20
48.51042657911714
 10
-73.37900249150178
 20
48.461942657379865
 10
-73.46065970744303
 20
48.40403174108125
 10
-73.53538026488165
 20
48.33741032231908
 10
-73.6022396975448
 20
48.26290266227137
 10
-73.66041079947149
 20
48.18143059317738
 10
-73.7091738594654
 20
48.09400211313883
 10
-73.74792556558842
 20
48.001698914849825
 10
-73.77618646952598
 20
47.90566300255419
 10
-73.79360691847266
 20
47.8070825628092
 10
-73.79997138114686
 20
47.707177263867194
 10
-73.8
 20
47.607017843500905
 10
-73.8
 20
47.5068583470577
 10
-73.8
 20
47.406698850614504
 10
-73.8
 20
47.3065393541713
 10
-73.8
 20
47.2063798577281
 10
-73.8
 20
47.1062203612849
 10
-73.8
 20
47.00606086484169
 10
-73.8
 20
46.90590136839849
 10
-73.8
 20
46.805741871955284
 10
-73.8
 20
46.70558237551209
 10
-73.8
 20
46.60542287906888
 10
-73.8
 20
46.505263382625685
 10
-73.8
 20
46.40510388618248
 10
-73.8
 20
46.304944389739276
 10
-73.8
 20
46.20478489329608
 10
-73.8
 20
46.104625396852875
 10
-73.8
 20
46.00446590040967
 10
-73.8
 20
45.904306403966466
 10
-73.8
 20
45.80414690752327
 10
-73.8
 20
45.703987411080064
 10
-73.8
 20
45.60382791463686
 10
-73.8
 20
45.503668418193655
 10
-73.8
 20
45.40350892175045
 10
-73.8
 20
45.303349425307246
 10
-73.8
 20
45.20318992886404
 10
-73.8
 20
45.103030432420844
 10
-73.8
 20
45.00287093597764
 10
-73.8
 20
44.90271143953444
 10
-73.8
 20
44.80255194309124
 10
-73.8
 20
44.702392446648034
 10
-73.8
 20
44.60223295020484
 10
-73.8
 20
44.50207345376163
 10
-73.8
 20
44.40191395731843
 10
-73.8
 20
44.30175446087522
 10
-73.8
 20
44.201594964432026
 10
-73.8
 20
44.10143546798882
 10
-73.8
 20
44.001275971545624
 10
-73.8
 20
43.90111647510242
 10
-73.8
 20
43.800956978659215
 10
-73.8
 20
43.70079748221602
 10
-73.8
 20
43.60063798577281
 10
-73.8
 20
43.50047848932961
 10
-73.8
 20
43.400318992886405
 10
-73.8
 20
43.30015949644321
 10
-73.8
 20
43.2
  0
LWPOLYLINE
  5
33
330
17
100
AcDbEntity
  8
0
100
AcDbPolyline
 90
519
 70
0
 10
-59.4
 20
43.2
 10
-59.299928387396626
 20
43.2
 10
-59.19985677479325
 20
43.2
 10
-59.09978516218986
 20
43.2
 10
-58.99971354958648
 20
43.2
 10
-58.89964193698311
 20
43.2
 10
-58.799570324379715
 20
43.2
 10
-58.69949871177634
 20
43.2
 10
-58.59942709917296
 20
43.2
 10
-58.499355486569584
 20
43.2
 10
-58.39928387396621
 20
43.2
 10
-58.29921226136282
 20
43.2
 10
-58.199140648759446
 20
43.2
 10
-58.09906903615607
 20
43.2
 10
-57.99899742355268
 20
43.2
 10
-57.8989258109493
 20
43.2
 10
-57.79885419834593
 20
43.2
 10
-57.69878258574255
 20
43.2
 10
-57.59871097313916
 20
43.2
 10
-57.49863936053578
 20
43.2
 10
-57.398567747932404
 20
43.2
 10
-57.298496135329025
 20
43.2
 10
-57.198424522725645
 20
43.2
 10
-57.098352910122266
 20
43.2
 10
-56.998281297518886
 20
43.2
 10
-56.89820968491551
 20
43.2
 10
-56.79813807231213
 20
43.2
 10
-56.69806645970875
 20
43.2
 10
-56.59799484710537
 20
43.2
 10
-56.49792323450198
 20
43.2
 10
-56.39785162189861
 20
43.2
 10
-56.297780009295224
 20
43.2
 10
-56.19770839669185
 20
43.2
 10
-56.09763678408847
 20
43.2
 10
-55.99756517148509
 20
43.2
 10
-55.897493558881706
 20
43.2
 10
-55.797421946278334
 20
43.2
 10
-55.697350333674954
 20
43.2
 10
-55.59727872107157
 20
43.2
 10
-55.49720710846819
 20
43.2
 10
-55.39713549586481
 20
43.2
 10
-55.29706388326144
 20
43.2
 10
-55.19699227065805
 20
43.2
 10
-55.09692065805467
 20
43.2
 10
-54.99684904545129
 20
43.2
 10
-54.89677743284791
 20
43.2
 10
-54.79670582024453
 20
43.2
 10
-54.696634207641154
 20
43.2
 10
-54.596562595037774
 20
43.2
 10
-54.49649098243439
 20
43.2
 10
-54.396419369831015
 20
43.2
 10
-54.29634775722763
 20
43.2
 10
-54.19627614462426
 20
43.2
 10
-54.09620453202087
 20
43.2
 10
-53.9961329194175
 20
43.2
 10
-53.89606130681412
 20
43.2
 10
-53.79598969421074
 20
43.2
 10
-53.69591808160735
 20
43.2
 10
-53.59584646900397
 20
43.2
 10
-53.4957748564006
 20
43.2
 10
-53.395703243797215
 20
43.2
 10
-53.295631631193835
 20
43.2
 10
-53.195560018590456
 20
43.2
 10
-53.09548840598708
 20
43.2
 10
-52.9954167933837
 20
43.2
 10
-52.89534518078032
 20
43.2
 10
-52.79527356817694
 20
43.2
 10
-52.69520195557356
 20
43.2
 10
-52.59513034297018
 20
43.2
 10
-52.4950587303668
 20
43.2
 10
-52.39498711776342
 20
43.2
 10
-52.294915505160034
 20
43.2
 10
-52.19484389255666
 20
43.2
 10
-52.094772279953276
 20
43.2
 10
-51.9947006673499
 20
43.2
 10
-51.89462905474652
 20
43.2
 10
-51.794557442143144
 20
43.2
 10
-51.694485829539765
 20
43.2
 10
-51.59441421693638
 20
43.2
 10
-51.494342604333
 20
43.2
 10
-51.39427099172962
 20
43.2
 10
-51.29419937912624
 20
43.2
 10
-51.19412776652286
 20
43.2
 10
-51.09405615391948
 20
43.2
 10
-50.9939845413161
 20
43.2
 10
-50.89391292871273
 20
43.2
 10
-50.793841316109344
 20
43.2
 10
-50.693769703505964
 20
43.2
 10
-50.593698090902585
 20
43.2
 10
-50.4936264782992
 20
43.2
 10
-50.393554865695826
 20
43.2
 10
-50.29348325309245
 20
43.2
 10
-50.19341164048907
 20
43.2
 10
-50.09334002788568
 20
43.2
 10
-49.99326841528231
 20
43.2
 10
-49.89319680267892
 20
43.2
 10
-49.79312519007555
 20
43.2
 10
-49.69305357747216
 20
43.2
 10
-49.592981964868784
 20
43.2
 10
-49.49291042558775
 20
43.20002792380283
 10
-49.3930917680856
 20
43.206372208383755
 10
-49.29459349513199
 20
43.22375336362534
 10
-49.198632122942165
 20
43.2519567212237
 10
-49.10639283539604
 20
43.29063395180399
 10
-49.01901484626477
 20
43.33930736700932
 10
-48.93757732919723
 20
43.39737581925536
 10
-48.86308608924027
 20
43.46412212628466
 10
-48.79646114050766
 20
43.53872192882296
 10
-48.73852534342165
 20
43.62025387193966
 10
-48.68999424186423
 20
43.70771098436626
 10
-48.65146722575581
 20
43.800013115230925
 10
-48.623420128209155
 20
43.89602027460763
 10
-48.606199348688264
 20
43.99454671311562
 10
-48.60001757475504
 20
44.09437556667717
 10
-48.6
 20
44.19444714266988
 10
-48.6
 20
44.294518755273266
 10
-48.6
 20
44.394590367876646
 10
-48.6
 20
44.494661980480025
 10
-48.6
 20
44.594733593083404
 10
-48.6
 20
44.694805205686784
 10
-48.6
 20
44.79487681829016
 10
-48.6
 20
44.89494843089354
 10
-48.6
 20
44.99502004349692
 10
-48.6
 20
45.0950916561003
 10
-48.6
 20
45.19516326870369
 10
-48.6
 20
45.29523488130706
 10
-48.6
 20
45.39530649391044
 10
-48.6
 20
45.49537810651382
 10
-48.6
 20
45.5954497191172
 10
-48.6
 20
45.695521331720585
 10
-48.6
 20
45.79559294432396
 10
-48.6
 20
45.89566455692734
 10
-48.6
 20
45.995736169530716
 10
-48.6
 20
46.0958077821341
 10
-48.6
 20
46.19587939473748
 10
-48.6
 20
46.29595100734086
 10
-48.6
 20
46.39602261994423
 10
-48.6
 20
46.49609423254762
 10
-48.6
 20
46.596165845151
 10
-48.6
 20
46.69623745775438
 10
-48.6
 20
46.79630907035776
 10
-48.6
 20
46.89638068296114
 10
-48.6
 20
46.99645229556452
 10
-48.6
 20
47.096523908167896
 10
-48.6
 20
47.196595520771275
 10
-48.6
 20
47.296667133374655
 10
-48.6
 20
47.396738745978034
 10
-48.6
 20
47.49681035858141
 10
-48.6
 20
47.59688197118479
 10
-48.6
 20
47.69695358378818
 10
-48.60522487491578
 20
47.796837366395955
 10
-48.62149563487636
 20
47.8955251402217
 10
-48.648616481577385
 20
47.9917980544115
 10
-48.68625245534094
 20
48.08446707734389
 10
-48.733938727993014
 20
48.17238768774286
 10
-48.79108634378662
 20
48.2544740102423
 10
-48.85698949337921
 20
48.32971222663632
 10
-48.93083423102624
 20
48.39717309717782
 10
-49.01170852732798
 20
48.45602343727943
 10
-49.09861353337168
 20
48.50553640787219
 10
-49.19047591714991
 20
48.545100492329645
 10
-49.2861611198924
 20
48.57422704908641
 10
-49.38448736858725
 20
48.5925563466718
 10
-49.48424027162806
 20
48.599862006621926
 10
-49.41581218267866
 20
48.603946200602515
 10
-49.31690440998672
 20
48.61882124122419
 10
-49.22025798409316
 20
48.64457939904607
 10
-49.12706654972615
 20
48.68090254446321
 10
-49.03848108027465
 20
48.727342063565295
 10
-48.95559566253622
 20
48.78332439880332
 10
-48.87943398405039
 20
48.84815813278954
 10
-48.81093668990744
 20
48.92104252774121
 10
-48.75094976518435
 20
49.001077415100674
 10
-48.70021408649184
 20
49.08727431318863
 10
-48.65935627167781
 20
49.17856863558055
 10
-48.62888094069903
 20
49.273832839424955
 10
-48.60916448324426
 20
49.37189035131369
 10
-48.600450410082594
 20
49.471530098710545
 10
-48.6
 20
49.57159696105537
 10
-48.6
 20
49.67166857365875
 10
-48.6
 20
49.77174018626213
 10
-48.6
 20
49.87181179886551
 10
-48.6
 20
49.97188341146889
 10
-48.6
 20
50.07195502407227
 10
-48.6
 20
50.172026636675646
 10
-48.6
 20
50.27209824927903
 10
-48.6
 20
50.372169861882405
 10
-48.6
 20
50.47224147448579
 10
-48.6
 20
50.572313087089164
 10
-48.6
 20
50.67238469969254
 10
-48.6
 20
50.77245631229592
 10
-48.6
 20
50.87252792489931
 10
-48.6
 20
50.97259953750268
 10
-48.6
 20
51.07267115010606
 10
-48.6
 20
51.17274276270945
 10
-48.6
 20
51.27281437531282
 10
-48.6
 20
51.372885987916206
 10
-48.6
 20
51.47295760051958
 10
-48.6
 20
51.573029213122965
 10
-48.6
 20
51.67310082572634
 10
-48.6
 20
51.77317243832972
 10
-48.6
 20
51.873244050933096
 10
-48.6
 20
51.97331566353648
 10
-48.6
 20
52.07338727613986
 10
-48.6
 20
52.17345888874324
 10
-48.6
 20
52.27353050134662
 10
-48.6
 20
52.37360211395
 10
-48.6
 20
52.47367372655338
 10
-48.6
 20
52.57374533915675
 10
-48.6
 20
52.67381695176014
 10
-48.6
 20
52.77388856436352
 10
-48.6
 20
52.8739601769669
 10
-48.6
 20
52.974031789570276
 10
-48.6
 20
53.074103402173655
 10
-48.603054899552546
 20
53.17409107087431
 10
-48.61681509201973
 20
53.273160094467165
 10
-48.64148317890367
 20
53.37009048094046
 10
-48.67675449366765
 20
53.46368507847256
 10
-48.72219341317782
 20
53.55278793435341
 10
-48.77723873792551
 20
53.63629857173452
 10
-48.84121062319748
 20
53.71318558121677
 10
-48.913318975589895
 20
53.7824993594115
 10
-48.992673211163456
 20
53.843383837145254
 10
-49.07829325472062
 20
53.8950870524577
 10
-49.169121644356586
 20
53.936970437809315
 10
-49.26403659178531
 20
53.96851670679597
 10
-49.361865837137124
 20
53.98933624296448
 10
-49.461401127112474
 20
53.99917191182321
 10
-49.561460897108944
 20
54.0
 10
-49.66153250971232
 20
54.0
 10
-49.7616041223157
 20
54.0
 10
-49.86167573491908
 20
54.0
 10
-49.96174734752247
 20
54.0
 10
-50.06181896012584
 20
54.0
 10
-50.16189057272923
 20
54.0
 10
-50.2619621853326
 20
54.0
 10
-50.362033797935986
 20
54.0
 10
-50.46210541053936
 20
54.0
 10
-50.562177023142745
 20
54.0
 10
-50.66224863574612
 20
54.0
 10
-50.7623202483495
 20
54.0
 10
-50.86239186095288
 20
54.0
 10
-50.96246347355626
 20
54.0
 10
-51.06253508615964
 20
54.0
 10
-51.16260669876302
 20
54.0
 10
-51.2626783113664
 20
54.0
 10
-51.36274992396978
 20
54.0
 10
-51.46282153657316
 20
54.0
 10
-51.56289314917654
 20
54.0
 10
-51.66296476177992
 20
54.0
 10
-51.7630363743833
 20
54.0
 10
-51.86310798698668
 20
54.0
 10
-51.963179599590056
 20
54.0
 10
-52.063251212193435
 20
54.0
 10
-52.16332282479682
 20
54.0
 10
-52.263394437400194
 20
54.0
 10
-52.363466050003574
 20
54.0
 10
-52.46353766260695
 20
54.0
 10
-52.56360927521033
 20
54.0
 10
-52.66368088781371
 20
54.0
 10
-52.76375250041709
 20
54.0
 10
-52.86382411302048
 20
54.0
 10
-52.96389572562386
 20
54.0
 10
-53.06396733822723
 20
54.0
 10
-53.16403895083061
 20
54.0
 10
-53.264110563433995
 20
54.0
 10
-53.36418217603737
 20
54.0
 10
-53.464253788640754
 20
54.0
 10
-53.564325401244126
 20
54.0
 10
-53.664397013847505
 20
54.0
 10
-53.76446862645089
 20
54.0
 10
-53.864540239054264
 20
54.0
 10
-53.96461185165765
 20
54.0
 10
-54.0
 20
53.93531653573897
 10
-54.0
 20
53.8352449231356
 10
-54.0
 20
53.73517331053221
 10
-54.0
 20
53.63510169792883
 10
-54.0
 20
53.53503008532546
 10
-54.0
 20
53.43495847272207
 10
-54.0
 20
53.3348868601187
 10
-54.0
 20
53.234815247515314
 10
-54.0
 20
53.134743634911935
 10
-54.0
 20
53.03467202230856
 10
-54.0
 20
52.93460040970518
 10
-54.0
 20
52.8345287971018
 10
-54.0
 20
52.73445718449842
 10
-54.0
 20
52.63438557189504
 10
-54.0
 20
52.53431395929166
 10
-54.0
 20
52.434242346688286
 10
-54.0
 20
52.3341707340849
 10
-54.0
 20
52.23409912148153
 10
-54.0
 20
52.13402750887814
 10
-54.0
 20
52.03395589627476
 10
-54.0
 20
51.93388428367138
 10
-54.0
 20
51.833812671068
 10
-54.0
 20
51.733741058464624
 10
-54.0
 20
51.633669445861244
 10
-54.0
 20
51.533597833257865
 10
-54.0
 20
51.433526220654485
 10
-54.0
 20
51.333454608051106
 10
-53.997535666942426
 20
51.23344380895644
 10
-53.984607910668096
 20
51.13426272482198
 10
-53.96075468499024
 20
51.03712860127553
 10
-53.92627059239226
 20
50.94324110642095
 10
-53.88158153331438
 20
50.8537598104362
 10
-53.827239446012804
 20
50.76978986414537
 10
-53.76391548977175
 20
50.69236834970425
 10
-53.692391755660125
 20
50.622451471977165
 10
-53.61355160721022
 20
50.56090274879973
 10
-53.528368770317165
 20
50.508482345985286
 10
-53.437895307105855
 20
50.465837688794416
 10
-53.34324862229561
 20
50.43349546582185
 10
-53.24559766254244
 20
50.411855124057915
 10
-53.146148479205515
 20
50.40118393546454
 10
-53.25322447656522
 20
50.38686090216071
 10
-53.35068586639778
 20
50.36438220503918
 10
-53.44505112660026
 20
50.33122783882152
 10
-53.53515478628927
 20
50.287807280982825
 10
-53.61988400805378
 20
50.2346568029835
 10
-53.69819233220379
 20
50.17243284697626
 10
-53.76911260121198
 20
50.101903918328624
 10
-53.83176890472325
 20
50.023941094093736
 10
-53.88538739760385
 20
49.9395072646556
 10
-53.92930585742015
 20
49.84964524142141
 10
-53.962981863306126
 20
49.75546487743856
 10
-53.98599949520556
 20
49.6581293600047
 10
-53.998074470748804
 20
49.55884084456608
 10
-54.0
 20
49.5411887692161
 10
-54.0
 20
49.64126038181948
 10
-54.0
 20
49.741331994422865
 10
-54.0
 20
49.84140360702624
 10
-54.0
 20
49.94147521962962
 10
-54.0
 20
50.041546832232996
 10
-54.0
 20
50.141618444836375
 10
-54.0
 20
50.241690057439754
 10
-54.0
 20
50.341761670043134
 10
-54.0
 20
50.44183328264652
 10
-54.0
 20
50.5419048952499
 10
-54.0
 20
50.64197650785327
 10
-54.0
 20
50.74204812045665
 10
-54.0
 20
50.84211973306004
 10
-54.0
 20
50.94219134566341
 10
-54.0
 20
51.0422629582668
 10
-54.0
 20
51.14233457087017
 10
-54.0
 20
51.24240618347355
 10
-54.0010022379073
 20
51.34246202718105
 10
-54.011265493531184
 20
51.44195413700074
 10
-54.03250518463703
 20
51.53969302309069
 10
-54.06445898755294
 20
51.63447154814562
 10
-54.10673225252293
 20
51.725119137198796
 10
-54.158802877882025
 20
51.81051623496616
 10
-54.22002775834331
 20
51.88960813306499
 10
-54.28965072775665
 20
51.96141799633213
 10
-54.3668118982407
 20
52.025058927358536
 10
-54.45055828034432
 20
52.07974492023542
 10
-54.5398555530714
 20
52.124800568226334
 10
-54.63360083840193
 20
52.15966940546925
 10
-54.73063632253587
 20
52.18392077968324
 10
-54.829763555628745
 20
52.197255170997686
 10
-54.929758253408224
 20
52.20049210878721
 10
-55.029385417862265
 20
52.20934888219651
 10
-55.127414590248776
 20
52.22920576245477
 10
-55.222635048042406
 20
52.25981750448211
 10
-55.31387075812646
 20
52.300806033826696
 10
-55.399994901548745
 20
52.351665116124295
 10
-55.47994379045102
 20
52.411766609414144
 10
-55.552730005289526
 20
52.480368222090945
 10
-55.61745459009336
 20
52.55662268067763
 10
-55.67331815514149
 20
52.63958819419071
 10
-55.71963074993341
 20
52.72824008585702
 10
-55.755820384515964
 20
52.82148344852244
 10
-55.78144009392243
 20
52.91816666745057
 10
-55.79617345847366
 20
53.0170956434959
 10
-55.8001614882379
 20
53.11704854098652
 10
-55.807610011947595
 20
53.21679087817049
 10
-55.82608011865797
 20
53.3150907738494
 10
-55.85534369082302
 20
53.410734161893295
 10
-55.89503930474479
 20
53.50253978572838
 10
-55.94467669438549
 20
53.58937378760572
 10
-56.00364280646439
 20
53.67016371246442
 10
-56.07120937205512
 20
53.743911753432634
 10
-56.14654190116934
 20
53.809707075376004
 10
-56.22870998923797
 20
53.86673706428992
 10
-56.31669880819841
 20
53.91429736359851
 10
-56.40942164026552
 20
53.95180057340555
 10
-56.50573329958629
 20
53.978783505256196
 10
-56.604444276012295
 20
53.99491290280853
 10
-56.704335443072665
 20
54.0
 10
-56.80440705567605
 20
54.0
 10
-56.904478668279424
 20
54.0
 10
-57.0045502808828
 20
54.0
 10
-57.10462189348619
 20
54.0
 10
-57.20469350608956
 20
54.0
 10
-57.30476511869295
 20
54.0
 10
-57.40483673129633
 20
54.0
 10
-57.5049083438997
 20
54.0
 10
-57.60497995650308
 20
54.0
 10
-57.70505156910646
 20
54.0
 10
-57.805123181709845
 20
54.0
 10
-57.905194794313225
 20
54.0
 10
-58.005266406916604
 20
54.0
 10
-58.10533801951998
 20
54.0
 10
-58.205409632123356
 20
54.0
 10
-58.30548124472674
 20
54.0
 10
-58.40555285733012
 20
54.0
 10
-58.505624433322836
 20
53.99998242524496
 10
-58.60545328688439
 20
53.99380065131174
 10
-58.70397972539238
 20
53.97657987179085
 10
-58.79998688476908
 20
53.94853277424419
 10
-58.89228901563375
 20
53.910005758135775
 10
-58.97974612806035
 20
53.861474656578345
 10
-59.06127807117704
 20
53.803538859492335
 10
-59.13587787371535
 20
53.736913910759725
 10
-59.20262418074465
 20
53.66242267080277
 10
-59.26069263299068
 20
53.58098515373523
 10
-59.30936604819602
 20
53.49360716460395
 10
-59.348043278776295
 20
53.40136787705784
 10
-59.37624663637467
 20
53.305406504868
 10
-59.393627791616254
 20
53.2069082319144
 10
-59.39997207619717
 20
53.10708957441224
 10
-59.4
 20
53.00701803513122
 10
-59.4
 20
52.90694642252783
 10
-59.4
 20
52.80687480992446
 10
-59.4
 20
52.70680319732107
 10
-59.4
 20
52.60673158471769
 10
-59.4
 20
52.50665997211431
 10
-59.4
 20
52.40658835951093
 10
-59.4
 20
52.306516746907555
 10
-59.4
 20
52.206445134304175
 10
-59.4
 20
52.106373521700796
 10
-59.4
 20
52.00630190909742
 10
-59.4
 20
51.90623029649404
 10
-59.4
 20
51.80615868389065
 10
-59.4
 20
51.70608707128728
 10
-59.4
 20
51.6060154586839
 10
-59.4
 20
51.50594384608051
 10
-59.4
 20
51.40587223347714
 10
-59.4
 20
51.305800620873754
 10
-59.4
 20
51.20572900827038
 10
-59.4
 20
51.105657395667
 10
-59.4
 20
51.00558578306362
 10
-59.4
 20
50.90551417046024
 10
-59.4
 20
50.805442557856864
 10
-59.4
 20
50.70537094525348
 10
-59.4
 20
50.6052993326501
 10
-59.4
 20
50.50522772004672
 10
-59.4
 20
50.40515610744334
 10
-59.4
 20
50.30508449483997
 10
-59.4
 20
50.20501288223658
 10
-59.4
 20
50.10494126963321
 10
-59.4
 20
50.00486965702982
 10
-59.4
 20
49.90479804442644
 10
-59.4
 20
49.80472643182307
 10
-59.4
 20
49.704654819219684
 10
-59.4
 20
49.604583206616304
 10
-59.4
 20
49.504511594012925
 10
-59.4
 20
49.404439981409546
 10
-59.4
 20
49.30436836880616
 10
-59.4
 20
49.204296756202794
 10
-59.4
 20
49.10422514359941
 10
-59.4
 20
49.004153530996035
 10
-59.4
 20
48.90408191839265
 10
-59.4
 20
48.80401030578927
 10
-59.4
 20
48.70393869318589
 10
-59.4
 20
48.6038670805825
 10
-59.4
 20
48.50379546797913
 10
-59.4
 20
48.40372385537575
 10
-59.4
 20
48.30365224277237
 10
-59.4
 20
48.203580630168986
 10
-59.4
 20
48.103509017565614
 10
-59.4
 20
48.00343740496223
 10
-59.4
 20
47.903365792358855
 10
-59.4
 20
47.803294179755476
 10
-59.4
 20
47.70322256715209
 10
-59.4
 20
47.60315095454872
 10
-59.4
 20
47.50307934194533
 10
-59.4
 20
47.40300772934195
 10
-59.4
 20
47.30293611673858
 10
-59.4
 20
47.2028645041352
 10
-59.4
 20
47.10279289153181
 10
-59.4
 20
47.00272127892844
 10
-59.4
 20
46.902649666325054
 10
-59.4
 20
46.802578053721675
 10
-59.4
 20
46.702506441118295
 10
-59.4
 20
46.602434828514916
 10
-59.4
 20
46.502363215911544
 10
-59.4
 20
46.40229160330816
 10
-59.4
 20
46.30221999070478
 10
-59.4
 20
46.2021483781014
 10
-59.4
 20
46.10207676549802
 10
-59.4
 20
46.00200515289465
 10
-59.4
 20
45.90193354029126
 10
-59.4
 20
45.80186192768788
 10
-59.4
 20
45.7017903150845
 10
-59.4
 20
45.60171870248112
 10
-59.4
 20
45.501647089877736
 10
-59.4
 20
45.40157547727437
 10
-59.4
 20
45.301503864670984
 10
-59.4
 20
45.201432252067605
 10
-59.4
 20
45.101360639464225
 10
-59.4
 20
45.001289026860846
 10
-59.4
 20
44.90121741425747
 10
-59.4
 20
44.80114580165408
 10
-59.4
 20
44.70107418905071
 10
-59.4
 20
44.60100257644733
 10
-59.4
 20
44.50093096384395
 10
-59.4
 20
44.40085935124056
 10
-59.4
 20
44.30078773863719
 10
-59.4
 20
44.200716126033804
 10
-59.4
 20
44.10064451343043
 10
-59.4
 20
44.00057290082705
 10
-59.4
 20
43.900501288223666
 10
-59.4
 20
43.80042967562029
 10
-59.4
 20
43.70035806301691
 10
-59.4
 20
43.60028645041353
 10
-59.4
 20
43.500214837810155
 10
-59.4
 20
43.400143225206776
 10
-59.4
 20
43.30007161260339
 10
-59.4
 20
43.2
  0
LWPOLYLINE
  5
34
330
17
100
AcDbEntity
  8
0
100
AcDbPolyline
 90
498
 70
0
 10
-45.0
 20
44.1
 10
-44.99443879956114
 20
44.00010388476208
 10
-44.97782392480083
 20
43.90144230801284
 10
-44.95036070604975
 20
43.805234551538746
 10
-44.912388539894955
 20
43.71266957226763
 10
-44.86437669484108
 20
43.62489130887361
 10
-44.80691851198541
 20
43.54298454472759
 10
-44.7407240723762
 20
43.46796150190226
 10
-44.666611421672584
 20
43.40074933190581
 10
-44.5854964605537
 20
43.342178657736646
 10
-44.498381625813714
 20
43.292973308858976
 10
-44.40634350202415
 20
43.25374137595675
 10
-44.310519516861476
 20
43.22496769601322
 10
-44.21209388452201
 20
43.20700786058736
 10
-44.11228297093855
 20
43.20008382133394
 10
-44.01218097071693
 20
43.2
 10
-43.91207858915703
 20
43.2
 10
-43.811976207597134
 20
43.2
 10
-43.71187382603724
 20
43.2
 10
-43.61177144447734
 20
43.2
 10
-43.51166906291744
 20
43.2
 10
-43.41156668135754
 20
43.2
 10
-43.31146429979764
 20
43.2
 10
-43.21136191823775
 20
43.2
 10
-43.11125953667785
 20
43.2
 10
-43.01115715511795
 20
43.2
 10
-42.91105477355805
 20
43.2
 10
-42.81095239199815
 20
43.2
 10
-42.71085001043826
 20
43.2
 10
-42.61074762887836
 20
43.2
 10
-42.51064524731846
 20
43.2
 10
-42.41054286575856
 20
43.2
 10
-42.31044048419866
 20
43.2
 10
-42.210338102638765
 20
43.2
 10
-42.110235721078865
 20
43.2
 10
-42.010133339518966
 20
43.2
 10
-41.910030957959066
 20
43.2
 10
-41.809928576399166
 20
43.2
 10
-41.70982619483927
 20
43.2
 10
-41.60972381327937
 20
43.2
 10
-41.509621431719474
 20
43.2
 10
-41.409519050159574
 20
43.2
 10
-41.309416668599674
 20
43.2
 10
-41.20931428703978
 20
43.2
 10
-41.10921190547988
 20
43.2
 10
-41.00910952391998
 20
43.2
 10
-40.90900714236008
 20
43.2
 10
-40.80890476080018
 20
43.2
 10
-40.70880237924029
 20
43.2
 10
-40.60869999768039
 20
43.2
 10
-40.50859761612049
 20
43.2
 10
-40.40849523456059
 20
43.2
 10
-40.30839285300069
 20
43.2
 10
-40.2082904714408
 20
43.2
 10
-40.1081880898809
 20
43.2
 10
-40.008085708321
 20
43.2
 10
-39.9079833267611
 20
43.2
 10
-39.8078809452012
 20
43.2
 10
-39.707778563641305
 20
43.2
 10
-39.607676182081406
 20
43.2
 10
-39.6
 20
43.2924261994785
 10
-39.6
 20
43.39252858103839
 10
-39.6
 20
43.49263096259829
 10
-39.6
 20
43.59273334415819
 10
-39.6
 20
43.69283572571809
 10
-39.6
 20
43.79293810727799
 10
-39.6
 20
43.89304048883788
 10
-39.6
 20
43.99314287039778
 10
-39.6
 20
44.09324525195768
 10
-39.59516334902315
 20
44.19318035504141
 10
-39.579289417584754
 20
44.29196385108523
 10
-39.55254903126866
 20
44.388375015011476
 10
-39.51527265373737
 20
44.48122237613764
 10
-39.4679209547844
 20
44.56935850605163
 10
-39.41107911727419
 20
44.6516941987882
 10
-39.345449605321654
 20
44.7272119314794
 10
-39.27184348308383
 20
44.794978439129274
 10
-39.19117039144804
 20
44.85415624811095
 10
-39.10442730648675
 20
44.9040140258527
 10
-39.01268621860475
 20
44.94393561880908
 10
-38.91708088464245
 20
44.97342766702392
 10
-38.818792816655844
 20
44.992125701182836
 10
-38.71903668052675
 20
44.99979864680634
 10
-38.61904528485076
 20
45.00364832008017
 10
-38.52005434561348
 20
45.01817260109055
 10
-38.423287214936515
 20
45.0435947019183
 10
-38.32993976261896
 20
45.07960045056723
 10
-38.24116559731147
 20
45.12574487995916
 10
-38.15806180996308
 20
45.18145772693633
 10
-38.0816554157264
 20
45.246050479700834
 10
-38.01289066187512
 20
45.318724886597074
 10
-37.95261735858544
 20
45.398582821083885
 10
-37.90158037679228
 20
45.48463738098278
 10
-37.86041044290796
 20
45.57582508483538
 10
-37.82961634416444
 20
45.6710190146446
 10
-37.80957864090717
 20
45.76904274257882
 10
-37.800544963545356
 20
45.868684869529574
 10
-37.800000000000004
 20
45.831219071036074
 10
-37.800000000000004
 20
45.73111668947618
 10
-37.800000000000004
 20
45.63101430791628
 10
-37.800000000000004
 20
45.53091192635638
 10
-37.800000000000004
 20
45.43080954479648
 10
-37.800000000000004
 20
45.33070716323658
 10
-37.800000000000004
 20
45.23060478167669
 10
-37.800000000000004
 20
45.13050240011679
 10
-37.800000000000004
 20
45.0304000185569
 10
-37.800000000000004
 20
44.93029763699699
 10
-37.800000000000004
 20
44.8301952554371
 10
-37.800000000000004
 20
44.7300928738772
 10
-37.800000000000004
 20
44.629990492317305
 10
-37.800000000000004
 20
44.529888110757405
 10
-37.800000000000004
 20
44.429785729197505
 10
-37.800000000000004
 20
44.329683347637605
 10
-37.800000000000004
 20
44.229580966077705
 10
-37.800000000000004
 20
44.12947858451781
 10
-37.797230465647246
 20
44.029448660434916
 10
-37.78385548430647
 20
43.930295896156345
 10
-37.75955761961633
 20
43.833240373070595
 10
-37.72463715001188
 20
43.73948152499452
 10
-37.67952563045067
 20
43.650178044699366
 10
-37.6247805591602
 20
43.566433564526946
 10
-37.56107848795045
 20
43.48928301745477
 10
-37.489206661235556
 20
43.41967984716337
 10
-37.41005328709168
 20
43.358484225166464
 10
-37.32459656058332
 20
43.3064524206194
 10
-37.23389257501041
 20
43.26422745417612
 10
-37.13906227047153
 20
43.23233115139646
 10
-37.04127758103607
 20
43.21115769390932
 10
-36.94174695172138
 20
43.2009687480282
 10
-36.84165955523474
 20
43.2
 10
-36.741557173674835
 20
43.2
 10
-36.64145479211494
 20
43.2
 10
-36.54135241055504
 20
43.2
 10
-36.44125002899515
 20
43.2
 10
-36.34114764743525
 20
43.2
 10
-36.24104526587534
 20
43.2
 10
-36.14094288431545
 20
43.2
 10
-36.04084050275556
 20
43.2
 10
-35.94073812119566
 20
43.2
 10
-35.84063573963576
 20
43.2
 10
-35.74053335807585
 20
43.2
 10
-35.64043097651596
 20
43.2
 10
-35.540328594956065
 20
43.2
 10
-35.440226213396166
 20
43.2
 10
-35.340123831836266
 20
43.2
 10
-35.24002145027636
 20
43.2
 10
-35.13991906871647
 20
43.2
 10
-35.039861530181454
 20
43.202011489801855
 10
-34.94056028394553
 20
43.21423537158878
 10
-34.84322942930715
 20
43.23740573035403
 10
-34.74907180269194
 20
43.27123622163242
 10
-34.65925102506534
 20
43.31530876066186
 10
-34.574877121645024
 20
43.36907868916812
 10
-34.49699280396153
 20
43.43188150637344
 10
-34.42656058379636
 20
43.50294108104535
 10
-34.3644508782466
 20
43.58137924309974
 10
-34.31143125291617
 20
43.66622663622274
 10
-34.26815693616875
 20
43.756434697392415
 10
-34.235162721669425
 20
43.85088861525462
 10
-34.2128563592852
 20
43.94842110721054
 10
-34.20151351602114
 20
44.04782684495559
 10
-34.2
 20
44.147899960566605
 10
-34.2
 20
44.248002342126505
 10
-34.2
 20
44.348104723686404
 10
-34.2
 20
44.448207105246304
 10
-34.2
 20
44.5483094868062
 10
-34.2
 20
44.6484118683661
 10
-34.2
 20
44.74851424992599
 10
-34.2
 20
44.848616631485896
 10
-34.2
 20
44.948719013045796
 10
-34.2
 20
45.04882139460569
 10
-34.2
 20
45.14892377616558
 10
-34.2
 20
45.24902615772548
 10
-34.2
 20
45.34912853928539
 10
-34.2
 20
45.44923092084529
 10
-34.2
 20
45.549333302405174
 10
-34.2
 20
45.64943568396507
 10
-34.2
 20
45.74953806552497
 10
-34.2
 20
45.84964044708488
 10
-34.2
 20
45.94974282864478
 10
-34.2
 20
46.049845210204666
 10
-34.2
 20
46.149947591764565
 10
-34.2
 20
46.250049973324465
 10
-34.2
 20
46.35015235488437
 10
-34.2
 20
46.450254736444265
 10
-34.2
 20
46.55035711800416
 10
-34.2
 20
46.65045949956406
 10
-34.2
 20
46.750561881123964
 10
-34.2
 20
46.85066426268386
 10
-34.2
 20
46.95076664424376
 10
-34.2
 20
47.05086902580365
 10
-34.2
 20
47.15097140736355
 10
-34.2
 20
47.25107378892345
 10
-34.2
 20
47.35117617048335
 10
-34.2
 20
47.45127855204325
 10
-34.2
 20
47.55138093360314
 10
-34.2
 20
47.65148331516304
 10
-34.20147797536128
 20
47.75155745570849
 10
-34.212752698266364
 20
47.85097094278827
 10
-34.23499222135762
 20
47.948518697260745
 10
-34.26792170364489
 20
48.04299520220373
 10
-34.311134195236285
 20
48.13323289588221
 10
-34.364095666515794
 20
48.2181166007369
 10
-34.426151607800485
 20
48.29659730499737
 10
-34.49653511791723
 20
48.367705126603674
 10
-34.57437638173859
 20
48.43056129922531
 10
-34.65871341955228
 20
48.4843890322517
 10
-34.748503975421194
 20
48.52852311054388
 10
-34.84263839761488
 20
48.56241811531169
 10
-34.93995335193329
 20
48.585655164520944
 10
-35.03924619845052
 20
48.597947089531054
 10
-35.06071014599261
 20
48.60085801601078
 10
-34.961152043220956
 20
48.610774918876956
 10
-34.86330985448969
 20
48.63168106376845
 10
-34.768392735405286
 20
48.66331808788046
 10
-34.67757369291064
 20
48.70529501380774
 10
-34.59197508900349
 20
48.75709308133052
 10
-34.512654770336304
 20
48.818072158369155
 10
-34.44059299511127
 20
48.88747865187924
 10
-34.37668031883062
 20
48.96445482092261
 10
-34.32170658861299
 20
49.04804937682135
 10
-34.276351182086394
 20
49.137229239395566
 10
-34.24117461148791
 20
49.23089230399884
 10
-34.216611596728306
 20
49.327881061573464
 10
-34.202965693026385
 20
49.426996903405666
 10
-34.2
 20
49.52701899216929
 10
-34.2
 20
49.62712137372918
 10
-34.2
 20
49.72722375528908
 10
-34.2
 20
49.82732613684898
 10
-34.2
 20
49.92742851840888
 10
-34.2
 20
50.02753089996878
 10
-34.2
 20
50.127633281528674
 10
-34.2
 20
50.22773566308857
 10
-34.2
 20
50.32783804464847
 10
-34.2
 20
50.427940426208366
 10
-34.2
 20
50.52804280776827
 10
-34.2
 20
50.628145189328166
 10
-34.2
 20
50.728247570888065
 10
-34.2
 20
50.82834995244796
 10
-34.2
 20
50.92845233400786
 10
-34.2
 20
51.028554715567765
 10
-34.2
 20
51.12865709712766
 10
-34.2
 20
51.22875947868756
 10
-34.2
 20
51.32886186024745
 10
-34.2
 20
51.42896424180736
 10
-34.2
 20
51.52906662336726
 10
-34.2
 20
51.62916900492715
 10
-34.2
 20
51.72927138648705
 10
-34.2
 20
51.82937376804695
 10
-34.2
 20
51.92947614960684
 10
-34.2
 20
52.02957853116675
 10
-34.2
 20
52.12968091272664
 10
-34.2
 20
52.22978329428654
 10
-34.2
 20
52.32988567584644
 10
-34.2
 20
52.42998805740634
 10
-34.2
 20
52.53009043896624
 10
-34.2
 20
52.63019282052613
 10
-34.2
 20
52.73029520208603
 10
-34.2
 20
52.83039758364593
 10
-34.2
 20
52.93049996520583
 10
-34.2
 20
53.03060234676573
 10
-34.2
 20
53.130704728325625
 10
-34.2
 20
53.230807109885525
 10
-34.2
 20
53.330909491445425
 10
-34.2
 20
53.43101187300533
 10
-34.2
 20
53.531114254565225
 10
-34.2
 20
53.63121663612512
 10
-34.2
 20
53.73131901768502
 10
-34.2
 20
53.83142139924492
 10
-34.2
 20
53.93152378080482
 10
-34.23162616236472
 20
54.0
 10
-34.33172854392462
 20
54.0
 10
-34.43183092548452
 20
54.0
 10
-34.53193330704441
 20
54.0
 10
-34.632035688604304
 20
54.0
 10
-34.732138070164204
 20
54.0
 10
-34.832240451724104
 20
54.0
 10
-34.93234283328401
 20
54.0
 10
-35.032445214843904
 20
54.0
 10
-35.1325475964038
 20
54.0
 10
-35.2326499779637
 20
54.0
 10
-35.3327523595236
 20
54.0
 10
-35.4328547410835
 20
54.0
 10
-35.532957122643396
 20
54.0
 10
-35.633059504203295
 20
54.0
 10
-35.733161885763195
 20
54.0
 10
-35.833264267323095
 20
54.0
 10
-35.933366648882995
 20
54.0
 10
-36.03346903044289
 20
54.0
 10
-36.13357141200279
 20
54.0
 10
-36.233673793562694
 20
54.0
 10
-36.33377617512259
 20
54.0
 10
-36.43387855668249
 20
54.0
 10
-36.53398093824238
 20
54.0
 10
-36.63408331980228
 20
54.0
 10
-36.73418570136218
 20
54.0
 10
-36.83428808292208
 20
54.0
 10
-36.934390464481986
 20
54.0
 10
-37.03449284604188
 20
54.0
 10
-37.13459522760178
 20
54.0
 10
-37.23469760916167
 20
54.0
 10
-37.33479999072157
 20
54.0
 10
-37.43490237228147
 20
54.0
 10
-37.53500475384137
 20
54.0
 10
-37.63510713540127
 20
54.0
 10
-37.73520951696117
 20
54.0
 10
-37.83531189852107
 20
54.0
 10
-37.93541428008097
 20
54.0
 10
-38.035516661640855
 20
54.0
 10
-38.13561904320076
 20
54.0
 10
-38.23572142476066
 20
54.0
 10
-38.33582380632056
 20
54.0
 10
-38.43592618788046
 20
54.0
 10
-38.536028569440354
 20
54.0
 10
-38.636130951000254
 20
54.0
 10
-38.73622354547481
 20
53.99927073495874
 10
-38.835814886110946
 20
53.98969338353765
 10
-38.933727796071004
 20
53.969121002705485
 10
-39.028752245759755
 20
53.937807830536286
 10
-39.119713901818734
 20
53.89614084220074
 10
-39.20548863979997
 20
53.844634967640644
 10
-39.285016436346766
 20
53.78392672794981
 10
-39.357314469199
 20
53.71476636910426
 10
-39.421489263129956
 20
53.638008590255026
 10
-39.476747731712564
 20
53.55460198116526
 10
-39.52240697845855
 20
53.465577299326256
 10
-39.55790273620559
 20
53.372034731626236
 10
-39.58279634045688
 20
53.275130297995325
 10
-39.59678015049491
 20
53.176061565053146
 10
-39.600318648725946
 20
53.12394715368671
 10
-39.60853591089245
 20
53.223659928156366
 10
-39.62777008524466
 20
53.32184448563327
 10
-39.65778347156293
 20
53.4172874394416
 10
-39.69820515772022
 20
53.508809284255555
 10
-39.748535603496975
 20
53.59527897268948
 10
-39.80815281401067
 20
53.675627893033905
 10
-39.87632002646736
 20
53.748863075397516
 10
-39.952194815240766
 20
53.81407946305079
 10
-40.03483950275614
 20
53.87047109731894
 10
-40.12323274751911
 20
53.91734107779922
 10
-40.21628216608173
 20
53.95411017481162
 10
-40.312837832961016
 20
53.980323987648454
 10
-40.411706491674686
 20
53.995658560159846
 10
-40.51166662800649
 20
54.0
 10
-40.61176900956639
 20
54.0
 10
-40.71187139112629
 20
54.0
 10
-40.81197377268619
 20
54.0
 10
-40.91207615424609
 20
54.0
 10
-41.01217853580599
 20
54.0
 10
-41.11228091736588
 20
54.0
 10
-41.21238329892578
 20
54.0
 10
-41.31248568048568
 20
54.0
 10
-41.41258806204558
 20
54.0
 10
-41.51269044360548
 20
54.0
 10
-41.61279282516537
 20
54.0
 10
-41.71289520672527
 20
54.0
 10
-41.81299758828517
 20
54.0
 10
-41.91309996984508
 20
54.0
 10
-42.01320235140497
 20
54.0
 10
-42.11330473296486
 20
54.0
 10
-42.21340711452476
 20
54.0
 10
-42.31350949608466
 20
54.0
 10
-42.41361187764456
 20
54.0
 10
-42.51371425920446
 20
54.0
 10
-42.61381664076436
 20
54.0
 10
-42.71391902232426
 20
54.0
 10
-42.81402140388416
 20
54.0
 10
-42.914123785444055
 20
54.0
 10
-43.014226167003955
 20
54.0
 10
-43.11432854856385
 20
54.0
 10
-43.214430930123754
 20
54.0
 10
-43.314533311683654
 20
54.0
 10
-43.414635693243554
 20
54.0
 10
-43.51473807480345
 20
54.0
 10
-43.614840456363346
 20
54.0
 10
-43.71494283792324
 20
54.0
 10
-43.815045219483146
 20
54.0
 10
-43.915147601043046
 20
54.0
 10
-44.01524998260294
 20
54.0
 10
-44.11535236416284
 20
54.0
 10
-44.21545474572274
 20
54.0
 10
-44.31555712728264
 20
54.0
 10
-44.41565950884254
 20
54.0
 10
-44.51576189040244
 20
54.0
 10
-44.61586427196233
 20
54.0
 10
-44.71596665352223
 20
54.0
 10
-44.81606903508213
 20
54.0
 10
-44.91617141664203
 20
54.0
 10
-45.0
 20
53.98372620179808
 10
-45.0
 20
53.88362382023818
 10
-45.0
 20
53.78352143867827
 10
-45.0
 20
53.68341905711838
 10
-45.0
 20
53.583316675558486
 10
-45.0
 20
53.483214293998586
 10
-45.0
 20
53.383111912438686
 10
-45.0
 20
53.283009530878786
 10
-45.0
 20
53.182907149318886
 10
-45.0
 20
53.08280476775899
 10
-45.0
 20
52.98270238619909
 10
-45.0
 20
52.88260000463919
 10
-45.0
 20
52.78249762307929
 10
-45.0
 20
52.682395241519394
 10
-45.0
 20
52.582292859959495
 10
-45.0
 20
52.482190478399595
 10
-45.0
 20
52.382088096839695
 10
-45.0
 20
52.281985715279795
 10
-45.0
 20
52.1818833337199
 10
-45.0
 20
52.08178095216
 10
-45.0
 20
51.9816785706001
 10
-45.0
 20
51.8815761890402
 10
-45.0
 20
51.7814738074803
 10
-45.0
 20
51.68137142592041
 10
-45.0
 20
51.58126904436051
 10
-45.0
 20
51.48116666280061
 10
-45.0
 20
51.38106428124071
 10
-45.0
 20
51.28096189968081
 10
-45.0
 20
51.18085951812091
 10
-45.0
 20
51.08075713656102
 10
-45.0
 20
50.98065475500112
 10
-45.0
 20
50.88055237344122
 10
-45.0
 20
50.78044999188132
 10
-45.0
 20
50.68034761032143
 10
-45.0
 20
50.58024522876152
 10
-45.0
 20
50.48014284720162
 10
-45.0
 20
50.38004046564172
 10
-45.0
 20
50.27993808408182
 10
-45.0
 20
50.179835702521935
 10
-45.0
 20
50.079733320962035
 10
-45.0
 20
49.979630939402135
 10
-45.0
 20
49.87952855784223
 10
-45.0
 20
49.77942617628233
 10
-45.0
 20
49.679323794722436
 10
-45.0
 20
49.579221413162536
 10
-44.99975778039832
 20
49.47912090488804
 10
-44.99188058722656
 20
49.37938068923918
 10
-44.972981334692356
 20
49.281131113954615
 10
-44.94329358397681
 20
49.18558636921478
 10
-44.90318422292949
 20
49.09392721830052
 10
-44.85314893198652
 20
49.00728640545692
 10
-44.79380605844113
 20
48.9267346571871
 10
-44.72588897476976
 20
48.853267449975135
 10
-44.65023701545136
 20
48.78779270796545
 10
-44.567785104284496
 20
48.731119582633596
 10
-44.479552200390444
 20
48.68394845311171
 10
-44.38662870568887
 20
48.64686227074691
 10
-44.290162989467596
 20
48.620319354858395
 10
-44.19134719657858
 20
48.60464772872504
 10
-44.10859748535421
 20
48.59995893419954
 10
-44.20843591764407
 20
48.593443703746736
 10
-44.306934274661046
 20
48.57588709658866
 10
-44.40287529172456
 20
48.54750608119515
 10
-44.495073308331946
 20
48.50865139648903
 10
-44.5823889208156
 20
48.459803217336145
 10
-44.66374306334784
 20
48.40156522043728
 10
-44.73813034327719
 20
48.33465712395665
 10
-44.80463146599526
 20
48.259905793084314
 10
-44.86242459578459
 20
48.17823502145149
 10
-44.91079551224798
 20
48.09065411468272
 10
-44.9491464368035
 20
47.99824541717169
 10
-44.97700342016567
 20
47.902150936227635
 10
-44.9940221995165
 20
47.8035582288941
 10
-44.999992452982205
 20
47.70368572585396
 10
-45.0
 20
47.60358335459641
 10
-45.0
 20
47.5034809730365
 10
-45.0
 20
47.4033785914766
 10
-45.0
 20
47.3032762099167
 10
-45.0
 20
47.2031738283568
 10
-45.0
 20
47.10307144679691
 10
-45.0
 20
47.00296906523702
 10
-45.0
 20
46.90286668367711
 10
-45.0
 20
46.80276430211721
 10
-45.0
 20
46.70266192055731
 10
-45.0
 20
46.60255953899742
 10
-45.0
 20
46.50245715743752
 10
-45.0
 20
46.40235477587762
 10
-45.0
 20
46.30225239431772
 10
-45.0
 20
46.20215001275782
 10
-45.0
 20
46.10204763119793
 10
-45.0
 20
46.00194524963803
 10
-45.0
 20
45.90184286807813
 10
-45.0
 20
45.80174048651823
 10
-45.0
 20
45.70163810495833
 10
-45.0
 20
45.601535723398435
 10
-45.0
 20
45.50143334183853
 10
-45.0
 20
45.40133096027863
 10
-45.0
 20
45.301228578718735
 10
-45.0
 20
45.201126197158835
 10
-45.0
 20
45.10102381559894
 10
-45.0
 20
45.00092143403904
 10
-45.0
 20
44.900819052479136
 10
-45.0
 20
44.800716670919236
 10
-45.0
 20
44.70061428935934
 10
-45.0
 20
44.600511907799444
 10
-45.0
 20
44.50040952623955
 10
-45.0
 20
44.40030714467965
 10
-45.0
 20
44.300204763119744
 10
-45.0
 20
44.20010238155985
 10
-45.0
 20
44.1
  0
LWPOLYLINE
  5
35
330
17
100
AcDbEntity
  8
0
100
AcDbPolyline
 90
29
 70
0
 10
-49.95
 20
25.2
 10
-49.96128243951818
 20
25.09986557971966
 10
-49.99456400944391
 20
25.0047523173971
 10
-50.048175832889385
 20
24.91942958916357
 10
-50.119429589163566
 20
24.84817583288939
 10
-50.2047523173971
 20
24.79456400944391
 10
-50.29986557971966
 20
24.76128243951818
 10
-50.4
 20
24.75
 10
-50.50013442028035
 20
24.76128243951818
 10
-50.5952476826029
 20
24.79456400944391
 10
-50.68057041083643
 20
24.84817583288939
 10
-50.75182416711062
 20
24.91942958916357
 10
-50.80543599055609
 20
25.0047523173971
 10
-50.838717560481825
 20
25.09986557971966
 10
-50.85
 20
25.2
 10
-50.838717560481825
 20
25.300134420280344
 10
-50.80543599055609
 20
25.3952476826029
 10
-50.75182416711062
 20
25.480570410836428
 10
-50.68057041083643
 20
25.551824167110613
 10
-50.5952476826029
 20
25.60543599055609
 10
-50.50013442028035
 20
25.638717560481822
 10
-50.4
 20
25.650000000000002
 10
-50.29986557971966
 20
25.638717560481822
 10
-50.2047523173971
 20
25.60543599055609
 10
-50.119429589163566
 20
25.551824167110613
 10
-50.048175832889385
 20
25.480570410836428
 10
-49.99456400944391
 20
25.3952476826029
 10
-49.96128243951818
 20
25.300134420280344
 10
-49.95
 20
25.2
  0
LWPOLYLINE
  5
36
330
17
100
AcDbEntity
  8
0
100
AcDbPolyline
 90
29
 70
0
 10
-78.75
 20
25.2
 10
-78.76128243951818
 20
25.09986557971966
 10
-78.79456400944392
 20
25.0047523173971
 10
-78.8481758328894
 20
24.91942958916357
 10
-78.91942958916357
 20
24.84817583288939
 10
-79.0047523173971
 20
24.79456400944391
 10
-79.09986557971966
 20
24.76128243951818
 10
-79.2
 20
24.75
 10
-79.30013442028034
 20
24.76128243951818
 10
-79.3952476826029
 20
24.79456400944391
 10
-79.48057041083644
 20
24.84817583288939
 10
-79.55182416711061
 20
24.91942958916357
 10
-79.60543599055609
 20
25.0047523173971
 10
-79.63871756048182
 20
25.09986557971966
 10
-79.65
 20
25.2
 10
-79.63871756048182
 20
25.300134420280344
 10
-79.60543599055609
 20
25.3952476826029
 10
-79.55182416711061
 20
25.480570410836428
 10
-79.48057041083644
 20
25.551824167110613
 10
-79.3952476826029
 20
25.60543599055609
 10
-79.30013442028034
 20
25.638717560481822
 10
-79.2
 20
25.650000000000002
 10
-79.09986557971966
 20
25.638717560481822
 10
-79.0047523173971
 20
25.60543599055609
 10
-78.91942958916357
 20
25.551824167110613
 10
-78.8481758328894
 20
25.480570410836428
 10
-78.79456400944392
 20
25.3952476826029
 10
-78.76128243951818
 20
25.300134420280344
 10
-78.75
 20
25.2
  0
LWPOLYLINE
  5
37
330
17
100
AcDbEntity
  8
0
100
AcDbPolyline
 90
29
 70
0
 10
-85.95
 20
18.0
 10
-85.96128243951819
 20
17.89986557971966
 10
-85.99456400944392
 20
17.8047523173971
 10
-86.0481758328894
 20
17.71942958916357
 10
-86.11942958916357
 20
17.648175832889386
 10
-86.2047523173971
 20
17.59456400944391
 10
-86.29986557971966
 20
17.56128243951818
 10
-86.4
 20
17.55
 10
-86.50013442028033
 20
17.56128243951818
 10
-86.5952476826029
 20
17.59456400944391
 10
-86.68057041083644
 20
17.648175832889386
 10
-86.75182416711061
 20
17.71942958916357
 10
-86.80543599055609
 20
17.8047523173971
 10
-86.83871756048181
 20
17.89986557971966
 10
-86.85000000000001
 20
18.0
 10
-86.83871756048181
 20
18.100134420280344
 10
-86.80543599055609
 20
18.1952476826029
 10
-86.75182416711061
 20
18.28057041083643
 10
-86.68057041083644
 20
18.351824167110614
 10
-86.5952476826029
 20
18.40543599055609
 10
-86.50013442028033
 20
18.438717560481823
 10
-86.4
 20
18.45
 10
-86.29986557971966
 20
18.438717560481823
 10
-86.2047523173971
 20
18.40543599055609
 10
-86.11942958916357
 20
18.351824167110614
 10
-86.0481758328894
 20
18.28057041083643
 10
-85.99456400944392
 20
18.1952476826029
 10
-85.96128243951819
 20
18.100134420280344
 10
-85.95
 20
18.0
  0
LWPOLYLINE
  5
38
330
17
100
AcDbEntity
  8
0
100
AcDbPolyline
 90
29
 70
0
 10
-71.55
 20
18.0
 10
-71.56128243951818
 20
17.89986557971966
 10
-71.59456400944391
 20
17.8047523173971
 10
-71.6481758328894
 20
17.71942958916357
 10
-71.71942958916357
 20
17.648175832889386
 10
-71.8047523173971
 20
17.59456400944391
 10
-71.89986557971966
 20
17.56128243951818
 10
-72.0
 20
17.55
 10
-72.10013442028034
 20
17.56128243951818
 10
-72.19524768260291
 20
17.59456400944391
 10
-72.28057041083643
 20
17.648175832889386
 10
-72.3518241671106
 20
17.71942958916357
 10
-72.40543599055609
 20
17.8047523173971
 10
-72.43871756048182
 20
17.89986557971966
 10
-72.45
 20
18.0
 10
-72.43871756048182
 20
18.100134420280344
 10
-72.40543599055609
 20
18.1952476826029
 10
-72.3518241671106
 20
18.28057041083643
 10
-72.28057041083643
 20
18.351824167110614
 10
-72.19524768260291
 20
18.40543599055609
 10
-72.10013442028034
 20
18.438717560481823
 10
-72.0
 20
18.45
 10
-71.89986557971966
 20
18.438717560481823
 10
-71.8047523173971
 20
18.40543599055609
 10
-71.71942958916357
 20
18.351824167110614
 10
-71.6481758328894
 20
18.28057041083643
 10
-71.59456400944391
 20
18.1952476826029
 10
-71.56128243951818
 20
18.100134420280344
 10
-71.55
 20
18.0
  0
LWPOLYLINE
  5
39
330
17
100
AcDbEntity
  8
0
100
AcDbPolyline
 90
29
 70
0
 10
-71.55
 20
25.2
 10
-71.56128243951818
 20
25.09986557971966
 10
-71.59456400944391
 20
25.0047523173971
 10
-71.6481758328894
 20
24.91942958916357
 10
-71.71942958916357
 20
24.84817583288939
 10
-71.8047523173971
 20
24.79456400944391
 10
-71.89986557971966
 20
24.76128243951818
 10
-72.0
 20
24.75
 10
-72.10013442028034
 20
24.76128243951818
 10
-72.19524768260291
 20
24.79456400944391
 10
-72.28057041083643
 20
24.84817583288939
 10
-72.3518241671106
 20
24.91942958916357
 10
-72.40543599055609
 20
25.0047523173971
 10
-72.43871756048182
 20
25.09986557971966
 10
-72.45
 20
25.2
 10
-72.43871756048182
 20
25.300134420280344
 10
-72.40543599055609
 20
25.3952476826029
 10
-72.3518241671106
 20
25.480570410836428
 10
-72.28057041083643
 20
25.551824167110613
 10
-72.19524768260291
 20
25.60543599055609
 10
-72.10013442028034
 20
25.638717560481822
 10
-72.0
 20
25.650000000000002
 10
-71.89986557971966
 20
25.638717560481822
 10
-71.8047523173971
 20
25.60543599055609
 10
-71.71942958916357
 20
25.551824167110613
 10
-71.6481758328894
 20
25.480570410836428
 10
-71.59456400944391
 20
25.3952476826029
 10
-71.56128243951818
 20
25.300134420280344
 10
-71.55
 20
25.2
  0
LWPOLYLINE
  5
3A
330
17
100
AcDbEntity
  8
0
100
AcDbPolyline
 90
29
 70
0
 10
-64.35000000000001
 20
25.2
 10
-64.36128243951819
 20
25.09986557971966
 10
-64.39456400944393
 20
25.0047523173971
 10
-64.44817583288939
 20
24.91942958916357
 10
-64.51942958916356
 20
24.84817583288939
 10
-64.6047523173971
 20
24.79456400944391
 10
-64.69986557971967
 20
24.76128243951818
 10
-64.8
 20
24.75
 10
-64.90013442028034
 20
24.76128243951818
 10
-64.99524768260291
 20
24.79456400944391
 10
-65.08057041083643
 20
24.84817583288939
 10
-65.15182416711062
 20
24.91942958916357
 10
-65.20543599055608
 20
25.0047523173971
 10
-65.23871756048182
 20
25.09986557971966
 10
-65.25
 20
25.2
 10
-65.23871756048182
 20
25.300134420280344
 10
-65.20543599055608
 20
25.3952476826029
 10
-65.15182416711062
 20
25.480570410836428
 10
-65.08057041083643
 20
25.551824167110613
 10
-64.99524768260291
 20
25.60543599055609
 10
-64.90013442028034
 20
25.638717560481822
 10
-64.8
 20
25.650000000000002
 10
-64.69986557971967
 20
25.638717560481822
 10
-64.6047523173971
 20
25.60543599055609
 10
-64.51942958916356
 20
25.551824167110613
 10
-64.44817583288939
 20
25.480570410836428
 10
-64.39456400944393
 20
25.3952476826029
 10
-64.36128243951819
 20
25.300134420280344
 10
-64.35000000000001
 20
25.2
  0
LWPOLYLINE
  5
3B
330
17
100
AcDbEntity
  8
0
100
AcDbPolyline
 90
29
 70
0
 10
-57.15
 20
18.0
 10
-57.16128243951818
 20
17.89986557971966
 10
-57.19456400944391
 20
17.8047523173971
 10
-57.24817583288939
 20
17.71942958916357
 10
-57.31942958916357
 20
17.648175832889386
 10
-57.4047523173971
 20
17.59456400944391
 10
-57.49986557971966
 20
17.56128243951818
 10
-57.6
 20
17.55
 10
-57.700134420280335
 20
17.56128243951818
 10
-57.795247682602906
 20
17.59456400944391
 10
-57.880570410836434
 20
17.648175832889386
 10
-57.95182416711061
 20
17.71942958916357
 10
-58.00543599055609
 20
17.8047523173971
 10
-58.038717560481814
 20
17.89986557971966
 10
-58.050000000000004
 20
18.0
 10
-58.038717560481814
 20
18.100134420280344
 10
-58.00543599055609
 20
18.1952476826029
 10
-57.95182416711061
 20
18.28057041083643
 10
-57.880570410836434
 20
18.351824167110614
 10
-57.795247682602906
 20
18.40543599055609
 10
-57.700134420280335
 20
18.438717560481823
 10
-57.6
 20
18.45
 10
-57.49986557971966
 20
18.438717560481823
 10
-57.4047523173971
 20
18.40543599055609
 10
-57.31942958916357
 20
18.351824167110614
 10
-57.24817583288939
 20
18.28057041083643
 10
-57.19456400944391
 20
18.1952476826029
 10
-57.16128243951818
 20
18.100134420280344
 10
-57.15
 20
18.0
  0
LWPOLYLINE
  5
3C
330
17
100
AcDbEntity
  8
0
100
AcDbPolyline
 90
27
 70
0
 10
-35.584199999999996
 20
52.2
 10
-35.596282392314244
 20
52.10049254678923
 10
-35.631827384533395
 20
52.006768105064204
 10
-35.68876923091045
 20
51.92427359870348
 10
-35.763798678309186
 20
51.85780330856142
 10
-35.85255528796771
 20
51.8112202462914
 10
-35.94988084834984
 20
51.78723165015003
 10
-36.050119151650165
 20
51.78723165015003
 10
-36.14744471203229
 20
51.8112202462914
 10
-36.23620132169082
 20
51.85780330856142
 10
-36.31123076908955
 20
51.92427359870348
 10
-36.368172615466605
 20
52.006768105064204
 10
-36.403717607685756
 20
52.10049254678923
 10
-36.415800000000004
 20
52.2
 10
-36.403717607685756
 20
52.299507453210765
 10
-36.368172615466605
 20
52.3932318949358
 10
-36.31123076908955
 20
52.47572640129653
 10
-36.23620132169082
 20
52.54219669143858
 10
-36.14744471203229
 20
52.5887797537086
 10
-36.050119151650165
 20
52.61276834984997
 10
-35.94988084834984
 20
52.61276834984997
 10
-35.85255528796771
 20
52.5887797537086
 10
-35.763798678309186
 20
52.54219669143858
 10
-35.68876923091045
 20
52.47572640129653
 10
-35.631827384533395
 20
52.3932318949358
 10
-35.596282392314244
 20
52.299507453210765
 10
-35.584199999999996
 20
52.2
  0
LWPOLYLINE
  5
3D
330
17
100
AcDbEntity
  8
0
100
AcDbPolyline
 90
27
 70
0
 10
-71.5842
 20
45.0
 10
-71.59628239231425
 20
44.90049254678924
 10
-71.6318273845334
 20
44.8067681050642
 10
-71.68876923091047
 20
44.724273598703476
 10
-71.76379867830919
 20
44.65780330856142
 10
-71.85255528796772
 20
44.6112202462914
 10
-71.94988084834984
 20
44.58723165015003
 10
-72.05011915165016
 20
44.58723165015003
 10
-72.1474447120323
 20
44.6112202462914
 10
-72.23620132169081
 20
44.65780330856142
 10
-72.31123076908955
 20
44.724273598703476
 10
-72.3681726154666
 20
44.8067681050642
 10
-72.40371760768576
 20
44.90049254678924
 10
-72.4158
 20
45.0
 10
-72.40371760768576
 20
45.09950745321077
 10
-72.3681726154666
 20
45.1932318949358
 10
-72.31123076908955
 20
45.275726401296524
 10
-72.23620132169081
 20
45.34219669143858
 10
-72.1474447120323
 20
45.388779753708604
 10
-72.05011915165016
 20
45.412768349849976
 10
-71.94988084834984
 20
45.412768349849976
 10
-71.85255528796772
 20
45.388779753708604
 10
-71.76379867830919
 20
45.34219669143858
 10
-71.68876923091047
 20
45.275726401296524
 10
-71.6318273845334
 20
45.1932318949358
 10
-71.59628239231425
 20
45.09950745321077
 10
-71.5842
 20
45.0
  0
LWPOLYLINE
  5
3E
330
17
100
AcDbEntity
  8
0
100
AcDbPolyline
 90
27
 70
0
 10
-64.38419999999999
 20
52.2
 10
-64.39628239231425
 20
52.10049254678923
 10
-64.43182738453339
 20
52.006768105064204
 10
-64.48876923091046
 20
51.92427359870348
 10
-64.5637986783092
 20
51.85780330856142
 10
-64.65255528796772
 20
51.8112202462914
 10
-64.74988084834985
 20
51.78723165015003
 10
-64.85011915165016
 20
51.78723165015003
 10
-64.9474447120323
 20
51.8112202462914
 10
-65.03620132169081
 20
51.85780330856142
 10
-65.11123076908954
 20
51.92427359870348
 10
-65.1681726154666
 20
52.006768105064204
 10
-65.20371760768576
 20
52.10049254678923
 10
-65.2158
 20
52.2
 10
-65.20371760768576
 20
52.299507453210765
 10
-65.1681726154666
 20
52.3932318949358
 10
-65.11123076908954
 20
52.47572640129653
 10
-65.03620132169081
 20
52.54219669143858
 10
-64.9474447120323
 20
52.5887797537086
 10
-64.85011915165016
 20
52.61276834984997
 10
-64.74988084834985
 20
52.61276834984997
 10
-64.65255528796772
 20
52.5887797537086
 10
-64.5637986783092
 20
52.54219669143858
 10
-64.48876923091046
 20
52.47572640129653
 10
-64.43182738453339
 20
52.3932318949358
 10
-64.39628239231425
 20
52.299507453210765
 10
-64.38419999999999
 20
52.2
  0
LWPOLYLINE
  5
3F
330
17
100
AcDbEntity
  8
0
100
AcDbPolyline
 90
27
 70
0
 10
-57.1842
 20
52.2
 10
-57.196282392314245
 20
52.10049254678923
 10
-57.231827384533396
 20
52.006768105064204
 10
-57.288769230910454
 20
51.92427359870348
 10
-57.36379867830918
 20
51.85780330856142
 10
-57.45255528796771
 20
51.8112202462914
 10
-57.549880848349844
 20
51.78723165015003
 10
-57.65011915165016
 20
51.78723165015003
 10
-57.74744471203229
 20
51.8112202462914
 10
-57.836201321690815
 20
51.85780330856142
 10
-57.91123076908954
 20
51.92427359870348
 10
-57.96817261546661
 20
52.006768105064204
 10
-58.00371760768576
 20
52.10049254678923
 10
-58.015800000000006
 20
52.2
 10
-58.00371760768576
 20
52.299507453210765
 10
-57.96817261546661
 20
52.3932318949358
 10
-57.91123076908954
 20
52.47572640129653
 10
-57.836201321690815
 20
52.54219669143858
 10
-57.74744471203229
 20
52.5887797537086
 10
-57.65011915165016
 20
52.61276834984997
 10
-57.549880848349844
 20
52.61276834984997
 10
-57.45255528796771
 20
52.5887797537086
 10
-57.36379867830918
 20
52.54219669143858
 10
-57.288769230910454
 20
52.47572640129653
 10
-57.231827384533396
 20
52.3932318949358
 10
-57.196282392314245
 20
52.299507453210765
 10
-57.1842
 20
52.2
  0
LWPOLYLINE
  5
40
330
17
100
AcDbEntity
  8
0
100
AcDbPolyline
 90
27
 70
0
 10
-57.1842
 20
45.0
 10
-57.196282392314245
 20
44.90049254678924
 10
-57.231827384533396
 20
44.8067681050642
 10
-57.288769230910454
 20
44.724273598703476
 10
-57.36379867830918
 20
44.65780330856142
 10
-57.45255528796771
 20
44.6112202462914
 10
-57.549880848349844
 20
44.58723165015003
 10
-57.65011915165016
 20
44.58723165015003
 10
-57.74744471203229
 20
44.6112202462914
 10
-57.836201321690815
 20
44.65780330856142
 10
-57.91123076908954
 20
44.724273598703476
 10
-57.96817261546661
 20
44.8067681050642
 10
-58.00371760768576
 20
44.90049254678924
 10
-58.015800000000006
 20
45.0
 10
-58.00371760768576
 20
45.09950745321077
 10
-57.96817261546661
 20
45.1932318949358
 10
-57.91123076908954
 20
45.275726401296524
 10
-57.836201321690815
 20
45.34219669143858
 10
-57.74744471203229
 20
45.388779753708604
 10
-57.65011915165016
 20
45.412768349849976
 10
-57.549880848349844
 20
45.412768349849976
 10
-57.45255528796771
 20
45.388779753708604
 10
-57.36379867830918
 20
45.34219669143858
 10
-57.288769230910454
 20
45.275726401296524
 10
-57.231827384533396
 20
45.1932318949358
 10
-57.196282392314245
 20
45.09950745321077
 10
-57.1842
 20
45.0
  0
LWPOLYLINE
  5
41
330
17
100
AcDbEntity
  8
0
100
AcDbPolyline
 90
27
 70
0
 10
-49.9842
 20
52.2
 10
-49.99628239231424
 20
52.10049254678923
 10
-50.03182738453339
 20
52.006768105064204
 10
-50.08876923091045
 20
51.92427359870348
 10
-50.163798678309185
 20
51.85780330856142
 10
-50.252555287967716
 20
51.8112202462914
 10
-50.34988084834984
 20
51.78723165015003
 10
-50.45011915165016
 20
51.78723165015003
 10
-50.54744471203229
 20
51.8112202462914
 10
-50.63620132169082
 20
51.85780330856142
 10
-50.711230769089546
 20
51.92427359870348
 10
-50.768172615466604
 20
52.006768105064204
 10
-50.803717607685755
 20
52.10049254678923
 10
-50.8158
 20
52.2
 10
-50.803717607685755
 20
52.299507453210765
 10
-50.768172615466604
 20
52.3932318949358
 10
-50.711230769089546
 20
52.47572640129653
 10
-50.63620132169082
 20
52.54219669143858
 10
-50.54744471203229
 20
52.5887797537086
 10
-50.45011915165016
 20
52.61276834984997
 10
-50.34988084834984
 20
52.61276834984997
 10
-50.252555287967716
 20
52.5887797537086
 10
-50.163798678309185
 20
52.54219669143858
 10
-50.08876923091045
 20
52.47572640129653
 10
-50.03182738453339
 20
52.3932318949358
 10
-49.99628239231424
 20
52.299507453210765
 10
-49.9842
 20
52.2
  0
LWPOLYLINE
  5
42
330
17
100
AcDbEntity
  8
0
100
AcDbPolyline
 90
27
 70
0
 10
-42.7842
 20
45.0
 10
-42.79628239231425
 20
44.90049254678924
 10
-42.8318273845334
 20
44.8067681050642
 10
-42.888769230910455
 20
44.724273598703476
 10
-42.96379867830918
 20
44.65780330856142
 10
-43.052555287967714
 20
44.6112202462914
 10
-43.14988084834984
 20
44.58723165015003
 10
-43.25011915165016
 20
44.58723165015003
 10
-43.34744471203229
 20
44.6112202462914
 10
-43.43620132169082
 20
44.65780330856142
 10
-43.51123076908955
 20
44.724273598703476
 10
-43.56817261546661
 20
44.8067681050642
 10
-43.60371760768576
 20
44.90049254678924
 10
-43.61580000000001
 20
45.0
 10
-43.60371760768576
 20
45.09950745321077
 10
-43.56817261546661
 20
45.1932318949358
 10
-43.51123076908955
 20
45.275726401296524
 10
-43.43620132169082
 20
45.34219669143858
 10
-43.34744471203229
 20
45.388779753708604
 10
-43.25011915165016
 20
45.412768349849976
 10
-43.14988084834984
 20
45.412768349849976
 10
-43.052555287967714
 20
45.388779753708604
 10
-42.96379867830918
 20
45.34219669143858
 10
-42.888769230910455
 20
45.275726401296524
 10
-42.8318273845334
 20
45.1932318949358
 10
-42.79628239231425
 20
45.09950745321077
 10
-42.7842
 20
45.0
  0
ENDSEC
  0
SECTION
  2
OBJECTS
  0
DICTIONARY
  5
A
330
0
100
AcDbDictionary
280
0
281
1
  3
ACAD_COLOR
350
B
  3
ACAD_GROUP
350
C
  3
ACAD_LAYOUT
350
D
  3
ACAD_MATERIAL
350
E
  3
ACAD_MLEADERSTYLE
350
F
  3
ACAD_MLINESTYLE
350
10
  3
ACAD_PLOTSETTINGS
350
11
  3
ACAD_PLOTSTYLENAME
350
12
  3
ACAD_SCALELIST
350
14
  3
ACAD_TABLESTYLE
350
15
  3
ACAD_VISUALSTYLE
350
16
  3
EZDXF_META
350
2D
  0
DICTIONARY
  5
B
330
A
100
AcDbDictionary
280
0
281
1
  0
DICTIONARY
  5
C
330
A
100
AcDbDictionary
280
0
281
1
  0
DICTIONARY
  5
D
330
A
100
AcDbDictionary
280
0
281
1
  3
Model
350
1A
  3
Layout1
350
1E
  0
DICTIONARY
  5
E
330
A
100
AcDbDictionary
280
0
281
1
  3
ByBlock
350
1F
  3
ByLayer
350
20
  3
Global
350
21
  0
DICTIONARY
  5
F
330
A
100
AcDbDictionary
280
0
281
1
  3
Standard
350
2C
  0
DICTIONARY
  5
10
330
A
100
AcDbDictionary
280
0
281
1
  3
Standard
350
22
  0
DICTIONARY
  5
11
330
A
100
AcDbDictionary
280
0
281
1
  0
ACDBDICTIONARYWDFLT
  5
12
330
A
100
AcDbDictionary
280
0
281
1
  3
Normal
350
13
100
AcDbDictionaryWithDefault
340
13
  0
ACDBPLACEHOLDER
  5
13
330
12
  0
DICTIONARY
  5
14
330
A
100
AcDbDictionary
280
0
281
1
  0
DICTIONARY
  5
15
330
A
100
AcDbDictionary
280
0
281
1
  0
DICTIONARY
  5
16
330
A
100
AcDbDictionary
280
0
281
1
  0
LAYOUT
  5
1A
330
D
100
AcDbPlotSettings
  1

  2
Adobe PDF
  4
A3
  6

 40
7.5
 41
20.0
 42
7.5
 43
20.0
 44
420.0
 45
297.0
 46
0.0
 47
0.0
 48
0.0
 49
0.0
140
0.0
141
0.0
142
1.0
143
1.0
 70
1024
 72
1
 73
0
 74
5
  7

 75
16
 76
0
 77
2
 78
300
147
1.0
148
0.0
149
0.0
100
AcDbLayout
  1
Model
 70
1
 71
0
 10
0.0
 20
0.0
 11
420.0
 21
297.0
 12
0.0
 22
0.0
 32
0.0
 14
1e+20
 24
1e+20
 34
1e+20
 15
-1e+20
 25
-1e+20
 35
-1e+20
146
0.0
 13
0.0
 23
0.0
 33
0.0
 16
1.0
 26
0.0
 36
0.0
 17
0.0
 27
1.0
 37
0.0
 76
1
330
17
  0
LAYOUT
  5
1E
330
D
100
AcDbPlotSettings
  1

  2
Adobe PDF
  4
A3
  6

 40
7.5
 41
20.0
 42
7.5
 43
20.0
 44
420.0
 45
297.0
 46
0.0
 47
0.0
 48
0.0
 49
0.0
140
0.0
141
0.0
142
1.0
143
1.0
 70
0
 72
1
 73
0
 74
5
  7

 75
16
 76
0
 77
2
 78
300
147
1.0
148
0.0
149
0.0
100
AcDbLayout
  1
Layout1
 70
1
 71
1
 10
0.0
 20
0.0
 11
420.0
 21
297.0
 12
0.0
 22
0.0
 32
0.0
 14
1e+20
 24
1e+20
 34
1e+20
 15
-1e+20
 25
-1e+20
 35
-1e+20
146
0.0
 13
0.0
 23
0.0
 33
0.0
 16
1.0
 26
0.0
 36
0.0
 17
0.0
 27
1.0
 37
0.0
 76
1
330
1B
  0
MATERIAL
  5
1F
102
{ACAD_REACTORS
330
E
102
}
330
E
100
AcDbMaterial
  1
ByBlock
  2

 70
0
 40
1.0
 71
1
 41
1.0
 91
-1023410177
 42
1.0
 72
1
  3

 73
1
 74
1
 75
1
 44
0.5
 73
0
 45
1.0
 46
1.0
 77
1
  4

 78
1
 79
1
170
1
 48
1.0
171
1
  6

172
1
173
1
174
1
140
1.0
141
1.0
175
1
  7

176
1
177
1
178
1
143
1.0
179
1
  8

270
1
271
1
272
1
145
1.0
146
1.0
273
1
  9

274
1
275
1
276
1
 42
1.0
 72
1
  3

 73
1
 74
1
 75
1
 94
63
  0
MATERIAL
  5
20
102
{ACAD_REACTORS
330
E
102
}
330
E
100
AcDbMaterial
  1
ByLayer
  2

 70
0
 40
1.0
 71
1
 41
1.0
 91
-1023410177
 42
1.0
 72
1
  3

 73
1
 74
1
 75
1
 44
0.5
 73
0
 45
1.0
 46
1.0
 77
1
  4

 78
1
 79
1
170
1
 48
1.0
171
1
  6

172
1
173
1
174
1
140
1.0
141
1.0
175
1
  7

176
1
177
1
178
1
143
1.0
179
1
  8

270
1
271
1
272
1
145
1.0
146
1.0
273
1
  9

274
1
275
1
276
1
 42
1.0
 72
1
  3

 73
1
 74
1
 75
1
 94
63
  0
MATERIAL
  5
21
102
{ACAD_REACTORS
330
E
102
}
330
E
100
AcDbMaterial
  1
Global
  2

 70
0
 40
1.0
 71
1
 41
1.0
 91
-1023410177
 42
1.0
 72
1
  3

 73
1
 74
1
 75
1
 44
0.5
 73
0
 45
1.0
 46
1.0
 77
1
  4

 78
1
 79
1
170
1
 48
1.0
171
1
  6

172
1
173
1
174
1
140
1.0
141
1.0
175
1
  7

176
1
177
1
178
1
143
1.0
179
1
  8

270
1
271
1
272
1
145
1.0
146
1.0
273
1
  9

274
1
275
1
276
1
 42
1.0
 72
1
  3

 73
1
 74
1
 75
1
 94
63
  0
MLINESTYLE
  5
22
102
{ACAD_REACTORS
330
10
102
}
330
10
100
AcDbMlineStyle
  2
Standard
 70
0
  3

 62
256
 51
90.0
 52
90.0
 71
2
 49
0.5
 62
256
  6
BYLAYER
 49
-0.5
 62
256
  6
BYLAYER
  0
MLEADERSTYLE
  5
2C
102
{ACAD_REACTORS
330
F
102
}
330
F
100
AcDbMLeaderStyle
179
2
170
2
171
1
172
0
 90
2
 40
0.0
 41
0.0
173
1
 91
-1056964608
 92
-2
290
1
 42
2.0
291
1
 43
8.0
  3
Standard
 44
4.0
300

342
29
174
1
175
1
176
0
178
1
 93
-1056964608
 45
4.0
292
0
297
0
 46
4.0
 94
-1056964608
 47
1.0
 49
1.0
140
1.0
294
1
141
0.0
177
0
142
1.0
295
0
296
0
143
3.75
271
0
272
9
273
9
  0
DICTIONARY
  5
2D
330
A
100
AcDbDictionary
281
1
  3
CREATED_BY_EZDXF
350
2E
  3
WRITTEN_BY_EZDXF
350
45
  0
DICTIONARYVAR
  5
2E
330
2D
100
DictionaryVariables
280
0
  1
1.1.4 @ 2026-02-23T18:43:48.821384+00:00
  0
DICTIONARYVAR
  5
45
330
2D
100
DictionaryVariables
280
0
  1
1.1.4 @ 2026-02-23T18:43:49.074642+00:00
  0
ENDSEC
  0
EOF
