<?xml version="1.0" encoding="UTF-8"?>
<svg xmlns="http://www.w3.org/2000/svg"
     width="28.8mm"
     height="36mm"
     viewBox="-11 34 8 10">
<g fill="transparent" stroke="#000" stroke-width="0.5" opacity="1">
  <path d="M -10 39.5 A 0.5 0.5 0 0 1 -10.5 39 A 0.5 0.5 0 0 1 -10 38.5 A 0.5 0.5 0 0 1 -10.5 38 A 0.5 0.5 0 0 1 -10 37.5 A 0.5 0.5 0 0 1 -9.5 38 A 0.5 0.5 0 0 1 -9 37.5 A 0.5 0.5 0 0 1 -9.5 37 A 0.5 0.5 0 0 1 -9 36.5 A 0.5 0.5 0 0 1 -8.5 37 L -8.5 36.5 L -8.5 36 A 0.5 0.5 0 0 1 -8 35.5 A 0.5 0.5 0 0 0 -7.5 35 A 0.5 0.5 0 0 1 -7 34.5 A 0.5 0.5 0 0 1 -6.5 35 A 0.5 0.5 0 0 0 -6 35.5 A 0.5 0.5 0 0 1 -5.5 36 L -5.5 36.5 L -5.5 37 A 0.5 0.5 0 0 1 -5 36.5 A 0.5 0.5 0 0 1 -4.5 37 A 0.5 0.5 0 0 1 -5 37.5 A 0.5 0.5 0 0 1 -4.5 38 A 0.5 0.5 0 0 1 -4 37.5 A 0.5 0.5 0 0 1 -3.5 38 A 0.5 0.5 0 0 1 -4 38.5 A 0.5 0.5 0 0 1 -3.5 39 A 0.5 0.5 0 0 1 -4 39.5 A 0.5 0.5 0 0 1 -3.5 40 A 0.5 0.5 0 0 1 -4 40.5 A 0.5 0.5 0 0 1 -4.5 40 A 0.5 0.5 0 0 1 -5 40.5 A 0.5 0.5 0 0 1 -4.5 41 A 0.5 0.5 0 0 1 -5 41.5 A 0.5 0.5 0 0 1 -5.5 41 L -5.5 41.5 L -5.5 42 A 0.5 0.5 0 0 1 -6 42.5 A 0.5 0.5 0 0 1 -6.5 42 L -6.5 42.5 L -6.5 43 A 0.5 0.5 0 0 1 -7 43.5 A 0.5 0.5 0 0 1 -7.5 43 L -7.5 42.5 L -7.5 42 A 0.5 0.5 0 0 1 -8 42.5 A 0.5 0.5 0 0 1 -8.5 42 L -8.5 41.5 L -8.5 41 A 0.5 0.5 0 0 1 -9 41.5 A 0.5 0.5 0 0 1 -9.5 41 A 0.5 0.5 0 0 1 -9 40.5 A 0.5 0.5 0 0 1 -9.5 40 A 0.5 0.5 0 0 1 -10 40.5 A 0.5 0.5 0 0 1 -10.5 40 A 0.5 0.5 0 0 1 -10 39.5 Z" />
</g>
</svg>